%TF.GenerationSoftware,KiCad,Pcbnew,(5.1.10)-1*%
%TF.CreationDate,2021-06-07T16:12:12-04:00*%
%TF.ProjectId,Thermometre_IR,54686572-6d6f-46d6-9574-72655f49522e,rev?*%
%TF.SameCoordinates,Original*%
%TF.FileFunction,Copper,L2,Bot*%
%TF.FilePolarity,Positive*%
%FSLAX46Y46*%
G04 Gerber Fmt 4.6, Leading zero omitted, Abs format (unit mm)*
G04 Created by KiCad (PCBNEW (5.1.10)-1) date 2021-06-07 16:12:12*
%MOMM*%
%LPD*%
G01*
G04 APERTURE LIST*
%TA.AperFunction,ComponentPad*%
%ADD10C,1.524000*%
%TD*%
%TA.AperFunction,SMDPad,CuDef*%
%ADD11R,3.700000X1.200000*%
%TD*%
%TA.AperFunction,SMDPad,CuDef*%
%ADD12R,1.800000X2.500000*%
%TD*%
%TA.AperFunction,ComponentPad*%
%ADD13C,1.600000*%
%TD*%
%TA.AperFunction,ComponentPad*%
%ADD14R,1.600000X1.600000*%
%TD*%
%TA.AperFunction,ComponentPad*%
%ADD15O,1.700000X1.700000*%
%TD*%
%TA.AperFunction,ComponentPad*%
%ADD16R,1.700000X1.700000*%
%TD*%
%TA.AperFunction,SMDPad,CuDef*%
%ADD17R,1.200000X0.900000*%
%TD*%
%TA.AperFunction,SMDPad,CuDef*%
%ADD18R,0.650000X1.060000*%
%TD*%
%TA.AperFunction,SMDPad,CuDef*%
%ADD19R,2.700000X2.700000*%
%TD*%
%TA.AperFunction,ComponentPad*%
%ADD20C,0.500000*%
%TD*%
%TA.AperFunction,SMDPad,CuDef*%
%ADD21R,0.900000X0.800000*%
%TD*%
%TA.AperFunction,SMDPad,CuDef*%
%ADD22R,0.510000X0.400000*%
%TD*%
%TA.AperFunction,ViaPad*%
%ADD23C,0.508000*%
%TD*%
%TA.AperFunction,ViaPad*%
%ADD24C,0.381000*%
%TD*%
%TA.AperFunction,Conductor*%
%ADD25C,0.406400*%
%TD*%
%TA.AperFunction,Conductor*%
%ADD26C,0.203200*%
%TD*%
%TA.AperFunction,Conductor*%
%ADD27C,0.254000*%
%TD*%
%TA.AperFunction,Conductor*%
%ADD28C,0.100000*%
%TD*%
G04 APERTURE END LIST*
D10*
%TO.P,J5,2*%
%TO.N,GND*%
X169082720Y-91292680D03*
%TO.P,J5,1*%
%TO.N,/D4*%
X173082720Y-91292680D03*
%TD*%
D11*
%TO.P,L1,2*%
%TO.N,Net-(L1-Pad2)*%
X176800000Y-98200000D03*
%TO.P,L1,1*%
%TO.N,+BATT*%
X176800000Y-101000000D03*
%TD*%
D12*
%TO.P,D6,2*%
%TO.N,Net-(D6-Pad2)*%
X170027600Y-77534000D03*
%TO.P,D6,1*%
%TO.N,+BATT*%
X170027600Y-81534000D03*
%TD*%
D13*
%TO.P,C10,2*%
%TO.N,GND*%
X169150000Y-96200000D03*
D14*
%TO.P,C10,1*%
%TO.N,Net-(C10-Pad1)*%
X169150000Y-93700000D03*
%TD*%
%TO.P,J1,3*%
%TO.N,+5V*%
%TA.AperFunction,SMDPad,CuDef*%
G36*
G01*
X174400000Y-69028000D02*
X174400000Y-67028000D01*
G75*
G02*
X174900000Y-66528000I500000J0D01*
G01*
X175900000Y-66528000D01*
G75*
G02*
X176400000Y-67028000I0J-500000D01*
G01*
X176400000Y-69028000D01*
G75*
G02*
X175900000Y-69528000I-500000J0D01*
G01*
X174900000Y-69528000D01*
G75*
G02*
X174400000Y-69028000I0J500000D01*
G01*
G37*
%TD.AperFunction*%
%TO.P,J1,4*%
%TO.N,GND*%
%TA.AperFunction,SMDPad,CuDef*%
G36*
G01*
X170600000Y-69028000D02*
X170600000Y-67028000D01*
G75*
G02*
X171100000Y-66528000I500000J0D01*
G01*
X172100000Y-66528000D01*
G75*
G02*
X172600000Y-67028000I0J-500000D01*
G01*
X172600000Y-69028000D01*
G75*
G02*
X172100000Y-69528000I-500000J0D01*
G01*
X171100000Y-69528000D01*
G75*
G02*
X170600000Y-69028000I0J500000D01*
G01*
G37*
%TD.AperFunction*%
%TD*%
%TO.P,R15,2*%
%TO.N,/SCL*%
%TA.AperFunction,SMDPad,CuDef*%
G36*
G01*
X168725000Y-65800000D02*
X169675000Y-65800000D01*
G75*
G02*
X169925000Y-66050000I0J-250000D01*
G01*
X169925000Y-66550000D01*
G75*
G02*
X169675000Y-66800000I-250000J0D01*
G01*
X168725000Y-66800000D01*
G75*
G02*
X168475000Y-66550000I0J250000D01*
G01*
X168475000Y-66050000D01*
G75*
G02*
X168725000Y-65800000I250000J0D01*
G01*
G37*
%TD.AperFunction*%
%TO.P,R15,1*%
%TO.N,+5V*%
%TA.AperFunction,SMDPad,CuDef*%
G36*
G01*
X168725000Y-63900000D02*
X169675000Y-63900000D01*
G75*
G02*
X169925000Y-64150000I0J-250000D01*
G01*
X169925000Y-64650000D01*
G75*
G02*
X169675000Y-64900000I-250000J0D01*
G01*
X168725000Y-64900000D01*
G75*
G02*
X168475000Y-64650000I0J250000D01*
G01*
X168475000Y-64150000D01*
G75*
G02*
X168725000Y-63900000I250000J0D01*
G01*
G37*
%TD.AperFunction*%
%TD*%
%TO.P,F1,2*%
%TO.N,Net-(C10-Pad1)*%
%TA.AperFunction,SMDPad,CuDef*%
G36*
G01*
X167825001Y-104875000D02*
X164974999Y-104875000D01*
G75*
G02*
X164725000Y-104625001I0J249999D01*
G01*
X164725000Y-103774999D01*
G75*
G02*
X164974999Y-103525000I249999J0D01*
G01*
X167825001Y-103525000D01*
G75*
G02*
X168075000Y-103774999I0J-249999D01*
G01*
X168075000Y-104625001D01*
G75*
G02*
X167825001Y-104875000I-249999J0D01*
G01*
G37*
%TD.AperFunction*%
%TO.P,F1,1*%
%TO.N,Net-(D4-Pad2)*%
%TA.AperFunction,SMDPad,CuDef*%
G36*
G01*
X167825001Y-110675000D02*
X164974999Y-110675000D01*
G75*
G02*
X164725000Y-110425001I0J249999D01*
G01*
X164725000Y-109574999D01*
G75*
G02*
X164974999Y-109325000I249999J0D01*
G01*
X167825001Y-109325000D01*
G75*
G02*
X168075000Y-109574999I0J-249999D01*
G01*
X168075000Y-110425001D01*
G75*
G02*
X167825001Y-110675000I-249999J0D01*
G01*
G37*
%TD.AperFunction*%
%TD*%
D15*
%TO.P,J4,6*%
%TO.N,GND*%
X180900000Y-69300000D03*
%TO.P,J4,5*%
%TO.N,/SCK*%
X181000000Y-71840000D03*
%TO.P,J4,4*%
%TO.N,/Miso*%
X180900000Y-74380000D03*
%TO.P,J4,3*%
%TO.N,/Mosi*%
X181000000Y-76920000D03*
%TO.P,J4,2*%
%TO.N,/Reset*%
X180900000Y-79500000D03*
D16*
%TO.P,J4,1*%
%TO.N,+5V*%
X181000000Y-82000000D03*
%TD*%
D17*
%TO.P,D4,2*%
%TO.N,Net-(D4-Pad2)*%
X169600000Y-109700000D03*
%TO.P,D4,1*%
%TO.N,+5V*%
X169600000Y-106400000D03*
%TD*%
D15*
%TO.P,J7,2*%
%TO.N,GND*%
X166600000Y-71000000D03*
D16*
%TO.P,J7,1*%
%TO.N,Net-(D6-Pad2)*%
X166600000Y-68460000D03*
%TD*%
D18*
%TO.P,U3,5*%
%TO.N,Net-(R9-Pad2)*%
X169900000Y-85300000D03*
%TO.P,U3,4*%
%TO.N,Net-(C8-Pad1)*%
X168000000Y-85300000D03*
%TO.P,U3,3*%
%TO.N,+BATT*%
X168000000Y-87500000D03*
%TO.P,U3,2*%
%TO.N,GND*%
X168950000Y-87500000D03*
%TO.P,U3,1*%
%TO.N,Net-(R5-Pad1)*%
X169900000Y-87500000D03*
%TD*%
D19*
%TO.P,U2,17*%
%TO.N,GND*%
X169650000Y-100200000D03*
D20*
X168550000Y-101300000D03*
X168550000Y-100200000D03*
X168550000Y-99100000D03*
X169650000Y-101300000D03*
X169650000Y-100200000D03*
X169650000Y-99100000D03*
X170750000Y-101300000D03*
X170750000Y-100200000D03*
X170750000Y-99100000D03*
%TD*%
%TO.P,R12,2*%
%TO.N,/A0*%
%TA.AperFunction,SMDPad,CuDef*%
G36*
G01*
X169525000Y-74500000D02*
X170475000Y-74500000D01*
G75*
G02*
X170725000Y-74750000I0J-250000D01*
G01*
X170725000Y-75250000D01*
G75*
G02*
X170475000Y-75500000I-250000J0D01*
G01*
X169525000Y-75500000D01*
G75*
G02*
X169275000Y-75250000I0J250000D01*
G01*
X169275000Y-74750000D01*
G75*
G02*
X169525000Y-74500000I250000J0D01*
G01*
G37*
%TD.AperFunction*%
%TO.P,R12,1*%
%TO.N,+BATT*%
%TA.AperFunction,SMDPad,CuDef*%
G36*
G01*
X169525000Y-72600000D02*
X170475000Y-72600000D01*
G75*
G02*
X170725000Y-72850000I0J-250000D01*
G01*
X170725000Y-73350000D01*
G75*
G02*
X170475000Y-73600000I-250000J0D01*
G01*
X169525000Y-73600000D01*
G75*
G02*
X169275000Y-73350000I0J250000D01*
G01*
X169275000Y-72850000D01*
G75*
G02*
X169525000Y-72600000I250000J0D01*
G01*
G37*
%TD.AperFunction*%
%TD*%
%TO.P,R11,2*%
%TO.N,GND*%
%TA.AperFunction,SMDPad,CuDef*%
G36*
G01*
X172200000Y-107725000D02*
X172200000Y-108675000D01*
G75*
G02*
X171950000Y-108925000I-250000J0D01*
G01*
X171450000Y-108925000D01*
G75*
G02*
X171200000Y-108675000I0J250000D01*
G01*
X171200000Y-107725000D01*
G75*
G02*
X171450000Y-107475000I250000J0D01*
G01*
X171950000Y-107475000D01*
G75*
G02*
X172200000Y-107725000I0J-250000D01*
G01*
G37*
%TD.AperFunction*%
%TO.P,R11,1*%
%TO.N,Net-(D5-Pad1)*%
%TA.AperFunction,SMDPad,CuDef*%
G36*
G01*
X174100000Y-107725000D02*
X174100000Y-108675000D01*
G75*
G02*
X173850000Y-108925000I-250000J0D01*
G01*
X173350000Y-108925000D01*
G75*
G02*
X173100000Y-108675000I0J250000D01*
G01*
X173100000Y-107725000D01*
G75*
G02*
X173350000Y-107475000I250000J0D01*
G01*
X173850000Y-107475000D01*
G75*
G02*
X174100000Y-107725000I0J-250000D01*
G01*
G37*
%TD.AperFunction*%
%TD*%
%TO.P,R10,2*%
%TO.N,Net-(D3-Pad2)*%
%TA.AperFunction,SMDPad,CuDef*%
G36*
G01*
X173100000Y-106475000D02*
X173100000Y-105525000D01*
G75*
G02*
X173350000Y-105275000I250000J0D01*
G01*
X173850000Y-105275000D01*
G75*
G02*
X174100000Y-105525000I0J-250000D01*
G01*
X174100000Y-106475000D01*
G75*
G02*
X173850000Y-106725000I-250000J0D01*
G01*
X173350000Y-106725000D01*
G75*
G02*
X173100000Y-106475000I0J250000D01*
G01*
G37*
%TD.AperFunction*%
%TO.P,R10,1*%
%TO.N,Net-(Q1-Pad3)*%
%TA.AperFunction,SMDPad,CuDef*%
G36*
G01*
X171200000Y-106475000D02*
X171200000Y-105525000D01*
G75*
G02*
X171450000Y-105275000I250000J0D01*
G01*
X171950000Y-105275000D01*
G75*
G02*
X172200000Y-105525000I0J-250000D01*
G01*
X172200000Y-106475000D01*
G75*
G02*
X171950000Y-106725000I-250000J0D01*
G01*
X171450000Y-106725000D01*
G75*
G02*
X171200000Y-106475000I0J250000D01*
G01*
G37*
%TD.AperFunction*%
%TD*%
%TO.P,R9,2*%
%TO.N,Net-(R9-Pad2)*%
%TA.AperFunction,SMDPad,CuDef*%
G36*
G01*
X166075000Y-86100000D02*
X165125000Y-86100000D01*
G75*
G02*
X164875000Y-85850000I0J250000D01*
G01*
X164875000Y-85350000D01*
G75*
G02*
X165125000Y-85100000I250000J0D01*
G01*
X166075000Y-85100000D01*
G75*
G02*
X166325000Y-85350000I0J-250000D01*
G01*
X166325000Y-85850000D01*
G75*
G02*
X166075000Y-86100000I-250000J0D01*
G01*
G37*
%TD.AperFunction*%
%TO.P,R9,1*%
%TO.N,GND*%
%TA.AperFunction,SMDPad,CuDef*%
G36*
G01*
X166075000Y-88000000D02*
X165125000Y-88000000D01*
G75*
G02*
X164875000Y-87750000I0J250000D01*
G01*
X164875000Y-87250000D01*
G75*
G02*
X165125000Y-87000000I250000J0D01*
G01*
X166075000Y-87000000D01*
G75*
G02*
X166325000Y-87250000I0J-250000D01*
G01*
X166325000Y-87750000D01*
G75*
G02*
X166075000Y-88000000I-250000J0D01*
G01*
G37*
%TD.AperFunction*%
%TD*%
%TO.P,R8,2*%
%TO.N,Net-(R5-Pad1)*%
%TA.AperFunction,SMDPad,CuDef*%
G36*
G01*
X172100000Y-87525000D02*
X172100000Y-88475000D01*
G75*
G02*
X171850000Y-88725000I-250000J0D01*
G01*
X171350000Y-88725000D01*
G75*
G02*
X171100000Y-88475000I0J250000D01*
G01*
X171100000Y-87525000D01*
G75*
G02*
X171350000Y-87275000I250000J0D01*
G01*
X171850000Y-87275000D01*
G75*
G02*
X172100000Y-87525000I0J-250000D01*
G01*
G37*
%TD.AperFunction*%
%TO.P,R8,1*%
%TO.N,Net-(D2-Pad2)*%
%TA.AperFunction,SMDPad,CuDef*%
G36*
G01*
X174000000Y-87525000D02*
X174000000Y-88475000D01*
G75*
G02*
X173750000Y-88725000I-250000J0D01*
G01*
X173250000Y-88725000D01*
G75*
G02*
X173000000Y-88475000I0J250000D01*
G01*
X173000000Y-87525000D01*
G75*
G02*
X173250000Y-87275000I250000J0D01*
G01*
X173750000Y-87275000D01*
G75*
G02*
X174000000Y-87525000I0J-250000D01*
G01*
G37*
%TD.AperFunction*%
%TD*%
%TO.P,R5,2*%
%TO.N,Net-(D1-Pad1)*%
%TA.AperFunction,SMDPad,CuDef*%
G36*
G01*
X173000000Y-85975000D02*
X173000000Y-85025000D01*
G75*
G02*
X173250000Y-84775000I250000J0D01*
G01*
X173750000Y-84775000D01*
G75*
G02*
X174000000Y-85025000I0J-250000D01*
G01*
X174000000Y-85975000D01*
G75*
G02*
X173750000Y-86225000I-250000J0D01*
G01*
X173250000Y-86225000D01*
G75*
G02*
X173000000Y-85975000I0J250000D01*
G01*
G37*
%TD.AperFunction*%
%TO.P,R5,1*%
%TO.N,Net-(R5-Pad1)*%
%TA.AperFunction,SMDPad,CuDef*%
G36*
G01*
X171100000Y-85975000D02*
X171100000Y-85025000D01*
G75*
G02*
X171350000Y-84775000I250000J0D01*
G01*
X171850000Y-84775000D01*
G75*
G02*
X172100000Y-85025000I0J-250000D01*
G01*
X172100000Y-85975000D01*
G75*
G02*
X171850000Y-86225000I-250000J0D01*
G01*
X171350000Y-86225000D01*
G75*
G02*
X171100000Y-85975000I0J250000D01*
G01*
G37*
%TD.AperFunction*%
%TD*%
%TO.P,R3,2*%
%TO.N,GND*%
%TA.AperFunction,SMDPad,CuDef*%
G36*
G01*
X165900000Y-100925000D02*
X165900000Y-101875000D01*
G75*
G02*
X165650000Y-102125000I-250000J0D01*
G01*
X165150000Y-102125000D01*
G75*
G02*
X164900000Y-101875000I0J250000D01*
G01*
X164900000Y-100925000D01*
G75*
G02*
X165150000Y-100675000I250000J0D01*
G01*
X165650000Y-100675000D01*
G75*
G02*
X165900000Y-100925000I0J-250000D01*
G01*
G37*
%TD.AperFunction*%
%TO.P,R3,1*%
%TO.N,Net-(R2-Pad2)*%
%TA.AperFunction,SMDPad,CuDef*%
G36*
G01*
X167800000Y-100925000D02*
X167800000Y-101875000D01*
G75*
G02*
X167550000Y-102125000I-250000J0D01*
G01*
X167050000Y-102125000D01*
G75*
G02*
X166800000Y-101875000I0J250000D01*
G01*
X166800000Y-100925000D01*
G75*
G02*
X167050000Y-100675000I250000J0D01*
G01*
X167550000Y-100675000D01*
G75*
G02*
X167800000Y-100925000I0J-250000D01*
G01*
G37*
%TD.AperFunction*%
%TD*%
%TO.P,R2,2*%
%TO.N,Net-(R2-Pad2)*%
%TA.AperFunction,SMDPad,CuDef*%
G36*
G01*
X166800000Y-99675000D02*
X166800000Y-98725000D01*
G75*
G02*
X167050000Y-98475000I250000J0D01*
G01*
X167550000Y-98475000D01*
G75*
G02*
X167800000Y-98725000I0J-250000D01*
G01*
X167800000Y-99675000D01*
G75*
G02*
X167550000Y-99925000I-250000J0D01*
G01*
X167050000Y-99925000D01*
G75*
G02*
X166800000Y-99675000I0J250000D01*
G01*
G37*
%TD.AperFunction*%
%TO.P,R2,1*%
%TO.N,+BATT*%
%TA.AperFunction,SMDPad,CuDef*%
G36*
G01*
X164900000Y-99675000D02*
X164900000Y-98725000D01*
G75*
G02*
X165150000Y-98475000I250000J0D01*
G01*
X165650000Y-98475000D01*
G75*
G02*
X165900000Y-98725000I0J-250000D01*
G01*
X165900000Y-99675000D01*
G75*
G02*
X165650000Y-99925000I-250000J0D01*
G01*
X165150000Y-99925000D01*
G75*
G02*
X164900000Y-99675000I0J250000D01*
G01*
G37*
%TD.AperFunction*%
%TD*%
D21*
%TO.P,Q2,3*%
%TO.N,Net-(J3-Pad2)*%
X175971200Y-78650000D03*
%TO.P,Q2,2*%
%TO.N,GND*%
X173971200Y-77700000D03*
%TO.P,Q2,1*%
%TO.N,/D2_digital_io*%
X173971200Y-79600000D03*
%TD*%
D22*
%TO.P,Q1,2*%
%TO.N,+BATT*%
X169310000Y-103100000D03*
%TO.P,Q1,3*%
%TO.N,Net-(Q1-Pad3)*%
X170600000Y-103600000D03*
%TO.P,Q1,1*%
%TO.N,Net-(Q1-Pad1)*%
X169310000Y-104100000D03*
%TD*%
D15*
%TO.P,J6,2*%
%TO.N,Net-(C8-Pad1)*%
X180800000Y-110140000D03*
D16*
%TO.P,J6,1*%
%TO.N,GND*%
X180800000Y-107600000D03*
%TD*%
D15*
%TO.P,J3,2*%
%TO.N,Net-(J3-Pad2)*%
X178790000Y-91500000D03*
D16*
%TO.P,J3,1*%
%TO.N,+5V*%
X176250000Y-91500000D03*
%TD*%
D15*
%TO.P,J2,4*%
%TO.N,/SDA*%
X166600000Y-74600000D03*
%TO.P,J2,3*%
%TO.N,/SCL*%
X166600000Y-77140000D03*
%TO.P,J2,2*%
%TO.N,+5V*%
X166600000Y-79680000D03*
D16*
%TO.P,J2,1*%
%TO.N,GND*%
X166600000Y-82220000D03*
%TD*%
%TO.P,D5,2*%
%TO.N,Net-(D4-Pad2)*%
%TA.AperFunction,SMDPad,CuDef*%
G36*
G01*
X176512500Y-109643750D02*
X176512500Y-110556250D01*
G75*
G02*
X176268750Y-110800000I-243750J0D01*
G01*
X175781250Y-110800000D01*
G75*
G02*
X175537500Y-110556250I0J243750D01*
G01*
X175537500Y-109643750D01*
G75*
G02*
X175781250Y-109400000I243750J0D01*
G01*
X176268750Y-109400000D01*
G75*
G02*
X176512500Y-109643750I0J-243750D01*
G01*
G37*
%TD.AperFunction*%
%TO.P,D5,1*%
%TO.N,Net-(D5-Pad1)*%
%TA.AperFunction,SMDPad,CuDef*%
G36*
G01*
X178387500Y-109643750D02*
X178387500Y-110556250D01*
G75*
G02*
X178143750Y-110800000I-243750J0D01*
G01*
X177656250Y-110800000D01*
G75*
G02*
X177412500Y-110556250I0J243750D01*
G01*
X177412500Y-109643750D01*
G75*
G02*
X177656250Y-109400000I243750J0D01*
G01*
X178143750Y-109400000D01*
G75*
G02*
X178387500Y-109643750I0J-243750D01*
G01*
G37*
%TD.AperFunction*%
%TD*%
%TO.P,D3,2*%
%TO.N,Net-(D3-Pad2)*%
%TA.AperFunction,SMDPad,CuDef*%
G36*
G01*
X176512500Y-107343750D02*
X176512500Y-108256250D01*
G75*
G02*
X176268750Y-108500000I-243750J0D01*
G01*
X175781250Y-108500000D01*
G75*
G02*
X175537500Y-108256250I0J243750D01*
G01*
X175537500Y-107343750D01*
G75*
G02*
X175781250Y-107100000I243750J0D01*
G01*
X176268750Y-107100000D01*
G75*
G02*
X176512500Y-107343750I0J-243750D01*
G01*
G37*
%TD.AperFunction*%
%TO.P,D3,1*%
%TO.N,GND*%
%TA.AperFunction,SMDPad,CuDef*%
G36*
G01*
X178387500Y-107343750D02*
X178387500Y-108256250D01*
G75*
G02*
X178143750Y-108500000I-243750J0D01*
G01*
X177656250Y-108500000D01*
G75*
G02*
X177412500Y-108256250I0J243750D01*
G01*
X177412500Y-107343750D01*
G75*
G02*
X177656250Y-107100000I243750J0D01*
G01*
X178143750Y-107100000D01*
G75*
G02*
X178387500Y-107343750I0J-243750D01*
G01*
G37*
%TD.AperFunction*%
%TD*%
%TO.P,D2,2*%
%TO.N,Net-(D2-Pad2)*%
%TA.AperFunction,SMDPad,CuDef*%
G36*
G01*
X176487500Y-87543750D02*
X176487500Y-88456250D01*
G75*
G02*
X176243750Y-88700000I-243750J0D01*
G01*
X175756250Y-88700000D01*
G75*
G02*
X175512500Y-88456250I0J243750D01*
G01*
X175512500Y-87543750D01*
G75*
G02*
X175756250Y-87300000I243750J0D01*
G01*
X176243750Y-87300000D01*
G75*
G02*
X176487500Y-87543750I0J-243750D01*
G01*
G37*
%TD.AperFunction*%
%TO.P,D2,1*%
%TO.N,GND*%
%TA.AperFunction,SMDPad,CuDef*%
G36*
G01*
X178362500Y-87543750D02*
X178362500Y-88456250D01*
G75*
G02*
X178118750Y-88700000I-243750J0D01*
G01*
X177631250Y-88700000D01*
G75*
G02*
X177387500Y-88456250I0J243750D01*
G01*
X177387500Y-87543750D01*
G75*
G02*
X177631250Y-87300000I243750J0D01*
G01*
X178118750Y-87300000D01*
G75*
G02*
X178362500Y-87543750I0J-243750D01*
G01*
G37*
%TD.AperFunction*%
%TD*%
%TO.P,D1,2*%
%TO.N,Net-(C8-Pad1)*%
%TA.AperFunction,SMDPad,CuDef*%
G36*
G01*
X176487500Y-84943750D02*
X176487500Y-85856250D01*
G75*
G02*
X176243750Y-86100000I-243750J0D01*
G01*
X175756250Y-86100000D01*
G75*
G02*
X175512500Y-85856250I0J243750D01*
G01*
X175512500Y-84943750D01*
G75*
G02*
X175756250Y-84700000I243750J0D01*
G01*
X176243750Y-84700000D01*
G75*
G02*
X176487500Y-84943750I0J-243750D01*
G01*
G37*
%TD.AperFunction*%
%TO.P,D1,1*%
%TO.N,Net-(D1-Pad1)*%
%TA.AperFunction,SMDPad,CuDef*%
G36*
G01*
X178362500Y-84943750D02*
X178362500Y-85856250D01*
G75*
G02*
X178118750Y-86100000I-243750J0D01*
G01*
X177631250Y-86100000D01*
G75*
G02*
X177387500Y-85856250I0J243750D01*
G01*
X177387500Y-84943750D01*
G75*
G02*
X177631250Y-84700000I243750J0D01*
G01*
X178118750Y-84700000D01*
G75*
G02*
X178362500Y-84943750I0J-243750D01*
G01*
G37*
%TD.AperFunction*%
%TD*%
%TO.P,C12,2*%
%TO.N,GND*%
%TA.AperFunction,SMDPad,CuDef*%
G36*
G01*
X177325000Y-70000000D02*
X178275000Y-70000000D01*
G75*
G02*
X178525000Y-70250000I0J-250000D01*
G01*
X178525000Y-70750000D01*
G75*
G02*
X178275000Y-71000000I-250000J0D01*
G01*
X177325000Y-71000000D01*
G75*
G02*
X177075000Y-70750000I0J250000D01*
G01*
X177075000Y-70250000D01*
G75*
G02*
X177325000Y-70000000I250000J0D01*
G01*
G37*
%TD.AperFunction*%
%TO.P,C12,1*%
%TO.N,+5V*%
%TA.AperFunction,SMDPad,CuDef*%
G36*
G01*
X177325000Y-68100000D02*
X178275000Y-68100000D01*
G75*
G02*
X178525000Y-68350000I0J-250000D01*
G01*
X178525000Y-68850000D01*
G75*
G02*
X178275000Y-69100000I-250000J0D01*
G01*
X177325000Y-69100000D01*
G75*
G02*
X177075000Y-68850000I0J250000D01*
G01*
X177075000Y-68350000D01*
G75*
G02*
X177325000Y-68100000I250000J0D01*
G01*
G37*
%TD.AperFunction*%
%TD*%
%TO.P,C8,2*%
%TO.N,GND*%
%TA.AperFunction,SMDPad,CuDef*%
G36*
G01*
X172200000Y-109925000D02*
X172200000Y-110875000D01*
G75*
G02*
X171950000Y-111125000I-250000J0D01*
G01*
X171450000Y-111125000D01*
G75*
G02*
X171200000Y-110875000I0J250000D01*
G01*
X171200000Y-109925000D01*
G75*
G02*
X171450000Y-109675000I250000J0D01*
G01*
X171950000Y-109675000D01*
G75*
G02*
X172200000Y-109925000I0J-250000D01*
G01*
G37*
%TD.AperFunction*%
%TO.P,C8,1*%
%TO.N,Net-(C8-Pad1)*%
%TA.AperFunction,SMDPad,CuDef*%
G36*
G01*
X174100000Y-109925000D02*
X174100000Y-110875000D01*
G75*
G02*
X173850000Y-111125000I-250000J0D01*
G01*
X173350000Y-111125000D01*
G75*
G02*
X173100000Y-110875000I0J250000D01*
G01*
X173100000Y-109925000D01*
G75*
G02*
X173350000Y-109675000I250000J0D01*
G01*
X173850000Y-109675000D01*
G75*
G02*
X174100000Y-109925000I0J-250000D01*
G01*
G37*
%TD.AperFunction*%
%TD*%
%TO.P,C7,2*%
%TO.N,GND*%
%TA.AperFunction,SMDPad,CuDef*%
G36*
G01*
X165900000Y-94325000D02*
X165900000Y-95275000D01*
G75*
G02*
X165650000Y-95525000I-250000J0D01*
G01*
X165150000Y-95525000D01*
G75*
G02*
X164900000Y-95275000I0J250000D01*
G01*
X164900000Y-94325000D01*
G75*
G02*
X165150000Y-94075000I250000J0D01*
G01*
X165650000Y-94075000D01*
G75*
G02*
X165900000Y-94325000I0J-250000D01*
G01*
G37*
%TD.AperFunction*%
%TO.P,C7,1*%
%TO.N,+BATT*%
%TA.AperFunction,SMDPad,CuDef*%
G36*
G01*
X167800000Y-94325000D02*
X167800000Y-95275000D01*
G75*
G02*
X167550000Y-95525000I-250000J0D01*
G01*
X167050000Y-95525000D01*
G75*
G02*
X166800000Y-95275000I0J250000D01*
G01*
X166800000Y-94325000D01*
G75*
G02*
X167050000Y-94075000I250000J0D01*
G01*
X167550000Y-94075000D01*
G75*
G02*
X167800000Y-94325000I0J-250000D01*
G01*
G37*
%TD.AperFunction*%
%TD*%
%TO.P,C6,2*%
%TO.N,GND*%
%TA.AperFunction,SMDPad,CuDef*%
G36*
G01*
X165900000Y-96525000D02*
X165900000Y-97475000D01*
G75*
G02*
X165650000Y-97725000I-250000J0D01*
G01*
X165150000Y-97725000D01*
G75*
G02*
X164900000Y-97475000I0J250000D01*
G01*
X164900000Y-96525000D01*
G75*
G02*
X165150000Y-96275000I250000J0D01*
G01*
X165650000Y-96275000D01*
G75*
G02*
X165900000Y-96525000I0J-250000D01*
G01*
G37*
%TD.AperFunction*%
%TO.P,C6,1*%
%TO.N,+BATT*%
%TA.AperFunction,SMDPad,CuDef*%
G36*
G01*
X167800000Y-96525000D02*
X167800000Y-97475000D01*
G75*
G02*
X167550000Y-97725000I-250000J0D01*
G01*
X167050000Y-97725000D01*
G75*
G02*
X166800000Y-97475000I0J250000D01*
G01*
X166800000Y-96525000D01*
G75*
G02*
X167050000Y-96275000I250000J0D01*
G01*
X167550000Y-96275000D01*
G75*
G02*
X167800000Y-96525000I0J-250000D01*
G01*
G37*
%TD.AperFunction*%
%TD*%
%TO.P,C5,2*%
%TO.N,GND*%
%TA.AperFunction,SMDPad,CuDef*%
G36*
G01*
X178275000Y-73600000D02*
X177325000Y-73600000D01*
G75*
G02*
X177075000Y-73350000I0J250000D01*
G01*
X177075000Y-72850000D01*
G75*
G02*
X177325000Y-72600000I250000J0D01*
G01*
X178275000Y-72600000D01*
G75*
G02*
X178525000Y-72850000I0J-250000D01*
G01*
X178525000Y-73350000D01*
G75*
G02*
X178275000Y-73600000I-250000J0D01*
G01*
G37*
%TD.AperFunction*%
%TO.P,C5,1*%
%TO.N,+5V*%
%TA.AperFunction,SMDPad,CuDef*%
G36*
G01*
X178275000Y-75500000D02*
X177325000Y-75500000D01*
G75*
G02*
X177075000Y-75250000I0J250000D01*
G01*
X177075000Y-74750000D01*
G75*
G02*
X177325000Y-74500000I250000J0D01*
G01*
X178275000Y-74500000D01*
G75*
G02*
X178525000Y-74750000I0J-250000D01*
G01*
X178525000Y-75250000D01*
G75*
G02*
X178275000Y-75500000I-250000J0D01*
G01*
G37*
%TD.AperFunction*%
%TD*%
%TO.P,C4,2*%
%TO.N,GND*%
%TA.AperFunction,SMDPad,CuDef*%
G36*
G01*
X175675000Y-73600000D02*
X174725000Y-73600000D01*
G75*
G02*
X174475000Y-73350000I0J250000D01*
G01*
X174475000Y-72850000D01*
G75*
G02*
X174725000Y-72600000I250000J0D01*
G01*
X175675000Y-72600000D01*
G75*
G02*
X175925000Y-72850000I0J-250000D01*
G01*
X175925000Y-73350000D01*
G75*
G02*
X175675000Y-73600000I-250000J0D01*
G01*
G37*
%TD.AperFunction*%
%TO.P,C4,1*%
%TO.N,+5V*%
%TA.AperFunction,SMDPad,CuDef*%
G36*
G01*
X175675000Y-75500000D02*
X174725000Y-75500000D01*
G75*
G02*
X174475000Y-75250000I0J250000D01*
G01*
X174475000Y-74750000D01*
G75*
G02*
X174725000Y-74500000I250000J0D01*
G01*
X175675000Y-74500000D01*
G75*
G02*
X175925000Y-74750000I0J-250000D01*
G01*
X175925000Y-75250000D01*
G75*
G02*
X175675000Y-75500000I-250000J0D01*
G01*
G37*
%TD.AperFunction*%
%TD*%
%TO.P,C3,2*%
%TO.N,GND*%
%TA.AperFunction,SMDPad,CuDef*%
G36*
G01*
X173075000Y-73600000D02*
X172125000Y-73600000D01*
G75*
G02*
X171875000Y-73350000I0J250000D01*
G01*
X171875000Y-72850000D01*
G75*
G02*
X172125000Y-72600000I250000J0D01*
G01*
X173075000Y-72600000D01*
G75*
G02*
X173325000Y-72850000I0J-250000D01*
G01*
X173325000Y-73350000D01*
G75*
G02*
X173075000Y-73600000I-250000J0D01*
G01*
G37*
%TD.AperFunction*%
%TO.P,C3,1*%
%TO.N,+5V*%
%TA.AperFunction,SMDPad,CuDef*%
G36*
G01*
X173075000Y-75500000D02*
X172125000Y-75500000D01*
G75*
G02*
X171875000Y-75250000I0J250000D01*
G01*
X171875000Y-74750000D01*
G75*
G02*
X172125000Y-74500000I250000J0D01*
G01*
X173075000Y-74500000D01*
G75*
G02*
X173325000Y-74750000I0J-250000D01*
G01*
X173325000Y-75250000D01*
G75*
G02*
X173075000Y-75500000I-250000J0D01*
G01*
G37*
%TD.AperFunction*%
%TD*%
D23*
%TO.N,GND*%
X166300000Y-96975000D03*
X179125000Y-88725000D03*
X173000000Y-92800000D03*
X174000000Y-97000000D03*
X168913621Y-83407167D03*
X169000000Y-85400000D03*
X165599996Y-88800000D03*
X173400000Y-71000000D03*
X170600000Y-70600000D03*
X170669022Y-110400000D03*
X165657210Y-101343594D03*
X166400000Y-106350000D03*
X166190000Y-94860000D03*
X169520000Y-107720000D03*
X172875000Y-75965080D03*
X174975310Y-77270817D03*
%TO.N,+5V*%
X179400000Y-68600000D03*
X180962501Y-89462501D03*
X179400000Y-70450000D03*
X175052989Y-83147011D03*
X170909006Y-104833445D03*
%TO.N,+BATT*%
X166320395Y-100479605D03*
X176800000Y-103989002D03*
D24*
%TO.N,Net-(C8-Pad1)*%
X174600000Y-110107890D03*
X179568710Y-94600000D03*
D23*
%TO.N,Net-(C10-Pad1)*%
X165000000Y-102831181D03*
D24*
%TO.N,/SDA*%
X174025000Y-74806290D03*
X174800000Y-71600000D03*
%TO.N,/SCL*%
X171600000Y-65800000D03*
%TO.N,Net-(J3-Pad2)*%
X180247968Y-90093711D03*
%TO.N,/Reset*%
X178435569Y-82606300D03*
X174244000Y-78740000D03*
%TO.N,/D4*%
X172481224Y-83679142D03*
X174203078Y-86506280D03*
%TO.N,Net-(L1-Pad2)*%
X169325000Y-97475000D03*
%TO.N,Net-(Q1-Pad1)*%
X170600000Y-103009480D03*
%TO.N,Net-(R2-Pad2)*%
X168200000Y-102400000D03*
%TO.N,Net-(R9-Pad2)*%
X168643798Y-84542856D03*
X165799998Y-84500000D03*
%TO.N,/A0*%
X170027600Y-74066400D03*
%TO.N,/A1*%
X178000000Y-82107890D03*
X173505526Y-76520690D03*
%TO.N,/D2_digital_io*%
X173612213Y-78745372D03*
%TD*%
D25*
%TO.N,GND*%
X165400000Y-94800000D02*
X165400000Y-97000000D01*
X165425000Y-96975000D02*
X165400000Y-97000000D01*
X166300000Y-96975000D02*
X165425000Y-96975000D01*
X178600000Y-88725000D02*
X177875000Y-88000000D01*
X179125000Y-88725000D02*
X178600000Y-88725000D01*
X172600000Y-73100000D02*
X172600000Y-71228000D01*
X179000000Y-69300000D02*
X177800000Y-70500000D01*
X180900000Y-69300000D02*
X179000000Y-69300000D01*
X168950000Y-87500000D02*
X168950000Y-88825000D01*
X168950000Y-88825000D02*
X168949995Y-88824995D01*
X171645507Y-90029809D02*
X171594716Y-90080600D01*
X177875000Y-88000000D02*
X175845191Y-90029809D01*
X175200000Y-73100000D02*
X177800000Y-73100000D01*
X177800000Y-70500000D02*
X177800000Y-73100000D01*
X168950000Y-85450000D02*
X169000000Y-85400000D01*
X168950000Y-87500000D02*
X168950000Y-85450000D01*
X170750000Y-99100000D02*
X170450000Y-98800000D01*
X169950000Y-98800000D02*
X169650000Y-99100000D01*
X170450000Y-98800000D02*
X169950000Y-98800000D01*
X168550000Y-99100000D02*
X168850000Y-98800000D01*
X169350000Y-98800000D02*
X169650000Y-99100000D01*
X168850000Y-98800000D02*
X169350000Y-98800000D01*
X170750000Y-99100000D02*
X171050000Y-99400000D01*
X171050000Y-99900000D02*
X170750000Y-100200000D01*
X171050000Y-99400000D02*
X171050000Y-99900000D01*
X169650000Y-100200000D02*
X170650000Y-100200000D01*
X170650000Y-100200000D02*
X171050000Y-100600000D01*
X171050000Y-101000000D02*
X170750000Y-101300000D01*
X171050000Y-100600000D02*
X171050000Y-101000000D01*
X168550000Y-101300000D02*
X168850000Y-101600000D01*
X169350000Y-101600000D02*
X169650000Y-101300000D01*
X168850000Y-101600000D02*
X169350000Y-101600000D01*
X173833161Y-104042790D02*
X174192371Y-104042790D01*
X172650000Y-105225951D02*
X173833161Y-104042790D01*
X172650000Y-107250000D02*
X172650000Y-105225951D01*
X171700000Y-108200000D02*
X172650000Y-107250000D01*
X171400000Y-100650000D02*
X171400000Y-99000000D01*
X171400000Y-99000000D02*
X170800000Y-98400000D01*
X170750000Y-101300000D02*
X171400000Y-100650000D01*
X168550000Y-99100000D02*
X168550000Y-98650000D01*
X169650000Y-100200000D02*
X171600000Y-100200000D01*
X171300000Y-99100000D02*
X171400000Y-99000000D01*
X170750000Y-99100000D02*
X171300000Y-99100000D01*
X170750000Y-98450000D02*
X170800000Y-98400000D01*
X170750000Y-99100000D02*
X170750000Y-98450000D01*
X169650000Y-98550000D02*
X169800000Y-98400000D01*
X169650000Y-100200000D02*
X169650000Y-98550000D01*
X170800000Y-98400000D02*
X169800000Y-98400000D01*
X168550000Y-98250000D02*
X168550000Y-99100000D01*
X168600000Y-98200000D02*
X168550000Y-98250000D01*
X169800000Y-98400000D02*
X168800000Y-98400000D01*
X168800000Y-98400000D02*
X168600000Y-98200000D01*
X170750000Y-101300000D02*
X171500000Y-101300000D01*
X171050000Y-101000000D02*
X171400000Y-101000000D01*
X173300000Y-68528000D02*
X173300000Y-69899999D01*
X173300000Y-69899999D02*
X172800000Y-70399999D01*
X168500000Y-96850000D02*
X169150000Y-96200000D01*
X168600000Y-98200000D02*
X168500000Y-98100000D01*
X168500000Y-98100000D02*
X168500000Y-96850000D01*
X171700000Y-110400000D02*
X170669022Y-110400000D01*
X165600804Y-101400000D02*
X165657210Y-101343594D01*
X165400000Y-101400000D02*
X165600804Y-101400000D01*
X165460000Y-94860000D02*
X165400000Y-94800000D01*
X166190000Y-94860000D02*
X165460000Y-94860000D01*
X164960000Y-89439996D02*
X165599996Y-88800000D01*
X165400000Y-93410000D02*
X164960000Y-92970000D01*
X165400000Y-94800000D02*
X165400000Y-93410000D01*
X164960000Y-92970000D02*
X164960000Y-89439996D01*
X173971200Y-77700000D02*
X173114800Y-77700000D01*
X172875000Y-77460200D02*
X172875000Y-75965080D01*
X173114800Y-77700000D02*
X172875000Y-77460200D01*
X173325581Y-77270817D02*
X174975310Y-77270817D01*
X172212000Y-78384398D02*
X173325581Y-77270817D01*
X172212000Y-82225362D02*
X172212000Y-78384398D01*
X171030195Y-83407167D02*
X172212000Y-82225362D01*
X168913621Y-83407167D02*
X171030195Y-83407167D01*
%TO.N,+5V*%
X177800000Y-68600000D02*
X179400000Y-68600000D01*
X181000000Y-82000000D02*
X181000000Y-89425002D01*
X181000000Y-89425002D02*
X180962501Y-89462501D01*
X179400000Y-73400000D02*
X179400000Y-70450000D01*
X177800000Y-75000000D02*
X179400000Y-73400000D01*
X175105978Y-83200000D02*
X175052989Y-83147011D01*
X181000000Y-82000000D02*
X179800000Y-83200000D01*
X179800000Y-83200000D02*
X175105978Y-83200000D01*
X175250000Y-74950000D02*
X175200000Y-75000000D01*
X177750000Y-74950000D02*
X175250000Y-74950000D01*
X177800000Y-75000000D02*
X177750000Y-74950000D01*
X169650000Y-106450000D02*
X169600000Y-106400000D01*
X169700000Y-106450000D02*
X169650000Y-106450000D01*
X170841555Y-104833445D02*
X170909006Y-104833445D01*
X169600000Y-106075000D02*
X170841555Y-104833445D01*
X169600000Y-106400000D02*
X169600000Y-106075000D01*
X171772000Y-64400000D02*
X175400000Y-68028000D01*
X169200000Y-64400000D02*
X171772000Y-64400000D01*
X175972000Y-68600000D02*
X177800000Y-68600000D01*
X175400000Y-68028000D02*
X175972000Y-68600000D01*
X172882580Y-75000000D02*
X172600000Y-75000000D01*
X173381409Y-75498829D02*
X172882580Y-75000000D01*
X175200000Y-75000000D02*
X174701171Y-75498829D01*
X174701171Y-75498829D02*
X173381409Y-75498829D01*
%TO.N,+BATT*%
X165400000Y-98900000D02*
X167300000Y-97000000D01*
X165400000Y-99200000D02*
X165400000Y-98900000D01*
X167300000Y-97000000D02*
X167300000Y-94800000D01*
X166320395Y-102069175D02*
X166320395Y-100479605D01*
X169310000Y-103100000D02*
X167351220Y-103100000D01*
X167351220Y-103100000D02*
X166320395Y-102069175D01*
X168256411Y-83520381D02*
X167271799Y-84504993D01*
X167271799Y-86771799D02*
X168000000Y-87500000D01*
X170000000Y-73100000D02*
X168256411Y-74843589D01*
X167271799Y-84504993D02*
X167271799Y-86771799D01*
X165400000Y-99559210D02*
X166320395Y-100479605D01*
X165400000Y-99200000D02*
X165400000Y-99559210D01*
X168000000Y-88878678D02*
X168000000Y-87500000D01*
X167228678Y-89650000D02*
X168000000Y-88878678D01*
X166383724Y-89650000D02*
X167228678Y-89650000D01*
X165717201Y-90316523D02*
X166383724Y-89650000D01*
X165717201Y-92492201D02*
X165717201Y-90316523D01*
X167300000Y-94075000D02*
X165717201Y-92492201D01*
X167300000Y-94800000D02*
X167300000Y-94075000D01*
X175758551Y-102041449D02*
X176800000Y-101000000D01*
X170368551Y-102041449D02*
X175758551Y-102041449D01*
X169310000Y-103100000D02*
X170368551Y-102041449D01*
X176800000Y-103989002D02*
X176800000Y-101000000D01*
X168256411Y-74843589D02*
X168256411Y-81882789D01*
X168256411Y-81882789D02*
X168256411Y-83520381D01*
X168249600Y-81534000D02*
X170027600Y-81534000D01*
X168249600Y-81875978D02*
X168249600Y-81534000D01*
X168256411Y-81882789D02*
X168249600Y-81875978D01*
D26*
%TO.N,Net-(C8-Pad1)*%
X174307890Y-110400000D02*
X174600000Y-110107890D01*
X173600000Y-110400000D02*
X174307890Y-110400000D01*
X179755866Y-90304921D02*
X180400000Y-90949055D01*
X178300000Y-84200001D02*
X179755866Y-85655867D01*
X180400000Y-93768710D02*
X179568710Y-94600000D01*
X177199999Y-84200001D02*
X178300000Y-84200001D01*
X180400000Y-90949055D02*
X180400000Y-93768710D01*
X179755866Y-85655867D02*
X179755866Y-90304921D01*
X176000000Y-85400000D02*
X177199999Y-84200001D01*
X168000000Y-84490702D02*
X168000000Y-85300000D01*
X171241300Y-83977900D02*
X168512802Y-83977900D01*
X173658800Y-83108800D02*
X172110400Y-83108800D01*
X168512802Y-83977900D02*
X168000000Y-84490702D01*
X175950000Y-85400000D02*
X173658800Y-83108800D01*
X172110400Y-83108800D02*
X171241300Y-83977900D01*
X176000000Y-85400000D02*
X175950000Y-85400000D01*
D25*
%TO.N,Net-(C10-Pad1)*%
X166400000Y-104200000D02*
X165031181Y-102831181D01*
X165031181Y-102831181D02*
X165000000Y-102831181D01*
D26*
%TO.N,Net-(D1-Pad1)*%
X176276610Y-86998390D02*
X177875000Y-85400000D01*
X173500000Y-85500000D02*
X173500000Y-86531512D01*
X173500000Y-86531512D02*
X173966878Y-86998390D01*
X173966878Y-86998390D02*
X176276610Y-86998390D01*
%TO.N,Net-(D2-Pad2)*%
X176000000Y-88000000D02*
X173500000Y-88000000D01*
%TO.N,Net-(D3-Pad2)*%
X173600000Y-106350000D02*
X173600000Y-106000000D01*
X175050000Y-107800000D02*
X173600000Y-106350000D01*
X176025000Y-107800000D02*
X175050000Y-107800000D01*
%TO.N,Net-(D4-Pad2)*%
X166700000Y-109700000D02*
X169600000Y-109700000D01*
X166400000Y-110000000D02*
X166700000Y-109700000D01*
X176025000Y-110100000D02*
X175228199Y-109303199D01*
X169996817Y-109303183D02*
X169600000Y-109700000D01*
X175228199Y-109303199D02*
X171016705Y-109303199D01*
X171016705Y-109303199D02*
X171016689Y-109303183D01*
X171016689Y-109303183D02*
X169996817Y-109303183D01*
%TO.N,Net-(D5-Pad1)*%
X174299999Y-108899999D02*
X173600000Y-108200000D01*
X177900000Y-110100000D02*
X176699999Y-108899999D01*
X176699999Y-108899999D02*
X174299999Y-108899999D01*
%TO.N,/SDA*%
X174025000Y-72375000D02*
X174800000Y-71600000D01*
X174025000Y-74806290D02*
X174025000Y-72375000D01*
%TO.N,/SCL*%
X169700000Y-65800000D02*
X169200000Y-66300000D01*
X171600000Y-65800000D02*
X169700000Y-65800000D01*
%TO.N,Net-(J3-Pad2)*%
X173946800Y-82826574D02*
X174917016Y-83796790D01*
X180247968Y-85577743D02*
X180247968Y-90093711D01*
X178467015Y-83796790D02*
X180247968Y-85577743D01*
X174917016Y-83796790D02*
X178467015Y-83796790D01*
X175971200Y-78650000D02*
X175971200Y-79857600D01*
X173946800Y-81882000D02*
X173946800Y-82826574D01*
X175971200Y-79857600D02*
X173946800Y-81882000D01*
%TO.N,/Reset*%
X175209200Y-77774800D02*
X174244000Y-78740000D01*
X176885600Y-81735600D02*
X176885600Y-78171518D01*
X176885600Y-78171518D02*
X176488882Y-77774800D01*
X177750000Y-82600000D02*
X176885600Y-81735600D01*
X178700000Y-82600000D02*
X177750000Y-82600000D01*
X179405629Y-81894371D02*
X178700000Y-82600000D01*
X179405629Y-80994371D02*
X179405629Y-81894371D01*
X176488882Y-77774800D02*
X175209200Y-77774800D01*
X180900000Y-79500000D02*
X179405629Y-80994371D01*
%TO.N,/D4*%
X174596512Y-86112846D02*
X174596512Y-84646512D01*
X173629142Y-83679142D02*
X172481224Y-83679142D01*
X174596512Y-84646512D02*
X173629142Y-83679142D01*
X174203078Y-86506280D02*
X174596512Y-86112846D01*
D25*
%TO.N,Net-(L1-Pad2)*%
X169350000Y-97450000D02*
X169325000Y-97475000D01*
X170100000Y-97450000D02*
X169350000Y-97450000D01*
X171950000Y-95600000D02*
X170100000Y-97450000D01*
X176800000Y-98200000D02*
X176800000Y-96790000D01*
X176800000Y-96790000D02*
X175610000Y-95600000D01*
X175610000Y-95600000D02*
X171950000Y-95600000D01*
D26*
%TO.N,Net-(Q1-Pad3)*%
X171700000Y-106000000D02*
X171700000Y-104146688D01*
X171153312Y-103600000D02*
X170600000Y-103600000D01*
X171700000Y-104146688D02*
X171153312Y-103600000D01*
%TO.N,Net-(Q1-Pad1)*%
X169900000Y-103270041D02*
X170160561Y-103009480D01*
X169900000Y-103705000D02*
X169900000Y-103270041D01*
X169310000Y-104100000D02*
X169505000Y-104100000D01*
X169505000Y-104100000D02*
X169900000Y-103705000D01*
X170160561Y-103009480D02*
X170600000Y-103009480D01*
%TO.N,Net-(R2-Pad2)*%
X167300000Y-101600000D02*
X167300000Y-101400000D01*
X168100000Y-102400000D02*
X167300000Y-101600000D01*
D25*
X167300000Y-99200000D02*
X167300000Y-101400000D01*
D26*
%TO.N,Net-(R5-Pad1)*%
X171600000Y-85500000D02*
X171600000Y-88000000D01*
X171600000Y-88100000D02*
X171600000Y-88000000D01*
X170900000Y-88800000D02*
X171600000Y-88100000D01*
X170400000Y-88800000D02*
X170900000Y-88800000D01*
X169900000Y-87500000D02*
X169900000Y-88300000D01*
X169900000Y-88300000D02*
X170400000Y-88800000D01*
%TO.N,Net-(R9-Pad2)*%
X169017856Y-84542856D02*
X168643798Y-84542856D01*
X169775000Y-85300000D02*
X169017856Y-84542856D01*
X169900000Y-85300000D02*
X169775000Y-85300000D01*
X165800000Y-84500002D02*
X165800000Y-85500000D01*
X165799998Y-84500000D02*
X165800000Y-84500002D01*
%TO.N,/A0*%
X170000000Y-75000000D02*
X170000000Y-74094000D01*
X170000000Y-74094000D02*
X170027600Y-74066400D01*
%TO.N,/A1*%
X178000000Y-78584400D02*
X175936290Y-76520690D01*
X178000000Y-82107890D02*
X178000000Y-78584400D01*
X175936290Y-76520690D02*
X173505526Y-76520690D01*
%TO.N,/D2_digital_io*%
X173612213Y-79241013D02*
X173612213Y-78745372D01*
X173971200Y-79600000D02*
X173612213Y-79241013D01*
D25*
%TO.N,Net-(D6-Pad2)*%
X167008780Y-68460000D02*
X166600000Y-68460000D01*
X171297600Y-72748820D02*
X167008780Y-68460000D01*
X171297600Y-76264000D02*
X171297600Y-72748820D01*
X170027600Y-77534000D02*
X171297600Y-76264000D01*
%TD*%
D27*
%TO.N,GND*%
X182094926Y-106293678D02*
X182004494Y-106219463D01*
X181894180Y-106160498D01*
X181774482Y-106124188D01*
X181650000Y-106111928D01*
X181085750Y-106115000D01*
X180927000Y-106273750D01*
X180927000Y-107473000D01*
X180947000Y-107473000D01*
X180947000Y-107727000D01*
X180927000Y-107727000D01*
X180927000Y-107747000D01*
X180673000Y-107747000D01*
X180673000Y-107727000D01*
X179473750Y-107727000D01*
X179315000Y-107885750D01*
X179311928Y-108450000D01*
X179324188Y-108574482D01*
X179360498Y-108694180D01*
X179419463Y-108804494D01*
X179498815Y-108901185D01*
X179595506Y-108980537D01*
X179705820Y-109039502D01*
X179778380Y-109061513D01*
X179646525Y-109193368D01*
X179484010Y-109436589D01*
X179372068Y-109706842D01*
X179315000Y-109993740D01*
X179315000Y-110286260D01*
X179372068Y-110573158D01*
X179484010Y-110843411D01*
X179646525Y-111086632D01*
X179853368Y-111293475D01*
X180096589Y-111455990D01*
X180137655Y-111473000D01*
X174502551Y-111473000D01*
X174588405Y-111368386D01*
X174670472Y-111214850D01*
X174721008Y-111048254D01*
X174724693Y-111010836D01*
X174831265Y-110923375D01*
X174853352Y-110896462D01*
X174954659Y-110854500D01*
X174966553Y-110893709D01*
X175048042Y-111046164D01*
X175157708Y-111179792D01*
X175291336Y-111289458D01*
X175443791Y-111370947D01*
X175609215Y-111421128D01*
X175781250Y-111438072D01*
X176268750Y-111438072D01*
X176440785Y-111421128D01*
X176606209Y-111370947D01*
X176758664Y-111289458D01*
X176892292Y-111179792D01*
X176962500Y-111094244D01*
X177032708Y-111179792D01*
X177166336Y-111289458D01*
X177318791Y-111370947D01*
X177484215Y-111421128D01*
X177656250Y-111438072D01*
X178143750Y-111438072D01*
X178315785Y-111421128D01*
X178481209Y-111370947D01*
X178633664Y-111289458D01*
X178767292Y-111179792D01*
X178876958Y-111046164D01*
X178958447Y-110893709D01*
X179008628Y-110728285D01*
X179025572Y-110556250D01*
X179025572Y-109643750D01*
X179008628Y-109471715D01*
X178958447Y-109306291D01*
X178876958Y-109153836D01*
X178767292Y-109020208D01*
X178760936Y-109014992D01*
X178838685Y-108951185D01*
X178918037Y-108854494D01*
X178977002Y-108744180D01*
X179013312Y-108624482D01*
X179025572Y-108500000D01*
X179022500Y-108085750D01*
X178863750Y-107927000D01*
X178027000Y-107927000D01*
X178027000Y-107947000D01*
X177773000Y-107947000D01*
X177773000Y-107927000D01*
X177753000Y-107927000D01*
X177753000Y-107673000D01*
X177773000Y-107673000D01*
X177773000Y-106623750D01*
X178027000Y-106623750D01*
X178027000Y-107673000D01*
X178863750Y-107673000D01*
X179022500Y-107514250D01*
X179025572Y-107100000D01*
X179013312Y-106975518D01*
X178977002Y-106855820D01*
X178920440Y-106750000D01*
X179311928Y-106750000D01*
X179315000Y-107314250D01*
X179473750Y-107473000D01*
X180673000Y-107473000D01*
X180673000Y-106273750D01*
X180514250Y-106115000D01*
X179950000Y-106111928D01*
X179825518Y-106124188D01*
X179705820Y-106160498D01*
X179595506Y-106219463D01*
X179498815Y-106298815D01*
X179419463Y-106395506D01*
X179360498Y-106505820D01*
X179324188Y-106625518D01*
X179311928Y-106750000D01*
X178920440Y-106750000D01*
X178918037Y-106745506D01*
X178838685Y-106648815D01*
X178741994Y-106569463D01*
X178631680Y-106510498D01*
X178511982Y-106474188D01*
X178387500Y-106461928D01*
X178185750Y-106465000D01*
X178027000Y-106623750D01*
X177773000Y-106623750D01*
X177614250Y-106465000D01*
X177412500Y-106461928D01*
X177288018Y-106474188D01*
X177168320Y-106510498D01*
X177058006Y-106569463D01*
X176961315Y-106648815D01*
X176897508Y-106726564D01*
X176892292Y-106720208D01*
X176758664Y-106610542D01*
X176606209Y-106529053D01*
X176440785Y-106478872D01*
X176268750Y-106461928D01*
X175781250Y-106461928D01*
X175609215Y-106478872D01*
X175443791Y-106529053D01*
X175291336Y-106610542D01*
X175157708Y-106720208D01*
X175091992Y-106800283D01*
X174738072Y-106446363D01*
X174738072Y-105525000D01*
X174721008Y-105351746D01*
X174670472Y-105185150D01*
X174588405Y-105031614D01*
X174477962Y-104897038D01*
X174343386Y-104786595D01*
X174189850Y-104704528D01*
X174023254Y-104653992D01*
X173850000Y-104636928D01*
X173350000Y-104636928D01*
X173176746Y-104653992D01*
X173010150Y-104704528D01*
X172856614Y-104786595D01*
X172722038Y-104897038D01*
X172650000Y-104984817D01*
X172577962Y-104897038D01*
X172443386Y-104786595D01*
X172436600Y-104782968D01*
X172436600Y-104182874D01*
X172440164Y-104146688D01*
X172425942Y-104002289D01*
X172418759Y-103978609D01*
X172383822Y-103863439D01*
X172315424Y-103735475D01*
X172223375Y-103623313D01*
X172195268Y-103600247D01*
X171699757Y-103104736D01*
X171676687Y-103076625D01*
X171564525Y-102984576D01*
X171436561Y-102916178D01*
X171422250Y-102911837D01*
X171415847Y-102879649D01*
X175717388Y-102879649D01*
X175758551Y-102883703D01*
X175799714Y-102879649D01*
X175799721Y-102879649D01*
X175922867Y-102867520D01*
X175961800Y-102855710D01*
X175961800Y-103689527D01*
X175945164Y-103729690D01*
X175911000Y-103901443D01*
X175911000Y-104076561D01*
X175945164Y-104248314D01*
X176012179Y-104410101D01*
X176109469Y-104555706D01*
X176233296Y-104679533D01*
X176378901Y-104776823D01*
X176540688Y-104843838D01*
X176712441Y-104878002D01*
X176887559Y-104878002D01*
X177059312Y-104843838D01*
X177221099Y-104776823D01*
X177366704Y-104679533D01*
X177490531Y-104555706D01*
X177587821Y-104410101D01*
X177654836Y-104248314D01*
X177689000Y-104076561D01*
X177689000Y-103901443D01*
X177654836Y-103729690D01*
X177638200Y-103689528D01*
X177638200Y-102238072D01*
X178650000Y-102238072D01*
X178774482Y-102225812D01*
X178894180Y-102189502D01*
X179004494Y-102130537D01*
X179101185Y-102051185D01*
X179180537Y-101954494D01*
X179239502Y-101844180D01*
X179275812Y-101724482D01*
X179288072Y-101600000D01*
X179288072Y-100400000D01*
X179275812Y-100275518D01*
X179239502Y-100155820D01*
X179180537Y-100045506D01*
X179101185Y-99948815D01*
X179004494Y-99869463D01*
X178894180Y-99810498D01*
X178774482Y-99774188D01*
X178650000Y-99761928D01*
X174950000Y-99761928D01*
X174825518Y-99774188D01*
X174705820Y-99810498D01*
X174595506Y-99869463D01*
X174498815Y-99948815D01*
X174419463Y-100045506D01*
X174360498Y-100155820D01*
X174324188Y-100275518D01*
X174311928Y-100400000D01*
X174311928Y-101203249D01*
X171633197Y-101203249D01*
X171600649Y-101040736D01*
X171534827Y-100881826D01*
X171346164Y-100877784D01*
X171020699Y-101203249D01*
X170533197Y-101203249D01*
X170503174Y-101053343D01*
X170663998Y-101085113D01*
X170709002Y-101085054D01*
X170750000Y-101126052D01*
X170791106Y-101084946D01*
X170838328Y-101084884D01*
X171009264Y-101050649D01*
X171168174Y-100984827D01*
X171172216Y-100796164D01*
X171126052Y-100750000D01*
X171172216Y-100703836D01*
X171168174Y-100515173D01*
X171007026Y-100448672D01*
X170836002Y-100414887D01*
X170790998Y-100414946D01*
X170750000Y-100373948D01*
X170708894Y-100415054D01*
X170661672Y-100415116D01*
X170503343Y-100446826D01*
X170535113Y-100286002D01*
X170535054Y-100240998D01*
X170576052Y-100200000D01*
X170923948Y-100200000D01*
X171346164Y-100622216D01*
X171534827Y-100618174D01*
X171601328Y-100457026D01*
X171635113Y-100286002D01*
X171634884Y-100111672D01*
X171600649Y-99940736D01*
X171534827Y-99781826D01*
X171346164Y-99777784D01*
X170923948Y-100200000D01*
X170576052Y-100200000D01*
X170534946Y-100158894D01*
X170534884Y-100111672D01*
X170503174Y-99953343D01*
X170663998Y-99985113D01*
X170709002Y-99985054D01*
X170750000Y-100026052D01*
X170791106Y-99984946D01*
X170838328Y-99984884D01*
X171009264Y-99950649D01*
X171168174Y-99884827D01*
X171172216Y-99696164D01*
X171126052Y-99650000D01*
X171172216Y-99603836D01*
X171168174Y-99415173D01*
X171007026Y-99348672D01*
X170836002Y-99314887D01*
X170790998Y-99314946D01*
X170750000Y-99273948D01*
X170708894Y-99315054D01*
X170661672Y-99315116D01*
X170503343Y-99346826D01*
X170535113Y-99186002D01*
X170535054Y-99140998D01*
X170576052Y-99100000D01*
X170923948Y-99100000D01*
X171346164Y-99522216D01*
X171534827Y-99518174D01*
X171601328Y-99357026D01*
X171635113Y-99186002D01*
X171634884Y-99011672D01*
X171600649Y-98840736D01*
X171534827Y-98681826D01*
X171346164Y-98677784D01*
X170923948Y-99100000D01*
X170576052Y-99100000D01*
X170534946Y-99058894D01*
X170534884Y-99011672D01*
X170500649Y-98840736D01*
X170434827Y-98681826D01*
X170246164Y-98677784D01*
X170200000Y-98723948D01*
X170153836Y-98677784D01*
X169965173Y-98681826D01*
X169898672Y-98842974D01*
X169864887Y-99013998D01*
X169864946Y-99059002D01*
X169823948Y-99100000D01*
X169865054Y-99141106D01*
X169865116Y-99188328D01*
X169896826Y-99346657D01*
X169736002Y-99314887D01*
X169690998Y-99314946D01*
X169650000Y-99273948D01*
X169608894Y-99315054D01*
X169561672Y-99315116D01*
X169403343Y-99346826D01*
X169435113Y-99186002D01*
X169435054Y-99140998D01*
X169476052Y-99100000D01*
X169434946Y-99058894D01*
X169434884Y-99011672D01*
X169400649Y-98840736D01*
X169334827Y-98681826D01*
X169146164Y-98677784D01*
X169100000Y-98723948D01*
X169053836Y-98677784D01*
X168865173Y-98681826D01*
X168798672Y-98842974D01*
X168764887Y-99013998D01*
X168764946Y-99059002D01*
X168723948Y-99100000D01*
X168765054Y-99141106D01*
X168765116Y-99188328D01*
X168796826Y-99346657D01*
X168636002Y-99314887D01*
X168590998Y-99314946D01*
X168550000Y-99273948D01*
X168533029Y-99290919D01*
X168438072Y-99195962D01*
X168438072Y-99004038D01*
X168533029Y-98909081D01*
X168550000Y-98926052D01*
X168972216Y-98503836D01*
X168968174Y-98315173D01*
X168807026Y-98248672D01*
X168636002Y-98214887D01*
X168461672Y-98215116D01*
X168297194Y-98248058D01*
X168288405Y-98231614D01*
X168180393Y-98100000D01*
X168288405Y-97968386D01*
X168370472Y-97814850D01*
X168421008Y-97648254D01*
X168438072Y-97475000D01*
X168438072Y-97450670D01*
X168483046Y-97471951D01*
X168482746Y-97475000D01*
X168498929Y-97639315D01*
X168546858Y-97797316D01*
X168624691Y-97942931D01*
X168729436Y-98070564D01*
X168857069Y-98175309D01*
X169002684Y-98253142D01*
X169160685Y-98301071D01*
X169245666Y-98309441D01*
X169231826Y-98315173D01*
X169227784Y-98503836D01*
X169650000Y-98926052D01*
X170072216Y-98503836D01*
X170327784Y-98503836D01*
X170750000Y-98926052D01*
X171172216Y-98503836D01*
X171168174Y-98315173D01*
X171007026Y-98248672D01*
X170836002Y-98214887D01*
X170661672Y-98215116D01*
X170490736Y-98249351D01*
X170331826Y-98315173D01*
X170327784Y-98503836D01*
X170072216Y-98503836D01*
X170068174Y-98315173D01*
X170002812Y-98288200D01*
X170058837Y-98288200D01*
X170100000Y-98292254D01*
X170141163Y-98288200D01*
X170141170Y-98288200D01*
X170264316Y-98276071D01*
X170422317Y-98228142D01*
X170567932Y-98150309D01*
X170695564Y-98045564D01*
X170721811Y-98013582D01*
X172297194Y-96438200D01*
X175262807Y-96438200D01*
X175786534Y-96961928D01*
X174950000Y-96961928D01*
X174825518Y-96974188D01*
X174705820Y-97010498D01*
X174595506Y-97069463D01*
X174498815Y-97148815D01*
X174419463Y-97245506D01*
X174360498Y-97355820D01*
X174324188Y-97475518D01*
X174311928Y-97600000D01*
X174311928Y-98800000D01*
X174324188Y-98924482D01*
X174360498Y-99044180D01*
X174419463Y-99154494D01*
X174498815Y-99251185D01*
X174595506Y-99330537D01*
X174705820Y-99389502D01*
X174825518Y-99425812D01*
X174950000Y-99438072D01*
X178650000Y-99438072D01*
X178774482Y-99425812D01*
X178894180Y-99389502D01*
X179004494Y-99330537D01*
X179101185Y-99251185D01*
X179180537Y-99154494D01*
X179239502Y-99044180D01*
X179275812Y-98924482D01*
X179288072Y-98800000D01*
X179288072Y-97600000D01*
X179275812Y-97475518D01*
X179239502Y-97355820D01*
X179180537Y-97245506D01*
X179101185Y-97148815D01*
X179004494Y-97069463D01*
X178894180Y-97010498D01*
X178774482Y-96974188D01*
X178650000Y-96961928D01*
X177638200Y-96961928D01*
X177638200Y-96831162D01*
X177642254Y-96789999D01*
X177638200Y-96748836D01*
X177638200Y-96748830D01*
X177626071Y-96625684D01*
X177578142Y-96467683D01*
X177500309Y-96322068D01*
X177395564Y-96194436D01*
X177363587Y-96168193D01*
X176231811Y-95036418D01*
X176205564Y-95004436D01*
X176077932Y-94899691D01*
X175932317Y-94821858D01*
X175774316Y-94773929D01*
X175651170Y-94761800D01*
X175651163Y-94761800D01*
X175610000Y-94757746D01*
X175568837Y-94761800D01*
X171991162Y-94761800D01*
X171949999Y-94757746D01*
X171908836Y-94761800D01*
X171908830Y-94761800D01*
X171785684Y-94773929D01*
X171627683Y-94821858D01*
X171488231Y-94896397D01*
X171482068Y-94899691D01*
X171403324Y-94964315D01*
X171354436Y-95004436D01*
X171328194Y-95036412D01*
X170539818Y-95824789D01*
X170453603Y-95583708D01*
X170386671Y-95458486D01*
X170142702Y-95386903D01*
X169329605Y-96200000D01*
X169343748Y-96214143D01*
X169164143Y-96393748D01*
X169150000Y-96379605D01*
X169135858Y-96393748D01*
X168956253Y-96214143D01*
X168970395Y-96200000D01*
X168956253Y-96185858D01*
X169135858Y-96006253D01*
X169150000Y-96020395D01*
X169963097Y-95207298D01*
X169942785Y-95138072D01*
X169950000Y-95138072D01*
X170074482Y-95125812D01*
X170194180Y-95089502D01*
X170304494Y-95030537D01*
X170401185Y-94951185D01*
X170480537Y-94854494D01*
X170539502Y-94744180D01*
X170575812Y-94624482D01*
X170588072Y-94500000D01*
X170588072Y-92900000D01*
X170575812Y-92775518D01*
X170539502Y-92655820D01*
X170480537Y-92545506D01*
X170401185Y-92448815D01*
X170304494Y-92369463D01*
X170194180Y-92310498D01*
X170082980Y-92276766D01*
X170164697Y-92195049D01*
X170048287Y-92078639D01*
X170288376Y-92011660D01*
X170405476Y-91762632D01*
X170471743Y-91495545D01*
X170484630Y-91220663D01*
X170474753Y-91155088D01*
X171685720Y-91155088D01*
X171685720Y-91430272D01*
X171739406Y-91700170D01*
X171844715Y-91954407D01*
X171997600Y-92183215D01*
X172192185Y-92377800D01*
X172420993Y-92530685D01*
X172675230Y-92635994D01*
X172945128Y-92689680D01*
X173220312Y-92689680D01*
X173490210Y-92635994D01*
X173744447Y-92530685D01*
X173973255Y-92377800D01*
X174167840Y-92183215D01*
X174320725Y-91954407D01*
X174426034Y-91700170D01*
X174479720Y-91430272D01*
X174479720Y-91155088D01*
X174426034Y-90885190D01*
X174320725Y-90630953D01*
X174167840Y-90402145D01*
X173973255Y-90207560D01*
X173744447Y-90054675D01*
X173490210Y-89949366D01*
X173220312Y-89895680D01*
X172945128Y-89895680D01*
X172675230Y-89949366D01*
X172420993Y-90054675D01*
X172192185Y-90207560D01*
X171997600Y-90402145D01*
X171844715Y-90630953D01*
X171739406Y-90885190D01*
X171685720Y-91155088D01*
X170474753Y-91155088D01*
X170443642Y-90948547D01*
X170350356Y-90689657D01*
X170288376Y-90573700D01*
X170048285Y-90506720D01*
X169262325Y-91292680D01*
X169276468Y-91306823D01*
X169096863Y-91486428D01*
X169082720Y-91472285D01*
X168296760Y-92258245D01*
X168299184Y-92266933D01*
X168225518Y-92274188D01*
X168105820Y-92310498D01*
X167995506Y-92369463D01*
X167898815Y-92448815D01*
X167819463Y-92545506D01*
X167760498Y-92655820D01*
X167724188Y-92775518D01*
X167711928Y-92900000D01*
X167711928Y-93301534D01*
X166555401Y-92145008D01*
X166555401Y-91364697D01*
X167680810Y-91364697D01*
X167721798Y-91636813D01*
X167815084Y-91895703D01*
X167877064Y-92011660D01*
X168117155Y-92078640D01*
X168903115Y-91292680D01*
X168117155Y-90506720D01*
X167877064Y-90573700D01*
X167759964Y-90822728D01*
X167693697Y-91089815D01*
X167680810Y-91364697D01*
X166555401Y-91364697D01*
X166555401Y-90663716D01*
X166730918Y-90488200D01*
X167187515Y-90488200D01*
X167228678Y-90492254D01*
X167269841Y-90488200D01*
X167269848Y-90488200D01*
X167392994Y-90476071D01*
X167550995Y-90428142D01*
X167696610Y-90350309D01*
X167724871Y-90327115D01*
X168296760Y-90327115D01*
X169082720Y-91113075D01*
X169868680Y-90327115D01*
X169801700Y-90087024D01*
X169552672Y-89969924D01*
X169285585Y-89903657D01*
X169010703Y-89890770D01*
X168738587Y-89931758D01*
X168479697Y-90025044D01*
X168363740Y-90087024D01*
X168296760Y-90327115D01*
X167724871Y-90327115D01*
X167824242Y-90245564D01*
X167850489Y-90213583D01*
X168563588Y-89500483D01*
X168595564Y-89474242D01*
X168635975Y-89425002D01*
X168700309Y-89346610D01*
X168730834Y-89289502D01*
X168778142Y-89200995D01*
X168826071Y-89042994D01*
X168838200Y-88919848D01*
X168838200Y-88919842D01*
X168842254Y-88878679D01*
X168838200Y-88837516D01*
X168838200Y-88405619D01*
X168855537Y-88384494D01*
X168914502Y-88274180D01*
X168950000Y-88157159D01*
X168985498Y-88274180D01*
X169044463Y-88384494D01*
X169077000Y-88424141D01*
X169077000Y-88506250D01*
X169235750Y-88665000D01*
X169260929Y-88666971D01*
X169284576Y-88711212D01*
X169352280Y-88793709D01*
X169376626Y-88823375D01*
X169404732Y-88846441D01*
X169853559Y-89295268D01*
X169876625Y-89323375D01*
X169904731Y-89346441D01*
X169904732Y-89346442D01*
X169988787Y-89415424D01*
X170116751Y-89483822D01*
X170255598Y-89525941D01*
X170255601Y-89525942D01*
X170400000Y-89540164D01*
X170436186Y-89536600D01*
X170863817Y-89536600D01*
X170900000Y-89540164D01*
X170936183Y-89536600D01*
X170936186Y-89536600D01*
X171044399Y-89525942D01*
X171183249Y-89483822D01*
X171311213Y-89415424D01*
X171375004Y-89363072D01*
X171850000Y-89363072D01*
X172023254Y-89346008D01*
X172189850Y-89295472D01*
X172343386Y-89213405D01*
X172477962Y-89102962D01*
X172550000Y-89015183D01*
X172622038Y-89102962D01*
X172756614Y-89213405D01*
X172910150Y-89295472D01*
X173076746Y-89346008D01*
X173250000Y-89363072D01*
X173750000Y-89363072D01*
X173923254Y-89346008D01*
X174089850Y-89295472D01*
X174243386Y-89213405D01*
X174377962Y-89102962D01*
X174488405Y-88968386D01*
X174570472Y-88814850D01*
X174594209Y-88736600D01*
X174924229Y-88736600D01*
X174941553Y-88793709D01*
X175023042Y-88946164D01*
X175132708Y-89079792D01*
X175266336Y-89189458D01*
X175418791Y-89270947D01*
X175584215Y-89321128D01*
X175756250Y-89338072D01*
X176243750Y-89338072D01*
X176415785Y-89321128D01*
X176581209Y-89270947D01*
X176733664Y-89189458D01*
X176867292Y-89079792D01*
X176872508Y-89073436D01*
X176936315Y-89151185D01*
X177033006Y-89230537D01*
X177143320Y-89289502D01*
X177263018Y-89325812D01*
X177387500Y-89338072D01*
X177589250Y-89335000D01*
X177748000Y-89176250D01*
X177748000Y-88127000D01*
X178002000Y-88127000D01*
X178002000Y-89176250D01*
X178160750Y-89335000D01*
X178362500Y-89338072D01*
X178486982Y-89325812D01*
X178606680Y-89289502D01*
X178716994Y-89230537D01*
X178813685Y-89151185D01*
X178893037Y-89054494D01*
X178952002Y-88944180D01*
X178988312Y-88824482D01*
X179000572Y-88700000D01*
X178997500Y-88285750D01*
X178838750Y-88127000D01*
X178002000Y-88127000D01*
X177748000Y-88127000D01*
X177728000Y-88127000D01*
X177728000Y-87873000D01*
X177748000Y-87873000D01*
X177748000Y-87853000D01*
X178002000Y-87853000D01*
X178002000Y-87873000D01*
X178838750Y-87873000D01*
X178997500Y-87714250D01*
X179000572Y-87300000D01*
X178988312Y-87175518D01*
X178952002Y-87055820D01*
X178893037Y-86945506D01*
X178813685Y-86848815D01*
X178716994Y-86769463D01*
X178606680Y-86710498D01*
X178486982Y-86674188D01*
X178455686Y-86671106D01*
X178456209Y-86670947D01*
X178608664Y-86589458D01*
X178742292Y-86479792D01*
X178851958Y-86346164D01*
X178933447Y-86193709D01*
X178983628Y-86028285D01*
X178992858Y-85934568D01*
X179019266Y-85960976D01*
X179019267Y-90031511D01*
X178936260Y-90015000D01*
X178643740Y-90015000D01*
X178356842Y-90072068D01*
X178086589Y-90184010D01*
X177843368Y-90346525D01*
X177711513Y-90478380D01*
X177689502Y-90405820D01*
X177630537Y-90295506D01*
X177551185Y-90198815D01*
X177454494Y-90119463D01*
X177344180Y-90060498D01*
X177224482Y-90024188D01*
X177100000Y-90011928D01*
X175400000Y-90011928D01*
X175275518Y-90024188D01*
X175155820Y-90060498D01*
X175045506Y-90119463D01*
X174948815Y-90198815D01*
X174869463Y-90295506D01*
X174810498Y-90405820D01*
X174774188Y-90525518D01*
X174761928Y-90650000D01*
X174761928Y-92350000D01*
X174774188Y-92474482D01*
X174810498Y-92594180D01*
X174869463Y-92704494D01*
X174948815Y-92801185D01*
X175045506Y-92880537D01*
X175155820Y-92939502D01*
X175275518Y-92975812D01*
X175400000Y-92988072D01*
X177100000Y-92988072D01*
X177224482Y-92975812D01*
X177344180Y-92939502D01*
X177454494Y-92880537D01*
X177551185Y-92801185D01*
X177630537Y-92704494D01*
X177689502Y-92594180D01*
X177711513Y-92521620D01*
X177843368Y-92653475D01*
X178086589Y-92815990D01*
X178356842Y-92927932D01*
X178643740Y-92985000D01*
X178936260Y-92985000D01*
X179223158Y-92927932D01*
X179493411Y-92815990D01*
X179663401Y-92702407D01*
X179663401Y-93463599D01*
X179315725Y-93811276D01*
X179177689Y-93868452D01*
X179042485Y-93958792D01*
X178927502Y-94073775D01*
X178837162Y-94208979D01*
X178774934Y-94359211D01*
X178743210Y-94518695D01*
X178743210Y-94681305D01*
X178774934Y-94840789D01*
X178837162Y-94991021D01*
X178927502Y-95126225D01*
X179042485Y-95241208D01*
X179177689Y-95331548D01*
X179327921Y-95393776D01*
X179487405Y-95425500D01*
X179650015Y-95425500D01*
X179809499Y-95393776D01*
X179959731Y-95331548D01*
X180094935Y-95241208D01*
X180209918Y-95126225D01*
X180300258Y-94991021D01*
X180357434Y-94852985D01*
X180895269Y-94315151D01*
X180923375Y-94292085D01*
X181015424Y-94179923D01*
X181083822Y-94051959D01*
X181125942Y-93913109D01*
X181136600Y-93804896D01*
X181140164Y-93768710D01*
X181136600Y-93732524D01*
X181136600Y-90985230D01*
X181140163Y-90949054D01*
X181136600Y-90912878D01*
X181136600Y-90912869D01*
X181125942Y-90804656D01*
X181083822Y-90665806D01*
X181015424Y-90537842D01*
X180988409Y-90504924D01*
X180976070Y-90489889D01*
X180979516Y-90484732D01*
X181034702Y-90351501D01*
X181050060Y-90351501D01*
X181221813Y-90317337D01*
X181383600Y-90250322D01*
X181529205Y-90153032D01*
X181653032Y-90029205D01*
X181750322Y-89883600D01*
X181817337Y-89721813D01*
X181851501Y-89550060D01*
X181851501Y-89374942D01*
X181838200Y-89308074D01*
X181838200Y-83488072D01*
X181850000Y-83488072D01*
X181974482Y-83475812D01*
X182094180Y-83439502D01*
X182189575Y-83388511D01*
X182094926Y-106293678D01*
%TA.AperFunction,Conductor*%
D28*
G36*
X182094926Y-106293678D02*
G01*
X182004494Y-106219463D01*
X181894180Y-106160498D01*
X181774482Y-106124188D01*
X181650000Y-106111928D01*
X181085750Y-106115000D01*
X180927000Y-106273750D01*
X180927000Y-107473000D01*
X180947000Y-107473000D01*
X180947000Y-107727000D01*
X180927000Y-107727000D01*
X180927000Y-107747000D01*
X180673000Y-107747000D01*
X180673000Y-107727000D01*
X179473750Y-107727000D01*
X179315000Y-107885750D01*
X179311928Y-108450000D01*
X179324188Y-108574482D01*
X179360498Y-108694180D01*
X179419463Y-108804494D01*
X179498815Y-108901185D01*
X179595506Y-108980537D01*
X179705820Y-109039502D01*
X179778380Y-109061513D01*
X179646525Y-109193368D01*
X179484010Y-109436589D01*
X179372068Y-109706842D01*
X179315000Y-109993740D01*
X179315000Y-110286260D01*
X179372068Y-110573158D01*
X179484010Y-110843411D01*
X179646525Y-111086632D01*
X179853368Y-111293475D01*
X180096589Y-111455990D01*
X180137655Y-111473000D01*
X174502551Y-111473000D01*
X174588405Y-111368386D01*
X174670472Y-111214850D01*
X174721008Y-111048254D01*
X174724693Y-111010836D01*
X174831265Y-110923375D01*
X174853352Y-110896462D01*
X174954659Y-110854500D01*
X174966553Y-110893709D01*
X175048042Y-111046164D01*
X175157708Y-111179792D01*
X175291336Y-111289458D01*
X175443791Y-111370947D01*
X175609215Y-111421128D01*
X175781250Y-111438072D01*
X176268750Y-111438072D01*
X176440785Y-111421128D01*
X176606209Y-111370947D01*
X176758664Y-111289458D01*
X176892292Y-111179792D01*
X176962500Y-111094244D01*
X177032708Y-111179792D01*
X177166336Y-111289458D01*
X177318791Y-111370947D01*
X177484215Y-111421128D01*
X177656250Y-111438072D01*
X178143750Y-111438072D01*
X178315785Y-111421128D01*
X178481209Y-111370947D01*
X178633664Y-111289458D01*
X178767292Y-111179792D01*
X178876958Y-111046164D01*
X178958447Y-110893709D01*
X179008628Y-110728285D01*
X179025572Y-110556250D01*
X179025572Y-109643750D01*
X179008628Y-109471715D01*
X178958447Y-109306291D01*
X178876958Y-109153836D01*
X178767292Y-109020208D01*
X178760936Y-109014992D01*
X178838685Y-108951185D01*
X178918037Y-108854494D01*
X178977002Y-108744180D01*
X179013312Y-108624482D01*
X179025572Y-108500000D01*
X179022500Y-108085750D01*
X178863750Y-107927000D01*
X178027000Y-107927000D01*
X178027000Y-107947000D01*
X177773000Y-107947000D01*
X177773000Y-107927000D01*
X177753000Y-107927000D01*
X177753000Y-107673000D01*
X177773000Y-107673000D01*
X177773000Y-106623750D01*
X178027000Y-106623750D01*
X178027000Y-107673000D01*
X178863750Y-107673000D01*
X179022500Y-107514250D01*
X179025572Y-107100000D01*
X179013312Y-106975518D01*
X178977002Y-106855820D01*
X178920440Y-106750000D01*
X179311928Y-106750000D01*
X179315000Y-107314250D01*
X179473750Y-107473000D01*
X180673000Y-107473000D01*
X180673000Y-106273750D01*
X180514250Y-106115000D01*
X179950000Y-106111928D01*
X179825518Y-106124188D01*
X179705820Y-106160498D01*
X179595506Y-106219463D01*
X179498815Y-106298815D01*
X179419463Y-106395506D01*
X179360498Y-106505820D01*
X179324188Y-106625518D01*
X179311928Y-106750000D01*
X178920440Y-106750000D01*
X178918037Y-106745506D01*
X178838685Y-106648815D01*
X178741994Y-106569463D01*
X178631680Y-106510498D01*
X178511982Y-106474188D01*
X178387500Y-106461928D01*
X178185750Y-106465000D01*
X178027000Y-106623750D01*
X177773000Y-106623750D01*
X177614250Y-106465000D01*
X177412500Y-106461928D01*
X177288018Y-106474188D01*
X177168320Y-106510498D01*
X177058006Y-106569463D01*
X176961315Y-106648815D01*
X176897508Y-106726564D01*
X176892292Y-106720208D01*
X176758664Y-106610542D01*
X176606209Y-106529053D01*
X176440785Y-106478872D01*
X176268750Y-106461928D01*
X175781250Y-106461928D01*
X175609215Y-106478872D01*
X175443791Y-106529053D01*
X175291336Y-106610542D01*
X175157708Y-106720208D01*
X175091992Y-106800283D01*
X174738072Y-106446363D01*
X174738072Y-105525000D01*
X174721008Y-105351746D01*
X174670472Y-105185150D01*
X174588405Y-105031614D01*
X174477962Y-104897038D01*
X174343386Y-104786595D01*
X174189850Y-104704528D01*
X174023254Y-104653992D01*
X173850000Y-104636928D01*
X173350000Y-104636928D01*
X173176746Y-104653992D01*
X173010150Y-104704528D01*
X172856614Y-104786595D01*
X172722038Y-104897038D01*
X172650000Y-104984817D01*
X172577962Y-104897038D01*
X172443386Y-104786595D01*
X172436600Y-104782968D01*
X172436600Y-104182874D01*
X172440164Y-104146688D01*
X172425942Y-104002289D01*
X172418759Y-103978609D01*
X172383822Y-103863439D01*
X172315424Y-103735475D01*
X172223375Y-103623313D01*
X172195268Y-103600247D01*
X171699757Y-103104736D01*
X171676687Y-103076625D01*
X171564525Y-102984576D01*
X171436561Y-102916178D01*
X171422250Y-102911837D01*
X171415847Y-102879649D01*
X175717388Y-102879649D01*
X175758551Y-102883703D01*
X175799714Y-102879649D01*
X175799721Y-102879649D01*
X175922867Y-102867520D01*
X175961800Y-102855710D01*
X175961800Y-103689527D01*
X175945164Y-103729690D01*
X175911000Y-103901443D01*
X175911000Y-104076561D01*
X175945164Y-104248314D01*
X176012179Y-104410101D01*
X176109469Y-104555706D01*
X176233296Y-104679533D01*
X176378901Y-104776823D01*
X176540688Y-104843838D01*
X176712441Y-104878002D01*
X176887559Y-104878002D01*
X177059312Y-104843838D01*
X177221099Y-104776823D01*
X177366704Y-104679533D01*
X177490531Y-104555706D01*
X177587821Y-104410101D01*
X177654836Y-104248314D01*
X177689000Y-104076561D01*
X177689000Y-103901443D01*
X177654836Y-103729690D01*
X177638200Y-103689528D01*
X177638200Y-102238072D01*
X178650000Y-102238072D01*
X178774482Y-102225812D01*
X178894180Y-102189502D01*
X179004494Y-102130537D01*
X179101185Y-102051185D01*
X179180537Y-101954494D01*
X179239502Y-101844180D01*
X179275812Y-101724482D01*
X179288072Y-101600000D01*
X179288072Y-100400000D01*
X179275812Y-100275518D01*
X179239502Y-100155820D01*
X179180537Y-100045506D01*
X179101185Y-99948815D01*
X179004494Y-99869463D01*
X178894180Y-99810498D01*
X178774482Y-99774188D01*
X178650000Y-99761928D01*
X174950000Y-99761928D01*
X174825518Y-99774188D01*
X174705820Y-99810498D01*
X174595506Y-99869463D01*
X174498815Y-99948815D01*
X174419463Y-100045506D01*
X174360498Y-100155820D01*
X174324188Y-100275518D01*
X174311928Y-100400000D01*
X174311928Y-101203249D01*
X171633197Y-101203249D01*
X171600649Y-101040736D01*
X171534827Y-100881826D01*
X171346164Y-100877784D01*
X171020699Y-101203249D01*
X170533197Y-101203249D01*
X170503174Y-101053343D01*
X170663998Y-101085113D01*
X170709002Y-101085054D01*
X170750000Y-101126052D01*
X170791106Y-101084946D01*
X170838328Y-101084884D01*
X171009264Y-101050649D01*
X171168174Y-100984827D01*
X171172216Y-100796164D01*
X171126052Y-100750000D01*
X171172216Y-100703836D01*
X171168174Y-100515173D01*
X171007026Y-100448672D01*
X170836002Y-100414887D01*
X170790998Y-100414946D01*
X170750000Y-100373948D01*
X170708894Y-100415054D01*
X170661672Y-100415116D01*
X170503343Y-100446826D01*
X170535113Y-100286002D01*
X170535054Y-100240998D01*
X170576052Y-100200000D01*
X170923948Y-100200000D01*
X171346164Y-100622216D01*
X171534827Y-100618174D01*
X171601328Y-100457026D01*
X171635113Y-100286002D01*
X171634884Y-100111672D01*
X171600649Y-99940736D01*
X171534827Y-99781826D01*
X171346164Y-99777784D01*
X170923948Y-100200000D01*
X170576052Y-100200000D01*
X170534946Y-100158894D01*
X170534884Y-100111672D01*
X170503174Y-99953343D01*
X170663998Y-99985113D01*
X170709002Y-99985054D01*
X170750000Y-100026052D01*
X170791106Y-99984946D01*
X170838328Y-99984884D01*
X171009264Y-99950649D01*
X171168174Y-99884827D01*
X171172216Y-99696164D01*
X171126052Y-99650000D01*
X171172216Y-99603836D01*
X171168174Y-99415173D01*
X171007026Y-99348672D01*
X170836002Y-99314887D01*
X170790998Y-99314946D01*
X170750000Y-99273948D01*
X170708894Y-99315054D01*
X170661672Y-99315116D01*
X170503343Y-99346826D01*
X170535113Y-99186002D01*
X170535054Y-99140998D01*
X170576052Y-99100000D01*
X170923948Y-99100000D01*
X171346164Y-99522216D01*
X171534827Y-99518174D01*
X171601328Y-99357026D01*
X171635113Y-99186002D01*
X171634884Y-99011672D01*
X171600649Y-98840736D01*
X171534827Y-98681826D01*
X171346164Y-98677784D01*
X170923948Y-99100000D01*
X170576052Y-99100000D01*
X170534946Y-99058894D01*
X170534884Y-99011672D01*
X170500649Y-98840736D01*
X170434827Y-98681826D01*
X170246164Y-98677784D01*
X170200000Y-98723948D01*
X170153836Y-98677784D01*
X169965173Y-98681826D01*
X169898672Y-98842974D01*
X169864887Y-99013998D01*
X169864946Y-99059002D01*
X169823948Y-99100000D01*
X169865054Y-99141106D01*
X169865116Y-99188328D01*
X169896826Y-99346657D01*
X169736002Y-99314887D01*
X169690998Y-99314946D01*
X169650000Y-99273948D01*
X169608894Y-99315054D01*
X169561672Y-99315116D01*
X169403343Y-99346826D01*
X169435113Y-99186002D01*
X169435054Y-99140998D01*
X169476052Y-99100000D01*
X169434946Y-99058894D01*
X169434884Y-99011672D01*
X169400649Y-98840736D01*
X169334827Y-98681826D01*
X169146164Y-98677784D01*
X169100000Y-98723948D01*
X169053836Y-98677784D01*
X168865173Y-98681826D01*
X168798672Y-98842974D01*
X168764887Y-99013998D01*
X168764946Y-99059002D01*
X168723948Y-99100000D01*
X168765054Y-99141106D01*
X168765116Y-99188328D01*
X168796826Y-99346657D01*
X168636002Y-99314887D01*
X168590998Y-99314946D01*
X168550000Y-99273948D01*
X168533029Y-99290919D01*
X168438072Y-99195962D01*
X168438072Y-99004038D01*
X168533029Y-98909081D01*
X168550000Y-98926052D01*
X168972216Y-98503836D01*
X168968174Y-98315173D01*
X168807026Y-98248672D01*
X168636002Y-98214887D01*
X168461672Y-98215116D01*
X168297194Y-98248058D01*
X168288405Y-98231614D01*
X168180393Y-98100000D01*
X168288405Y-97968386D01*
X168370472Y-97814850D01*
X168421008Y-97648254D01*
X168438072Y-97475000D01*
X168438072Y-97450670D01*
X168483046Y-97471951D01*
X168482746Y-97475000D01*
X168498929Y-97639315D01*
X168546858Y-97797316D01*
X168624691Y-97942931D01*
X168729436Y-98070564D01*
X168857069Y-98175309D01*
X169002684Y-98253142D01*
X169160685Y-98301071D01*
X169245666Y-98309441D01*
X169231826Y-98315173D01*
X169227784Y-98503836D01*
X169650000Y-98926052D01*
X170072216Y-98503836D01*
X170327784Y-98503836D01*
X170750000Y-98926052D01*
X171172216Y-98503836D01*
X171168174Y-98315173D01*
X171007026Y-98248672D01*
X170836002Y-98214887D01*
X170661672Y-98215116D01*
X170490736Y-98249351D01*
X170331826Y-98315173D01*
X170327784Y-98503836D01*
X170072216Y-98503836D01*
X170068174Y-98315173D01*
X170002812Y-98288200D01*
X170058837Y-98288200D01*
X170100000Y-98292254D01*
X170141163Y-98288200D01*
X170141170Y-98288200D01*
X170264316Y-98276071D01*
X170422317Y-98228142D01*
X170567932Y-98150309D01*
X170695564Y-98045564D01*
X170721811Y-98013582D01*
X172297194Y-96438200D01*
X175262807Y-96438200D01*
X175786534Y-96961928D01*
X174950000Y-96961928D01*
X174825518Y-96974188D01*
X174705820Y-97010498D01*
X174595506Y-97069463D01*
X174498815Y-97148815D01*
X174419463Y-97245506D01*
X174360498Y-97355820D01*
X174324188Y-97475518D01*
X174311928Y-97600000D01*
X174311928Y-98800000D01*
X174324188Y-98924482D01*
X174360498Y-99044180D01*
X174419463Y-99154494D01*
X174498815Y-99251185D01*
X174595506Y-99330537D01*
X174705820Y-99389502D01*
X174825518Y-99425812D01*
X174950000Y-99438072D01*
X178650000Y-99438072D01*
X178774482Y-99425812D01*
X178894180Y-99389502D01*
X179004494Y-99330537D01*
X179101185Y-99251185D01*
X179180537Y-99154494D01*
X179239502Y-99044180D01*
X179275812Y-98924482D01*
X179288072Y-98800000D01*
X179288072Y-97600000D01*
X179275812Y-97475518D01*
X179239502Y-97355820D01*
X179180537Y-97245506D01*
X179101185Y-97148815D01*
X179004494Y-97069463D01*
X178894180Y-97010498D01*
X178774482Y-96974188D01*
X178650000Y-96961928D01*
X177638200Y-96961928D01*
X177638200Y-96831162D01*
X177642254Y-96789999D01*
X177638200Y-96748836D01*
X177638200Y-96748830D01*
X177626071Y-96625684D01*
X177578142Y-96467683D01*
X177500309Y-96322068D01*
X177395564Y-96194436D01*
X177363587Y-96168193D01*
X176231811Y-95036418D01*
X176205564Y-95004436D01*
X176077932Y-94899691D01*
X175932317Y-94821858D01*
X175774316Y-94773929D01*
X175651170Y-94761800D01*
X175651163Y-94761800D01*
X175610000Y-94757746D01*
X175568837Y-94761800D01*
X171991162Y-94761800D01*
X171949999Y-94757746D01*
X171908836Y-94761800D01*
X171908830Y-94761800D01*
X171785684Y-94773929D01*
X171627683Y-94821858D01*
X171488231Y-94896397D01*
X171482068Y-94899691D01*
X171403324Y-94964315D01*
X171354436Y-95004436D01*
X171328194Y-95036412D01*
X170539818Y-95824789D01*
X170453603Y-95583708D01*
X170386671Y-95458486D01*
X170142702Y-95386903D01*
X169329605Y-96200000D01*
X169343748Y-96214143D01*
X169164143Y-96393748D01*
X169150000Y-96379605D01*
X169135858Y-96393748D01*
X168956253Y-96214143D01*
X168970395Y-96200000D01*
X168956253Y-96185858D01*
X169135858Y-96006253D01*
X169150000Y-96020395D01*
X169963097Y-95207298D01*
X169942785Y-95138072D01*
X169950000Y-95138072D01*
X170074482Y-95125812D01*
X170194180Y-95089502D01*
X170304494Y-95030537D01*
X170401185Y-94951185D01*
X170480537Y-94854494D01*
X170539502Y-94744180D01*
X170575812Y-94624482D01*
X170588072Y-94500000D01*
X170588072Y-92900000D01*
X170575812Y-92775518D01*
X170539502Y-92655820D01*
X170480537Y-92545506D01*
X170401185Y-92448815D01*
X170304494Y-92369463D01*
X170194180Y-92310498D01*
X170082980Y-92276766D01*
X170164697Y-92195049D01*
X170048287Y-92078639D01*
X170288376Y-92011660D01*
X170405476Y-91762632D01*
X170471743Y-91495545D01*
X170484630Y-91220663D01*
X170474753Y-91155088D01*
X171685720Y-91155088D01*
X171685720Y-91430272D01*
X171739406Y-91700170D01*
X171844715Y-91954407D01*
X171997600Y-92183215D01*
X172192185Y-92377800D01*
X172420993Y-92530685D01*
X172675230Y-92635994D01*
X172945128Y-92689680D01*
X173220312Y-92689680D01*
X173490210Y-92635994D01*
X173744447Y-92530685D01*
X173973255Y-92377800D01*
X174167840Y-92183215D01*
X174320725Y-91954407D01*
X174426034Y-91700170D01*
X174479720Y-91430272D01*
X174479720Y-91155088D01*
X174426034Y-90885190D01*
X174320725Y-90630953D01*
X174167840Y-90402145D01*
X173973255Y-90207560D01*
X173744447Y-90054675D01*
X173490210Y-89949366D01*
X173220312Y-89895680D01*
X172945128Y-89895680D01*
X172675230Y-89949366D01*
X172420993Y-90054675D01*
X172192185Y-90207560D01*
X171997600Y-90402145D01*
X171844715Y-90630953D01*
X171739406Y-90885190D01*
X171685720Y-91155088D01*
X170474753Y-91155088D01*
X170443642Y-90948547D01*
X170350356Y-90689657D01*
X170288376Y-90573700D01*
X170048285Y-90506720D01*
X169262325Y-91292680D01*
X169276468Y-91306823D01*
X169096863Y-91486428D01*
X169082720Y-91472285D01*
X168296760Y-92258245D01*
X168299184Y-92266933D01*
X168225518Y-92274188D01*
X168105820Y-92310498D01*
X167995506Y-92369463D01*
X167898815Y-92448815D01*
X167819463Y-92545506D01*
X167760498Y-92655820D01*
X167724188Y-92775518D01*
X167711928Y-92900000D01*
X167711928Y-93301534D01*
X166555401Y-92145008D01*
X166555401Y-91364697D01*
X167680810Y-91364697D01*
X167721798Y-91636813D01*
X167815084Y-91895703D01*
X167877064Y-92011660D01*
X168117155Y-92078640D01*
X168903115Y-91292680D01*
X168117155Y-90506720D01*
X167877064Y-90573700D01*
X167759964Y-90822728D01*
X167693697Y-91089815D01*
X167680810Y-91364697D01*
X166555401Y-91364697D01*
X166555401Y-90663716D01*
X166730918Y-90488200D01*
X167187515Y-90488200D01*
X167228678Y-90492254D01*
X167269841Y-90488200D01*
X167269848Y-90488200D01*
X167392994Y-90476071D01*
X167550995Y-90428142D01*
X167696610Y-90350309D01*
X167724871Y-90327115D01*
X168296760Y-90327115D01*
X169082720Y-91113075D01*
X169868680Y-90327115D01*
X169801700Y-90087024D01*
X169552672Y-89969924D01*
X169285585Y-89903657D01*
X169010703Y-89890770D01*
X168738587Y-89931758D01*
X168479697Y-90025044D01*
X168363740Y-90087024D01*
X168296760Y-90327115D01*
X167724871Y-90327115D01*
X167824242Y-90245564D01*
X167850489Y-90213583D01*
X168563588Y-89500483D01*
X168595564Y-89474242D01*
X168635975Y-89425002D01*
X168700309Y-89346610D01*
X168730834Y-89289502D01*
X168778142Y-89200995D01*
X168826071Y-89042994D01*
X168838200Y-88919848D01*
X168838200Y-88919842D01*
X168842254Y-88878679D01*
X168838200Y-88837516D01*
X168838200Y-88405619D01*
X168855537Y-88384494D01*
X168914502Y-88274180D01*
X168950000Y-88157159D01*
X168985498Y-88274180D01*
X169044463Y-88384494D01*
X169077000Y-88424141D01*
X169077000Y-88506250D01*
X169235750Y-88665000D01*
X169260929Y-88666971D01*
X169284576Y-88711212D01*
X169352280Y-88793709D01*
X169376626Y-88823375D01*
X169404732Y-88846441D01*
X169853559Y-89295268D01*
X169876625Y-89323375D01*
X169904731Y-89346441D01*
X169904732Y-89346442D01*
X169988787Y-89415424D01*
X170116751Y-89483822D01*
X170255598Y-89525941D01*
X170255601Y-89525942D01*
X170400000Y-89540164D01*
X170436186Y-89536600D01*
X170863817Y-89536600D01*
X170900000Y-89540164D01*
X170936183Y-89536600D01*
X170936186Y-89536600D01*
X171044399Y-89525942D01*
X171183249Y-89483822D01*
X171311213Y-89415424D01*
X171375004Y-89363072D01*
X171850000Y-89363072D01*
X172023254Y-89346008D01*
X172189850Y-89295472D01*
X172343386Y-89213405D01*
X172477962Y-89102962D01*
X172550000Y-89015183D01*
X172622038Y-89102962D01*
X172756614Y-89213405D01*
X172910150Y-89295472D01*
X173076746Y-89346008D01*
X173250000Y-89363072D01*
X173750000Y-89363072D01*
X173923254Y-89346008D01*
X174089850Y-89295472D01*
X174243386Y-89213405D01*
X174377962Y-89102962D01*
X174488405Y-88968386D01*
X174570472Y-88814850D01*
X174594209Y-88736600D01*
X174924229Y-88736600D01*
X174941553Y-88793709D01*
X175023042Y-88946164D01*
X175132708Y-89079792D01*
X175266336Y-89189458D01*
X175418791Y-89270947D01*
X175584215Y-89321128D01*
X175756250Y-89338072D01*
X176243750Y-89338072D01*
X176415785Y-89321128D01*
X176581209Y-89270947D01*
X176733664Y-89189458D01*
X176867292Y-89079792D01*
X176872508Y-89073436D01*
X176936315Y-89151185D01*
X177033006Y-89230537D01*
X177143320Y-89289502D01*
X177263018Y-89325812D01*
X177387500Y-89338072D01*
X177589250Y-89335000D01*
X177748000Y-89176250D01*
X177748000Y-88127000D01*
X178002000Y-88127000D01*
X178002000Y-89176250D01*
X178160750Y-89335000D01*
X178362500Y-89338072D01*
X178486982Y-89325812D01*
X178606680Y-89289502D01*
X178716994Y-89230537D01*
X178813685Y-89151185D01*
X178893037Y-89054494D01*
X178952002Y-88944180D01*
X178988312Y-88824482D01*
X179000572Y-88700000D01*
X178997500Y-88285750D01*
X178838750Y-88127000D01*
X178002000Y-88127000D01*
X177748000Y-88127000D01*
X177728000Y-88127000D01*
X177728000Y-87873000D01*
X177748000Y-87873000D01*
X177748000Y-87853000D01*
X178002000Y-87853000D01*
X178002000Y-87873000D01*
X178838750Y-87873000D01*
X178997500Y-87714250D01*
X179000572Y-87300000D01*
X178988312Y-87175518D01*
X178952002Y-87055820D01*
X178893037Y-86945506D01*
X178813685Y-86848815D01*
X178716994Y-86769463D01*
X178606680Y-86710498D01*
X178486982Y-86674188D01*
X178455686Y-86671106D01*
X178456209Y-86670947D01*
X178608664Y-86589458D01*
X178742292Y-86479792D01*
X178851958Y-86346164D01*
X178933447Y-86193709D01*
X178983628Y-86028285D01*
X178992858Y-85934568D01*
X179019266Y-85960976D01*
X179019267Y-90031511D01*
X178936260Y-90015000D01*
X178643740Y-90015000D01*
X178356842Y-90072068D01*
X178086589Y-90184010D01*
X177843368Y-90346525D01*
X177711513Y-90478380D01*
X177689502Y-90405820D01*
X177630537Y-90295506D01*
X177551185Y-90198815D01*
X177454494Y-90119463D01*
X177344180Y-90060498D01*
X177224482Y-90024188D01*
X177100000Y-90011928D01*
X175400000Y-90011928D01*
X175275518Y-90024188D01*
X175155820Y-90060498D01*
X175045506Y-90119463D01*
X174948815Y-90198815D01*
X174869463Y-90295506D01*
X174810498Y-90405820D01*
X174774188Y-90525518D01*
X174761928Y-90650000D01*
X174761928Y-92350000D01*
X174774188Y-92474482D01*
X174810498Y-92594180D01*
X174869463Y-92704494D01*
X174948815Y-92801185D01*
X175045506Y-92880537D01*
X175155820Y-92939502D01*
X175275518Y-92975812D01*
X175400000Y-92988072D01*
X177100000Y-92988072D01*
X177224482Y-92975812D01*
X177344180Y-92939502D01*
X177454494Y-92880537D01*
X177551185Y-92801185D01*
X177630537Y-92704494D01*
X177689502Y-92594180D01*
X177711513Y-92521620D01*
X177843368Y-92653475D01*
X178086589Y-92815990D01*
X178356842Y-92927932D01*
X178643740Y-92985000D01*
X178936260Y-92985000D01*
X179223158Y-92927932D01*
X179493411Y-92815990D01*
X179663401Y-92702407D01*
X179663401Y-93463599D01*
X179315725Y-93811276D01*
X179177689Y-93868452D01*
X179042485Y-93958792D01*
X178927502Y-94073775D01*
X178837162Y-94208979D01*
X178774934Y-94359211D01*
X178743210Y-94518695D01*
X178743210Y-94681305D01*
X178774934Y-94840789D01*
X178837162Y-94991021D01*
X178927502Y-95126225D01*
X179042485Y-95241208D01*
X179177689Y-95331548D01*
X179327921Y-95393776D01*
X179487405Y-95425500D01*
X179650015Y-95425500D01*
X179809499Y-95393776D01*
X179959731Y-95331548D01*
X180094935Y-95241208D01*
X180209918Y-95126225D01*
X180300258Y-94991021D01*
X180357434Y-94852985D01*
X180895269Y-94315151D01*
X180923375Y-94292085D01*
X181015424Y-94179923D01*
X181083822Y-94051959D01*
X181125942Y-93913109D01*
X181136600Y-93804896D01*
X181140164Y-93768710D01*
X181136600Y-93732524D01*
X181136600Y-90985230D01*
X181140163Y-90949054D01*
X181136600Y-90912878D01*
X181136600Y-90912869D01*
X181125942Y-90804656D01*
X181083822Y-90665806D01*
X181015424Y-90537842D01*
X180988409Y-90504924D01*
X180976070Y-90489889D01*
X180979516Y-90484732D01*
X181034702Y-90351501D01*
X181050060Y-90351501D01*
X181221813Y-90317337D01*
X181383600Y-90250322D01*
X181529205Y-90153032D01*
X181653032Y-90029205D01*
X181750322Y-89883600D01*
X181817337Y-89721813D01*
X181851501Y-89550060D01*
X181851501Y-89374942D01*
X181838200Y-89308074D01*
X181838200Y-83488072D01*
X181850000Y-83488072D01*
X181974482Y-83475812D01*
X182094180Y-83439502D01*
X182189575Y-83388511D01*
X182094926Y-106293678D01*
G37*
%TD.AperFunction*%
D27*
X171827000Y-110273000D02*
X171847000Y-110273000D01*
X171847000Y-110527000D01*
X171827000Y-110527000D01*
X171827000Y-110547000D01*
X171573000Y-110547000D01*
X171573000Y-110527000D01*
X171553000Y-110527000D01*
X171553000Y-110273000D01*
X171573000Y-110273000D01*
X171573000Y-110253000D01*
X171827000Y-110253000D01*
X171827000Y-110273000D01*
%TA.AperFunction,Conductor*%
D28*
G36*
X171827000Y-110273000D02*
G01*
X171847000Y-110273000D01*
X171847000Y-110527000D01*
X171827000Y-110527000D01*
X171827000Y-110547000D01*
X171573000Y-110547000D01*
X171573000Y-110527000D01*
X171553000Y-110527000D01*
X171553000Y-110273000D01*
X171573000Y-110273000D01*
X171573000Y-110253000D01*
X171827000Y-110253000D01*
X171827000Y-110273000D01*
G37*
%TD.AperFunction*%
D27*
X168700506Y-104830537D02*
X168810820Y-104889502D01*
X168930518Y-104925812D01*
X169055000Y-104938072D01*
X169551535Y-104938072D01*
X169177679Y-105311928D01*
X169000000Y-105311928D01*
X168875518Y-105324188D01*
X168755820Y-105360498D01*
X168645506Y-105419463D01*
X168548815Y-105498815D01*
X168469463Y-105595506D01*
X168410498Y-105705820D01*
X168374188Y-105825518D01*
X168361928Y-105950000D01*
X168361928Y-106850000D01*
X168374188Y-106974482D01*
X168410498Y-107094180D01*
X168469463Y-107204494D01*
X168548815Y-107301185D01*
X168645506Y-107380537D01*
X168755820Y-107439502D01*
X168875518Y-107475812D01*
X169000000Y-107488072D01*
X170200000Y-107488072D01*
X170324482Y-107475812D01*
X170444180Y-107439502D01*
X170554494Y-107380537D01*
X170572703Y-107365593D01*
X170561928Y-107475000D01*
X170565000Y-107914250D01*
X170723750Y-108073000D01*
X171573000Y-108073000D01*
X171573000Y-108053000D01*
X171827000Y-108053000D01*
X171827000Y-108073000D01*
X171847000Y-108073000D01*
X171847000Y-108327000D01*
X171827000Y-108327000D01*
X171827000Y-108347000D01*
X171573000Y-108347000D01*
X171573000Y-108327000D01*
X170723750Y-108327000D01*
X170565000Y-108485750D01*
X170564435Y-108566583D01*
X170033000Y-108566583D01*
X169996817Y-108563019D01*
X169960633Y-108566583D01*
X169960631Y-108566583D01*
X169852418Y-108577241D01*
X169738071Y-108611928D01*
X169000000Y-108611928D01*
X168875518Y-108624188D01*
X168755820Y-108660498D01*
X168645506Y-108719463D01*
X168548815Y-108798815D01*
X168469463Y-108895506D01*
X168445286Y-108940738D01*
X168318387Y-108836595D01*
X168164851Y-108754528D01*
X167998255Y-108703992D01*
X167825001Y-108686928D01*
X165314964Y-108686928D01*
X165301849Y-105513072D01*
X167825001Y-105513072D01*
X167998255Y-105496008D01*
X168164851Y-105445472D01*
X168318387Y-105363405D01*
X168452962Y-105252962D01*
X168563405Y-105118387D01*
X168645472Y-104964851D01*
X168689064Y-104821147D01*
X168700506Y-104830537D01*
%TA.AperFunction,Conductor*%
D28*
G36*
X168700506Y-104830537D02*
G01*
X168810820Y-104889502D01*
X168930518Y-104925812D01*
X169055000Y-104938072D01*
X169551535Y-104938072D01*
X169177679Y-105311928D01*
X169000000Y-105311928D01*
X168875518Y-105324188D01*
X168755820Y-105360498D01*
X168645506Y-105419463D01*
X168548815Y-105498815D01*
X168469463Y-105595506D01*
X168410498Y-105705820D01*
X168374188Y-105825518D01*
X168361928Y-105950000D01*
X168361928Y-106850000D01*
X168374188Y-106974482D01*
X168410498Y-107094180D01*
X168469463Y-107204494D01*
X168548815Y-107301185D01*
X168645506Y-107380537D01*
X168755820Y-107439502D01*
X168875518Y-107475812D01*
X169000000Y-107488072D01*
X170200000Y-107488072D01*
X170324482Y-107475812D01*
X170444180Y-107439502D01*
X170554494Y-107380537D01*
X170572703Y-107365593D01*
X170561928Y-107475000D01*
X170565000Y-107914250D01*
X170723750Y-108073000D01*
X171573000Y-108073000D01*
X171573000Y-108053000D01*
X171827000Y-108053000D01*
X171827000Y-108073000D01*
X171847000Y-108073000D01*
X171847000Y-108327000D01*
X171827000Y-108327000D01*
X171827000Y-108347000D01*
X171573000Y-108347000D01*
X171573000Y-108327000D01*
X170723750Y-108327000D01*
X170565000Y-108485750D01*
X170564435Y-108566583D01*
X170033000Y-108566583D01*
X169996817Y-108563019D01*
X169960633Y-108566583D01*
X169960631Y-108566583D01*
X169852418Y-108577241D01*
X169738071Y-108611928D01*
X169000000Y-108611928D01*
X168875518Y-108624188D01*
X168755820Y-108660498D01*
X168645506Y-108719463D01*
X168548815Y-108798815D01*
X168469463Y-108895506D01*
X168445286Y-108940738D01*
X168318387Y-108836595D01*
X168164851Y-108754528D01*
X167998255Y-108703992D01*
X167825001Y-108686928D01*
X165314964Y-108686928D01*
X165301849Y-105513072D01*
X167825001Y-105513072D01*
X167998255Y-105496008D01*
X168164851Y-105445472D01*
X168318387Y-105363405D01*
X168452962Y-105252962D01*
X168563405Y-105118387D01*
X168645472Y-104964851D01*
X168689064Y-104821147D01*
X168700506Y-104830537D01*
G37*
%TD.AperFunction*%
D27*
X169864887Y-101213998D02*
X169864946Y-101259002D01*
X169823948Y-101300000D01*
X169840919Y-101316971D01*
X169666971Y-101490919D01*
X169650000Y-101473948D01*
X169227784Y-101896164D01*
X169229895Y-101994711D01*
X169005659Y-102218948D01*
X168993776Y-102159211D01*
X168963728Y-102086669D01*
X168968174Y-102084827D01*
X168972216Y-101896164D01*
X168550000Y-101473948D01*
X168533029Y-101490919D01*
X168438072Y-101395962D01*
X168438072Y-101204038D01*
X168533029Y-101109081D01*
X168550000Y-101126052D01*
X168591106Y-101084946D01*
X168638328Y-101084884D01*
X168796657Y-101053174D01*
X168764887Y-101213998D01*
X168764946Y-101259002D01*
X168723948Y-101300000D01*
X168765054Y-101341106D01*
X168765116Y-101388328D01*
X168799351Y-101559264D01*
X168865173Y-101718174D01*
X169053836Y-101722216D01*
X169100000Y-101676052D01*
X169146164Y-101722216D01*
X169334827Y-101718174D01*
X169401328Y-101557026D01*
X169435113Y-101386002D01*
X169435054Y-101340998D01*
X169476052Y-101300000D01*
X169434946Y-101258894D01*
X169434884Y-101211672D01*
X169403174Y-101053343D01*
X169563998Y-101085113D01*
X169609002Y-101085054D01*
X169650000Y-101126052D01*
X169691106Y-101084946D01*
X169738328Y-101084884D01*
X169896657Y-101053174D01*
X169864887Y-101213998D01*
%TA.AperFunction,Conductor*%
D28*
G36*
X169864887Y-101213998D02*
G01*
X169864946Y-101259002D01*
X169823948Y-101300000D01*
X169840919Y-101316971D01*
X169666971Y-101490919D01*
X169650000Y-101473948D01*
X169227784Y-101896164D01*
X169229895Y-101994711D01*
X169005659Y-102218948D01*
X168993776Y-102159211D01*
X168963728Y-102086669D01*
X168968174Y-102084827D01*
X168972216Y-101896164D01*
X168550000Y-101473948D01*
X168533029Y-101490919D01*
X168438072Y-101395962D01*
X168438072Y-101204038D01*
X168533029Y-101109081D01*
X168550000Y-101126052D01*
X168591106Y-101084946D01*
X168638328Y-101084884D01*
X168796657Y-101053174D01*
X168764887Y-101213998D01*
X168764946Y-101259002D01*
X168723948Y-101300000D01*
X168765054Y-101341106D01*
X168765116Y-101388328D01*
X168799351Y-101559264D01*
X168865173Y-101718174D01*
X169053836Y-101722216D01*
X169100000Y-101676052D01*
X169146164Y-101722216D01*
X169334827Y-101718174D01*
X169401328Y-101557026D01*
X169435113Y-101386002D01*
X169435054Y-101340998D01*
X169476052Y-101300000D01*
X169434946Y-101258894D01*
X169434884Y-101211672D01*
X169403174Y-101053343D01*
X169563998Y-101085113D01*
X169609002Y-101085054D01*
X169650000Y-101126052D01*
X169691106Y-101084946D01*
X169738328Y-101084884D01*
X169896657Y-101053174D01*
X169864887Y-101213998D01*
G37*
%TD.AperFunction*%
D27*
X165482195Y-101547000D02*
X165285460Y-101547000D01*
X165284245Y-101253000D01*
X165482196Y-101253000D01*
X165482195Y-101547000D01*
%TA.AperFunction,Conductor*%
D28*
G36*
X165482195Y-101547000D02*
G01*
X165285460Y-101547000D01*
X165284245Y-101253000D01*
X165482196Y-101253000D01*
X165482195Y-101547000D01*
G37*
%TD.AperFunction*%
D27*
X169864887Y-100113998D02*
X169864946Y-100159002D01*
X169823948Y-100200000D01*
X169865054Y-100241106D01*
X169865116Y-100288328D01*
X169896826Y-100446657D01*
X169736002Y-100414887D01*
X169690998Y-100414946D01*
X169650000Y-100373948D01*
X169608894Y-100415054D01*
X169561672Y-100415116D01*
X169403343Y-100446826D01*
X169435113Y-100286002D01*
X169435054Y-100240998D01*
X169476052Y-100200000D01*
X169434946Y-100158894D01*
X169434884Y-100111672D01*
X169403174Y-99953343D01*
X169563998Y-99985113D01*
X169609002Y-99985054D01*
X169650000Y-100026052D01*
X169691106Y-99984946D01*
X169738328Y-99984884D01*
X169896657Y-99953174D01*
X169864887Y-100113998D01*
%TA.AperFunction,Conductor*%
D28*
G36*
X169864887Y-100113998D02*
G01*
X169864946Y-100159002D01*
X169823948Y-100200000D01*
X169865054Y-100241106D01*
X169865116Y-100288328D01*
X169896826Y-100446657D01*
X169736002Y-100414887D01*
X169690998Y-100414946D01*
X169650000Y-100373948D01*
X169608894Y-100415054D01*
X169561672Y-100415116D01*
X169403343Y-100446826D01*
X169435113Y-100286002D01*
X169435054Y-100240998D01*
X169476052Y-100200000D01*
X169434946Y-100158894D01*
X169434884Y-100111672D01*
X169403174Y-99953343D01*
X169563998Y-99985113D01*
X169609002Y-99985054D01*
X169650000Y-100026052D01*
X169691106Y-99984946D01*
X169738328Y-99984884D01*
X169896657Y-99953174D01*
X169864887Y-100113998D01*
G37*
%TD.AperFunction*%
D27*
X168764887Y-100113998D02*
X168764946Y-100159002D01*
X168723948Y-100200000D01*
X168765054Y-100241106D01*
X168765116Y-100288328D01*
X168796826Y-100446657D01*
X168636002Y-100414887D01*
X168590998Y-100414946D01*
X168550000Y-100373948D01*
X168533029Y-100390919D01*
X168359081Y-100216971D01*
X168376052Y-100200000D01*
X168359081Y-100183029D01*
X168533029Y-100009081D01*
X168550000Y-100026052D01*
X168591106Y-99984946D01*
X168638328Y-99984884D01*
X168796657Y-99953174D01*
X168764887Y-100113998D01*
%TA.AperFunction,Conductor*%
D28*
G36*
X168764887Y-100113998D02*
G01*
X168764946Y-100159002D01*
X168723948Y-100200000D01*
X168765054Y-100241106D01*
X168765116Y-100288328D01*
X168796826Y-100446657D01*
X168636002Y-100414887D01*
X168590998Y-100414946D01*
X168550000Y-100373948D01*
X168533029Y-100390919D01*
X168359081Y-100216971D01*
X168376052Y-100200000D01*
X168359081Y-100183029D01*
X168533029Y-100009081D01*
X168550000Y-100026052D01*
X168591106Y-99984946D01*
X168638328Y-99984884D01*
X168796657Y-99953174D01*
X168764887Y-100113998D01*
G37*
%TD.AperFunction*%
D27*
X165582678Y-93543072D02*
X165527000Y-93598750D01*
X165527000Y-94673000D01*
X165547000Y-94673000D01*
X165547000Y-94927000D01*
X165527000Y-94927000D01*
X165527000Y-96873000D01*
X165547000Y-96873000D01*
X165547000Y-97127000D01*
X165527000Y-97127000D01*
X165527000Y-97147000D01*
X165273000Y-97147000D01*
X165273000Y-97127000D01*
X165267197Y-97127000D01*
X165267141Y-97113566D01*
X165267141Y-97113565D01*
X165266934Y-97063566D01*
X165266147Y-96873000D01*
X165273000Y-96873000D01*
X165273000Y-94927000D01*
X165258105Y-94927000D01*
X165257056Y-94673000D01*
X165273000Y-94673000D01*
X165273000Y-93598750D01*
X165252532Y-93578282D01*
X165251016Y-93211409D01*
X165582678Y-93543072D01*
%TA.AperFunction,Conductor*%
D28*
G36*
X165582678Y-93543072D02*
G01*
X165527000Y-93598750D01*
X165527000Y-94673000D01*
X165547000Y-94673000D01*
X165547000Y-94927000D01*
X165527000Y-94927000D01*
X165527000Y-96873000D01*
X165547000Y-96873000D01*
X165547000Y-97127000D01*
X165527000Y-97127000D01*
X165527000Y-97147000D01*
X165273000Y-97147000D01*
X165273000Y-97127000D01*
X165267197Y-97127000D01*
X165267141Y-97113566D01*
X165267141Y-97113565D01*
X165266934Y-97063566D01*
X165266147Y-96873000D01*
X165273000Y-96873000D01*
X165273000Y-94927000D01*
X165258105Y-94927000D01*
X165257056Y-94673000D01*
X165273000Y-94673000D01*
X165273000Y-93598750D01*
X165252532Y-93578282D01*
X165251016Y-93211409D01*
X165582678Y-93543072D01*
G37*
%TD.AperFunction*%
D27*
X165727000Y-87373000D02*
X165747000Y-87373000D01*
X165747000Y-87627000D01*
X165727000Y-87627000D01*
X165727000Y-88476250D01*
X165885750Y-88635000D01*
X166325000Y-88638072D01*
X166449482Y-88625812D01*
X166569180Y-88589502D01*
X166679494Y-88530537D01*
X166776185Y-88451185D01*
X166855537Y-88354494D01*
X166914502Y-88244180D01*
X166950812Y-88124482D01*
X166963072Y-88000000D01*
X166960000Y-87785750D01*
X166801252Y-87627002D01*
X166941609Y-87627002D01*
X167036928Y-87722321D01*
X167036928Y-88030000D01*
X167049188Y-88154482D01*
X167085498Y-88274180D01*
X167144463Y-88384494D01*
X167161800Y-88405620D01*
X167161800Y-88531484D01*
X166881485Y-88811800D01*
X166424887Y-88811800D01*
X166383724Y-88807746D01*
X166342561Y-88811800D01*
X166342554Y-88811800D01*
X166219408Y-88823929D01*
X166061407Y-88871858D01*
X165915792Y-88949691D01*
X165788160Y-89054436D01*
X165761917Y-89086413D01*
X165236143Y-89612188D01*
X165232107Y-88635574D01*
X165314250Y-88635000D01*
X165473000Y-88476250D01*
X165473000Y-87627000D01*
X165453000Y-87627000D01*
X165453000Y-87373000D01*
X165473000Y-87373000D01*
X165473000Y-87353000D01*
X165727000Y-87353000D01*
X165727000Y-87373000D01*
%TA.AperFunction,Conductor*%
D28*
G36*
X165727000Y-87373000D02*
G01*
X165747000Y-87373000D01*
X165747000Y-87627000D01*
X165727000Y-87627000D01*
X165727000Y-88476250D01*
X165885750Y-88635000D01*
X166325000Y-88638072D01*
X166449482Y-88625812D01*
X166569180Y-88589502D01*
X166679494Y-88530537D01*
X166776185Y-88451185D01*
X166855537Y-88354494D01*
X166914502Y-88244180D01*
X166950812Y-88124482D01*
X166963072Y-88000000D01*
X166960000Y-87785750D01*
X166801252Y-87627002D01*
X166941609Y-87627002D01*
X167036928Y-87722321D01*
X167036928Y-88030000D01*
X167049188Y-88154482D01*
X167085498Y-88274180D01*
X167144463Y-88384494D01*
X167161800Y-88405620D01*
X167161800Y-88531484D01*
X166881485Y-88811800D01*
X166424887Y-88811800D01*
X166383724Y-88807746D01*
X166342561Y-88811800D01*
X166342554Y-88811800D01*
X166219408Y-88823929D01*
X166061407Y-88871858D01*
X165915792Y-88949691D01*
X165788160Y-89054436D01*
X165761917Y-89086413D01*
X165236143Y-89612188D01*
X165232107Y-88635574D01*
X165314250Y-88635000D01*
X165473000Y-88476250D01*
X165473000Y-87627000D01*
X165453000Y-87627000D01*
X165453000Y-87373000D01*
X165473000Y-87373000D01*
X165473000Y-87353000D01*
X165727000Y-87353000D01*
X165727000Y-87373000D01*
G37*
%TD.AperFunction*%
D27*
X166727000Y-82093000D02*
X166747000Y-82093000D01*
X166747000Y-82347000D01*
X166727000Y-82347000D01*
X166727000Y-83546250D01*
X166885750Y-83705000D01*
X166886395Y-83705004D01*
X166708217Y-83883182D01*
X166676235Y-83909429D01*
X166571490Y-84037062D01*
X166532202Y-84110564D01*
X166531546Y-84108979D01*
X166441206Y-83973775D01*
X166326223Y-83858792D01*
X166191019Y-83768452D01*
X166041418Y-83706485D01*
X166314250Y-83705000D01*
X166473000Y-83546250D01*
X166473000Y-82347000D01*
X166453000Y-82347000D01*
X166453000Y-82093000D01*
X166473000Y-82093000D01*
X166473000Y-82073000D01*
X166727000Y-82073000D01*
X166727000Y-82093000D01*
%TA.AperFunction,Conductor*%
D28*
G36*
X166727000Y-82093000D02*
G01*
X166747000Y-82093000D01*
X166747000Y-82347000D01*
X166727000Y-82347000D01*
X166727000Y-83546250D01*
X166885750Y-83705000D01*
X166886395Y-83705004D01*
X166708217Y-83883182D01*
X166676235Y-83909429D01*
X166571490Y-84037062D01*
X166532202Y-84110564D01*
X166531546Y-84108979D01*
X166441206Y-83973775D01*
X166326223Y-83858792D01*
X166191019Y-83768452D01*
X166041418Y-83706485D01*
X166314250Y-83705000D01*
X166473000Y-83546250D01*
X166473000Y-82347000D01*
X166453000Y-82347000D01*
X166453000Y-82093000D01*
X166473000Y-82093000D01*
X166473000Y-82073000D01*
X166727000Y-82073000D01*
X166727000Y-82093000D01*
G37*
%TD.AperFunction*%
D27*
X172711750Y-76279901D02*
X172680026Y-76439385D01*
X172680026Y-76601995D01*
X172711750Y-76761479D01*
X172773978Y-76911711D01*
X172864318Y-77046915D01*
X172918088Y-77100685D01*
X172895388Y-77175518D01*
X172883128Y-77300000D01*
X172886200Y-77414250D01*
X173044950Y-77573000D01*
X173844200Y-77573000D01*
X173844200Y-77553000D01*
X174098200Y-77553000D01*
X174098200Y-77573000D01*
X174118200Y-77573000D01*
X174118200Y-77824091D01*
X174115291Y-77827000D01*
X174098200Y-77827000D01*
X174098200Y-77844091D01*
X174095291Y-77847000D01*
X173844200Y-77847000D01*
X173844200Y-77827000D01*
X173044950Y-77827000D01*
X172886200Y-77985750D01*
X172883128Y-78100000D01*
X172895388Y-78224482D01*
X172917886Y-78298646D01*
X172880665Y-78354351D01*
X172818437Y-78504583D01*
X172786713Y-78664067D01*
X172786713Y-78826677D01*
X172818437Y-78986161D01*
X172875613Y-79124196D01*
X172875613Y-79204830D01*
X172872049Y-79241013D01*
X172875613Y-79277196D01*
X172875613Y-79277198D01*
X172883128Y-79353499D01*
X172883128Y-80000000D01*
X172895388Y-80124482D01*
X172931698Y-80244180D01*
X172990663Y-80354494D01*
X173070015Y-80451185D01*
X173166706Y-80530537D01*
X173277020Y-80589502D01*
X173396718Y-80625812D01*
X173521200Y-80638072D01*
X174149019Y-80638072D01*
X173451532Y-81335559D01*
X173423425Y-81358626D01*
X173400359Y-81386732D01*
X173400358Y-81386733D01*
X173346505Y-81452353D01*
X173331376Y-81470788D01*
X173262978Y-81598752D01*
X173220858Y-81737602D01*
X173213479Y-81812524D01*
X173206636Y-81882000D01*
X173210200Y-81918184D01*
X173210201Y-82372200D01*
X172146583Y-82372200D01*
X172110399Y-82368636D01*
X172074216Y-82372200D01*
X172074214Y-82372200D01*
X171966001Y-82382858D01*
X171827151Y-82424978D01*
X171769861Y-82455600D01*
X171699186Y-82493376D01*
X171628427Y-82551447D01*
X171587025Y-82585425D01*
X171565672Y-82611444D01*
X171565672Y-80284000D01*
X171553412Y-80159518D01*
X171517102Y-80039820D01*
X171458137Y-79929506D01*
X171378785Y-79832815D01*
X171282094Y-79753463D01*
X171171780Y-79694498D01*
X171052082Y-79658188D01*
X170927600Y-79645928D01*
X169127600Y-79645928D01*
X169094611Y-79649177D01*
X169094611Y-79418823D01*
X169127600Y-79422072D01*
X170927600Y-79422072D01*
X171052082Y-79409812D01*
X171171780Y-79373502D01*
X171282094Y-79314537D01*
X171378785Y-79235185D01*
X171458137Y-79138494D01*
X171517102Y-79028180D01*
X171553412Y-78908482D01*
X171565672Y-78784000D01*
X171565672Y-77181322D01*
X171861189Y-76885805D01*
X171893164Y-76859564D01*
X171938815Y-76803939D01*
X171997909Y-76731932D01*
X172075741Y-76586318D01*
X172075742Y-76586317D01*
X172123671Y-76428316D01*
X172135800Y-76305170D01*
X172135800Y-76305161D01*
X172139854Y-76264001D01*
X172135800Y-76222841D01*
X172135800Y-76138072D01*
X172770497Y-76138072D01*
X172711750Y-76279901D01*
%TA.AperFunction,Conductor*%
D28*
G36*
X172711750Y-76279901D02*
G01*
X172680026Y-76439385D01*
X172680026Y-76601995D01*
X172711750Y-76761479D01*
X172773978Y-76911711D01*
X172864318Y-77046915D01*
X172918088Y-77100685D01*
X172895388Y-77175518D01*
X172883128Y-77300000D01*
X172886200Y-77414250D01*
X173044950Y-77573000D01*
X173844200Y-77573000D01*
X173844200Y-77553000D01*
X174098200Y-77553000D01*
X174098200Y-77573000D01*
X174118200Y-77573000D01*
X174118200Y-77824091D01*
X174115291Y-77827000D01*
X174098200Y-77827000D01*
X174098200Y-77844091D01*
X174095291Y-77847000D01*
X173844200Y-77847000D01*
X173844200Y-77827000D01*
X173044950Y-77827000D01*
X172886200Y-77985750D01*
X172883128Y-78100000D01*
X172895388Y-78224482D01*
X172917886Y-78298646D01*
X172880665Y-78354351D01*
X172818437Y-78504583D01*
X172786713Y-78664067D01*
X172786713Y-78826677D01*
X172818437Y-78986161D01*
X172875613Y-79124196D01*
X172875613Y-79204830D01*
X172872049Y-79241013D01*
X172875613Y-79277196D01*
X172875613Y-79277198D01*
X172883128Y-79353499D01*
X172883128Y-80000000D01*
X172895388Y-80124482D01*
X172931698Y-80244180D01*
X172990663Y-80354494D01*
X173070015Y-80451185D01*
X173166706Y-80530537D01*
X173277020Y-80589502D01*
X173396718Y-80625812D01*
X173521200Y-80638072D01*
X174149019Y-80638072D01*
X173451532Y-81335559D01*
X173423425Y-81358626D01*
X173400359Y-81386732D01*
X173400358Y-81386733D01*
X173346505Y-81452353D01*
X173331376Y-81470788D01*
X173262978Y-81598752D01*
X173220858Y-81737602D01*
X173213479Y-81812524D01*
X173206636Y-81882000D01*
X173210200Y-81918184D01*
X173210201Y-82372200D01*
X172146583Y-82372200D01*
X172110399Y-82368636D01*
X172074216Y-82372200D01*
X172074214Y-82372200D01*
X171966001Y-82382858D01*
X171827151Y-82424978D01*
X171769861Y-82455600D01*
X171699186Y-82493376D01*
X171628427Y-82551447D01*
X171587025Y-82585425D01*
X171565672Y-82611444D01*
X171565672Y-80284000D01*
X171553412Y-80159518D01*
X171517102Y-80039820D01*
X171458137Y-79929506D01*
X171378785Y-79832815D01*
X171282094Y-79753463D01*
X171171780Y-79694498D01*
X171052082Y-79658188D01*
X170927600Y-79645928D01*
X169127600Y-79645928D01*
X169094611Y-79649177D01*
X169094611Y-79418823D01*
X169127600Y-79422072D01*
X170927600Y-79422072D01*
X171052082Y-79409812D01*
X171171780Y-79373502D01*
X171282094Y-79314537D01*
X171378785Y-79235185D01*
X171458137Y-79138494D01*
X171517102Y-79028180D01*
X171553412Y-78908482D01*
X171565672Y-78784000D01*
X171565672Y-77181322D01*
X171861189Y-76885805D01*
X171893164Y-76859564D01*
X171938815Y-76803939D01*
X171997909Y-76731932D01*
X172075741Y-76586318D01*
X172075742Y-76586317D01*
X172123671Y-76428316D01*
X172135800Y-76305170D01*
X172135800Y-76305161D01*
X172139854Y-76264001D01*
X172135800Y-76222841D01*
X172135800Y-76138072D01*
X172770497Y-76138072D01*
X172711750Y-76279901D01*
G37*
%TD.AperFunction*%
D27*
X169344559Y-71981172D02*
X169185150Y-72029528D01*
X169031614Y-72111595D01*
X168897038Y-72222038D01*
X168786595Y-72356614D01*
X168704528Y-72510150D01*
X168653992Y-72676746D01*
X168636928Y-72850000D01*
X168636928Y-73277678D01*
X167945873Y-73968734D01*
X167915990Y-73896589D01*
X167753475Y-73653368D01*
X167546632Y-73446525D01*
X167303411Y-73284010D01*
X167033158Y-73172068D01*
X166746260Y-73115000D01*
X166453740Y-73115000D01*
X166166842Y-73172068D01*
X165896589Y-73284010D01*
X165653368Y-73446525D01*
X165446525Y-73653368D01*
X165284010Y-73896589D01*
X165172316Y-74166242D01*
X165160738Y-71364188D01*
X165203175Y-71504099D01*
X165328359Y-71766920D01*
X165502412Y-72000269D01*
X165718645Y-72195178D01*
X165968748Y-72344157D01*
X166243109Y-72441481D01*
X166473000Y-72320814D01*
X166473000Y-71127000D01*
X166727000Y-71127000D01*
X166727000Y-72320814D01*
X166956891Y-72441481D01*
X167231252Y-72344157D01*
X167481355Y-72195178D01*
X167697588Y-72000269D01*
X167871641Y-71766920D01*
X167996825Y-71504099D01*
X168041476Y-71356890D01*
X167920155Y-71127000D01*
X166727000Y-71127000D01*
X166473000Y-71127000D01*
X166453000Y-71127000D01*
X166453000Y-70873000D01*
X166473000Y-70873000D01*
X166473000Y-70853000D01*
X166727000Y-70853000D01*
X166727000Y-70873000D01*
X167920155Y-70873000D01*
X168029393Y-70666006D01*
X169344559Y-71981172D01*
%TA.AperFunction,Conductor*%
D28*
G36*
X169344559Y-71981172D02*
G01*
X169185150Y-72029528D01*
X169031614Y-72111595D01*
X168897038Y-72222038D01*
X168786595Y-72356614D01*
X168704528Y-72510150D01*
X168653992Y-72676746D01*
X168636928Y-72850000D01*
X168636928Y-73277678D01*
X167945873Y-73968734D01*
X167915990Y-73896589D01*
X167753475Y-73653368D01*
X167546632Y-73446525D01*
X167303411Y-73284010D01*
X167033158Y-73172068D01*
X166746260Y-73115000D01*
X166453740Y-73115000D01*
X166166842Y-73172068D01*
X165896589Y-73284010D01*
X165653368Y-73446525D01*
X165446525Y-73653368D01*
X165284010Y-73896589D01*
X165172316Y-74166242D01*
X165160738Y-71364188D01*
X165203175Y-71504099D01*
X165328359Y-71766920D01*
X165502412Y-72000269D01*
X165718645Y-72195178D01*
X165968748Y-72344157D01*
X166243109Y-72441481D01*
X166473000Y-72320814D01*
X166473000Y-71127000D01*
X166727000Y-71127000D01*
X166727000Y-72320814D01*
X166956891Y-72441481D01*
X167231252Y-72344157D01*
X167481355Y-72195178D01*
X167697588Y-72000269D01*
X167871641Y-71766920D01*
X167996825Y-71504099D01*
X168041476Y-71356890D01*
X167920155Y-71127000D01*
X166727000Y-71127000D01*
X166473000Y-71127000D01*
X166453000Y-71127000D01*
X166453000Y-70873000D01*
X166473000Y-70873000D01*
X166473000Y-70853000D01*
X166727000Y-70853000D01*
X166727000Y-70873000D01*
X167920155Y-70873000D01*
X168029393Y-70666006D01*
X169344559Y-71981172D01*
G37*
%TD.AperFunction*%
D27*
X168385150Y-63329528D02*
X168231614Y-63411595D01*
X168097038Y-63522038D01*
X167986595Y-63656614D01*
X167904528Y-63810150D01*
X167853992Y-63976746D01*
X167836928Y-64150000D01*
X167836928Y-64650000D01*
X167853992Y-64823254D01*
X167904528Y-64989850D01*
X167986595Y-65143386D01*
X168097038Y-65277962D01*
X168184817Y-65350000D01*
X168097038Y-65422038D01*
X167986595Y-65556614D01*
X167904528Y-65710150D01*
X167853992Y-65876746D01*
X167836928Y-66050000D01*
X167836928Y-66550000D01*
X167853992Y-66723254D01*
X167904528Y-66889850D01*
X167986595Y-67043386D01*
X168097038Y-67177962D01*
X168231614Y-67288405D01*
X168385150Y-67370472D01*
X168551746Y-67421008D01*
X168725000Y-67438072D01*
X169675000Y-67438072D01*
X169848254Y-67421008D01*
X169964098Y-67385867D01*
X169965000Y-67742250D01*
X170123750Y-67901000D01*
X171473000Y-67901000D01*
X171473000Y-67881000D01*
X171727000Y-67881000D01*
X171727000Y-67901000D01*
X173076250Y-67901000D01*
X173235000Y-67742250D01*
X173236751Y-67050145D01*
X173761928Y-67575322D01*
X173761928Y-69028000D01*
X173783796Y-69250027D01*
X173848559Y-69463521D01*
X173953728Y-69660279D01*
X174095262Y-69832738D01*
X174267721Y-69974272D01*
X174464479Y-70079441D01*
X174677973Y-70144204D01*
X174900000Y-70166072D01*
X175900000Y-70166072D01*
X176122027Y-70144204D01*
X176335521Y-70079441D01*
X176437287Y-70025046D01*
X176440000Y-70214250D01*
X176598750Y-70373000D01*
X177673000Y-70373000D01*
X177673000Y-70353000D01*
X177927000Y-70353000D01*
X177927000Y-70373000D01*
X177947000Y-70373000D01*
X177947000Y-70627000D01*
X177927000Y-70627000D01*
X177927000Y-71476250D01*
X178085750Y-71635000D01*
X178525000Y-71638072D01*
X178561801Y-71634448D01*
X178561800Y-71965552D01*
X178525000Y-71961928D01*
X178085750Y-71965000D01*
X177927000Y-72123750D01*
X177927000Y-72973000D01*
X177947000Y-72973000D01*
X177947000Y-73227000D01*
X177927000Y-73227000D01*
X177927000Y-73247000D01*
X177673000Y-73247000D01*
X177673000Y-73227000D01*
X176598750Y-73227000D01*
X176500000Y-73325750D01*
X176401250Y-73227000D01*
X175327000Y-73227000D01*
X175327000Y-73247000D01*
X175073000Y-73247000D01*
X175073000Y-73227000D01*
X175053000Y-73227000D01*
X175053000Y-72973000D01*
X175073000Y-72973000D01*
X175073000Y-72953000D01*
X175327000Y-72953000D01*
X175327000Y-72973000D01*
X176401250Y-72973000D01*
X176500000Y-72874250D01*
X176598750Y-72973000D01*
X177673000Y-72973000D01*
X177673000Y-72123750D01*
X177514250Y-71965000D01*
X177075000Y-71961928D01*
X176950518Y-71974188D01*
X176830820Y-72010498D01*
X176720506Y-72069463D01*
X176623815Y-72148815D01*
X176544463Y-72245506D01*
X176500000Y-72328689D01*
X176455537Y-72245506D01*
X176376185Y-72148815D01*
X176279494Y-72069463D01*
X176169180Y-72010498D01*
X176049482Y-71974188D01*
X175925000Y-71961928D01*
X175542491Y-71964603D01*
X175593776Y-71840789D01*
X175625500Y-71681305D01*
X175625500Y-71518695D01*
X175593776Y-71359211D01*
X175531548Y-71208979D01*
X175441208Y-71073775D01*
X175367433Y-71000000D01*
X176436928Y-71000000D01*
X176449188Y-71124482D01*
X176485498Y-71244180D01*
X176544463Y-71354494D01*
X176623815Y-71451185D01*
X176720506Y-71530537D01*
X176830820Y-71589502D01*
X176950518Y-71625812D01*
X177075000Y-71638072D01*
X177514250Y-71635000D01*
X177673000Y-71476250D01*
X177673000Y-70627000D01*
X176598750Y-70627000D01*
X176440000Y-70785750D01*
X176436928Y-71000000D01*
X175367433Y-71000000D01*
X175326225Y-70958792D01*
X175191021Y-70868452D01*
X175040789Y-70806224D01*
X174881305Y-70774500D01*
X174718695Y-70774500D01*
X174559211Y-70806224D01*
X174408979Y-70868452D01*
X174273775Y-70958792D01*
X174158792Y-71073775D01*
X174068452Y-71208979D01*
X174011276Y-71347014D01*
X173529732Y-71828559D01*
X173501626Y-71851625D01*
X173478560Y-71879731D01*
X173478558Y-71879733D01*
X173409576Y-71963788D01*
X173406291Y-71969934D01*
X173325000Y-71961928D01*
X172885750Y-71965000D01*
X172727000Y-72123750D01*
X172727000Y-72973000D01*
X172747000Y-72973000D01*
X172747000Y-73227000D01*
X172727000Y-73227000D01*
X172727000Y-73247000D01*
X172473000Y-73247000D01*
X172473000Y-73227000D01*
X172453000Y-73227000D01*
X172453000Y-72973000D01*
X172473000Y-72973000D01*
X172473000Y-72123750D01*
X172314250Y-71965000D01*
X171875000Y-71961928D01*
X171750518Y-71974188D01*
X171718174Y-71984000D01*
X169262174Y-69528000D01*
X169961928Y-69528000D01*
X169974188Y-69652482D01*
X170010498Y-69772180D01*
X170069463Y-69882494D01*
X170148815Y-69979185D01*
X170245506Y-70058537D01*
X170355820Y-70117502D01*
X170475518Y-70153812D01*
X170600000Y-70166072D01*
X171314250Y-70163000D01*
X171473000Y-70004250D01*
X171473000Y-68155000D01*
X171727000Y-68155000D01*
X171727000Y-70004250D01*
X171885750Y-70163000D01*
X172600000Y-70166072D01*
X172724482Y-70153812D01*
X172844180Y-70117502D01*
X172954494Y-70058537D01*
X173051185Y-69979185D01*
X173130537Y-69882494D01*
X173189502Y-69772180D01*
X173225812Y-69652482D01*
X173238072Y-69528000D01*
X173235000Y-68313750D01*
X173076250Y-68155000D01*
X171727000Y-68155000D01*
X171473000Y-68155000D01*
X170123750Y-68155000D01*
X169965000Y-68313750D01*
X169961928Y-69528000D01*
X169262174Y-69528000D01*
X168088072Y-68353899D01*
X168088072Y-67610000D01*
X168075812Y-67485518D01*
X168039502Y-67365820D01*
X167980537Y-67255506D01*
X167901185Y-67158815D01*
X167804494Y-67079463D01*
X167694180Y-67020498D01*
X167574482Y-66984188D01*
X167450000Y-66971928D01*
X165750000Y-66971928D01*
X165625518Y-66984188D01*
X165505820Y-67020498D01*
X165395506Y-67079463D01*
X165298815Y-67158815D01*
X165219463Y-67255506D01*
X165160498Y-67365820D01*
X165144434Y-67418775D01*
X165127526Y-63327000D01*
X168393484Y-63327000D01*
X168385150Y-63329528D01*
%TA.AperFunction,Conductor*%
D28*
G36*
X168385150Y-63329528D02*
G01*
X168231614Y-63411595D01*
X168097038Y-63522038D01*
X167986595Y-63656614D01*
X167904528Y-63810150D01*
X167853992Y-63976746D01*
X167836928Y-64150000D01*
X167836928Y-64650000D01*
X167853992Y-64823254D01*
X167904528Y-64989850D01*
X167986595Y-65143386D01*
X168097038Y-65277962D01*
X168184817Y-65350000D01*
X168097038Y-65422038D01*
X167986595Y-65556614D01*
X167904528Y-65710150D01*
X167853992Y-65876746D01*
X167836928Y-66050000D01*
X167836928Y-66550000D01*
X167853992Y-66723254D01*
X167904528Y-66889850D01*
X167986595Y-67043386D01*
X168097038Y-67177962D01*
X168231614Y-67288405D01*
X168385150Y-67370472D01*
X168551746Y-67421008D01*
X168725000Y-67438072D01*
X169675000Y-67438072D01*
X169848254Y-67421008D01*
X169964098Y-67385867D01*
X169965000Y-67742250D01*
X170123750Y-67901000D01*
X171473000Y-67901000D01*
X171473000Y-67881000D01*
X171727000Y-67881000D01*
X171727000Y-67901000D01*
X173076250Y-67901000D01*
X173235000Y-67742250D01*
X173236751Y-67050145D01*
X173761928Y-67575322D01*
X173761928Y-69028000D01*
X173783796Y-69250027D01*
X173848559Y-69463521D01*
X173953728Y-69660279D01*
X174095262Y-69832738D01*
X174267721Y-69974272D01*
X174464479Y-70079441D01*
X174677973Y-70144204D01*
X174900000Y-70166072D01*
X175900000Y-70166072D01*
X176122027Y-70144204D01*
X176335521Y-70079441D01*
X176437287Y-70025046D01*
X176440000Y-70214250D01*
X176598750Y-70373000D01*
X177673000Y-70373000D01*
X177673000Y-70353000D01*
X177927000Y-70353000D01*
X177927000Y-70373000D01*
X177947000Y-70373000D01*
X177947000Y-70627000D01*
X177927000Y-70627000D01*
X177927000Y-71476250D01*
X178085750Y-71635000D01*
X178525000Y-71638072D01*
X178561801Y-71634448D01*
X178561800Y-71965552D01*
X178525000Y-71961928D01*
X178085750Y-71965000D01*
X177927000Y-72123750D01*
X177927000Y-72973000D01*
X177947000Y-72973000D01*
X177947000Y-73227000D01*
X177927000Y-73227000D01*
X177927000Y-73247000D01*
X177673000Y-73247000D01*
X177673000Y-73227000D01*
X176598750Y-73227000D01*
X176500000Y-73325750D01*
X176401250Y-73227000D01*
X175327000Y-73227000D01*
X175327000Y-73247000D01*
X175073000Y-73247000D01*
X175073000Y-73227000D01*
X175053000Y-73227000D01*
X175053000Y-72973000D01*
X175073000Y-72973000D01*
X175073000Y-72953000D01*
X175327000Y-72953000D01*
X175327000Y-72973000D01*
X176401250Y-72973000D01*
X176500000Y-72874250D01*
X176598750Y-72973000D01*
X177673000Y-72973000D01*
X177673000Y-72123750D01*
X177514250Y-71965000D01*
X177075000Y-71961928D01*
X176950518Y-71974188D01*
X176830820Y-72010498D01*
X176720506Y-72069463D01*
X176623815Y-72148815D01*
X176544463Y-72245506D01*
X176500000Y-72328689D01*
X176455537Y-72245506D01*
X176376185Y-72148815D01*
X176279494Y-72069463D01*
X176169180Y-72010498D01*
X176049482Y-71974188D01*
X175925000Y-71961928D01*
X175542491Y-71964603D01*
X175593776Y-71840789D01*
X175625500Y-71681305D01*
X175625500Y-71518695D01*
X175593776Y-71359211D01*
X175531548Y-71208979D01*
X175441208Y-71073775D01*
X175367433Y-71000000D01*
X176436928Y-71000000D01*
X176449188Y-71124482D01*
X176485498Y-71244180D01*
X176544463Y-71354494D01*
X176623815Y-71451185D01*
X176720506Y-71530537D01*
X176830820Y-71589502D01*
X176950518Y-71625812D01*
X177075000Y-71638072D01*
X177514250Y-71635000D01*
X177673000Y-71476250D01*
X177673000Y-70627000D01*
X176598750Y-70627000D01*
X176440000Y-70785750D01*
X176436928Y-71000000D01*
X175367433Y-71000000D01*
X175326225Y-70958792D01*
X175191021Y-70868452D01*
X175040789Y-70806224D01*
X174881305Y-70774500D01*
X174718695Y-70774500D01*
X174559211Y-70806224D01*
X174408979Y-70868452D01*
X174273775Y-70958792D01*
X174158792Y-71073775D01*
X174068452Y-71208979D01*
X174011276Y-71347014D01*
X173529732Y-71828559D01*
X173501626Y-71851625D01*
X173478560Y-71879731D01*
X173478558Y-71879733D01*
X173409576Y-71963788D01*
X173406291Y-71969934D01*
X173325000Y-71961928D01*
X172885750Y-71965000D01*
X172727000Y-72123750D01*
X172727000Y-72973000D01*
X172747000Y-72973000D01*
X172747000Y-73227000D01*
X172727000Y-73227000D01*
X172727000Y-73247000D01*
X172473000Y-73247000D01*
X172473000Y-73227000D01*
X172453000Y-73227000D01*
X172453000Y-72973000D01*
X172473000Y-72973000D01*
X172473000Y-72123750D01*
X172314250Y-71965000D01*
X171875000Y-71961928D01*
X171750518Y-71974188D01*
X171718174Y-71984000D01*
X169262174Y-69528000D01*
X169961928Y-69528000D01*
X169974188Y-69652482D01*
X170010498Y-69772180D01*
X170069463Y-69882494D01*
X170148815Y-69979185D01*
X170245506Y-70058537D01*
X170355820Y-70117502D01*
X170475518Y-70153812D01*
X170600000Y-70166072D01*
X171314250Y-70163000D01*
X171473000Y-70004250D01*
X171473000Y-68155000D01*
X171727000Y-68155000D01*
X171727000Y-70004250D01*
X171885750Y-70163000D01*
X172600000Y-70166072D01*
X172724482Y-70153812D01*
X172844180Y-70117502D01*
X172954494Y-70058537D01*
X173051185Y-69979185D01*
X173130537Y-69882494D01*
X173189502Y-69772180D01*
X173225812Y-69652482D01*
X173238072Y-69528000D01*
X173235000Y-68313750D01*
X173076250Y-68155000D01*
X171727000Y-68155000D01*
X171473000Y-68155000D01*
X170123750Y-68155000D01*
X169965000Y-68313750D01*
X169961928Y-69528000D01*
X169262174Y-69528000D01*
X168088072Y-68353899D01*
X168088072Y-67610000D01*
X168075812Y-67485518D01*
X168039502Y-67365820D01*
X167980537Y-67255506D01*
X167901185Y-67158815D01*
X167804494Y-67079463D01*
X167694180Y-67020498D01*
X167574482Y-66984188D01*
X167450000Y-66971928D01*
X165750000Y-66971928D01*
X165625518Y-66984188D01*
X165505820Y-67020498D01*
X165395506Y-67079463D01*
X165298815Y-67158815D01*
X165219463Y-67255506D01*
X165160498Y-67365820D01*
X165144434Y-67418775D01*
X165127526Y-63327000D01*
X168393484Y-63327000D01*
X168385150Y-63329528D01*
G37*
%TD.AperFunction*%
D27*
X182250279Y-68698179D02*
X182171641Y-68533080D01*
X181997588Y-68299731D01*
X181781355Y-68104822D01*
X181531252Y-67955843D01*
X181256891Y-67858519D01*
X181027000Y-67979186D01*
X181027000Y-69173000D01*
X181047000Y-69173000D01*
X181047000Y-69427000D01*
X181027000Y-69427000D01*
X181027000Y-69447000D01*
X180773000Y-69447000D01*
X180773000Y-69427000D01*
X180753000Y-69427000D01*
X180753000Y-69173000D01*
X180773000Y-69173000D01*
X180773000Y-67979186D01*
X180543109Y-67858519D01*
X180268748Y-67955843D01*
X180104251Y-68053829D01*
X180090531Y-68033296D01*
X179966704Y-67909469D01*
X179821099Y-67812179D01*
X179659312Y-67745164D01*
X179487559Y-67711000D01*
X179312441Y-67711000D01*
X179140688Y-67745164D01*
X179100526Y-67761800D01*
X178935594Y-67761800D01*
X178902962Y-67722038D01*
X178768386Y-67611595D01*
X178614850Y-67529528D01*
X178448254Y-67478992D01*
X178275000Y-67461928D01*
X177325000Y-67461928D01*
X177151746Y-67478992D01*
X177038072Y-67513474D01*
X177038072Y-67028000D01*
X177016204Y-66805973D01*
X176951441Y-66592479D01*
X176846272Y-66395721D01*
X176704738Y-66223262D01*
X176532279Y-66081728D01*
X176335521Y-65976559D01*
X176122027Y-65911796D01*
X175900000Y-65889928D01*
X174900000Y-65889928D01*
X174677973Y-65911796D01*
X174517783Y-65960389D01*
X172393811Y-63836418D01*
X172367564Y-63804436D01*
X172239932Y-63699691D01*
X172094317Y-63621858D01*
X171936316Y-63573929D01*
X171813170Y-63561800D01*
X171813163Y-63561800D01*
X171772000Y-63557746D01*
X171730837Y-63561800D01*
X170335594Y-63561800D01*
X170302962Y-63522038D01*
X170168386Y-63411595D01*
X170014850Y-63329528D01*
X170006516Y-63327000D01*
X182272474Y-63327000D01*
X182250279Y-68698179D01*
%TA.AperFunction,Conductor*%
D28*
G36*
X182250279Y-68698179D02*
G01*
X182171641Y-68533080D01*
X181997588Y-68299731D01*
X181781355Y-68104822D01*
X181531252Y-67955843D01*
X181256891Y-67858519D01*
X181027000Y-67979186D01*
X181027000Y-69173000D01*
X181047000Y-69173000D01*
X181047000Y-69427000D01*
X181027000Y-69427000D01*
X181027000Y-69447000D01*
X180773000Y-69447000D01*
X180773000Y-69427000D01*
X180753000Y-69427000D01*
X180753000Y-69173000D01*
X180773000Y-69173000D01*
X180773000Y-67979186D01*
X180543109Y-67858519D01*
X180268748Y-67955843D01*
X180104251Y-68053829D01*
X180090531Y-68033296D01*
X179966704Y-67909469D01*
X179821099Y-67812179D01*
X179659312Y-67745164D01*
X179487559Y-67711000D01*
X179312441Y-67711000D01*
X179140688Y-67745164D01*
X179100526Y-67761800D01*
X178935594Y-67761800D01*
X178902962Y-67722038D01*
X178768386Y-67611595D01*
X178614850Y-67529528D01*
X178448254Y-67478992D01*
X178275000Y-67461928D01*
X177325000Y-67461928D01*
X177151746Y-67478992D01*
X177038072Y-67513474D01*
X177038072Y-67028000D01*
X177016204Y-66805973D01*
X176951441Y-66592479D01*
X176846272Y-66395721D01*
X176704738Y-66223262D01*
X176532279Y-66081728D01*
X176335521Y-65976559D01*
X176122027Y-65911796D01*
X175900000Y-65889928D01*
X174900000Y-65889928D01*
X174677973Y-65911796D01*
X174517783Y-65960389D01*
X172393811Y-63836418D01*
X172367564Y-63804436D01*
X172239932Y-63699691D01*
X172094317Y-63621858D01*
X171936316Y-63573929D01*
X171813170Y-63561800D01*
X171813163Y-63561800D01*
X171772000Y-63557746D01*
X171730837Y-63561800D01*
X170335594Y-63561800D01*
X170302962Y-63522038D01*
X170168386Y-63411595D01*
X170014850Y-63329528D01*
X170006516Y-63327000D01*
X182272474Y-63327000D01*
X182250279Y-68698179D01*
G37*
%TD.AperFunction*%
%TD*%
M02*
