%TF.GenerationSoftware,KiCad,Pcbnew,(5.1.10)-1*%
%TF.CreationDate,2021-06-07T16:12:13-04:00*%
%TF.ProjectId,Thermometre_IR,54686572-6d6f-46d6-9574-72655f49522e,rev?*%
%TF.SameCoordinates,Original*%
%TF.FileFunction,Soldermask,Bot*%
%TF.FilePolarity,Negative*%
%FSLAX46Y46*%
G04 Gerber Fmt 4.6, Leading zero omitted, Abs format (unit mm)*
G04 Created by KiCad (PCBNEW (5.1.10)-1) date 2021-06-07 16:12:13*
%MOMM*%
%LPD*%
G01*
G04 APERTURE LIST*
%ADD10C,1.624000*%
%ADD11C,1.700000*%
%ADD12O,1.800000X1.800000*%
G04 APERTURE END LIST*
D10*
%TO.C,J5*%
X169082720Y-91292680D03*
X173082720Y-91292680D03*
%TD*%
%TO.C,L1*%
G36*
G01*
X178650000Y-98850000D02*
X174950000Y-98850000D01*
G75*
G02*
X174900000Y-98800000I0J50000D01*
G01*
X174900000Y-97600000D01*
G75*
G02*
X174950000Y-97550000I50000J0D01*
G01*
X178650000Y-97550000D01*
G75*
G02*
X178700000Y-97600000I0J-50000D01*
G01*
X178700000Y-98800000D01*
G75*
G02*
X178650000Y-98850000I-50000J0D01*
G01*
G37*
G36*
G01*
X178650000Y-101650000D02*
X174950000Y-101650000D01*
G75*
G02*
X174900000Y-101600000I0J50000D01*
G01*
X174900000Y-100400000D01*
G75*
G02*
X174950000Y-100350000I50000J0D01*
G01*
X178650000Y-100350000D01*
G75*
G02*
X178700000Y-100400000I0J-50000D01*
G01*
X178700000Y-101600000D01*
G75*
G02*
X178650000Y-101650000I-50000J0D01*
G01*
G37*
%TD*%
%TO.C,D6*%
G36*
G01*
X170927600Y-78834000D02*
X169127600Y-78834000D01*
G75*
G02*
X169077600Y-78784000I0J50000D01*
G01*
X169077600Y-76284000D01*
G75*
G02*
X169127600Y-76234000I50000J0D01*
G01*
X170927600Y-76234000D01*
G75*
G02*
X170977600Y-76284000I0J-50000D01*
G01*
X170977600Y-78784000D01*
G75*
G02*
X170927600Y-78834000I-50000J0D01*
G01*
G37*
G36*
G01*
X170927600Y-82834000D02*
X169127600Y-82834000D01*
G75*
G02*
X169077600Y-82784000I0J50000D01*
G01*
X169077600Y-80284000D01*
G75*
G02*
X169127600Y-80234000I50000J0D01*
G01*
X170927600Y-80234000D01*
G75*
G02*
X170977600Y-80284000I0J-50000D01*
G01*
X170977600Y-82784000D01*
G75*
G02*
X170927600Y-82834000I-50000J0D01*
G01*
G37*
%TD*%
D11*
%TO.C,C10*%
X169150000Y-96200000D03*
G36*
G01*
X168350000Y-92850000D02*
X169950000Y-92850000D01*
G75*
G02*
X170000000Y-92900000I0J-50000D01*
G01*
X170000000Y-94500000D01*
G75*
G02*
X169950000Y-94550000I-50000J0D01*
G01*
X168350000Y-94550000D01*
G75*
G02*
X168300000Y-94500000I0J50000D01*
G01*
X168300000Y-92900000D01*
G75*
G02*
X168350000Y-92850000I50000J0D01*
G01*
G37*
%TD*%
%TO.C,J1*%
G36*
G01*
X174350000Y-69053000D02*
X174350000Y-67003000D01*
G75*
G02*
X174875000Y-66478000I525000J0D01*
G01*
X175925000Y-66478000D01*
G75*
G02*
X176450000Y-67003000I0J-525000D01*
G01*
X176450000Y-69053000D01*
G75*
G02*
X175925000Y-69578000I-525000J0D01*
G01*
X174875000Y-69578000D01*
G75*
G02*
X174350000Y-69053000I0J525000D01*
G01*
G37*
G36*
G01*
X170550000Y-69053000D02*
X170550000Y-67003000D01*
G75*
G02*
X171075000Y-66478000I525000J0D01*
G01*
X172125000Y-66478000D01*
G75*
G02*
X172650000Y-67003000I0J-525000D01*
G01*
X172650000Y-69053000D01*
G75*
G02*
X172125000Y-69578000I-525000J0D01*
G01*
X171075000Y-69578000D01*
G75*
G02*
X170550000Y-69053000I0J525000D01*
G01*
G37*
%TD*%
%TO.C,R15*%
G36*
G01*
X168700000Y-65750000D02*
X169700000Y-65750000D01*
G75*
G02*
X169975000Y-66025000I0J-275000D01*
G01*
X169975000Y-66575000D01*
G75*
G02*
X169700000Y-66850000I-275000J0D01*
G01*
X168700000Y-66850000D01*
G75*
G02*
X168425000Y-66575000I0J275000D01*
G01*
X168425000Y-66025000D01*
G75*
G02*
X168700000Y-65750000I275000J0D01*
G01*
G37*
G36*
G01*
X168700000Y-63850000D02*
X169700000Y-63850000D01*
G75*
G02*
X169975000Y-64125000I0J-275000D01*
G01*
X169975000Y-64675000D01*
G75*
G02*
X169700000Y-64950000I-275000J0D01*
G01*
X168700000Y-64950000D01*
G75*
G02*
X168425000Y-64675000I0J275000D01*
G01*
X168425000Y-64125000D01*
G75*
G02*
X168700000Y-63850000I275000J0D01*
G01*
G37*
%TD*%
%TO.C,F1*%
G36*
G01*
X167856483Y-104925000D02*
X164943517Y-104925000D01*
G75*
G02*
X164675000Y-104656483I0J268517D01*
G01*
X164675000Y-103743517D01*
G75*
G02*
X164943517Y-103475000I268517J0D01*
G01*
X167856483Y-103475000D01*
G75*
G02*
X168125000Y-103743517I0J-268517D01*
G01*
X168125000Y-104656483D01*
G75*
G02*
X167856483Y-104925000I-268517J0D01*
G01*
G37*
G36*
G01*
X167856483Y-110725000D02*
X164943517Y-110725000D01*
G75*
G02*
X164675000Y-110456483I0J268517D01*
G01*
X164675000Y-109543517D01*
G75*
G02*
X164943517Y-109275000I268517J0D01*
G01*
X167856483Y-109275000D01*
G75*
G02*
X168125000Y-109543517I0J-268517D01*
G01*
X168125000Y-110456483D01*
G75*
G02*
X167856483Y-110725000I-268517J0D01*
G01*
G37*
%TD*%
D12*
%TO.C,J4*%
X180900000Y-69300000D03*
X181000000Y-71840000D03*
X180900000Y-74380000D03*
X181000000Y-76920000D03*
X180900000Y-79500000D03*
G36*
G01*
X181900000Y-81150000D02*
X181900000Y-82850000D01*
G75*
G02*
X181850000Y-82900000I-50000J0D01*
G01*
X180150000Y-82900000D01*
G75*
G02*
X180100000Y-82850000I0J50000D01*
G01*
X180100000Y-81150000D01*
G75*
G02*
X180150000Y-81100000I50000J0D01*
G01*
X181850000Y-81100000D01*
G75*
G02*
X181900000Y-81150000I0J-50000D01*
G01*
G37*
%TD*%
%TO.C,D4*%
G36*
G01*
X169000000Y-109200000D02*
X170200000Y-109200000D01*
G75*
G02*
X170250000Y-109250000I0J-50000D01*
G01*
X170250000Y-110150000D01*
G75*
G02*
X170200000Y-110200000I-50000J0D01*
G01*
X169000000Y-110200000D01*
G75*
G02*
X168950000Y-110150000I0J50000D01*
G01*
X168950000Y-109250000D01*
G75*
G02*
X169000000Y-109200000I50000J0D01*
G01*
G37*
G36*
G01*
X169000000Y-105900000D02*
X170200000Y-105900000D01*
G75*
G02*
X170250000Y-105950000I0J-50000D01*
G01*
X170250000Y-106850000D01*
G75*
G02*
X170200000Y-106900000I-50000J0D01*
G01*
X169000000Y-106900000D01*
G75*
G02*
X168950000Y-106850000I0J50000D01*
G01*
X168950000Y-105950000D01*
G75*
G02*
X169000000Y-105900000I50000J0D01*
G01*
G37*
%TD*%
%TO.C,J7*%
X166600000Y-71000000D03*
G36*
G01*
X165700000Y-69310000D02*
X165700000Y-67610000D01*
G75*
G02*
X165750000Y-67560000I50000J0D01*
G01*
X167450000Y-67560000D01*
G75*
G02*
X167500000Y-67610000I0J-50000D01*
G01*
X167500000Y-69310000D01*
G75*
G02*
X167450000Y-69360000I-50000J0D01*
G01*
X165750000Y-69360000D01*
G75*
G02*
X165700000Y-69310000I0J50000D01*
G01*
G37*
%TD*%
%TO.C,U3*%
G36*
G01*
X170225000Y-85880000D02*
X169575000Y-85880000D01*
G75*
G02*
X169525000Y-85830000I0J50000D01*
G01*
X169525000Y-84770000D01*
G75*
G02*
X169575000Y-84720000I50000J0D01*
G01*
X170225000Y-84720000D01*
G75*
G02*
X170275000Y-84770000I0J-50000D01*
G01*
X170275000Y-85830000D01*
G75*
G02*
X170225000Y-85880000I-50000J0D01*
G01*
G37*
G36*
G01*
X168325000Y-85880000D02*
X167675000Y-85880000D01*
G75*
G02*
X167625000Y-85830000I0J50000D01*
G01*
X167625000Y-84770000D01*
G75*
G02*
X167675000Y-84720000I50000J0D01*
G01*
X168325000Y-84720000D01*
G75*
G02*
X168375000Y-84770000I0J-50000D01*
G01*
X168375000Y-85830000D01*
G75*
G02*
X168325000Y-85880000I-50000J0D01*
G01*
G37*
G36*
G01*
X168325000Y-88080000D02*
X167675000Y-88080000D01*
G75*
G02*
X167625000Y-88030000I0J50000D01*
G01*
X167625000Y-86970000D01*
G75*
G02*
X167675000Y-86920000I50000J0D01*
G01*
X168325000Y-86920000D01*
G75*
G02*
X168375000Y-86970000I0J-50000D01*
G01*
X168375000Y-88030000D01*
G75*
G02*
X168325000Y-88080000I-50000J0D01*
G01*
G37*
G36*
G01*
X169275000Y-88080000D02*
X168625000Y-88080000D01*
G75*
G02*
X168575000Y-88030000I0J50000D01*
G01*
X168575000Y-86970000D01*
G75*
G02*
X168625000Y-86920000I50000J0D01*
G01*
X169275000Y-86920000D01*
G75*
G02*
X169325000Y-86970000I0J-50000D01*
G01*
X169325000Y-88030000D01*
G75*
G02*
X169275000Y-88080000I-50000J0D01*
G01*
G37*
G36*
G01*
X170225000Y-88080000D02*
X169575000Y-88080000D01*
G75*
G02*
X169525000Y-88030000I0J50000D01*
G01*
X169525000Y-86970000D01*
G75*
G02*
X169575000Y-86920000I50000J0D01*
G01*
X170225000Y-86920000D01*
G75*
G02*
X170275000Y-86970000I0J-50000D01*
G01*
X170275000Y-88030000D01*
G75*
G02*
X170225000Y-88080000I-50000J0D01*
G01*
G37*
%TD*%
%TO.C,R12*%
G36*
G01*
X169500000Y-74450000D02*
X170500000Y-74450000D01*
G75*
G02*
X170775000Y-74725000I0J-275000D01*
G01*
X170775000Y-75275000D01*
G75*
G02*
X170500000Y-75550000I-275000J0D01*
G01*
X169500000Y-75550000D01*
G75*
G02*
X169225000Y-75275000I0J275000D01*
G01*
X169225000Y-74725000D01*
G75*
G02*
X169500000Y-74450000I275000J0D01*
G01*
G37*
G36*
G01*
X169500000Y-72550000D02*
X170500000Y-72550000D01*
G75*
G02*
X170775000Y-72825000I0J-275000D01*
G01*
X170775000Y-73375000D01*
G75*
G02*
X170500000Y-73650000I-275000J0D01*
G01*
X169500000Y-73650000D01*
G75*
G02*
X169225000Y-73375000I0J275000D01*
G01*
X169225000Y-72825000D01*
G75*
G02*
X169500000Y-72550000I275000J0D01*
G01*
G37*
%TD*%
%TO.C,R11*%
G36*
G01*
X172250000Y-107700000D02*
X172250000Y-108700000D01*
G75*
G02*
X171975000Y-108975000I-275000J0D01*
G01*
X171425000Y-108975000D01*
G75*
G02*
X171150000Y-108700000I0J275000D01*
G01*
X171150000Y-107700000D01*
G75*
G02*
X171425000Y-107425000I275000J0D01*
G01*
X171975000Y-107425000D01*
G75*
G02*
X172250000Y-107700000I0J-275000D01*
G01*
G37*
G36*
G01*
X174150000Y-107700000D02*
X174150000Y-108700000D01*
G75*
G02*
X173875000Y-108975000I-275000J0D01*
G01*
X173325000Y-108975000D01*
G75*
G02*
X173050000Y-108700000I0J275000D01*
G01*
X173050000Y-107700000D01*
G75*
G02*
X173325000Y-107425000I275000J0D01*
G01*
X173875000Y-107425000D01*
G75*
G02*
X174150000Y-107700000I0J-275000D01*
G01*
G37*
%TD*%
%TO.C,R10*%
G36*
G01*
X173050000Y-106500000D02*
X173050000Y-105500000D01*
G75*
G02*
X173325000Y-105225000I275000J0D01*
G01*
X173875000Y-105225000D01*
G75*
G02*
X174150000Y-105500000I0J-275000D01*
G01*
X174150000Y-106500000D01*
G75*
G02*
X173875000Y-106775000I-275000J0D01*
G01*
X173325000Y-106775000D01*
G75*
G02*
X173050000Y-106500000I0J275000D01*
G01*
G37*
G36*
G01*
X171150000Y-106500000D02*
X171150000Y-105500000D01*
G75*
G02*
X171425000Y-105225000I275000J0D01*
G01*
X171975000Y-105225000D01*
G75*
G02*
X172250000Y-105500000I0J-275000D01*
G01*
X172250000Y-106500000D01*
G75*
G02*
X171975000Y-106775000I-275000J0D01*
G01*
X171425000Y-106775000D01*
G75*
G02*
X171150000Y-106500000I0J275000D01*
G01*
G37*
%TD*%
%TO.C,R9*%
G36*
G01*
X166100000Y-86150000D02*
X165100000Y-86150000D01*
G75*
G02*
X164825000Y-85875000I0J275000D01*
G01*
X164825000Y-85325000D01*
G75*
G02*
X165100000Y-85050000I275000J0D01*
G01*
X166100000Y-85050000D01*
G75*
G02*
X166375000Y-85325000I0J-275000D01*
G01*
X166375000Y-85875000D01*
G75*
G02*
X166100000Y-86150000I-275000J0D01*
G01*
G37*
G36*
G01*
X166100000Y-88050000D02*
X165100000Y-88050000D01*
G75*
G02*
X164825000Y-87775000I0J275000D01*
G01*
X164825000Y-87225000D01*
G75*
G02*
X165100000Y-86950000I275000J0D01*
G01*
X166100000Y-86950000D01*
G75*
G02*
X166375000Y-87225000I0J-275000D01*
G01*
X166375000Y-87775000D01*
G75*
G02*
X166100000Y-88050000I-275000J0D01*
G01*
G37*
%TD*%
%TO.C,R8*%
G36*
G01*
X172150000Y-87500000D02*
X172150000Y-88500000D01*
G75*
G02*
X171875000Y-88775000I-275000J0D01*
G01*
X171325000Y-88775000D01*
G75*
G02*
X171050000Y-88500000I0J275000D01*
G01*
X171050000Y-87500000D01*
G75*
G02*
X171325000Y-87225000I275000J0D01*
G01*
X171875000Y-87225000D01*
G75*
G02*
X172150000Y-87500000I0J-275000D01*
G01*
G37*
G36*
G01*
X174050000Y-87500000D02*
X174050000Y-88500000D01*
G75*
G02*
X173775000Y-88775000I-275000J0D01*
G01*
X173225000Y-88775000D01*
G75*
G02*
X172950000Y-88500000I0J275000D01*
G01*
X172950000Y-87500000D01*
G75*
G02*
X173225000Y-87225000I275000J0D01*
G01*
X173775000Y-87225000D01*
G75*
G02*
X174050000Y-87500000I0J-275000D01*
G01*
G37*
%TD*%
%TO.C,R5*%
G36*
G01*
X172950000Y-86000000D02*
X172950000Y-85000000D01*
G75*
G02*
X173225000Y-84725000I275000J0D01*
G01*
X173775000Y-84725000D01*
G75*
G02*
X174050000Y-85000000I0J-275000D01*
G01*
X174050000Y-86000000D01*
G75*
G02*
X173775000Y-86275000I-275000J0D01*
G01*
X173225000Y-86275000D01*
G75*
G02*
X172950000Y-86000000I0J275000D01*
G01*
G37*
G36*
G01*
X171050000Y-86000000D02*
X171050000Y-85000000D01*
G75*
G02*
X171325000Y-84725000I275000J0D01*
G01*
X171875000Y-84725000D01*
G75*
G02*
X172150000Y-85000000I0J-275000D01*
G01*
X172150000Y-86000000D01*
G75*
G02*
X171875000Y-86275000I-275000J0D01*
G01*
X171325000Y-86275000D01*
G75*
G02*
X171050000Y-86000000I0J275000D01*
G01*
G37*
%TD*%
%TO.C,R3*%
G36*
G01*
X165950000Y-100900000D02*
X165950000Y-101900000D01*
G75*
G02*
X165675000Y-102175000I-275000J0D01*
G01*
X165125000Y-102175000D01*
G75*
G02*
X164850000Y-101900000I0J275000D01*
G01*
X164850000Y-100900000D01*
G75*
G02*
X165125000Y-100625000I275000J0D01*
G01*
X165675000Y-100625000D01*
G75*
G02*
X165950000Y-100900000I0J-275000D01*
G01*
G37*
G36*
G01*
X167850000Y-100900000D02*
X167850000Y-101900000D01*
G75*
G02*
X167575000Y-102175000I-275000J0D01*
G01*
X167025000Y-102175000D01*
G75*
G02*
X166750000Y-101900000I0J275000D01*
G01*
X166750000Y-100900000D01*
G75*
G02*
X167025000Y-100625000I275000J0D01*
G01*
X167575000Y-100625000D01*
G75*
G02*
X167850000Y-100900000I0J-275000D01*
G01*
G37*
%TD*%
%TO.C,R2*%
G36*
G01*
X166750000Y-99700000D02*
X166750000Y-98700000D01*
G75*
G02*
X167025000Y-98425000I275000J0D01*
G01*
X167575000Y-98425000D01*
G75*
G02*
X167850000Y-98700000I0J-275000D01*
G01*
X167850000Y-99700000D01*
G75*
G02*
X167575000Y-99975000I-275000J0D01*
G01*
X167025000Y-99975000D01*
G75*
G02*
X166750000Y-99700000I0J275000D01*
G01*
G37*
G36*
G01*
X164850000Y-99700000D02*
X164850000Y-98700000D01*
G75*
G02*
X165125000Y-98425000I275000J0D01*
G01*
X165675000Y-98425000D01*
G75*
G02*
X165950000Y-98700000I0J-275000D01*
G01*
X165950000Y-99700000D01*
G75*
G02*
X165675000Y-99975000I-275000J0D01*
G01*
X165125000Y-99975000D01*
G75*
G02*
X164850000Y-99700000I0J275000D01*
G01*
G37*
%TD*%
%TO.C,Q2*%
G36*
G01*
X175471200Y-79050000D02*
X175471200Y-78250000D01*
G75*
G02*
X175521200Y-78200000I50000J0D01*
G01*
X176421200Y-78200000D01*
G75*
G02*
X176471200Y-78250000I0J-50000D01*
G01*
X176471200Y-79050000D01*
G75*
G02*
X176421200Y-79100000I-50000J0D01*
G01*
X175521200Y-79100000D01*
G75*
G02*
X175471200Y-79050000I0J50000D01*
G01*
G37*
G36*
G01*
X173471200Y-78100000D02*
X173471200Y-77300000D01*
G75*
G02*
X173521200Y-77250000I50000J0D01*
G01*
X174421200Y-77250000D01*
G75*
G02*
X174471200Y-77300000I0J-50000D01*
G01*
X174471200Y-78100000D01*
G75*
G02*
X174421200Y-78150000I-50000J0D01*
G01*
X173521200Y-78150000D01*
G75*
G02*
X173471200Y-78100000I0J50000D01*
G01*
G37*
G36*
G01*
X173471200Y-80000000D02*
X173471200Y-79200000D01*
G75*
G02*
X173521200Y-79150000I50000J0D01*
G01*
X174421200Y-79150000D01*
G75*
G02*
X174471200Y-79200000I0J-50000D01*
G01*
X174471200Y-80000000D01*
G75*
G02*
X174421200Y-80050000I-50000J0D01*
G01*
X173521200Y-80050000D01*
G75*
G02*
X173471200Y-80000000I0J50000D01*
G01*
G37*
%TD*%
%TO.C,Q1*%
G36*
G01*
X169615000Y-102900000D02*
X169615000Y-103300000D01*
G75*
G02*
X169565000Y-103350000I-50000J0D01*
G01*
X169055000Y-103350000D01*
G75*
G02*
X169005000Y-103300000I0J50000D01*
G01*
X169005000Y-102900000D01*
G75*
G02*
X169055000Y-102850000I50000J0D01*
G01*
X169565000Y-102850000D01*
G75*
G02*
X169615000Y-102900000I0J-50000D01*
G01*
G37*
G36*
G01*
X170905000Y-103400000D02*
X170905000Y-103800000D01*
G75*
G02*
X170855000Y-103850000I-50000J0D01*
G01*
X170345000Y-103850000D01*
G75*
G02*
X170295000Y-103800000I0J50000D01*
G01*
X170295000Y-103400000D01*
G75*
G02*
X170345000Y-103350000I50000J0D01*
G01*
X170855000Y-103350000D01*
G75*
G02*
X170905000Y-103400000I0J-50000D01*
G01*
G37*
G36*
G01*
X169615000Y-103900000D02*
X169615000Y-104300000D01*
G75*
G02*
X169565000Y-104350000I-50000J0D01*
G01*
X169055000Y-104350000D01*
G75*
G02*
X169005000Y-104300000I0J50000D01*
G01*
X169005000Y-103900000D01*
G75*
G02*
X169055000Y-103850000I50000J0D01*
G01*
X169565000Y-103850000D01*
G75*
G02*
X169615000Y-103900000I0J-50000D01*
G01*
G37*
%TD*%
%TO.C,J6*%
X180800000Y-110140000D03*
G36*
G01*
X179900000Y-108450000D02*
X179900000Y-106750000D01*
G75*
G02*
X179950000Y-106700000I50000J0D01*
G01*
X181650000Y-106700000D01*
G75*
G02*
X181700000Y-106750000I0J-50000D01*
G01*
X181700000Y-108450000D01*
G75*
G02*
X181650000Y-108500000I-50000J0D01*
G01*
X179950000Y-108500000D01*
G75*
G02*
X179900000Y-108450000I0J50000D01*
G01*
G37*
%TD*%
%TO.C,J3*%
X178790000Y-91500000D03*
G36*
G01*
X177100000Y-92400000D02*
X175400000Y-92400000D01*
G75*
G02*
X175350000Y-92350000I0J50000D01*
G01*
X175350000Y-90650000D01*
G75*
G02*
X175400000Y-90600000I50000J0D01*
G01*
X177100000Y-90600000D01*
G75*
G02*
X177150000Y-90650000I0J-50000D01*
G01*
X177150000Y-92350000D01*
G75*
G02*
X177100000Y-92400000I-50000J0D01*
G01*
G37*
%TD*%
%TO.C,J2*%
X166600000Y-74600000D03*
X166600000Y-77140000D03*
X166600000Y-79680000D03*
G36*
G01*
X167500000Y-81370000D02*
X167500000Y-83070000D01*
G75*
G02*
X167450000Y-83120000I-50000J0D01*
G01*
X165750000Y-83120000D01*
G75*
G02*
X165700000Y-83070000I0J50000D01*
G01*
X165700000Y-81370000D01*
G75*
G02*
X165750000Y-81320000I50000J0D01*
G01*
X167450000Y-81320000D01*
G75*
G02*
X167500000Y-81370000I0J-50000D01*
G01*
G37*
%TD*%
%TO.C,D5*%
G36*
G01*
X176562500Y-109618750D02*
X176562500Y-110581250D01*
G75*
G02*
X176293750Y-110850000I-268750J0D01*
G01*
X175756250Y-110850000D01*
G75*
G02*
X175487500Y-110581250I0J268750D01*
G01*
X175487500Y-109618750D01*
G75*
G02*
X175756250Y-109350000I268750J0D01*
G01*
X176293750Y-109350000D01*
G75*
G02*
X176562500Y-109618750I0J-268750D01*
G01*
G37*
G36*
G01*
X178437500Y-109618750D02*
X178437500Y-110581250D01*
G75*
G02*
X178168750Y-110850000I-268750J0D01*
G01*
X177631250Y-110850000D01*
G75*
G02*
X177362500Y-110581250I0J268750D01*
G01*
X177362500Y-109618750D01*
G75*
G02*
X177631250Y-109350000I268750J0D01*
G01*
X178168750Y-109350000D01*
G75*
G02*
X178437500Y-109618750I0J-268750D01*
G01*
G37*
%TD*%
%TO.C,D3*%
G36*
G01*
X176562500Y-107318750D02*
X176562500Y-108281250D01*
G75*
G02*
X176293750Y-108550000I-268750J0D01*
G01*
X175756250Y-108550000D01*
G75*
G02*
X175487500Y-108281250I0J268750D01*
G01*
X175487500Y-107318750D01*
G75*
G02*
X175756250Y-107050000I268750J0D01*
G01*
X176293750Y-107050000D01*
G75*
G02*
X176562500Y-107318750I0J-268750D01*
G01*
G37*
G36*
G01*
X178437500Y-107318750D02*
X178437500Y-108281250D01*
G75*
G02*
X178168750Y-108550000I-268750J0D01*
G01*
X177631250Y-108550000D01*
G75*
G02*
X177362500Y-108281250I0J268750D01*
G01*
X177362500Y-107318750D01*
G75*
G02*
X177631250Y-107050000I268750J0D01*
G01*
X178168750Y-107050000D01*
G75*
G02*
X178437500Y-107318750I0J-268750D01*
G01*
G37*
%TD*%
%TO.C,D2*%
G36*
G01*
X176537500Y-87518750D02*
X176537500Y-88481250D01*
G75*
G02*
X176268750Y-88750000I-268750J0D01*
G01*
X175731250Y-88750000D01*
G75*
G02*
X175462500Y-88481250I0J268750D01*
G01*
X175462500Y-87518750D01*
G75*
G02*
X175731250Y-87250000I268750J0D01*
G01*
X176268750Y-87250000D01*
G75*
G02*
X176537500Y-87518750I0J-268750D01*
G01*
G37*
G36*
G01*
X178412500Y-87518750D02*
X178412500Y-88481250D01*
G75*
G02*
X178143750Y-88750000I-268750J0D01*
G01*
X177606250Y-88750000D01*
G75*
G02*
X177337500Y-88481250I0J268750D01*
G01*
X177337500Y-87518750D01*
G75*
G02*
X177606250Y-87250000I268750J0D01*
G01*
X178143750Y-87250000D01*
G75*
G02*
X178412500Y-87518750I0J-268750D01*
G01*
G37*
%TD*%
%TO.C,D1*%
G36*
G01*
X176537500Y-84918750D02*
X176537500Y-85881250D01*
G75*
G02*
X176268750Y-86150000I-268750J0D01*
G01*
X175731250Y-86150000D01*
G75*
G02*
X175462500Y-85881250I0J268750D01*
G01*
X175462500Y-84918750D01*
G75*
G02*
X175731250Y-84650000I268750J0D01*
G01*
X176268750Y-84650000D01*
G75*
G02*
X176537500Y-84918750I0J-268750D01*
G01*
G37*
G36*
G01*
X178412500Y-84918750D02*
X178412500Y-85881250D01*
G75*
G02*
X178143750Y-86150000I-268750J0D01*
G01*
X177606250Y-86150000D01*
G75*
G02*
X177337500Y-85881250I0J268750D01*
G01*
X177337500Y-84918750D01*
G75*
G02*
X177606250Y-84650000I268750J0D01*
G01*
X178143750Y-84650000D01*
G75*
G02*
X178412500Y-84918750I0J-268750D01*
G01*
G37*
%TD*%
%TO.C,C12*%
G36*
G01*
X177300000Y-69950000D02*
X178300000Y-69950000D01*
G75*
G02*
X178575000Y-70225000I0J-275000D01*
G01*
X178575000Y-70775000D01*
G75*
G02*
X178300000Y-71050000I-275000J0D01*
G01*
X177300000Y-71050000D01*
G75*
G02*
X177025000Y-70775000I0J275000D01*
G01*
X177025000Y-70225000D01*
G75*
G02*
X177300000Y-69950000I275000J0D01*
G01*
G37*
G36*
G01*
X177300000Y-68050000D02*
X178300000Y-68050000D01*
G75*
G02*
X178575000Y-68325000I0J-275000D01*
G01*
X178575000Y-68875000D01*
G75*
G02*
X178300000Y-69150000I-275000J0D01*
G01*
X177300000Y-69150000D01*
G75*
G02*
X177025000Y-68875000I0J275000D01*
G01*
X177025000Y-68325000D01*
G75*
G02*
X177300000Y-68050000I275000J0D01*
G01*
G37*
%TD*%
%TO.C,C8*%
G36*
G01*
X172250000Y-109900000D02*
X172250000Y-110900000D01*
G75*
G02*
X171975000Y-111175000I-275000J0D01*
G01*
X171425000Y-111175000D01*
G75*
G02*
X171150000Y-110900000I0J275000D01*
G01*
X171150000Y-109900000D01*
G75*
G02*
X171425000Y-109625000I275000J0D01*
G01*
X171975000Y-109625000D01*
G75*
G02*
X172250000Y-109900000I0J-275000D01*
G01*
G37*
G36*
G01*
X174150000Y-109900000D02*
X174150000Y-110900000D01*
G75*
G02*
X173875000Y-111175000I-275000J0D01*
G01*
X173325000Y-111175000D01*
G75*
G02*
X173050000Y-110900000I0J275000D01*
G01*
X173050000Y-109900000D01*
G75*
G02*
X173325000Y-109625000I275000J0D01*
G01*
X173875000Y-109625000D01*
G75*
G02*
X174150000Y-109900000I0J-275000D01*
G01*
G37*
%TD*%
%TO.C,C7*%
G36*
G01*
X165950000Y-94300000D02*
X165950000Y-95300000D01*
G75*
G02*
X165675000Y-95575000I-275000J0D01*
G01*
X165125000Y-95575000D01*
G75*
G02*
X164850000Y-95300000I0J275000D01*
G01*
X164850000Y-94300000D01*
G75*
G02*
X165125000Y-94025000I275000J0D01*
G01*
X165675000Y-94025000D01*
G75*
G02*
X165950000Y-94300000I0J-275000D01*
G01*
G37*
G36*
G01*
X167850000Y-94300000D02*
X167850000Y-95300000D01*
G75*
G02*
X167575000Y-95575000I-275000J0D01*
G01*
X167025000Y-95575000D01*
G75*
G02*
X166750000Y-95300000I0J275000D01*
G01*
X166750000Y-94300000D01*
G75*
G02*
X167025000Y-94025000I275000J0D01*
G01*
X167575000Y-94025000D01*
G75*
G02*
X167850000Y-94300000I0J-275000D01*
G01*
G37*
%TD*%
%TO.C,C6*%
G36*
G01*
X165950000Y-96500000D02*
X165950000Y-97500000D01*
G75*
G02*
X165675000Y-97775000I-275000J0D01*
G01*
X165125000Y-97775000D01*
G75*
G02*
X164850000Y-97500000I0J275000D01*
G01*
X164850000Y-96500000D01*
G75*
G02*
X165125000Y-96225000I275000J0D01*
G01*
X165675000Y-96225000D01*
G75*
G02*
X165950000Y-96500000I0J-275000D01*
G01*
G37*
G36*
G01*
X167850000Y-96500000D02*
X167850000Y-97500000D01*
G75*
G02*
X167575000Y-97775000I-275000J0D01*
G01*
X167025000Y-97775000D01*
G75*
G02*
X166750000Y-97500000I0J275000D01*
G01*
X166750000Y-96500000D01*
G75*
G02*
X167025000Y-96225000I275000J0D01*
G01*
X167575000Y-96225000D01*
G75*
G02*
X167850000Y-96500000I0J-275000D01*
G01*
G37*
%TD*%
%TO.C,C5*%
G36*
G01*
X178300000Y-73650000D02*
X177300000Y-73650000D01*
G75*
G02*
X177025000Y-73375000I0J275000D01*
G01*
X177025000Y-72825000D01*
G75*
G02*
X177300000Y-72550000I275000J0D01*
G01*
X178300000Y-72550000D01*
G75*
G02*
X178575000Y-72825000I0J-275000D01*
G01*
X178575000Y-73375000D01*
G75*
G02*
X178300000Y-73650000I-275000J0D01*
G01*
G37*
G36*
G01*
X178300000Y-75550000D02*
X177300000Y-75550000D01*
G75*
G02*
X177025000Y-75275000I0J275000D01*
G01*
X177025000Y-74725000D01*
G75*
G02*
X177300000Y-74450000I275000J0D01*
G01*
X178300000Y-74450000D01*
G75*
G02*
X178575000Y-74725000I0J-275000D01*
G01*
X178575000Y-75275000D01*
G75*
G02*
X178300000Y-75550000I-275000J0D01*
G01*
G37*
%TD*%
%TO.C,C4*%
G36*
G01*
X175700000Y-73650000D02*
X174700000Y-73650000D01*
G75*
G02*
X174425000Y-73375000I0J275000D01*
G01*
X174425000Y-72825000D01*
G75*
G02*
X174700000Y-72550000I275000J0D01*
G01*
X175700000Y-72550000D01*
G75*
G02*
X175975000Y-72825000I0J-275000D01*
G01*
X175975000Y-73375000D01*
G75*
G02*
X175700000Y-73650000I-275000J0D01*
G01*
G37*
G36*
G01*
X175700000Y-75550000D02*
X174700000Y-75550000D01*
G75*
G02*
X174425000Y-75275000I0J275000D01*
G01*
X174425000Y-74725000D01*
G75*
G02*
X174700000Y-74450000I275000J0D01*
G01*
X175700000Y-74450000D01*
G75*
G02*
X175975000Y-74725000I0J-275000D01*
G01*
X175975000Y-75275000D01*
G75*
G02*
X175700000Y-75550000I-275000J0D01*
G01*
G37*
%TD*%
%TO.C,C3*%
G36*
G01*
X173100000Y-73650000D02*
X172100000Y-73650000D01*
G75*
G02*
X171825000Y-73375000I0J275000D01*
G01*
X171825000Y-72825000D01*
G75*
G02*
X172100000Y-72550000I275000J0D01*
G01*
X173100000Y-72550000D01*
G75*
G02*
X173375000Y-72825000I0J-275000D01*
G01*
X173375000Y-73375000D01*
G75*
G02*
X173100000Y-73650000I-275000J0D01*
G01*
G37*
G36*
G01*
X173100000Y-75550000D02*
X172100000Y-75550000D01*
G75*
G02*
X171825000Y-75275000I0J275000D01*
G01*
X171825000Y-74725000D01*
G75*
G02*
X172100000Y-74450000I275000J0D01*
G01*
X173100000Y-74450000D01*
G75*
G02*
X173375000Y-74725000I0J-275000D01*
G01*
X173375000Y-75275000D01*
G75*
G02*
X173100000Y-75550000I-275000J0D01*
G01*
G37*
%TD*%
M02*
