%TF.GenerationSoftware,KiCad,Pcbnew,(5.1.10)-1*%
%TF.CreationDate,2021-06-07T16:12:12-04:00*%
%TF.ProjectId,Thermometre_IR,54686572-6d6f-46d6-9574-72655f49522e,rev?*%
%TF.SameCoordinates,Original*%
%TF.FileFunction,Paste,Top*%
%TF.FilePolarity,Positive*%
%FSLAX46Y46*%
G04 Gerber Fmt 4.6, Leading zero omitted, Abs format (unit mm)*
G04 Created by KiCad (PCBNEW (5.1.10)-1) date 2021-06-07 16:12:12*
%MOMM*%
%LPD*%
G01*
G04 APERTURE LIST*
%ADD10R,1.300000X1.550000*%
%ADD11R,1.600000X0.550000*%
%ADD12R,0.550000X1.600000*%
%ADD13R,1.550000X1.300000*%
%ADD14R,4.500000X2.000000*%
G04 APERTURE END LIST*
%TO.C,C11*%
G36*
G01*
X165699999Y-106825000D02*
X167100001Y-106825000D01*
G75*
G02*
X167350000Y-107074999I0J-249999D01*
G01*
X167350000Y-107625001D01*
G75*
G02*
X167100001Y-107875000I-249999J0D01*
G01*
X165699999Y-107875000D01*
G75*
G02*
X165450000Y-107625001I0J249999D01*
G01*
X165450000Y-107074999D01*
G75*
G02*
X165699999Y-106825000I249999J0D01*
G01*
G37*
G36*
G01*
X165699999Y-103675000D02*
X167100001Y-103675000D01*
G75*
G02*
X167350000Y-103924999I0J-249999D01*
G01*
X167350000Y-104475001D01*
G75*
G02*
X167100001Y-104725000I-249999J0D01*
G01*
X165699999Y-104725000D01*
G75*
G02*
X165450000Y-104475001I0J249999D01*
G01*
X165450000Y-103924999D01*
G75*
G02*
X165699999Y-103675000I249999J0D01*
G01*
G37*
%TD*%
%TO.C,J1*%
G36*
G01*
X174400000Y-69028000D02*
X174400000Y-67028000D01*
G75*
G02*
X174900000Y-66528000I500000J0D01*
G01*
X175900000Y-66528000D01*
G75*
G02*
X176400000Y-67028000I0J-500000D01*
G01*
X176400000Y-69028000D01*
G75*
G02*
X175900000Y-69528000I-500000J0D01*
G01*
X174900000Y-69528000D01*
G75*
G02*
X174400000Y-69028000I0J500000D01*
G01*
G37*
G36*
G01*
X170600000Y-69028000D02*
X170600000Y-67028000D01*
G75*
G02*
X171100000Y-66528000I500000J0D01*
G01*
X172100000Y-66528000D01*
G75*
G02*
X172600000Y-67028000I0J-500000D01*
G01*
X172600000Y-69028000D01*
G75*
G02*
X172100000Y-69528000I-500000J0D01*
G01*
X171100000Y-69528000D01*
G75*
G02*
X170600000Y-69028000I0J500000D01*
G01*
G37*
%TD*%
%TO.C,R16*%
G36*
G01*
X177125000Y-65800000D02*
X178075000Y-65800000D01*
G75*
G02*
X178325000Y-66050000I0J-250000D01*
G01*
X178325000Y-66550000D01*
G75*
G02*
X178075000Y-66800000I-250000J0D01*
G01*
X177125000Y-66800000D01*
G75*
G02*
X176875000Y-66550000I0J250000D01*
G01*
X176875000Y-66050000D01*
G75*
G02*
X177125000Y-65800000I250000J0D01*
G01*
G37*
G36*
G01*
X177125000Y-63900000D02*
X178075000Y-63900000D01*
G75*
G02*
X178325000Y-64150000I0J-250000D01*
G01*
X178325000Y-64650000D01*
G75*
G02*
X178075000Y-64900000I-250000J0D01*
G01*
X177125000Y-64900000D01*
G75*
G02*
X176875000Y-64650000I0J250000D01*
G01*
X176875000Y-64150000D01*
G75*
G02*
X177125000Y-63900000I250000J0D01*
G01*
G37*
%TD*%
D10*
%TO.C,SW1*%
X177100000Y-94800000D03*
X181600000Y-94800000D03*
X181600000Y-102760000D03*
X177100000Y-102760000D03*
%TD*%
%TO.C,U2*%
G36*
G01*
X168861351Y-100272703D02*
X169338649Y-100272703D01*
G75*
G02*
X169577297Y-100511351I0J-238648D01*
G01*
X169577297Y-100988649D01*
G75*
G02*
X169338649Y-101227297I-238648J0D01*
G01*
X168861351Y-101227297D01*
G75*
G02*
X168622703Y-100988649I0J238648D01*
G01*
X168622703Y-100511351D01*
G75*
G02*
X168861351Y-100272703I238648J0D01*
G01*
G37*
G36*
G01*
X169961351Y-100272703D02*
X170438649Y-100272703D01*
G75*
G02*
X170677297Y-100511351I0J-238648D01*
G01*
X170677297Y-100988649D01*
G75*
G02*
X170438649Y-101227297I-238648J0D01*
G01*
X169961351Y-101227297D01*
G75*
G02*
X169722703Y-100988649I0J238648D01*
G01*
X169722703Y-100511351D01*
G75*
G02*
X169961351Y-100272703I238648J0D01*
G01*
G37*
G36*
G01*
X168861351Y-99172703D02*
X169338649Y-99172703D01*
G75*
G02*
X169577297Y-99411351I0J-238648D01*
G01*
X169577297Y-99888649D01*
G75*
G02*
X169338649Y-100127297I-238648J0D01*
G01*
X168861351Y-100127297D01*
G75*
G02*
X168622703Y-99888649I0J238648D01*
G01*
X168622703Y-99411351D01*
G75*
G02*
X168861351Y-99172703I238648J0D01*
G01*
G37*
G36*
G01*
X169961351Y-99172703D02*
X170438649Y-99172703D01*
G75*
G02*
X170677297Y-99411351I0J-238648D01*
G01*
X170677297Y-99888649D01*
G75*
G02*
X170438649Y-100127297I-238648J0D01*
G01*
X169961351Y-100127297D01*
G75*
G02*
X169722703Y-99888649I0J238648D01*
G01*
X169722703Y-99411351D01*
G75*
G02*
X169961351Y-99172703I238648J0D01*
G01*
G37*
G36*
G01*
X171287500Y-99050000D02*
X171937500Y-99050000D01*
G75*
G02*
X172025000Y-99137500I0J-87500D01*
G01*
X172025000Y-99312500D01*
G75*
G02*
X171937500Y-99400000I-87500J0D01*
G01*
X171287500Y-99400000D01*
G75*
G02*
X171200000Y-99312500I0J87500D01*
G01*
X171200000Y-99137500D01*
G75*
G02*
X171287500Y-99050000I87500J0D01*
G01*
G37*
G36*
G01*
X171287500Y-99700000D02*
X171937500Y-99700000D01*
G75*
G02*
X172025000Y-99787500I0J-87500D01*
G01*
X172025000Y-99962500D01*
G75*
G02*
X171937500Y-100050000I-87500J0D01*
G01*
X171287500Y-100050000D01*
G75*
G02*
X171200000Y-99962500I0J87500D01*
G01*
X171200000Y-99787500D01*
G75*
G02*
X171287500Y-99700000I87500J0D01*
G01*
G37*
G36*
G01*
X171287500Y-100350000D02*
X171937500Y-100350000D01*
G75*
G02*
X172025000Y-100437500I0J-87500D01*
G01*
X172025000Y-100612500D01*
G75*
G02*
X171937500Y-100700000I-87500J0D01*
G01*
X171287500Y-100700000D01*
G75*
G02*
X171200000Y-100612500I0J87500D01*
G01*
X171200000Y-100437500D01*
G75*
G02*
X171287500Y-100350000I87500J0D01*
G01*
G37*
G36*
G01*
X171287500Y-101000000D02*
X171937500Y-101000000D01*
G75*
G02*
X172025000Y-101087500I0J-87500D01*
G01*
X172025000Y-101262500D01*
G75*
G02*
X171937500Y-101350000I-87500J0D01*
G01*
X171287500Y-101350000D01*
G75*
G02*
X171200000Y-101262500I0J87500D01*
G01*
X171200000Y-101087500D01*
G75*
G02*
X171287500Y-101000000I87500J0D01*
G01*
G37*
G36*
G01*
X170537500Y-101750000D02*
X170712500Y-101750000D01*
G75*
G02*
X170800000Y-101837500I0J-87500D01*
G01*
X170800000Y-102487500D01*
G75*
G02*
X170712500Y-102575000I-87500J0D01*
G01*
X170537500Y-102575000D01*
G75*
G02*
X170450000Y-102487500I0J87500D01*
G01*
X170450000Y-101837500D01*
G75*
G02*
X170537500Y-101750000I87500J0D01*
G01*
G37*
G36*
G01*
X169887500Y-101750000D02*
X170062500Y-101750000D01*
G75*
G02*
X170150000Y-101837500I0J-87500D01*
G01*
X170150000Y-102487500D01*
G75*
G02*
X170062500Y-102575000I-87500J0D01*
G01*
X169887500Y-102575000D01*
G75*
G02*
X169800000Y-102487500I0J87500D01*
G01*
X169800000Y-101837500D01*
G75*
G02*
X169887500Y-101750000I87500J0D01*
G01*
G37*
G36*
G01*
X169237500Y-101750000D02*
X169412500Y-101750000D01*
G75*
G02*
X169500000Y-101837500I0J-87500D01*
G01*
X169500000Y-102487500D01*
G75*
G02*
X169412500Y-102575000I-87500J0D01*
G01*
X169237500Y-102575000D01*
G75*
G02*
X169150000Y-102487500I0J87500D01*
G01*
X169150000Y-101837500D01*
G75*
G02*
X169237500Y-101750000I87500J0D01*
G01*
G37*
G36*
G01*
X168587500Y-101750000D02*
X168762500Y-101750000D01*
G75*
G02*
X168850000Y-101837500I0J-87500D01*
G01*
X168850000Y-102487500D01*
G75*
G02*
X168762500Y-102575000I-87500J0D01*
G01*
X168587500Y-102575000D01*
G75*
G02*
X168500000Y-102487500I0J87500D01*
G01*
X168500000Y-101837500D01*
G75*
G02*
X168587500Y-101750000I87500J0D01*
G01*
G37*
G36*
G01*
X167362500Y-101000000D02*
X168012500Y-101000000D01*
G75*
G02*
X168100000Y-101087500I0J-87500D01*
G01*
X168100000Y-101262500D01*
G75*
G02*
X168012500Y-101350000I-87500J0D01*
G01*
X167362500Y-101350000D01*
G75*
G02*
X167275000Y-101262500I0J87500D01*
G01*
X167275000Y-101087500D01*
G75*
G02*
X167362500Y-101000000I87500J0D01*
G01*
G37*
G36*
G01*
X167362500Y-100350000D02*
X168012500Y-100350000D01*
G75*
G02*
X168100000Y-100437500I0J-87500D01*
G01*
X168100000Y-100612500D01*
G75*
G02*
X168012500Y-100700000I-87500J0D01*
G01*
X167362500Y-100700000D01*
G75*
G02*
X167275000Y-100612500I0J87500D01*
G01*
X167275000Y-100437500D01*
G75*
G02*
X167362500Y-100350000I87500J0D01*
G01*
G37*
G36*
G01*
X167362500Y-99700000D02*
X168012500Y-99700000D01*
G75*
G02*
X168100000Y-99787500I0J-87500D01*
G01*
X168100000Y-99962500D01*
G75*
G02*
X168012500Y-100050000I-87500J0D01*
G01*
X167362500Y-100050000D01*
G75*
G02*
X167275000Y-99962500I0J87500D01*
G01*
X167275000Y-99787500D01*
G75*
G02*
X167362500Y-99700000I87500J0D01*
G01*
G37*
G36*
G01*
X167362500Y-99050000D02*
X168012500Y-99050000D01*
G75*
G02*
X168100000Y-99137500I0J-87500D01*
G01*
X168100000Y-99312500D01*
G75*
G02*
X168012500Y-99400000I-87500J0D01*
G01*
X167362500Y-99400000D01*
G75*
G02*
X167275000Y-99312500I0J87500D01*
G01*
X167275000Y-99137500D01*
G75*
G02*
X167362500Y-99050000I87500J0D01*
G01*
G37*
G36*
G01*
X168587500Y-97825000D02*
X168762500Y-97825000D01*
G75*
G02*
X168850000Y-97912500I0J-87500D01*
G01*
X168850000Y-98562500D01*
G75*
G02*
X168762500Y-98650000I-87500J0D01*
G01*
X168587500Y-98650000D01*
G75*
G02*
X168500000Y-98562500I0J87500D01*
G01*
X168500000Y-97912500D01*
G75*
G02*
X168587500Y-97825000I87500J0D01*
G01*
G37*
G36*
G01*
X169237500Y-97825000D02*
X169412500Y-97825000D01*
G75*
G02*
X169500000Y-97912500I0J-87500D01*
G01*
X169500000Y-98562500D01*
G75*
G02*
X169412500Y-98650000I-87500J0D01*
G01*
X169237500Y-98650000D01*
G75*
G02*
X169150000Y-98562500I0J87500D01*
G01*
X169150000Y-97912500D01*
G75*
G02*
X169237500Y-97825000I87500J0D01*
G01*
G37*
G36*
G01*
X169887500Y-97825000D02*
X170062500Y-97825000D01*
G75*
G02*
X170150000Y-97912500I0J-87500D01*
G01*
X170150000Y-98562500D01*
G75*
G02*
X170062500Y-98650000I-87500J0D01*
G01*
X169887500Y-98650000D01*
G75*
G02*
X169800000Y-98562500I0J87500D01*
G01*
X169800000Y-97912500D01*
G75*
G02*
X169887500Y-97825000I87500J0D01*
G01*
G37*
G36*
G01*
X170537500Y-97825000D02*
X170712500Y-97825000D01*
G75*
G02*
X170800000Y-97912500I0J-87500D01*
G01*
X170800000Y-98562500D01*
G75*
G02*
X170712500Y-98650000I-87500J0D01*
G01*
X170537500Y-98650000D01*
G75*
G02*
X170450000Y-98562500I0J87500D01*
G01*
X170450000Y-97912500D01*
G75*
G02*
X170537500Y-97825000I87500J0D01*
G01*
G37*
%TD*%
D11*
%TO.C,U1*%
X169600000Y-80550000D03*
X169600000Y-79750000D03*
X169600000Y-78950000D03*
X169600000Y-78150000D03*
X169600000Y-77350000D03*
X169600000Y-76550000D03*
X169600000Y-75750000D03*
X169600000Y-74950000D03*
D12*
X171050000Y-73500000D03*
X171850000Y-73500000D03*
X172650000Y-73500000D03*
X173450000Y-73500000D03*
X174250000Y-73500000D03*
X175050000Y-73500000D03*
X175850000Y-73500000D03*
X176650000Y-73500000D03*
D11*
X178100000Y-74950000D03*
X178100000Y-75750000D03*
X178100000Y-76550000D03*
X178100000Y-77350000D03*
X178100000Y-78150000D03*
X178100000Y-78950000D03*
X178100000Y-79750000D03*
X178100000Y-80550000D03*
D12*
X176650000Y-82000000D03*
X175850000Y-82000000D03*
X175050000Y-82000000D03*
X174250000Y-82000000D03*
X173450000Y-82000000D03*
X172650000Y-82000000D03*
X171850000Y-82000000D03*
X171050000Y-82000000D03*
%TD*%
D13*
%TO.C,SW2*%
X169440000Y-110800000D03*
X169440000Y-106300000D03*
X177400000Y-106300000D03*
X177400000Y-110800000D03*
%TD*%
%TO.C,R14*%
G36*
G01*
X173706000Y-97632500D02*
X173706000Y-98582500D01*
G75*
G02*
X173456000Y-98832500I-250000J0D01*
G01*
X172956000Y-98832500D01*
G75*
G02*
X172706000Y-98582500I0J250000D01*
G01*
X172706000Y-97632500D01*
G75*
G02*
X172956000Y-97382500I250000J0D01*
G01*
X173456000Y-97382500D01*
G75*
G02*
X173706000Y-97632500I0J-250000D01*
G01*
G37*
G36*
G01*
X175606000Y-97632500D02*
X175606000Y-98582500D01*
G75*
G02*
X175356000Y-98832500I-250000J0D01*
G01*
X174856000Y-98832500D01*
G75*
G02*
X174606000Y-98582500I0J250000D01*
G01*
X174606000Y-97632500D01*
G75*
G02*
X174856000Y-97382500I250000J0D01*
G01*
X175356000Y-97382500D01*
G75*
G02*
X175606000Y-97632500I0J-250000D01*
G01*
G37*
%TD*%
%TO.C,R13*%
G36*
G01*
X174606000Y-100805000D02*
X174606000Y-99855000D01*
G75*
G02*
X174856000Y-99605000I250000J0D01*
G01*
X175356000Y-99605000D01*
G75*
G02*
X175606000Y-99855000I0J-250000D01*
G01*
X175606000Y-100805000D01*
G75*
G02*
X175356000Y-101055000I-250000J0D01*
G01*
X174856000Y-101055000D01*
G75*
G02*
X174606000Y-100805000I0J250000D01*
G01*
G37*
G36*
G01*
X172706000Y-100805000D02*
X172706000Y-99855000D01*
G75*
G02*
X172956000Y-99605000I250000J0D01*
G01*
X173456000Y-99605000D01*
G75*
G02*
X173706000Y-99855000I0J-250000D01*
G01*
X173706000Y-100805000D01*
G75*
G02*
X173456000Y-101055000I-250000J0D01*
G01*
X172956000Y-101055000D01*
G75*
G02*
X172706000Y-100805000I0J250000D01*
G01*
G37*
%TD*%
%TO.C,R7*%
G36*
G01*
X173875000Y-94400000D02*
X172925000Y-94400000D01*
G75*
G02*
X172675000Y-94150000I0J250000D01*
G01*
X172675000Y-93650000D01*
G75*
G02*
X172925000Y-93400000I250000J0D01*
G01*
X173875000Y-93400000D01*
G75*
G02*
X174125000Y-93650000I0J-250000D01*
G01*
X174125000Y-94150000D01*
G75*
G02*
X173875000Y-94400000I-250000J0D01*
G01*
G37*
G36*
G01*
X173875000Y-96300000D02*
X172925000Y-96300000D01*
G75*
G02*
X172675000Y-96050000I0J250000D01*
G01*
X172675000Y-95550000D01*
G75*
G02*
X172925000Y-95300000I250000J0D01*
G01*
X173875000Y-95300000D01*
G75*
G02*
X174125000Y-95550000I0J-250000D01*
G01*
X174125000Y-96050000D01*
G75*
G02*
X173875000Y-96300000I-250000J0D01*
G01*
G37*
%TD*%
%TO.C,R6*%
G36*
G01*
X171775000Y-94400000D02*
X170825000Y-94400000D01*
G75*
G02*
X170575000Y-94150000I0J250000D01*
G01*
X170575000Y-93650000D01*
G75*
G02*
X170825000Y-93400000I250000J0D01*
G01*
X171775000Y-93400000D01*
G75*
G02*
X172025000Y-93650000I0J-250000D01*
G01*
X172025000Y-94150000D01*
G75*
G02*
X171775000Y-94400000I-250000J0D01*
G01*
G37*
G36*
G01*
X171775000Y-96300000D02*
X170825000Y-96300000D01*
G75*
G02*
X170575000Y-96050000I0J250000D01*
G01*
X170575000Y-95550000D01*
G75*
G02*
X170825000Y-95300000I250000J0D01*
G01*
X171775000Y-95300000D01*
G75*
G02*
X172025000Y-95550000I0J-250000D01*
G01*
X172025000Y-96050000D01*
G75*
G02*
X171775000Y-96300000I-250000J0D01*
G01*
G37*
%TD*%
%TO.C,R4*%
G36*
G01*
X173700000Y-102075000D02*
X173700000Y-103025000D01*
G75*
G02*
X173450000Y-103275000I-250000J0D01*
G01*
X172950000Y-103275000D01*
G75*
G02*
X172700000Y-103025000I0J250000D01*
G01*
X172700000Y-102075000D01*
G75*
G02*
X172950000Y-101825000I250000J0D01*
G01*
X173450000Y-101825000D01*
G75*
G02*
X173700000Y-102075000I0J-250000D01*
G01*
G37*
G36*
G01*
X175600000Y-102075000D02*
X175600000Y-103025000D01*
G75*
G02*
X175350000Y-103275000I-250000J0D01*
G01*
X174850000Y-103275000D01*
G75*
G02*
X174600000Y-103025000I0J250000D01*
G01*
X174600000Y-102075000D01*
G75*
G02*
X174850000Y-101825000I250000J0D01*
G01*
X175350000Y-101825000D01*
G75*
G02*
X175600000Y-102075000I0J-250000D01*
G01*
G37*
%TD*%
%TO.C,R1*%
G36*
G01*
X181275000Y-91650000D02*
X182225000Y-91650000D01*
G75*
G02*
X182475000Y-91900000I0J-250000D01*
G01*
X182475000Y-92400000D01*
G75*
G02*
X182225000Y-92650000I-250000J0D01*
G01*
X181275000Y-92650000D01*
G75*
G02*
X181025000Y-92400000I0J250000D01*
G01*
X181025000Y-91900000D01*
G75*
G02*
X181275000Y-91650000I250000J0D01*
G01*
G37*
G36*
G01*
X181275000Y-89750000D02*
X182225000Y-89750000D01*
G75*
G02*
X182475000Y-90000000I0J-250000D01*
G01*
X182475000Y-90500000D01*
G75*
G02*
X182225000Y-90750000I-250000J0D01*
G01*
X181275000Y-90750000D01*
G75*
G02*
X181025000Y-90500000I0J250000D01*
G01*
X181025000Y-90000000D01*
G75*
G02*
X181275000Y-89750000I250000J0D01*
G01*
G37*
%TD*%
%TO.C,C9*%
G36*
G01*
X166675000Y-94450000D02*
X165725000Y-94450000D01*
G75*
G02*
X165475000Y-94200000I0J250000D01*
G01*
X165475000Y-93700000D01*
G75*
G02*
X165725000Y-93450000I250000J0D01*
G01*
X166675000Y-93450000D01*
G75*
G02*
X166925000Y-93700000I0J-250000D01*
G01*
X166925000Y-94200000D01*
G75*
G02*
X166675000Y-94450000I-250000J0D01*
G01*
G37*
G36*
G01*
X166675000Y-96350000D02*
X165725000Y-96350000D01*
G75*
G02*
X165475000Y-96100000I0J250000D01*
G01*
X165475000Y-95600000D01*
G75*
G02*
X165725000Y-95350000I250000J0D01*
G01*
X166675000Y-95350000D01*
G75*
G02*
X166925000Y-95600000I0J-250000D01*
G01*
X166925000Y-96100000D01*
G75*
G02*
X166675000Y-96350000I-250000J0D01*
G01*
G37*
%TD*%
%TO.C,C2*%
G36*
G01*
X181325000Y-86850000D02*
X182275000Y-86850000D01*
G75*
G02*
X182525000Y-87100000I0J-250000D01*
G01*
X182525000Y-87600000D01*
G75*
G02*
X182275000Y-87850000I-250000J0D01*
G01*
X181325000Y-87850000D01*
G75*
G02*
X181075000Y-87600000I0J250000D01*
G01*
X181075000Y-87100000D01*
G75*
G02*
X181325000Y-86850000I250000J0D01*
G01*
G37*
G36*
G01*
X181325000Y-84950000D02*
X182275000Y-84950000D01*
G75*
G02*
X182525000Y-85200000I0J-250000D01*
G01*
X182525000Y-85700000D01*
G75*
G02*
X182275000Y-85950000I-250000J0D01*
G01*
X181325000Y-85950000D01*
G75*
G02*
X181075000Y-85700000I0J250000D01*
G01*
X181075000Y-85200000D01*
G75*
G02*
X181325000Y-84950000I250000J0D01*
G01*
G37*
%TD*%
%TO.C,C1*%
G36*
G01*
X165125000Y-87200000D02*
X166075000Y-87200000D01*
G75*
G02*
X166325000Y-87450000I0J-250000D01*
G01*
X166325000Y-87950000D01*
G75*
G02*
X166075000Y-88200000I-250000J0D01*
G01*
X165125000Y-88200000D01*
G75*
G02*
X164875000Y-87950000I0J250000D01*
G01*
X164875000Y-87450000D01*
G75*
G02*
X165125000Y-87200000I250000J0D01*
G01*
G37*
G36*
G01*
X165125000Y-85300000D02*
X166075000Y-85300000D01*
G75*
G02*
X166325000Y-85550000I0J-250000D01*
G01*
X166325000Y-86050000D01*
G75*
G02*
X166075000Y-86300000I-250000J0D01*
G01*
X165125000Y-86300000D01*
G75*
G02*
X164875000Y-86050000I0J250000D01*
G01*
X164875000Y-85550000D01*
G75*
G02*
X165125000Y-85300000I250000J0D01*
G01*
G37*
%TD*%
D14*
%TO.C,8MHz1*%
X169500000Y-87000000D03*
X178000000Y-87000000D03*
%TD*%
M02*
