%FSLAX45Y45*%
G04 Gerber Fmt 4.5, Leading zero omitted, Abs format (unit mm)*
G04 Created by KiCad (PCBNEW (5.1.10)-1) date 2021-06-07 16:13:07*
%MOMM*%
%LPD*%
G01*
G04 APERTURE LIST*
%TA.AperFunction,Profile*%
%ADD10C,0.050000*%
%TD*%
%ADD11C,0.200000*%
%ADD12C,0.300000*%
G04 APERTURE END LIST*
D10*
X18313000Y-10441000D02*
X18313000Y-11248000D01*
X18313400Y-6248400D02*
X16413400Y-6248400D01*
X18313000Y-11248000D02*
X16413000Y-11248000D01*
X18313400Y-6248400D02*
X18313000Y-10441000D01*
X16413000Y-6248400D02*
X16413000Y-11248000D01*
D11*
D12*
X16696928Y-11716214D02*
X16696928Y-11416214D01*
X16768357Y-11416214D01*
X16811214Y-11430500D01*
X16839786Y-11459071D01*
X16854071Y-11487643D01*
X16868357Y-11544786D01*
X16868357Y-11587643D01*
X16854071Y-11644786D01*
X16839786Y-11673357D01*
X16811214Y-11701929D01*
X16768357Y-11716214D01*
X16696928Y-11716214D01*
X16996928Y-11716214D02*
X16996928Y-11516214D01*
X16996928Y-11573357D02*
X17011214Y-11544786D01*
X17025500Y-11530500D01*
X17054071Y-11516214D01*
X17082643Y-11516214D01*
X17182643Y-11716214D02*
X17182643Y-11516214D01*
X17182643Y-11416214D02*
X17168357Y-11430500D01*
X17182643Y-11444786D01*
X17196928Y-11430500D01*
X17182643Y-11416214D01*
X17182643Y-11444786D01*
X17368357Y-11716214D02*
X17339786Y-11701929D01*
X17325500Y-11673357D01*
X17325500Y-11416214D01*
X17525500Y-11716214D02*
X17496928Y-11701929D01*
X17482643Y-11673357D01*
X17482643Y-11416214D01*
X17868357Y-11716214D02*
X17868357Y-11416214D01*
X17968357Y-11630500D01*
X18068357Y-11416214D01*
X18068357Y-11716214D01*
X18339786Y-11716214D02*
X18339786Y-11559071D01*
X18325500Y-11530500D01*
X18296928Y-11516214D01*
X18239786Y-11516214D01*
X18211214Y-11530500D01*
X18339786Y-11701929D02*
X18311214Y-11716214D01*
X18239786Y-11716214D01*
X18211214Y-11701929D01*
X18196928Y-11673357D01*
X18196928Y-11644786D01*
X18211214Y-11616214D01*
X18239786Y-11601929D01*
X18311214Y-11601929D01*
X18339786Y-11587643D01*
X18482643Y-11516214D02*
X18482643Y-11816214D01*
X18482643Y-11530500D02*
X18511214Y-11516214D01*
X18568357Y-11516214D01*
X18596928Y-11530500D01*
X18611214Y-11544786D01*
X18625500Y-11573357D01*
X18625500Y-11659071D01*
X18611214Y-11687643D01*
X18596928Y-11701929D01*
X18568357Y-11716214D01*
X18511214Y-11716214D01*
X18482643Y-11701929D01*
X18754071Y-11687643D02*
X18768357Y-11701929D01*
X18754071Y-11716214D01*
X18739786Y-11701929D01*
X18754071Y-11687643D01*
X18754071Y-11716214D01*
X18754071Y-11530500D02*
X18768357Y-11544786D01*
X18754071Y-11559071D01*
X18739786Y-11544786D01*
X18754071Y-11530500D01*
X18754071Y-11559071D01*
M02*
