%TF.GenerationSoftware,KiCad,Pcbnew,(5.1.10)-1*%
%TF.CreationDate,2021-06-07T16:12:13-04:00*%
%TF.ProjectId,Thermometre_IR,54686572-6d6f-46d6-9574-72655f49522e,rev?*%
%TF.SameCoordinates,Original*%
%TF.FileFunction,Soldermask,Top*%
%TF.FilePolarity,Negative*%
%FSLAX46Y46*%
G04 Gerber Fmt 4.6, Leading zero omitted, Abs format (unit mm)*
G04 Created by KiCad (PCBNEW (5.1.10)-1) date 2021-06-07 16:12:13*
%MOMM*%
%LPD*%
G01*
G04 APERTURE LIST*
%ADD10C,1.624000*%
%ADD11C,1.700000*%
%ADD12O,1.800000X1.800000*%
G04 APERTURE END LIST*
D10*
%TO.C,J5*%
X169082720Y-91292680D03*
X173082720Y-91292680D03*
%TD*%
D11*
%TO.C,C10*%
X169150000Y-96200000D03*
G36*
G01*
X168350000Y-92850000D02*
X169950000Y-92850000D01*
G75*
G02*
X170000000Y-92900000I0J-50000D01*
G01*
X170000000Y-94500000D01*
G75*
G02*
X169950000Y-94550000I-50000J0D01*
G01*
X168350000Y-94550000D01*
G75*
G02*
X168300000Y-94500000I0J50000D01*
G01*
X168300000Y-92900000D01*
G75*
G02*
X168350000Y-92850000I50000J0D01*
G01*
G37*
%TD*%
%TO.C,C11*%
G36*
G01*
X165673808Y-106775000D02*
X167126192Y-106775000D01*
G75*
G02*
X167400000Y-107048808I0J-273808D01*
G01*
X167400000Y-107651192D01*
G75*
G02*
X167126192Y-107925000I-273808J0D01*
G01*
X165673808Y-107925000D01*
G75*
G02*
X165400000Y-107651192I0J273808D01*
G01*
X165400000Y-107048808D01*
G75*
G02*
X165673808Y-106775000I273808J0D01*
G01*
G37*
G36*
G01*
X165673808Y-103625000D02*
X167126192Y-103625000D01*
G75*
G02*
X167400000Y-103898808I0J-273808D01*
G01*
X167400000Y-104501192D01*
G75*
G02*
X167126192Y-104775000I-273808J0D01*
G01*
X165673808Y-104775000D01*
G75*
G02*
X165400000Y-104501192I0J273808D01*
G01*
X165400000Y-103898808D01*
G75*
G02*
X165673808Y-103625000I273808J0D01*
G01*
G37*
%TD*%
%TO.C,J1*%
G36*
G01*
X174350000Y-69053000D02*
X174350000Y-67003000D01*
G75*
G02*
X174875000Y-66478000I525000J0D01*
G01*
X175925000Y-66478000D01*
G75*
G02*
X176450000Y-67003000I0J-525000D01*
G01*
X176450000Y-69053000D01*
G75*
G02*
X175925000Y-69578000I-525000J0D01*
G01*
X174875000Y-69578000D01*
G75*
G02*
X174350000Y-69053000I0J525000D01*
G01*
G37*
G36*
G01*
X170550000Y-69053000D02*
X170550000Y-67003000D01*
G75*
G02*
X171075000Y-66478000I525000J0D01*
G01*
X172125000Y-66478000D01*
G75*
G02*
X172650000Y-67003000I0J-525000D01*
G01*
X172650000Y-69053000D01*
G75*
G02*
X172125000Y-69578000I-525000J0D01*
G01*
X171075000Y-69578000D01*
G75*
G02*
X170550000Y-69053000I0J525000D01*
G01*
G37*
%TD*%
%TO.C,R16*%
G36*
G01*
X177100000Y-65750000D02*
X178100000Y-65750000D01*
G75*
G02*
X178375000Y-66025000I0J-275000D01*
G01*
X178375000Y-66575000D01*
G75*
G02*
X178100000Y-66850000I-275000J0D01*
G01*
X177100000Y-66850000D01*
G75*
G02*
X176825000Y-66575000I0J275000D01*
G01*
X176825000Y-66025000D01*
G75*
G02*
X177100000Y-65750000I275000J0D01*
G01*
G37*
G36*
G01*
X177100000Y-63850000D02*
X178100000Y-63850000D01*
G75*
G02*
X178375000Y-64125000I0J-275000D01*
G01*
X178375000Y-64675000D01*
G75*
G02*
X178100000Y-64950000I-275000J0D01*
G01*
X177100000Y-64950000D01*
G75*
G02*
X176825000Y-64675000I0J275000D01*
G01*
X176825000Y-64125000D01*
G75*
G02*
X177100000Y-63850000I275000J0D01*
G01*
G37*
%TD*%
D12*
%TO.C,J4*%
X180900000Y-69300000D03*
X181000000Y-71840000D03*
X180900000Y-74380000D03*
X181000000Y-76920000D03*
X180900000Y-79500000D03*
G36*
G01*
X181900000Y-81150000D02*
X181900000Y-82850000D01*
G75*
G02*
X181850000Y-82900000I-50000J0D01*
G01*
X180150000Y-82900000D01*
G75*
G02*
X180100000Y-82850000I0J50000D01*
G01*
X180100000Y-81150000D01*
G75*
G02*
X180150000Y-81100000I50000J0D01*
G01*
X181850000Y-81100000D01*
G75*
G02*
X181900000Y-81150000I0J-50000D01*
G01*
G37*
%TD*%
%TO.C,SW1*%
G36*
G01*
X176450000Y-93975000D02*
X177750000Y-93975000D01*
G75*
G02*
X177800000Y-94025000I0J-50000D01*
G01*
X177800000Y-95575000D01*
G75*
G02*
X177750000Y-95625000I-50000J0D01*
G01*
X176450000Y-95625000D01*
G75*
G02*
X176400000Y-95575000I0J50000D01*
G01*
X176400000Y-94025000D01*
G75*
G02*
X176450000Y-93975000I50000J0D01*
G01*
G37*
G36*
G01*
X180950000Y-93975000D02*
X182250000Y-93975000D01*
G75*
G02*
X182300000Y-94025000I0J-50000D01*
G01*
X182300000Y-95575000D01*
G75*
G02*
X182250000Y-95625000I-50000J0D01*
G01*
X180950000Y-95625000D01*
G75*
G02*
X180900000Y-95575000I0J50000D01*
G01*
X180900000Y-94025000D01*
G75*
G02*
X180950000Y-93975000I50000J0D01*
G01*
G37*
G36*
G01*
X180950000Y-101935000D02*
X182250000Y-101935000D01*
G75*
G02*
X182300000Y-101985000I0J-50000D01*
G01*
X182300000Y-103535000D01*
G75*
G02*
X182250000Y-103585000I-50000J0D01*
G01*
X180950000Y-103585000D01*
G75*
G02*
X180900000Y-103535000I0J50000D01*
G01*
X180900000Y-101985000D01*
G75*
G02*
X180950000Y-101935000I50000J0D01*
G01*
G37*
G36*
G01*
X176450000Y-101935000D02*
X177750000Y-101935000D01*
G75*
G02*
X177800000Y-101985000I0J-50000D01*
G01*
X177800000Y-103535000D01*
G75*
G02*
X177750000Y-103585000I-50000J0D01*
G01*
X176450000Y-103585000D01*
G75*
G02*
X176400000Y-103535000I0J50000D01*
G01*
X176400000Y-101985000D01*
G75*
G02*
X176450000Y-101935000I50000J0D01*
G01*
G37*
%TD*%
%TO.C,J7*%
X166600000Y-71000000D03*
G36*
G01*
X165700000Y-69310000D02*
X165700000Y-67610000D01*
G75*
G02*
X165750000Y-67560000I50000J0D01*
G01*
X167450000Y-67560000D01*
G75*
G02*
X167500000Y-67610000I0J-50000D01*
G01*
X167500000Y-69310000D01*
G75*
G02*
X167450000Y-69360000I-50000J0D01*
G01*
X165750000Y-69360000D01*
G75*
G02*
X165700000Y-69310000I0J50000D01*
G01*
G37*
%TD*%
%TO.C,U2*%
G36*
G01*
X168300000Y-98800000D02*
X171000000Y-98800000D01*
G75*
G02*
X171050000Y-98850000I0J-50000D01*
G01*
X171050000Y-101550000D01*
G75*
G02*
X171000000Y-101600000I-50000J0D01*
G01*
X168300000Y-101600000D01*
G75*
G02*
X168250000Y-101550000I0J50000D01*
G01*
X168250000Y-98850000D01*
G75*
G02*
X168300000Y-98800000I50000J0D01*
G01*
G37*
G36*
G01*
X171262500Y-99000000D02*
X171962500Y-99000000D01*
G75*
G02*
X172075000Y-99112500I0J-112500D01*
G01*
X172075000Y-99337500D01*
G75*
G02*
X171962500Y-99450000I-112500J0D01*
G01*
X171262500Y-99450000D01*
G75*
G02*
X171150000Y-99337500I0J112500D01*
G01*
X171150000Y-99112500D01*
G75*
G02*
X171262500Y-99000000I112500J0D01*
G01*
G37*
G36*
G01*
X171262500Y-99650000D02*
X171962500Y-99650000D01*
G75*
G02*
X172075000Y-99762500I0J-112500D01*
G01*
X172075000Y-99987500D01*
G75*
G02*
X171962500Y-100100000I-112500J0D01*
G01*
X171262500Y-100100000D01*
G75*
G02*
X171150000Y-99987500I0J112500D01*
G01*
X171150000Y-99762500D01*
G75*
G02*
X171262500Y-99650000I112500J0D01*
G01*
G37*
G36*
G01*
X171262500Y-100300000D02*
X171962500Y-100300000D01*
G75*
G02*
X172075000Y-100412500I0J-112500D01*
G01*
X172075000Y-100637500D01*
G75*
G02*
X171962500Y-100750000I-112500J0D01*
G01*
X171262500Y-100750000D01*
G75*
G02*
X171150000Y-100637500I0J112500D01*
G01*
X171150000Y-100412500D01*
G75*
G02*
X171262500Y-100300000I112500J0D01*
G01*
G37*
G36*
G01*
X171262500Y-100950000D02*
X171962500Y-100950000D01*
G75*
G02*
X172075000Y-101062500I0J-112500D01*
G01*
X172075000Y-101287500D01*
G75*
G02*
X171962500Y-101400000I-112500J0D01*
G01*
X171262500Y-101400000D01*
G75*
G02*
X171150000Y-101287500I0J112500D01*
G01*
X171150000Y-101062500D01*
G75*
G02*
X171262500Y-100950000I112500J0D01*
G01*
G37*
G36*
G01*
X170512500Y-101700000D02*
X170737500Y-101700000D01*
G75*
G02*
X170850000Y-101812500I0J-112500D01*
G01*
X170850000Y-102512500D01*
G75*
G02*
X170737500Y-102625000I-112500J0D01*
G01*
X170512500Y-102625000D01*
G75*
G02*
X170400000Y-102512500I0J112500D01*
G01*
X170400000Y-101812500D01*
G75*
G02*
X170512500Y-101700000I112500J0D01*
G01*
G37*
G36*
G01*
X169862500Y-101700000D02*
X170087500Y-101700000D01*
G75*
G02*
X170200000Y-101812500I0J-112500D01*
G01*
X170200000Y-102512500D01*
G75*
G02*
X170087500Y-102625000I-112500J0D01*
G01*
X169862500Y-102625000D01*
G75*
G02*
X169750000Y-102512500I0J112500D01*
G01*
X169750000Y-101812500D01*
G75*
G02*
X169862500Y-101700000I112500J0D01*
G01*
G37*
G36*
G01*
X169212500Y-101700000D02*
X169437500Y-101700000D01*
G75*
G02*
X169550000Y-101812500I0J-112500D01*
G01*
X169550000Y-102512500D01*
G75*
G02*
X169437500Y-102625000I-112500J0D01*
G01*
X169212500Y-102625000D01*
G75*
G02*
X169100000Y-102512500I0J112500D01*
G01*
X169100000Y-101812500D01*
G75*
G02*
X169212500Y-101700000I112500J0D01*
G01*
G37*
G36*
G01*
X168562500Y-101700000D02*
X168787500Y-101700000D01*
G75*
G02*
X168900000Y-101812500I0J-112500D01*
G01*
X168900000Y-102512500D01*
G75*
G02*
X168787500Y-102625000I-112500J0D01*
G01*
X168562500Y-102625000D01*
G75*
G02*
X168450000Y-102512500I0J112500D01*
G01*
X168450000Y-101812500D01*
G75*
G02*
X168562500Y-101700000I112500J0D01*
G01*
G37*
G36*
G01*
X167337500Y-100950000D02*
X168037500Y-100950000D01*
G75*
G02*
X168150000Y-101062500I0J-112500D01*
G01*
X168150000Y-101287500D01*
G75*
G02*
X168037500Y-101400000I-112500J0D01*
G01*
X167337500Y-101400000D01*
G75*
G02*
X167225000Y-101287500I0J112500D01*
G01*
X167225000Y-101062500D01*
G75*
G02*
X167337500Y-100950000I112500J0D01*
G01*
G37*
G36*
G01*
X167337500Y-100300000D02*
X168037500Y-100300000D01*
G75*
G02*
X168150000Y-100412500I0J-112500D01*
G01*
X168150000Y-100637500D01*
G75*
G02*
X168037500Y-100750000I-112500J0D01*
G01*
X167337500Y-100750000D01*
G75*
G02*
X167225000Y-100637500I0J112500D01*
G01*
X167225000Y-100412500D01*
G75*
G02*
X167337500Y-100300000I112500J0D01*
G01*
G37*
G36*
G01*
X167337500Y-99650000D02*
X168037500Y-99650000D01*
G75*
G02*
X168150000Y-99762500I0J-112500D01*
G01*
X168150000Y-99987500D01*
G75*
G02*
X168037500Y-100100000I-112500J0D01*
G01*
X167337500Y-100100000D01*
G75*
G02*
X167225000Y-99987500I0J112500D01*
G01*
X167225000Y-99762500D01*
G75*
G02*
X167337500Y-99650000I112500J0D01*
G01*
G37*
G36*
G01*
X167337500Y-99000000D02*
X168037500Y-99000000D01*
G75*
G02*
X168150000Y-99112500I0J-112500D01*
G01*
X168150000Y-99337500D01*
G75*
G02*
X168037500Y-99450000I-112500J0D01*
G01*
X167337500Y-99450000D01*
G75*
G02*
X167225000Y-99337500I0J112500D01*
G01*
X167225000Y-99112500D01*
G75*
G02*
X167337500Y-99000000I112500J0D01*
G01*
G37*
G36*
G01*
X168562500Y-97775000D02*
X168787500Y-97775000D01*
G75*
G02*
X168900000Y-97887500I0J-112500D01*
G01*
X168900000Y-98587500D01*
G75*
G02*
X168787500Y-98700000I-112500J0D01*
G01*
X168562500Y-98700000D01*
G75*
G02*
X168450000Y-98587500I0J112500D01*
G01*
X168450000Y-97887500D01*
G75*
G02*
X168562500Y-97775000I112500J0D01*
G01*
G37*
G36*
G01*
X169212500Y-97775000D02*
X169437500Y-97775000D01*
G75*
G02*
X169550000Y-97887500I0J-112500D01*
G01*
X169550000Y-98587500D01*
G75*
G02*
X169437500Y-98700000I-112500J0D01*
G01*
X169212500Y-98700000D01*
G75*
G02*
X169100000Y-98587500I0J112500D01*
G01*
X169100000Y-97887500D01*
G75*
G02*
X169212500Y-97775000I112500J0D01*
G01*
G37*
G36*
G01*
X169862500Y-97775000D02*
X170087500Y-97775000D01*
G75*
G02*
X170200000Y-97887500I0J-112500D01*
G01*
X170200000Y-98587500D01*
G75*
G02*
X170087500Y-98700000I-112500J0D01*
G01*
X169862500Y-98700000D01*
G75*
G02*
X169750000Y-98587500I0J112500D01*
G01*
X169750000Y-97887500D01*
G75*
G02*
X169862500Y-97775000I112500J0D01*
G01*
G37*
G36*
G01*
X170512500Y-97775000D02*
X170737500Y-97775000D01*
G75*
G02*
X170850000Y-97887500I0J-112500D01*
G01*
X170850000Y-98587500D01*
G75*
G02*
X170737500Y-98700000I-112500J0D01*
G01*
X170512500Y-98700000D01*
G75*
G02*
X170400000Y-98587500I0J112500D01*
G01*
X170400000Y-97887500D01*
G75*
G02*
X170512500Y-97775000I112500J0D01*
G01*
G37*
%TD*%
%TO.C,U1*%
G36*
G01*
X170450000Y-80275000D02*
X170450000Y-80825000D01*
G75*
G02*
X170400000Y-80875000I-50000J0D01*
G01*
X168800000Y-80875000D01*
G75*
G02*
X168750000Y-80825000I0J50000D01*
G01*
X168750000Y-80275000D01*
G75*
G02*
X168800000Y-80225000I50000J0D01*
G01*
X170400000Y-80225000D01*
G75*
G02*
X170450000Y-80275000I0J-50000D01*
G01*
G37*
G36*
G01*
X170450000Y-79475000D02*
X170450000Y-80025000D01*
G75*
G02*
X170400000Y-80075000I-50000J0D01*
G01*
X168800000Y-80075000D01*
G75*
G02*
X168750000Y-80025000I0J50000D01*
G01*
X168750000Y-79475000D01*
G75*
G02*
X168800000Y-79425000I50000J0D01*
G01*
X170400000Y-79425000D01*
G75*
G02*
X170450000Y-79475000I0J-50000D01*
G01*
G37*
G36*
G01*
X170450000Y-78675000D02*
X170450000Y-79225000D01*
G75*
G02*
X170400000Y-79275000I-50000J0D01*
G01*
X168800000Y-79275000D01*
G75*
G02*
X168750000Y-79225000I0J50000D01*
G01*
X168750000Y-78675000D01*
G75*
G02*
X168800000Y-78625000I50000J0D01*
G01*
X170400000Y-78625000D01*
G75*
G02*
X170450000Y-78675000I0J-50000D01*
G01*
G37*
G36*
G01*
X170450000Y-77875000D02*
X170450000Y-78425000D01*
G75*
G02*
X170400000Y-78475000I-50000J0D01*
G01*
X168800000Y-78475000D01*
G75*
G02*
X168750000Y-78425000I0J50000D01*
G01*
X168750000Y-77875000D01*
G75*
G02*
X168800000Y-77825000I50000J0D01*
G01*
X170400000Y-77825000D01*
G75*
G02*
X170450000Y-77875000I0J-50000D01*
G01*
G37*
G36*
G01*
X170450000Y-77075000D02*
X170450000Y-77625000D01*
G75*
G02*
X170400000Y-77675000I-50000J0D01*
G01*
X168800000Y-77675000D01*
G75*
G02*
X168750000Y-77625000I0J50000D01*
G01*
X168750000Y-77075000D01*
G75*
G02*
X168800000Y-77025000I50000J0D01*
G01*
X170400000Y-77025000D01*
G75*
G02*
X170450000Y-77075000I0J-50000D01*
G01*
G37*
G36*
G01*
X170450000Y-76275000D02*
X170450000Y-76825000D01*
G75*
G02*
X170400000Y-76875000I-50000J0D01*
G01*
X168800000Y-76875000D01*
G75*
G02*
X168750000Y-76825000I0J50000D01*
G01*
X168750000Y-76275000D01*
G75*
G02*
X168800000Y-76225000I50000J0D01*
G01*
X170400000Y-76225000D01*
G75*
G02*
X170450000Y-76275000I0J-50000D01*
G01*
G37*
G36*
G01*
X170450000Y-75475000D02*
X170450000Y-76025000D01*
G75*
G02*
X170400000Y-76075000I-50000J0D01*
G01*
X168800000Y-76075000D01*
G75*
G02*
X168750000Y-76025000I0J50000D01*
G01*
X168750000Y-75475000D01*
G75*
G02*
X168800000Y-75425000I50000J0D01*
G01*
X170400000Y-75425000D01*
G75*
G02*
X170450000Y-75475000I0J-50000D01*
G01*
G37*
G36*
G01*
X170450000Y-74675000D02*
X170450000Y-75225000D01*
G75*
G02*
X170400000Y-75275000I-50000J0D01*
G01*
X168800000Y-75275000D01*
G75*
G02*
X168750000Y-75225000I0J50000D01*
G01*
X168750000Y-74675000D01*
G75*
G02*
X168800000Y-74625000I50000J0D01*
G01*
X170400000Y-74625000D01*
G75*
G02*
X170450000Y-74675000I0J-50000D01*
G01*
G37*
G36*
G01*
X171325000Y-74350000D02*
X170775000Y-74350000D01*
G75*
G02*
X170725000Y-74300000I0J50000D01*
G01*
X170725000Y-72700000D01*
G75*
G02*
X170775000Y-72650000I50000J0D01*
G01*
X171325000Y-72650000D01*
G75*
G02*
X171375000Y-72700000I0J-50000D01*
G01*
X171375000Y-74300000D01*
G75*
G02*
X171325000Y-74350000I-50000J0D01*
G01*
G37*
G36*
G01*
X172125000Y-74350000D02*
X171575000Y-74350000D01*
G75*
G02*
X171525000Y-74300000I0J50000D01*
G01*
X171525000Y-72700000D01*
G75*
G02*
X171575000Y-72650000I50000J0D01*
G01*
X172125000Y-72650000D01*
G75*
G02*
X172175000Y-72700000I0J-50000D01*
G01*
X172175000Y-74300000D01*
G75*
G02*
X172125000Y-74350000I-50000J0D01*
G01*
G37*
G36*
G01*
X172925000Y-74350000D02*
X172375000Y-74350000D01*
G75*
G02*
X172325000Y-74300000I0J50000D01*
G01*
X172325000Y-72700000D01*
G75*
G02*
X172375000Y-72650000I50000J0D01*
G01*
X172925000Y-72650000D01*
G75*
G02*
X172975000Y-72700000I0J-50000D01*
G01*
X172975000Y-74300000D01*
G75*
G02*
X172925000Y-74350000I-50000J0D01*
G01*
G37*
G36*
G01*
X173725000Y-74350000D02*
X173175000Y-74350000D01*
G75*
G02*
X173125000Y-74300000I0J50000D01*
G01*
X173125000Y-72700000D01*
G75*
G02*
X173175000Y-72650000I50000J0D01*
G01*
X173725000Y-72650000D01*
G75*
G02*
X173775000Y-72700000I0J-50000D01*
G01*
X173775000Y-74300000D01*
G75*
G02*
X173725000Y-74350000I-50000J0D01*
G01*
G37*
G36*
G01*
X174525000Y-74350000D02*
X173975000Y-74350000D01*
G75*
G02*
X173925000Y-74300000I0J50000D01*
G01*
X173925000Y-72700000D01*
G75*
G02*
X173975000Y-72650000I50000J0D01*
G01*
X174525000Y-72650000D01*
G75*
G02*
X174575000Y-72700000I0J-50000D01*
G01*
X174575000Y-74300000D01*
G75*
G02*
X174525000Y-74350000I-50000J0D01*
G01*
G37*
G36*
G01*
X175325000Y-74350000D02*
X174775000Y-74350000D01*
G75*
G02*
X174725000Y-74300000I0J50000D01*
G01*
X174725000Y-72700000D01*
G75*
G02*
X174775000Y-72650000I50000J0D01*
G01*
X175325000Y-72650000D01*
G75*
G02*
X175375000Y-72700000I0J-50000D01*
G01*
X175375000Y-74300000D01*
G75*
G02*
X175325000Y-74350000I-50000J0D01*
G01*
G37*
G36*
G01*
X176125000Y-74350000D02*
X175575000Y-74350000D01*
G75*
G02*
X175525000Y-74300000I0J50000D01*
G01*
X175525000Y-72700000D01*
G75*
G02*
X175575000Y-72650000I50000J0D01*
G01*
X176125000Y-72650000D01*
G75*
G02*
X176175000Y-72700000I0J-50000D01*
G01*
X176175000Y-74300000D01*
G75*
G02*
X176125000Y-74350000I-50000J0D01*
G01*
G37*
G36*
G01*
X176925000Y-74350000D02*
X176375000Y-74350000D01*
G75*
G02*
X176325000Y-74300000I0J50000D01*
G01*
X176325000Y-72700000D01*
G75*
G02*
X176375000Y-72650000I50000J0D01*
G01*
X176925000Y-72650000D01*
G75*
G02*
X176975000Y-72700000I0J-50000D01*
G01*
X176975000Y-74300000D01*
G75*
G02*
X176925000Y-74350000I-50000J0D01*
G01*
G37*
G36*
G01*
X178950000Y-74675000D02*
X178950000Y-75225000D01*
G75*
G02*
X178900000Y-75275000I-50000J0D01*
G01*
X177300000Y-75275000D01*
G75*
G02*
X177250000Y-75225000I0J50000D01*
G01*
X177250000Y-74675000D01*
G75*
G02*
X177300000Y-74625000I50000J0D01*
G01*
X178900000Y-74625000D01*
G75*
G02*
X178950000Y-74675000I0J-50000D01*
G01*
G37*
G36*
G01*
X178950000Y-75475000D02*
X178950000Y-76025000D01*
G75*
G02*
X178900000Y-76075000I-50000J0D01*
G01*
X177300000Y-76075000D01*
G75*
G02*
X177250000Y-76025000I0J50000D01*
G01*
X177250000Y-75475000D01*
G75*
G02*
X177300000Y-75425000I50000J0D01*
G01*
X178900000Y-75425000D01*
G75*
G02*
X178950000Y-75475000I0J-50000D01*
G01*
G37*
G36*
G01*
X178950000Y-76275000D02*
X178950000Y-76825000D01*
G75*
G02*
X178900000Y-76875000I-50000J0D01*
G01*
X177300000Y-76875000D01*
G75*
G02*
X177250000Y-76825000I0J50000D01*
G01*
X177250000Y-76275000D01*
G75*
G02*
X177300000Y-76225000I50000J0D01*
G01*
X178900000Y-76225000D01*
G75*
G02*
X178950000Y-76275000I0J-50000D01*
G01*
G37*
G36*
G01*
X178950000Y-77075000D02*
X178950000Y-77625000D01*
G75*
G02*
X178900000Y-77675000I-50000J0D01*
G01*
X177300000Y-77675000D01*
G75*
G02*
X177250000Y-77625000I0J50000D01*
G01*
X177250000Y-77075000D01*
G75*
G02*
X177300000Y-77025000I50000J0D01*
G01*
X178900000Y-77025000D01*
G75*
G02*
X178950000Y-77075000I0J-50000D01*
G01*
G37*
G36*
G01*
X178950000Y-77875000D02*
X178950000Y-78425000D01*
G75*
G02*
X178900000Y-78475000I-50000J0D01*
G01*
X177300000Y-78475000D01*
G75*
G02*
X177250000Y-78425000I0J50000D01*
G01*
X177250000Y-77875000D01*
G75*
G02*
X177300000Y-77825000I50000J0D01*
G01*
X178900000Y-77825000D01*
G75*
G02*
X178950000Y-77875000I0J-50000D01*
G01*
G37*
G36*
G01*
X178950000Y-78675000D02*
X178950000Y-79225000D01*
G75*
G02*
X178900000Y-79275000I-50000J0D01*
G01*
X177300000Y-79275000D01*
G75*
G02*
X177250000Y-79225000I0J50000D01*
G01*
X177250000Y-78675000D01*
G75*
G02*
X177300000Y-78625000I50000J0D01*
G01*
X178900000Y-78625000D01*
G75*
G02*
X178950000Y-78675000I0J-50000D01*
G01*
G37*
G36*
G01*
X178950000Y-79475000D02*
X178950000Y-80025000D01*
G75*
G02*
X178900000Y-80075000I-50000J0D01*
G01*
X177300000Y-80075000D01*
G75*
G02*
X177250000Y-80025000I0J50000D01*
G01*
X177250000Y-79475000D01*
G75*
G02*
X177300000Y-79425000I50000J0D01*
G01*
X178900000Y-79425000D01*
G75*
G02*
X178950000Y-79475000I0J-50000D01*
G01*
G37*
G36*
G01*
X178950000Y-80275000D02*
X178950000Y-80825000D01*
G75*
G02*
X178900000Y-80875000I-50000J0D01*
G01*
X177300000Y-80875000D01*
G75*
G02*
X177250000Y-80825000I0J50000D01*
G01*
X177250000Y-80275000D01*
G75*
G02*
X177300000Y-80225000I50000J0D01*
G01*
X178900000Y-80225000D01*
G75*
G02*
X178950000Y-80275000I0J-50000D01*
G01*
G37*
G36*
G01*
X176925000Y-82850000D02*
X176375000Y-82850000D01*
G75*
G02*
X176325000Y-82800000I0J50000D01*
G01*
X176325000Y-81200000D01*
G75*
G02*
X176375000Y-81150000I50000J0D01*
G01*
X176925000Y-81150000D01*
G75*
G02*
X176975000Y-81200000I0J-50000D01*
G01*
X176975000Y-82800000D01*
G75*
G02*
X176925000Y-82850000I-50000J0D01*
G01*
G37*
G36*
G01*
X176125000Y-82850000D02*
X175575000Y-82850000D01*
G75*
G02*
X175525000Y-82800000I0J50000D01*
G01*
X175525000Y-81200000D01*
G75*
G02*
X175575000Y-81150000I50000J0D01*
G01*
X176125000Y-81150000D01*
G75*
G02*
X176175000Y-81200000I0J-50000D01*
G01*
X176175000Y-82800000D01*
G75*
G02*
X176125000Y-82850000I-50000J0D01*
G01*
G37*
G36*
G01*
X175325000Y-82850000D02*
X174775000Y-82850000D01*
G75*
G02*
X174725000Y-82800000I0J50000D01*
G01*
X174725000Y-81200000D01*
G75*
G02*
X174775000Y-81150000I50000J0D01*
G01*
X175325000Y-81150000D01*
G75*
G02*
X175375000Y-81200000I0J-50000D01*
G01*
X175375000Y-82800000D01*
G75*
G02*
X175325000Y-82850000I-50000J0D01*
G01*
G37*
G36*
G01*
X174525000Y-82850000D02*
X173975000Y-82850000D01*
G75*
G02*
X173925000Y-82800000I0J50000D01*
G01*
X173925000Y-81200000D01*
G75*
G02*
X173975000Y-81150000I50000J0D01*
G01*
X174525000Y-81150000D01*
G75*
G02*
X174575000Y-81200000I0J-50000D01*
G01*
X174575000Y-82800000D01*
G75*
G02*
X174525000Y-82850000I-50000J0D01*
G01*
G37*
G36*
G01*
X173725000Y-82850000D02*
X173175000Y-82850000D01*
G75*
G02*
X173125000Y-82800000I0J50000D01*
G01*
X173125000Y-81200000D01*
G75*
G02*
X173175000Y-81150000I50000J0D01*
G01*
X173725000Y-81150000D01*
G75*
G02*
X173775000Y-81200000I0J-50000D01*
G01*
X173775000Y-82800000D01*
G75*
G02*
X173725000Y-82850000I-50000J0D01*
G01*
G37*
G36*
G01*
X172925000Y-82850000D02*
X172375000Y-82850000D01*
G75*
G02*
X172325000Y-82800000I0J50000D01*
G01*
X172325000Y-81200000D01*
G75*
G02*
X172375000Y-81150000I50000J0D01*
G01*
X172925000Y-81150000D01*
G75*
G02*
X172975000Y-81200000I0J-50000D01*
G01*
X172975000Y-82800000D01*
G75*
G02*
X172925000Y-82850000I-50000J0D01*
G01*
G37*
G36*
G01*
X172125000Y-82850000D02*
X171575000Y-82850000D01*
G75*
G02*
X171525000Y-82800000I0J50000D01*
G01*
X171525000Y-81200000D01*
G75*
G02*
X171575000Y-81150000I50000J0D01*
G01*
X172125000Y-81150000D01*
G75*
G02*
X172175000Y-81200000I0J-50000D01*
G01*
X172175000Y-82800000D01*
G75*
G02*
X172125000Y-82850000I-50000J0D01*
G01*
G37*
G36*
G01*
X171325000Y-82850000D02*
X170775000Y-82850000D01*
G75*
G02*
X170725000Y-82800000I0J50000D01*
G01*
X170725000Y-81200000D01*
G75*
G02*
X170775000Y-81150000I50000J0D01*
G01*
X171325000Y-81150000D01*
G75*
G02*
X171375000Y-81200000I0J-50000D01*
G01*
X171375000Y-82800000D01*
G75*
G02*
X171325000Y-82850000I-50000J0D01*
G01*
G37*
%TD*%
%TO.C,SW2*%
G36*
G01*
X168615000Y-111450000D02*
X168615000Y-110150000D01*
G75*
G02*
X168665000Y-110100000I50000J0D01*
G01*
X170215000Y-110100000D01*
G75*
G02*
X170265000Y-110150000I0J-50000D01*
G01*
X170265000Y-111450000D01*
G75*
G02*
X170215000Y-111500000I-50000J0D01*
G01*
X168665000Y-111500000D01*
G75*
G02*
X168615000Y-111450000I0J50000D01*
G01*
G37*
G36*
G01*
X168615000Y-106950000D02*
X168615000Y-105650000D01*
G75*
G02*
X168665000Y-105600000I50000J0D01*
G01*
X170215000Y-105600000D01*
G75*
G02*
X170265000Y-105650000I0J-50000D01*
G01*
X170265000Y-106950000D01*
G75*
G02*
X170215000Y-107000000I-50000J0D01*
G01*
X168665000Y-107000000D01*
G75*
G02*
X168615000Y-106950000I0J50000D01*
G01*
G37*
G36*
G01*
X176575000Y-106950000D02*
X176575000Y-105650000D01*
G75*
G02*
X176625000Y-105600000I50000J0D01*
G01*
X178175000Y-105600000D01*
G75*
G02*
X178225000Y-105650000I0J-50000D01*
G01*
X178225000Y-106950000D01*
G75*
G02*
X178175000Y-107000000I-50000J0D01*
G01*
X176625000Y-107000000D01*
G75*
G02*
X176575000Y-106950000I0J50000D01*
G01*
G37*
G36*
G01*
X176575000Y-111450000D02*
X176575000Y-110150000D01*
G75*
G02*
X176625000Y-110100000I50000J0D01*
G01*
X178175000Y-110100000D01*
G75*
G02*
X178225000Y-110150000I0J-50000D01*
G01*
X178225000Y-111450000D01*
G75*
G02*
X178175000Y-111500000I-50000J0D01*
G01*
X176625000Y-111500000D01*
G75*
G02*
X176575000Y-111450000I0J50000D01*
G01*
G37*
%TD*%
%TO.C,R14*%
G36*
G01*
X173756000Y-97607500D02*
X173756000Y-98607500D01*
G75*
G02*
X173481000Y-98882500I-275000J0D01*
G01*
X172931000Y-98882500D01*
G75*
G02*
X172656000Y-98607500I0J275000D01*
G01*
X172656000Y-97607500D01*
G75*
G02*
X172931000Y-97332500I275000J0D01*
G01*
X173481000Y-97332500D01*
G75*
G02*
X173756000Y-97607500I0J-275000D01*
G01*
G37*
G36*
G01*
X175656000Y-97607500D02*
X175656000Y-98607500D01*
G75*
G02*
X175381000Y-98882500I-275000J0D01*
G01*
X174831000Y-98882500D01*
G75*
G02*
X174556000Y-98607500I0J275000D01*
G01*
X174556000Y-97607500D01*
G75*
G02*
X174831000Y-97332500I275000J0D01*
G01*
X175381000Y-97332500D01*
G75*
G02*
X175656000Y-97607500I0J-275000D01*
G01*
G37*
%TD*%
%TO.C,R13*%
G36*
G01*
X174556000Y-100830000D02*
X174556000Y-99830000D01*
G75*
G02*
X174831000Y-99555000I275000J0D01*
G01*
X175381000Y-99555000D01*
G75*
G02*
X175656000Y-99830000I0J-275000D01*
G01*
X175656000Y-100830000D01*
G75*
G02*
X175381000Y-101105000I-275000J0D01*
G01*
X174831000Y-101105000D01*
G75*
G02*
X174556000Y-100830000I0J275000D01*
G01*
G37*
G36*
G01*
X172656000Y-100830000D02*
X172656000Y-99830000D01*
G75*
G02*
X172931000Y-99555000I275000J0D01*
G01*
X173481000Y-99555000D01*
G75*
G02*
X173756000Y-99830000I0J-275000D01*
G01*
X173756000Y-100830000D01*
G75*
G02*
X173481000Y-101105000I-275000J0D01*
G01*
X172931000Y-101105000D01*
G75*
G02*
X172656000Y-100830000I0J275000D01*
G01*
G37*
%TD*%
%TO.C,R7*%
G36*
G01*
X173900000Y-94450000D02*
X172900000Y-94450000D01*
G75*
G02*
X172625000Y-94175000I0J275000D01*
G01*
X172625000Y-93625000D01*
G75*
G02*
X172900000Y-93350000I275000J0D01*
G01*
X173900000Y-93350000D01*
G75*
G02*
X174175000Y-93625000I0J-275000D01*
G01*
X174175000Y-94175000D01*
G75*
G02*
X173900000Y-94450000I-275000J0D01*
G01*
G37*
G36*
G01*
X173900000Y-96350000D02*
X172900000Y-96350000D01*
G75*
G02*
X172625000Y-96075000I0J275000D01*
G01*
X172625000Y-95525000D01*
G75*
G02*
X172900000Y-95250000I275000J0D01*
G01*
X173900000Y-95250000D01*
G75*
G02*
X174175000Y-95525000I0J-275000D01*
G01*
X174175000Y-96075000D01*
G75*
G02*
X173900000Y-96350000I-275000J0D01*
G01*
G37*
%TD*%
%TO.C,R6*%
G36*
G01*
X171800000Y-94450000D02*
X170800000Y-94450000D01*
G75*
G02*
X170525000Y-94175000I0J275000D01*
G01*
X170525000Y-93625000D01*
G75*
G02*
X170800000Y-93350000I275000J0D01*
G01*
X171800000Y-93350000D01*
G75*
G02*
X172075000Y-93625000I0J-275000D01*
G01*
X172075000Y-94175000D01*
G75*
G02*
X171800000Y-94450000I-275000J0D01*
G01*
G37*
G36*
G01*
X171800000Y-96350000D02*
X170800000Y-96350000D01*
G75*
G02*
X170525000Y-96075000I0J275000D01*
G01*
X170525000Y-95525000D01*
G75*
G02*
X170800000Y-95250000I275000J0D01*
G01*
X171800000Y-95250000D01*
G75*
G02*
X172075000Y-95525000I0J-275000D01*
G01*
X172075000Y-96075000D01*
G75*
G02*
X171800000Y-96350000I-275000J0D01*
G01*
G37*
%TD*%
%TO.C,R4*%
G36*
G01*
X173750000Y-102050000D02*
X173750000Y-103050000D01*
G75*
G02*
X173475000Y-103325000I-275000J0D01*
G01*
X172925000Y-103325000D01*
G75*
G02*
X172650000Y-103050000I0J275000D01*
G01*
X172650000Y-102050000D01*
G75*
G02*
X172925000Y-101775000I275000J0D01*
G01*
X173475000Y-101775000D01*
G75*
G02*
X173750000Y-102050000I0J-275000D01*
G01*
G37*
G36*
G01*
X175650000Y-102050000D02*
X175650000Y-103050000D01*
G75*
G02*
X175375000Y-103325000I-275000J0D01*
G01*
X174825000Y-103325000D01*
G75*
G02*
X174550000Y-103050000I0J275000D01*
G01*
X174550000Y-102050000D01*
G75*
G02*
X174825000Y-101775000I275000J0D01*
G01*
X175375000Y-101775000D01*
G75*
G02*
X175650000Y-102050000I0J-275000D01*
G01*
G37*
%TD*%
%TO.C,R1*%
G36*
G01*
X181250000Y-91600000D02*
X182250000Y-91600000D01*
G75*
G02*
X182525000Y-91875000I0J-275000D01*
G01*
X182525000Y-92425000D01*
G75*
G02*
X182250000Y-92700000I-275000J0D01*
G01*
X181250000Y-92700000D01*
G75*
G02*
X180975000Y-92425000I0J275000D01*
G01*
X180975000Y-91875000D01*
G75*
G02*
X181250000Y-91600000I275000J0D01*
G01*
G37*
G36*
G01*
X181250000Y-89700000D02*
X182250000Y-89700000D01*
G75*
G02*
X182525000Y-89975000I0J-275000D01*
G01*
X182525000Y-90525000D01*
G75*
G02*
X182250000Y-90800000I-275000J0D01*
G01*
X181250000Y-90800000D01*
G75*
G02*
X180975000Y-90525000I0J275000D01*
G01*
X180975000Y-89975000D01*
G75*
G02*
X181250000Y-89700000I275000J0D01*
G01*
G37*
%TD*%
%TO.C,J6*%
X180800000Y-110140000D03*
G36*
G01*
X179900000Y-108450000D02*
X179900000Y-106750000D01*
G75*
G02*
X179950000Y-106700000I50000J0D01*
G01*
X181650000Y-106700000D01*
G75*
G02*
X181700000Y-106750000I0J-50000D01*
G01*
X181700000Y-108450000D01*
G75*
G02*
X181650000Y-108500000I-50000J0D01*
G01*
X179950000Y-108500000D01*
G75*
G02*
X179900000Y-108450000I0J50000D01*
G01*
G37*
%TD*%
%TO.C,J3*%
X178790000Y-91500000D03*
G36*
G01*
X177100000Y-92400000D02*
X175400000Y-92400000D01*
G75*
G02*
X175350000Y-92350000I0J50000D01*
G01*
X175350000Y-90650000D01*
G75*
G02*
X175400000Y-90600000I50000J0D01*
G01*
X177100000Y-90600000D01*
G75*
G02*
X177150000Y-90650000I0J-50000D01*
G01*
X177150000Y-92350000D01*
G75*
G02*
X177100000Y-92400000I-50000J0D01*
G01*
G37*
%TD*%
%TO.C,J2*%
X166600000Y-74600000D03*
X166600000Y-77140000D03*
X166600000Y-79680000D03*
G36*
G01*
X167500000Y-81370000D02*
X167500000Y-83070000D01*
G75*
G02*
X167450000Y-83120000I-50000J0D01*
G01*
X165750000Y-83120000D01*
G75*
G02*
X165700000Y-83070000I0J50000D01*
G01*
X165700000Y-81370000D01*
G75*
G02*
X165750000Y-81320000I50000J0D01*
G01*
X167450000Y-81320000D01*
G75*
G02*
X167500000Y-81370000I0J-50000D01*
G01*
G37*
%TD*%
%TO.C,C9*%
G36*
G01*
X166700000Y-94500000D02*
X165700000Y-94500000D01*
G75*
G02*
X165425000Y-94225000I0J275000D01*
G01*
X165425000Y-93675000D01*
G75*
G02*
X165700000Y-93400000I275000J0D01*
G01*
X166700000Y-93400000D01*
G75*
G02*
X166975000Y-93675000I0J-275000D01*
G01*
X166975000Y-94225000D01*
G75*
G02*
X166700000Y-94500000I-275000J0D01*
G01*
G37*
G36*
G01*
X166700000Y-96400000D02*
X165700000Y-96400000D01*
G75*
G02*
X165425000Y-96125000I0J275000D01*
G01*
X165425000Y-95575000D01*
G75*
G02*
X165700000Y-95300000I275000J0D01*
G01*
X166700000Y-95300000D01*
G75*
G02*
X166975000Y-95575000I0J-275000D01*
G01*
X166975000Y-96125000D01*
G75*
G02*
X166700000Y-96400000I-275000J0D01*
G01*
G37*
%TD*%
%TO.C,C2*%
G36*
G01*
X181300000Y-86800000D02*
X182300000Y-86800000D01*
G75*
G02*
X182575000Y-87075000I0J-275000D01*
G01*
X182575000Y-87625000D01*
G75*
G02*
X182300000Y-87900000I-275000J0D01*
G01*
X181300000Y-87900000D01*
G75*
G02*
X181025000Y-87625000I0J275000D01*
G01*
X181025000Y-87075000D01*
G75*
G02*
X181300000Y-86800000I275000J0D01*
G01*
G37*
G36*
G01*
X181300000Y-84900000D02*
X182300000Y-84900000D01*
G75*
G02*
X182575000Y-85175000I0J-275000D01*
G01*
X182575000Y-85725000D01*
G75*
G02*
X182300000Y-86000000I-275000J0D01*
G01*
X181300000Y-86000000D01*
G75*
G02*
X181025000Y-85725000I0J275000D01*
G01*
X181025000Y-85175000D01*
G75*
G02*
X181300000Y-84900000I275000J0D01*
G01*
G37*
%TD*%
%TO.C,C1*%
G36*
G01*
X165100000Y-87150000D02*
X166100000Y-87150000D01*
G75*
G02*
X166375000Y-87425000I0J-275000D01*
G01*
X166375000Y-87975000D01*
G75*
G02*
X166100000Y-88250000I-275000J0D01*
G01*
X165100000Y-88250000D01*
G75*
G02*
X164825000Y-87975000I0J275000D01*
G01*
X164825000Y-87425000D01*
G75*
G02*
X165100000Y-87150000I275000J0D01*
G01*
G37*
G36*
G01*
X165100000Y-85250000D02*
X166100000Y-85250000D01*
G75*
G02*
X166375000Y-85525000I0J-275000D01*
G01*
X166375000Y-86075000D01*
G75*
G02*
X166100000Y-86350000I-275000J0D01*
G01*
X165100000Y-86350000D01*
G75*
G02*
X164825000Y-86075000I0J275000D01*
G01*
X164825000Y-85525000D01*
G75*
G02*
X165100000Y-85250000I275000J0D01*
G01*
G37*
%TD*%
%TO.C,8MHz1*%
G36*
G01*
X167200000Y-88000000D02*
X167200000Y-86000000D01*
G75*
G02*
X167250000Y-85950000I50000J0D01*
G01*
X171750000Y-85950000D01*
G75*
G02*
X171800000Y-86000000I0J-50000D01*
G01*
X171800000Y-88000000D01*
G75*
G02*
X171750000Y-88050000I-50000J0D01*
G01*
X167250000Y-88050000D01*
G75*
G02*
X167200000Y-88000000I0J50000D01*
G01*
G37*
G36*
G01*
X175700000Y-88000000D02*
X175700000Y-86000000D01*
G75*
G02*
X175750000Y-85950000I50000J0D01*
G01*
X180250000Y-85950000D01*
G75*
G02*
X180300000Y-86000000I0J-50000D01*
G01*
X180300000Y-88000000D01*
G75*
G02*
X180250000Y-88050000I-50000J0D01*
G01*
X175750000Y-88050000D01*
G75*
G02*
X175700000Y-88000000I0J50000D01*
G01*
G37*
%TD*%
M02*
