%TF.GenerationSoftware,KiCad,Pcbnew,(5.1.10)-1*%
%TF.CreationDate,2021-06-07T16:12:12-04:00*%
%TF.ProjectId,Thermometre_IR,54686572-6d6f-46d6-9574-72655f49522e,rev?*%
%TF.SameCoordinates,Original*%
%TF.FileFunction,Copper,L1,Top*%
%TF.FilePolarity,Positive*%
%FSLAX46Y46*%
G04 Gerber Fmt 4.6, Leading zero omitted, Abs format (unit mm)*
G04 Created by KiCad (PCBNEW (5.1.10)-1) date 2021-06-07 16:12:12*
%MOMM*%
%LPD*%
G01*
G04 APERTURE LIST*
%TA.AperFunction,ComponentPad*%
%ADD10C,1.524000*%
%TD*%
%TA.AperFunction,ComponentPad*%
%ADD11C,1.600000*%
%TD*%
%TA.AperFunction,ComponentPad*%
%ADD12R,1.600000X1.600000*%
%TD*%
%TA.AperFunction,ComponentPad*%
%ADD13O,1.700000X1.700000*%
%TD*%
%TA.AperFunction,ComponentPad*%
%ADD14R,1.700000X1.700000*%
%TD*%
%TA.AperFunction,SMDPad,CuDef*%
%ADD15R,1.300000X1.550000*%
%TD*%
%TA.AperFunction,ComponentPad*%
%ADD16C,0.500000*%
%TD*%
%TA.AperFunction,SMDPad,CuDef*%
%ADD17R,2.700000X2.700000*%
%TD*%
%TA.AperFunction,SMDPad,CuDef*%
%ADD18R,1.600000X0.550000*%
%TD*%
%TA.AperFunction,SMDPad,CuDef*%
%ADD19R,0.550000X1.600000*%
%TD*%
%TA.AperFunction,SMDPad,CuDef*%
%ADD20R,1.550000X1.300000*%
%TD*%
%TA.AperFunction,SMDPad,CuDef*%
%ADD21R,4.500000X2.000000*%
%TD*%
%TA.AperFunction,ViaPad*%
%ADD22C,0.508000*%
%TD*%
%TA.AperFunction,ViaPad*%
%ADD23C,0.381000*%
%TD*%
%TA.AperFunction,Conductor*%
%ADD24C,0.203200*%
%TD*%
%TA.AperFunction,Conductor*%
%ADD25C,0.406400*%
%TD*%
G04 APERTURE END LIST*
D10*
%TO.P,J5,2*%
%TO.N,GND*%
X169082720Y-91292680D03*
%TO.P,J5,1*%
%TO.N,/D4*%
X173082720Y-91292680D03*
%TD*%
D11*
%TO.P,C10,2*%
%TO.N,GND*%
X169150000Y-96200000D03*
D12*
%TO.P,C10,1*%
%TO.N,Net-(C10-Pad1)*%
X169150000Y-93700000D03*
%TD*%
%TO.P,C11,2*%
%TO.N,GND*%
%TA.AperFunction,SMDPad,CuDef*%
G36*
G01*
X165699999Y-106825000D02*
X167100001Y-106825000D01*
G75*
G02*
X167350000Y-107074999I0J-249999D01*
G01*
X167350000Y-107625001D01*
G75*
G02*
X167100001Y-107875000I-249999J0D01*
G01*
X165699999Y-107875000D01*
G75*
G02*
X165450000Y-107625001I0J249999D01*
G01*
X165450000Y-107074999D01*
G75*
G02*
X165699999Y-106825000I249999J0D01*
G01*
G37*
%TD.AperFunction*%
%TO.P,C11,1*%
%TO.N,/Gestion_batterie_lipo/EN*%
%TA.AperFunction,SMDPad,CuDef*%
G36*
G01*
X165699999Y-103675000D02*
X167100001Y-103675000D01*
G75*
G02*
X167350000Y-103924999I0J-249999D01*
G01*
X167350000Y-104475001D01*
G75*
G02*
X167100001Y-104725000I-249999J0D01*
G01*
X165699999Y-104725000D01*
G75*
G02*
X165450000Y-104475001I0J249999D01*
G01*
X165450000Y-103924999D01*
G75*
G02*
X165699999Y-103675000I249999J0D01*
G01*
G37*
%TD.AperFunction*%
%TD*%
%TO.P,J1,2*%
%TO.N,/SDA*%
%TA.AperFunction,SMDPad,CuDef*%
G36*
G01*
X174400000Y-69028000D02*
X174400000Y-67028000D01*
G75*
G02*
X174900000Y-66528000I500000J0D01*
G01*
X175900000Y-66528000D01*
G75*
G02*
X176400000Y-67028000I0J-500000D01*
G01*
X176400000Y-69028000D01*
G75*
G02*
X175900000Y-69528000I-500000J0D01*
G01*
X174900000Y-69528000D01*
G75*
G02*
X174400000Y-69028000I0J500000D01*
G01*
G37*
%TD.AperFunction*%
%TO.P,J1,1*%
%TO.N,/SCL*%
%TA.AperFunction,SMDPad,CuDef*%
G36*
G01*
X170600000Y-69028000D02*
X170600000Y-67028000D01*
G75*
G02*
X171100000Y-66528000I500000J0D01*
G01*
X172100000Y-66528000D01*
G75*
G02*
X172600000Y-67028000I0J-500000D01*
G01*
X172600000Y-69028000D01*
G75*
G02*
X172100000Y-69528000I-500000J0D01*
G01*
X171100000Y-69528000D01*
G75*
G02*
X170600000Y-69028000I0J500000D01*
G01*
G37*
%TD.AperFunction*%
%TD*%
%TO.P,R16,2*%
%TO.N,/SDA*%
%TA.AperFunction,SMDPad,CuDef*%
G36*
G01*
X177125000Y-65800000D02*
X178075000Y-65800000D01*
G75*
G02*
X178325000Y-66050000I0J-250000D01*
G01*
X178325000Y-66550000D01*
G75*
G02*
X178075000Y-66800000I-250000J0D01*
G01*
X177125000Y-66800000D01*
G75*
G02*
X176875000Y-66550000I0J250000D01*
G01*
X176875000Y-66050000D01*
G75*
G02*
X177125000Y-65800000I250000J0D01*
G01*
G37*
%TD.AperFunction*%
%TO.P,R16,1*%
%TO.N,+5V*%
%TA.AperFunction,SMDPad,CuDef*%
G36*
G01*
X177125000Y-63900000D02*
X178075000Y-63900000D01*
G75*
G02*
X178325000Y-64150000I0J-250000D01*
G01*
X178325000Y-64650000D01*
G75*
G02*
X178075000Y-64900000I-250000J0D01*
G01*
X177125000Y-64900000D01*
G75*
G02*
X176875000Y-64650000I0J250000D01*
G01*
X176875000Y-64150000D01*
G75*
G02*
X177125000Y-63900000I250000J0D01*
G01*
G37*
%TD.AperFunction*%
%TD*%
D13*
%TO.P,J4,6*%
%TO.N,GND*%
X180900000Y-69300000D03*
%TO.P,J4,5*%
%TO.N,/SCK*%
X181000000Y-71840000D03*
%TO.P,J4,4*%
%TO.N,/Miso*%
X180900000Y-74380000D03*
%TO.P,J4,3*%
%TO.N,/Mosi*%
X181000000Y-76920000D03*
%TO.P,J4,2*%
%TO.N,/Reset*%
X180900000Y-79500000D03*
D14*
%TO.P,J4,1*%
%TO.N,+5V*%
X181000000Y-82000000D03*
%TD*%
D15*
%TO.P,SW1,2*%
%TO.N,/Reset*%
X177100000Y-94800000D03*
%TO.P,SW1,1*%
%TO.N,Net-(R1-Pad2)*%
X181600000Y-94800000D03*
X181600000Y-102760000D03*
%TO.P,SW1,2*%
%TO.N,/Reset*%
X177100000Y-102760000D03*
%TD*%
D13*
%TO.P,J7,2*%
%TO.N,GND*%
X166600000Y-71000000D03*
D14*
%TO.P,J7,1*%
%TO.N,Net-(D6-Pad2)*%
X166600000Y-68460000D03*
%TD*%
D16*
%TO.P,U2,17*%
%TO.N,GND*%
X168550000Y-101300000D03*
X168550000Y-100200000D03*
X168550000Y-99100000D03*
X169650000Y-101300000D03*
X169650000Y-100200000D03*
X169650000Y-99100000D03*
X170750000Y-101300000D03*
X170750000Y-100200000D03*
X170750000Y-99100000D03*
D17*
X169650000Y-100200000D03*
%TO.P,U2,16*%
%TO.N,Net-(C10-Pad1)*%
%TA.AperFunction,SMDPad,CuDef*%
G36*
G01*
X171287500Y-99050000D02*
X171937500Y-99050000D01*
G75*
G02*
X172025000Y-99137500I0J-87500D01*
G01*
X172025000Y-99312500D01*
G75*
G02*
X171937500Y-99400000I-87500J0D01*
G01*
X171287500Y-99400000D01*
G75*
G02*
X171200000Y-99312500I0J87500D01*
G01*
X171200000Y-99137500D01*
G75*
G02*
X171287500Y-99050000I87500J0D01*
G01*
G37*
%TD.AperFunction*%
%TO.P,U2,15*%
%TA.AperFunction,SMDPad,CuDef*%
G36*
G01*
X171287500Y-99700000D02*
X171937500Y-99700000D01*
G75*
G02*
X172025000Y-99787500I0J-87500D01*
G01*
X172025000Y-99962500D01*
G75*
G02*
X171937500Y-100050000I-87500J0D01*
G01*
X171287500Y-100050000D01*
G75*
G02*
X171200000Y-99962500I0J87500D01*
G01*
X171200000Y-99787500D01*
G75*
G02*
X171287500Y-99700000I87500J0D01*
G01*
G37*
%TD.AperFunction*%
%TO.P,U2,14*%
%TO.N,Net-(R6-Pad2)*%
%TA.AperFunction,SMDPad,CuDef*%
G36*
G01*
X171287500Y-100350000D02*
X171937500Y-100350000D01*
G75*
G02*
X172025000Y-100437500I0J-87500D01*
G01*
X172025000Y-100612500D01*
G75*
G02*
X171937500Y-100700000I-87500J0D01*
G01*
X171287500Y-100700000D01*
G75*
G02*
X171200000Y-100612500I0J87500D01*
G01*
X171200000Y-100437500D01*
G75*
G02*
X171287500Y-100350000I87500J0D01*
G01*
G37*
%TD.AperFunction*%
%TO.P,U2,13*%
%TO.N,GND*%
%TA.AperFunction,SMDPad,CuDef*%
G36*
G01*
X171287500Y-101000000D02*
X171937500Y-101000000D01*
G75*
G02*
X172025000Y-101087500I0J-87500D01*
G01*
X172025000Y-101262500D01*
G75*
G02*
X171937500Y-101350000I-87500J0D01*
G01*
X171287500Y-101350000D01*
G75*
G02*
X171200000Y-101262500I0J87500D01*
G01*
X171200000Y-101087500D01*
G75*
G02*
X171287500Y-101000000I87500J0D01*
G01*
G37*
%TD.AperFunction*%
%TO.P,U2,12*%
%TO.N,Net-(Q1-Pad1)*%
%TA.AperFunction,SMDPad,CuDef*%
G36*
G01*
X170537500Y-101750000D02*
X170712500Y-101750000D01*
G75*
G02*
X170800000Y-101837500I0J-87500D01*
G01*
X170800000Y-102487500D01*
G75*
G02*
X170712500Y-102575000I-87500J0D01*
G01*
X170537500Y-102575000D01*
G75*
G02*
X170450000Y-102487500I0J87500D01*
G01*
X170450000Y-101837500D01*
G75*
G02*
X170537500Y-101750000I87500J0D01*
G01*
G37*
%TD.AperFunction*%
%TO.P,U2,11*%
%TO.N,/Gestion_batterie_lipo/EN*%
%TA.AperFunction,SMDPad,CuDef*%
G36*
G01*
X169887500Y-101750000D02*
X170062500Y-101750000D01*
G75*
G02*
X170150000Y-101837500I0J-87500D01*
G01*
X170150000Y-102487500D01*
G75*
G02*
X170062500Y-102575000I-87500J0D01*
G01*
X169887500Y-102575000D01*
G75*
G02*
X169800000Y-102487500I0J87500D01*
G01*
X169800000Y-101837500D01*
G75*
G02*
X169887500Y-101750000I87500J0D01*
G01*
G37*
%TD.AperFunction*%
%TO.P,U2,10*%
%TO.N,GND*%
%TA.AperFunction,SMDPad,CuDef*%
G36*
G01*
X169237500Y-101750000D02*
X169412500Y-101750000D01*
G75*
G02*
X169500000Y-101837500I0J-87500D01*
G01*
X169500000Y-102487500D01*
G75*
G02*
X169412500Y-102575000I-87500J0D01*
G01*
X169237500Y-102575000D01*
G75*
G02*
X169150000Y-102487500I0J87500D01*
G01*
X169150000Y-101837500D01*
G75*
G02*
X169237500Y-101750000I87500J0D01*
G01*
G37*
%TD.AperFunction*%
%TO.P,U2,9*%
%TO.N,Net-(R2-Pad2)*%
%TA.AperFunction,SMDPad,CuDef*%
G36*
G01*
X168587500Y-101750000D02*
X168762500Y-101750000D01*
G75*
G02*
X168850000Y-101837500I0J-87500D01*
G01*
X168850000Y-102487500D01*
G75*
G02*
X168762500Y-102575000I-87500J0D01*
G01*
X168587500Y-102575000D01*
G75*
G02*
X168500000Y-102487500I0J87500D01*
G01*
X168500000Y-101837500D01*
G75*
G02*
X168587500Y-101750000I87500J0D01*
G01*
G37*
%TD.AperFunction*%
%TO.P,U2,8*%
%TO.N,+BATT*%
%TA.AperFunction,SMDPad,CuDef*%
G36*
G01*
X167362500Y-101000000D02*
X168012500Y-101000000D01*
G75*
G02*
X168100000Y-101087500I0J-87500D01*
G01*
X168100000Y-101262500D01*
G75*
G02*
X168012500Y-101350000I-87500J0D01*
G01*
X167362500Y-101350000D01*
G75*
G02*
X167275000Y-101262500I0J87500D01*
G01*
X167275000Y-101087500D01*
G75*
G02*
X167362500Y-101000000I87500J0D01*
G01*
G37*
%TD.AperFunction*%
%TO.P,U2,7*%
%TO.N,GND*%
%TA.AperFunction,SMDPad,CuDef*%
G36*
G01*
X167362500Y-100350000D02*
X168012500Y-100350000D01*
G75*
G02*
X168100000Y-100437500I0J-87500D01*
G01*
X168100000Y-100612500D01*
G75*
G02*
X168012500Y-100700000I-87500J0D01*
G01*
X167362500Y-100700000D01*
G75*
G02*
X167275000Y-100612500I0J87500D01*
G01*
X167275000Y-100437500D01*
G75*
G02*
X167362500Y-100350000I87500J0D01*
G01*
G37*
%TD.AperFunction*%
%TO.P,U2,6*%
%TA.AperFunction,SMDPad,CuDef*%
G36*
G01*
X167362500Y-99700000D02*
X168012500Y-99700000D01*
G75*
G02*
X168100000Y-99787500I0J-87500D01*
G01*
X168100000Y-99962500D01*
G75*
G02*
X168012500Y-100050000I-87500J0D01*
G01*
X167362500Y-100050000D01*
G75*
G02*
X167275000Y-99962500I0J87500D01*
G01*
X167275000Y-99787500D01*
G75*
G02*
X167362500Y-99700000I87500J0D01*
G01*
G37*
%TD.AperFunction*%
%TO.P,U2,5*%
%TA.AperFunction,SMDPad,CuDef*%
G36*
G01*
X167362500Y-99050000D02*
X168012500Y-99050000D01*
G75*
G02*
X168100000Y-99137500I0J-87500D01*
G01*
X168100000Y-99312500D01*
G75*
G02*
X168012500Y-99400000I-87500J0D01*
G01*
X167362500Y-99400000D01*
G75*
G02*
X167275000Y-99312500I0J87500D01*
G01*
X167275000Y-99137500D01*
G75*
G02*
X167362500Y-99050000I87500J0D01*
G01*
G37*
%TD.AperFunction*%
%TO.P,U2,4*%
%TO.N,Net-(L1-Pad2)*%
%TA.AperFunction,SMDPad,CuDef*%
G36*
G01*
X168587500Y-97825000D02*
X168762500Y-97825000D01*
G75*
G02*
X168850000Y-97912500I0J-87500D01*
G01*
X168850000Y-98562500D01*
G75*
G02*
X168762500Y-98650000I-87500J0D01*
G01*
X168587500Y-98650000D01*
G75*
G02*
X168500000Y-98562500I0J87500D01*
G01*
X168500000Y-97912500D01*
G75*
G02*
X168587500Y-97825000I87500J0D01*
G01*
G37*
%TD.AperFunction*%
%TO.P,U2,3*%
%TA.AperFunction,SMDPad,CuDef*%
G36*
G01*
X169237500Y-97825000D02*
X169412500Y-97825000D01*
G75*
G02*
X169500000Y-97912500I0J-87500D01*
G01*
X169500000Y-98562500D01*
G75*
G02*
X169412500Y-98650000I-87500J0D01*
G01*
X169237500Y-98650000D01*
G75*
G02*
X169150000Y-98562500I0J87500D01*
G01*
X169150000Y-97912500D01*
G75*
G02*
X169237500Y-97825000I87500J0D01*
G01*
G37*
%TD.AperFunction*%
%TO.P,U2,2*%
%TO.N,Net-(U2-Pad2)*%
%TA.AperFunction,SMDPad,CuDef*%
G36*
G01*
X169887500Y-97825000D02*
X170062500Y-97825000D01*
G75*
G02*
X170150000Y-97912500I0J-87500D01*
G01*
X170150000Y-98562500D01*
G75*
G02*
X170062500Y-98650000I-87500J0D01*
G01*
X169887500Y-98650000D01*
G75*
G02*
X169800000Y-98562500I0J87500D01*
G01*
X169800000Y-97912500D01*
G75*
G02*
X169887500Y-97825000I87500J0D01*
G01*
G37*
%TD.AperFunction*%
%TO.P,U2,1*%
%TO.N,Net-(C10-Pad1)*%
%TA.AperFunction,SMDPad,CuDef*%
G36*
G01*
X170537500Y-97825000D02*
X170712500Y-97825000D01*
G75*
G02*
X170800000Y-97912500I0J-87500D01*
G01*
X170800000Y-98562500D01*
G75*
G02*
X170712500Y-98650000I-87500J0D01*
G01*
X170537500Y-98650000D01*
G75*
G02*
X170450000Y-98562500I0J87500D01*
G01*
X170450000Y-97912500D01*
G75*
G02*
X170537500Y-97825000I87500J0D01*
G01*
G37*
%TD.AperFunction*%
%TD*%
D18*
%TO.P,U1,32*%
%TO.N,/D2_digital_io*%
X169600000Y-80550000D03*
%TO.P,U1,31*%
%TO.N,Net-(U1-Pad31)*%
X169600000Y-79750000D03*
%TO.P,U1,30*%
%TO.N,Net-(U1-Pad30)*%
X169600000Y-78950000D03*
%TO.P,U1,29*%
%TO.N,/Reset*%
X169600000Y-78150000D03*
%TO.P,U1,28*%
%TO.N,/SCL*%
X169600000Y-77350000D03*
%TO.P,U1,27*%
%TO.N,/SDA*%
X169600000Y-76550000D03*
%TO.P,U1,26*%
%TO.N,/A3*%
X169600000Y-75750000D03*
%TO.P,U1,25*%
%TO.N,/A2*%
X169600000Y-74950000D03*
D19*
%TO.P,U1,24*%
%TO.N,/A1*%
X171050000Y-73500000D03*
%TO.P,U1,23*%
%TO.N,/A0*%
X171850000Y-73500000D03*
%TO.P,U1,22*%
%TO.N,Net-(U1-Pad22)*%
X172650000Y-73500000D03*
%TO.P,U1,21*%
%TO.N,GND*%
X173450000Y-73500000D03*
%TO.P,U1,20*%
%TO.N,Net-(U1-Pad20)*%
X174250000Y-73500000D03*
%TO.P,U1,19*%
%TO.N,Net-(U1-Pad19)*%
X175050000Y-73500000D03*
%TO.P,U1,18*%
%TO.N,+5V*%
X175850000Y-73500000D03*
%TO.P,U1,17*%
%TO.N,/SCK*%
X176650000Y-73500000D03*
D18*
%TO.P,U1,16*%
%TO.N,/Miso*%
X178100000Y-74950000D03*
%TO.P,U1,15*%
%TO.N,/Mosi*%
X178100000Y-75750000D03*
%TO.P,U1,14*%
%TO.N,Net-(U1-Pad14)*%
X178100000Y-76550000D03*
%TO.P,U1,13*%
%TO.N,Net-(U1-Pad13)*%
X178100000Y-77350000D03*
%TO.P,U1,12*%
%TO.N,Net-(U1-Pad12)*%
X178100000Y-78150000D03*
%TO.P,U1,11*%
%TO.N,Net-(U1-Pad11)*%
X178100000Y-78950000D03*
%TO.P,U1,10*%
%TO.N,Net-(U1-Pad10)*%
X178100000Y-79750000D03*
%TO.P,U1,9*%
%TO.N,Net-(U1-Pad9)*%
X178100000Y-80550000D03*
D19*
%TO.P,U1,8*%
%TO.N,/XTAL2*%
X176650000Y-82000000D03*
%TO.P,U1,7*%
%TO.N,/XTAL1*%
X175850000Y-82000000D03*
%TO.P,U1,6*%
%TO.N,+5V*%
X175050000Y-82000000D03*
%TO.P,U1,5*%
%TO.N,GND*%
X174250000Y-82000000D03*
%TO.P,U1,4*%
%TO.N,+5V*%
X173450000Y-82000000D03*
%TO.P,U1,3*%
%TO.N,GND*%
X172650000Y-82000000D03*
%TO.P,U1,2*%
%TO.N,/D4*%
X171850000Y-82000000D03*
%TO.P,U1,1*%
%TO.N,/D3*%
X171050000Y-82000000D03*
%TD*%
D20*
%TO.P,SW2,2*%
%TO.N,/Gestion_batterie_lipo/EN*%
X169440000Y-110800000D03*
%TO.P,SW2,1*%
%TO.N,Net-(R4-Pad2)*%
X169440000Y-106300000D03*
X177400000Y-106300000D03*
%TO.P,SW2,2*%
%TO.N,/Gestion_batterie_lipo/EN*%
X177400000Y-110800000D03*
%TD*%
%TO.P,R14,2*%
%TO.N,GND*%
%TA.AperFunction,SMDPad,CuDef*%
G36*
G01*
X173706000Y-97632500D02*
X173706000Y-98582500D01*
G75*
G02*
X173456000Y-98832500I-250000J0D01*
G01*
X172956000Y-98832500D01*
G75*
G02*
X172706000Y-98582500I0J250000D01*
G01*
X172706000Y-97632500D01*
G75*
G02*
X172956000Y-97382500I250000J0D01*
G01*
X173456000Y-97382500D01*
G75*
G02*
X173706000Y-97632500I0J-250000D01*
G01*
G37*
%TD.AperFunction*%
%TO.P,R14,1*%
%TO.N,/A1*%
%TA.AperFunction,SMDPad,CuDef*%
G36*
G01*
X175606000Y-97632500D02*
X175606000Y-98582500D01*
G75*
G02*
X175356000Y-98832500I-250000J0D01*
G01*
X174856000Y-98832500D01*
G75*
G02*
X174606000Y-98582500I0J250000D01*
G01*
X174606000Y-97632500D01*
G75*
G02*
X174856000Y-97382500I250000J0D01*
G01*
X175356000Y-97382500D01*
G75*
G02*
X175606000Y-97632500I0J-250000D01*
G01*
G37*
%TD.AperFunction*%
%TD*%
%TO.P,R13,2*%
%TO.N,/A1*%
%TA.AperFunction,SMDPad,CuDef*%
G36*
G01*
X174606000Y-100805000D02*
X174606000Y-99855000D01*
G75*
G02*
X174856000Y-99605000I250000J0D01*
G01*
X175356000Y-99605000D01*
G75*
G02*
X175606000Y-99855000I0J-250000D01*
G01*
X175606000Y-100805000D01*
G75*
G02*
X175356000Y-101055000I-250000J0D01*
G01*
X174856000Y-101055000D01*
G75*
G02*
X174606000Y-100805000I0J250000D01*
G01*
G37*
%TD.AperFunction*%
%TO.P,R13,1*%
%TO.N,/Gestion_batterie_lipo/EN*%
%TA.AperFunction,SMDPad,CuDef*%
G36*
G01*
X172706000Y-100805000D02*
X172706000Y-99855000D01*
G75*
G02*
X172956000Y-99605000I250000J0D01*
G01*
X173456000Y-99605000D01*
G75*
G02*
X173706000Y-99855000I0J-250000D01*
G01*
X173706000Y-100805000D01*
G75*
G02*
X173456000Y-101055000I-250000J0D01*
G01*
X172956000Y-101055000D01*
G75*
G02*
X172706000Y-100805000I0J250000D01*
G01*
G37*
%TD.AperFunction*%
%TD*%
%TO.P,R7,2*%
%TO.N,GND*%
%TA.AperFunction,SMDPad,CuDef*%
G36*
G01*
X173875000Y-94400000D02*
X172925000Y-94400000D01*
G75*
G02*
X172675000Y-94150000I0J250000D01*
G01*
X172675000Y-93650000D01*
G75*
G02*
X172925000Y-93400000I250000J0D01*
G01*
X173875000Y-93400000D01*
G75*
G02*
X174125000Y-93650000I0J-250000D01*
G01*
X174125000Y-94150000D01*
G75*
G02*
X173875000Y-94400000I-250000J0D01*
G01*
G37*
%TD.AperFunction*%
%TO.P,R7,1*%
%TO.N,Net-(R6-Pad2)*%
%TA.AperFunction,SMDPad,CuDef*%
G36*
G01*
X173875000Y-96300000D02*
X172925000Y-96300000D01*
G75*
G02*
X172675000Y-96050000I0J250000D01*
G01*
X172675000Y-95550000D01*
G75*
G02*
X172925000Y-95300000I250000J0D01*
G01*
X173875000Y-95300000D01*
G75*
G02*
X174125000Y-95550000I0J-250000D01*
G01*
X174125000Y-96050000D01*
G75*
G02*
X173875000Y-96300000I-250000J0D01*
G01*
G37*
%TD.AperFunction*%
%TD*%
%TO.P,R6,2*%
%TO.N,Net-(R6-Pad2)*%
%TA.AperFunction,SMDPad,CuDef*%
G36*
G01*
X171775000Y-94400000D02*
X170825000Y-94400000D01*
G75*
G02*
X170575000Y-94150000I0J250000D01*
G01*
X170575000Y-93650000D01*
G75*
G02*
X170825000Y-93400000I250000J0D01*
G01*
X171775000Y-93400000D01*
G75*
G02*
X172025000Y-93650000I0J-250000D01*
G01*
X172025000Y-94150000D01*
G75*
G02*
X171775000Y-94400000I-250000J0D01*
G01*
G37*
%TD.AperFunction*%
%TO.P,R6,1*%
%TO.N,Net-(C10-Pad1)*%
%TA.AperFunction,SMDPad,CuDef*%
G36*
G01*
X171775000Y-96300000D02*
X170825000Y-96300000D01*
G75*
G02*
X170575000Y-96050000I0J250000D01*
G01*
X170575000Y-95550000D01*
G75*
G02*
X170825000Y-95300000I250000J0D01*
G01*
X171775000Y-95300000D01*
G75*
G02*
X172025000Y-95550000I0J-250000D01*
G01*
X172025000Y-96050000D01*
G75*
G02*
X171775000Y-96300000I-250000J0D01*
G01*
G37*
%TD.AperFunction*%
%TD*%
%TO.P,R4,2*%
%TO.N,Net-(R4-Pad2)*%
%TA.AperFunction,SMDPad,CuDef*%
G36*
G01*
X173700000Y-102075000D02*
X173700000Y-103025000D01*
G75*
G02*
X173450000Y-103275000I-250000J0D01*
G01*
X172950000Y-103275000D01*
G75*
G02*
X172700000Y-103025000I0J250000D01*
G01*
X172700000Y-102075000D01*
G75*
G02*
X172950000Y-101825000I250000J0D01*
G01*
X173450000Y-101825000D01*
G75*
G02*
X173700000Y-102075000I0J-250000D01*
G01*
G37*
%TD.AperFunction*%
%TO.P,R4,1*%
%TO.N,+BATT*%
%TA.AperFunction,SMDPad,CuDef*%
G36*
G01*
X175600000Y-102075000D02*
X175600000Y-103025000D01*
G75*
G02*
X175350000Y-103275000I-250000J0D01*
G01*
X174850000Y-103275000D01*
G75*
G02*
X174600000Y-103025000I0J250000D01*
G01*
X174600000Y-102075000D01*
G75*
G02*
X174850000Y-101825000I250000J0D01*
G01*
X175350000Y-101825000D01*
G75*
G02*
X175600000Y-102075000I0J-250000D01*
G01*
G37*
%TD.AperFunction*%
%TD*%
%TO.P,R1,2*%
%TO.N,Net-(R1-Pad2)*%
%TA.AperFunction,SMDPad,CuDef*%
G36*
G01*
X181275000Y-91650000D02*
X182225000Y-91650000D01*
G75*
G02*
X182475000Y-91900000I0J-250000D01*
G01*
X182475000Y-92400000D01*
G75*
G02*
X182225000Y-92650000I-250000J0D01*
G01*
X181275000Y-92650000D01*
G75*
G02*
X181025000Y-92400000I0J250000D01*
G01*
X181025000Y-91900000D01*
G75*
G02*
X181275000Y-91650000I250000J0D01*
G01*
G37*
%TD.AperFunction*%
%TO.P,R1,1*%
%TO.N,+5V*%
%TA.AperFunction,SMDPad,CuDef*%
G36*
G01*
X181275000Y-89750000D02*
X182225000Y-89750000D01*
G75*
G02*
X182475000Y-90000000I0J-250000D01*
G01*
X182475000Y-90500000D01*
G75*
G02*
X182225000Y-90750000I-250000J0D01*
G01*
X181275000Y-90750000D01*
G75*
G02*
X181025000Y-90500000I0J250000D01*
G01*
X181025000Y-90000000D01*
G75*
G02*
X181275000Y-89750000I250000J0D01*
G01*
G37*
%TD.AperFunction*%
%TD*%
D13*
%TO.P,J6,2*%
%TO.N,Net-(C8-Pad1)*%
X180800000Y-110140000D03*
D14*
%TO.P,J6,1*%
%TO.N,GND*%
X180800000Y-107600000D03*
%TD*%
D13*
%TO.P,J3,2*%
%TO.N,Net-(J3-Pad2)*%
X178790000Y-91500000D03*
D14*
%TO.P,J3,1*%
%TO.N,+5V*%
X176250000Y-91500000D03*
%TD*%
D13*
%TO.P,J2,4*%
%TO.N,/SDA*%
X166600000Y-74600000D03*
%TO.P,J2,3*%
%TO.N,/SCL*%
X166600000Y-77140000D03*
%TO.P,J2,2*%
%TO.N,+5V*%
X166600000Y-79680000D03*
D14*
%TO.P,J2,1*%
%TO.N,GND*%
X166600000Y-82220000D03*
%TD*%
%TO.P,C9,2*%
%TO.N,GND*%
%TA.AperFunction,SMDPad,CuDef*%
G36*
G01*
X166675000Y-94450000D02*
X165725000Y-94450000D01*
G75*
G02*
X165475000Y-94200000I0J250000D01*
G01*
X165475000Y-93700000D01*
G75*
G02*
X165725000Y-93450000I250000J0D01*
G01*
X166675000Y-93450000D01*
G75*
G02*
X166925000Y-93700000I0J-250000D01*
G01*
X166925000Y-94200000D01*
G75*
G02*
X166675000Y-94450000I-250000J0D01*
G01*
G37*
%TD.AperFunction*%
%TO.P,C9,1*%
%TO.N,Net-(C10-Pad1)*%
%TA.AperFunction,SMDPad,CuDef*%
G36*
G01*
X166675000Y-96350000D02*
X165725000Y-96350000D01*
G75*
G02*
X165475000Y-96100000I0J250000D01*
G01*
X165475000Y-95600000D01*
G75*
G02*
X165725000Y-95350000I250000J0D01*
G01*
X166675000Y-95350000D01*
G75*
G02*
X166925000Y-95600000I0J-250000D01*
G01*
X166925000Y-96100000D01*
G75*
G02*
X166675000Y-96350000I-250000J0D01*
G01*
G37*
%TD.AperFunction*%
%TD*%
%TO.P,C2,2*%
%TO.N,GND*%
%TA.AperFunction,SMDPad,CuDef*%
G36*
G01*
X181325000Y-86850000D02*
X182275000Y-86850000D01*
G75*
G02*
X182525000Y-87100000I0J-250000D01*
G01*
X182525000Y-87600000D01*
G75*
G02*
X182275000Y-87850000I-250000J0D01*
G01*
X181325000Y-87850000D01*
G75*
G02*
X181075000Y-87600000I0J250000D01*
G01*
X181075000Y-87100000D01*
G75*
G02*
X181325000Y-86850000I250000J0D01*
G01*
G37*
%TD.AperFunction*%
%TO.P,C2,1*%
%TO.N,/XTAL2*%
%TA.AperFunction,SMDPad,CuDef*%
G36*
G01*
X181325000Y-84950000D02*
X182275000Y-84950000D01*
G75*
G02*
X182525000Y-85200000I0J-250000D01*
G01*
X182525000Y-85700000D01*
G75*
G02*
X182275000Y-85950000I-250000J0D01*
G01*
X181325000Y-85950000D01*
G75*
G02*
X181075000Y-85700000I0J250000D01*
G01*
X181075000Y-85200000D01*
G75*
G02*
X181325000Y-84950000I250000J0D01*
G01*
G37*
%TD.AperFunction*%
%TD*%
%TO.P,C1,2*%
%TO.N,GND*%
%TA.AperFunction,SMDPad,CuDef*%
G36*
G01*
X165125000Y-87200000D02*
X166075000Y-87200000D01*
G75*
G02*
X166325000Y-87450000I0J-250000D01*
G01*
X166325000Y-87950000D01*
G75*
G02*
X166075000Y-88200000I-250000J0D01*
G01*
X165125000Y-88200000D01*
G75*
G02*
X164875000Y-87950000I0J250000D01*
G01*
X164875000Y-87450000D01*
G75*
G02*
X165125000Y-87200000I250000J0D01*
G01*
G37*
%TD.AperFunction*%
%TO.P,C1,1*%
%TO.N,/XTAL1*%
%TA.AperFunction,SMDPad,CuDef*%
G36*
G01*
X165125000Y-85300000D02*
X166075000Y-85300000D01*
G75*
G02*
X166325000Y-85550000I0J-250000D01*
G01*
X166325000Y-86050000D01*
G75*
G02*
X166075000Y-86300000I-250000J0D01*
G01*
X165125000Y-86300000D01*
G75*
G02*
X164875000Y-86050000I0J250000D01*
G01*
X164875000Y-85550000D01*
G75*
G02*
X165125000Y-85300000I250000J0D01*
G01*
G37*
%TD.AperFunction*%
%TD*%
D21*
%TO.P,8MHz1,1*%
%TO.N,/XTAL1*%
X169500000Y-87000000D03*
%TO.P,8MHz1,2*%
%TO.N,/XTAL2*%
X178000000Y-87000000D03*
%TD*%
D22*
%TO.N,GND*%
X166300000Y-96975000D03*
X179125000Y-88725000D03*
X173000000Y-92800000D03*
X174000000Y-97000000D03*
X168913621Y-83407167D03*
X169000000Y-85400000D03*
X165599996Y-88800000D03*
X173400000Y-71000000D03*
X170600000Y-70600000D03*
X170669022Y-110400000D03*
X165657210Y-101343594D03*
X166400000Y-106350000D03*
X166190000Y-94860000D03*
X169520000Y-107720000D03*
X172875000Y-75965080D03*
X174975310Y-77270817D03*
%TO.N,+5V*%
X179400000Y-68600000D03*
X180962501Y-89462501D03*
X179400000Y-70450000D03*
X175052989Y-83147011D03*
X170909006Y-104833445D03*
%TO.N,+BATT*%
X166320395Y-100479605D03*
X176800000Y-103989002D03*
D23*
%TO.N,Net-(C8-Pad1)*%
X174600000Y-110107890D03*
X179568710Y-94600000D03*
D22*
%TO.N,Net-(C10-Pad1)*%
X165000000Y-102831181D03*
D23*
%TO.N,/SDA*%
X174025000Y-74806290D03*
X174800000Y-71600000D03*
%TO.N,/SCL*%
X171600000Y-65800000D03*
%TO.N,Net-(J3-Pad2)*%
X180247968Y-90093711D03*
%TO.N,/Reset*%
X178435569Y-82606300D03*
X174244000Y-78740000D03*
%TO.N,/D4*%
X172481224Y-83679142D03*
X174203078Y-86506280D03*
%TO.N,Net-(L1-Pad2)*%
X169325000Y-97475000D03*
%TO.N,Net-(Q1-Pad1)*%
X170600000Y-103009480D03*
%TO.N,Net-(R2-Pad2)*%
X168200000Y-102400000D03*
%TO.N,Net-(R9-Pad2)*%
X168643798Y-84542856D03*
X165799998Y-84500000D03*
%TO.N,/A0*%
X170027600Y-74066400D03*
%TO.N,/A1*%
X178000000Y-82107890D03*
X173505526Y-76520690D03*
%TO.N,/D2_digital_io*%
X173612213Y-78745372D03*
%TD*%
D24*
%TO.N,/XTAL1*%
X168200000Y-85700000D02*
X169500000Y-87000000D01*
X165700000Y-85700000D02*
X168200000Y-85700000D01*
X165600000Y-85800000D02*
X165700000Y-85700000D01*
X169500000Y-86100000D02*
X170495189Y-85104811D01*
X175825000Y-82025000D02*
X175850000Y-82000000D01*
X169500000Y-87000000D02*
X169500000Y-86100000D01*
X170495189Y-85104811D02*
X173895189Y-85104811D01*
X173895189Y-85104811D02*
X175825000Y-83175000D01*
X175825000Y-83175000D02*
X175825000Y-82025000D01*
%TO.N,/XTAL2*%
X179200000Y-87000000D02*
X178000000Y-87000000D01*
X181800000Y-85450000D02*
X180750000Y-85450000D01*
X180750000Y-85450000D02*
X179200000Y-87000000D01*
X177034212Y-81615788D02*
X176650000Y-82000000D01*
X179000000Y-82379578D02*
X178236210Y-81615788D01*
X178000000Y-87000000D02*
X179000000Y-86000000D01*
X179000000Y-86000000D02*
X179000000Y-82379578D01*
X178236210Y-81615788D02*
X177034212Y-81615788D01*
D25*
%TO.N,GND*%
X167687500Y-99225000D02*
X167687500Y-99875000D01*
X167687500Y-99875000D02*
X167687500Y-100525000D01*
X180425000Y-88725000D02*
X179125000Y-88725000D01*
X181800000Y-87350000D02*
X180425000Y-88725000D01*
X172650000Y-80999238D02*
X172650000Y-82000000D01*
X172852439Y-80796799D02*
X172650000Y-80999238D01*
X174047561Y-80796799D02*
X172852439Y-80796799D01*
X174250000Y-80999238D02*
X174047561Y-80796799D01*
X174250000Y-82000000D02*
X174250000Y-80999238D01*
X172950000Y-92850000D02*
X173000000Y-92800000D01*
X172950000Y-93900000D02*
X172950000Y-92850000D01*
X173206000Y-97794000D02*
X174000000Y-97000000D01*
X173206000Y-98107500D02*
X173206000Y-97794000D01*
X169325000Y-101625000D02*
X169650000Y-101300000D01*
X169325000Y-102162500D02*
X169325000Y-101625000D01*
X170875000Y-101175000D02*
X170750000Y-101300000D01*
X171612500Y-101175000D02*
X170875000Y-101175000D01*
X169253999Y-83747545D02*
X168913621Y-83407167D01*
X169253999Y-85146001D02*
X169253999Y-83747545D01*
X169000000Y-85400000D02*
X169253999Y-85146001D01*
X168907167Y-83407167D02*
X168913621Y-83407167D01*
X168200000Y-82700000D02*
X168907167Y-83407167D01*
X167080000Y-82700000D02*
X168200000Y-82700000D01*
X166600000Y-82220000D02*
X167080000Y-82700000D01*
X165600000Y-88799996D02*
X165599996Y-88800000D01*
X165600000Y-87700000D02*
X165600000Y-88799996D01*
X166600000Y-71000000D02*
X166600000Y-70921322D01*
X173450000Y-73500000D02*
X173450000Y-71050000D01*
X173450000Y-71050000D02*
X173400000Y-71000000D01*
X166600000Y-71000000D02*
X170200000Y-71000000D01*
X170200000Y-71000000D02*
X170600000Y-70600000D01*
X167687500Y-99225000D02*
X167687500Y-98362500D01*
X167687500Y-98362500D02*
X166300000Y-96975000D01*
X167687500Y-99225000D02*
X166450000Y-99225000D01*
X166450000Y-99225000D02*
X165657210Y-100017790D01*
X165657210Y-100017790D02*
X165657210Y-101343594D01*
X166400000Y-107350000D02*
X166400000Y-106350000D01*
X166200000Y-93950000D02*
X166200000Y-94850000D01*
X166200000Y-94850000D02*
X166190000Y-94860000D01*
X170669022Y-110400000D02*
X170669022Y-108869022D01*
X170669022Y-108869022D02*
X169520000Y-107720000D01*
X169082720Y-91292680D02*
X166507160Y-91292680D01*
X165599996Y-90385516D02*
X165599996Y-88800000D01*
X166507160Y-91292680D02*
X165599996Y-90385516D01*
X172771799Y-80877439D02*
X172852439Y-80796799D01*
X172771799Y-81878201D02*
X172771799Y-80877439D01*
X172650000Y-82000000D02*
X172771799Y-81878201D01*
X173450000Y-73500000D02*
X173400000Y-73550000D01*
X173400000Y-75440080D02*
X172875000Y-75965080D01*
X173400000Y-73550000D02*
X173400000Y-75440080D01*
X174975310Y-77630027D02*
X174975310Y-77270817D01*
X174975310Y-80273928D02*
X174975310Y-77630027D01*
X174250000Y-80999238D02*
X174975310Y-80273928D01*
%TO.N,+5V*%
X181750000Y-90250000D02*
X180962501Y-89462501D01*
X176475008Y-71925000D02*
X177450000Y-71925000D01*
X175850000Y-72550008D02*
X176475008Y-71925000D01*
X175850000Y-73500000D02*
X175850000Y-72550008D01*
X177925000Y-71925000D02*
X177450000Y-71925000D01*
X179400000Y-70450000D02*
X177925000Y-71925000D01*
X179400000Y-68600000D02*
X179400000Y-70450000D01*
X175050000Y-83144022D02*
X175052989Y-83147011D01*
X175050000Y-82000000D02*
X175050000Y-83144022D01*
X174750000Y-83450000D02*
X175052989Y-83147011D01*
X173693600Y-83450000D02*
X174750000Y-83450000D01*
X173450000Y-83206400D02*
X173693600Y-83450000D01*
X173450000Y-82000000D02*
X173450000Y-83206400D01*
X173450000Y-83550000D02*
X173450000Y-82000000D01*
X171044837Y-84600000D02*
X172400000Y-84600000D01*
X168400000Y-81955163D02*
X171044837Y-84600000D01*
X166980000Y-79880000D02*
X168400000Y-81300000D01*
X166600000Y-79880000D02*
X166980000Y-79880000D01*
X168400000Y-81300000D02*
X168400000Y-81955163D01*
X172400000Y-84600000D02*
X173450000Y-83550000D01*
X178287499Y-89462501D02*
X180962501Y-89462501D01*
X178287499Y-89462501D02*
X176250000Y-91500000D01*
X177600000Y-64651220D02*
X177600000Y-64400000D01*
X179400000Y-66451220D02*
X177600000Y-64651220D01*
X179400000Y-68600000D02*
X179400000Y-66451220D01*
X178975000Y-94225000D02*
X176250000Y-91500000D01*
X178975000Y-103325000D02*
X178975000Y-94225000D01*
X177466555Y-104833445D02*
X178975000Y-103325000D01*
X170909006Y-104833445D02*
X177466555Y-104833445D01*
X175050000Y-81056832D02*
X175050000Y-82000000D01*
X175850000Y-73500000D02*
X175850000Y-80256832D01*
X175850000Y-80256832D02*
X175050000Y-81056832D01*
%TO.N,+BATT*%
X167015790Y-101175000D02*
X166320395Y-100479605D01*
X167687500Y-101175000D02*
X167015790Y-101175000D01*
X175814002Y-103989002D02*
X176800000Y-103989002D01*
X175100000Y-103275000D02*
X175814002Y-103989002D01*
X175100000Y-102550000D02*
X175100000Y-103275000D01*
D24*
%TO.N,Net-(C8-Pad1)*%
X174600000Y-109838483D02*
X174600000Y-110107890D01*
X175238483Y-109200000D02*
X174600000Y-109838483D01*
X178475000Y-109200000D02*
X175238483Y-109200000D01*
X179425000Y-110150000D02*
X178475000Y-109200000D01*
X180790000Y-110150000D02*
X179425000Y-110150000D01*
X180800000Y-110140000D02*
X180790000Y-110150000D01*
X180800000Y-110140000D02*
X179648399Y-108988399D01*
X179648399Y-108988399D02*
X179648399Y-94679689D01*
X179648399Y-94679689D02*
X179568710Y-94600000D01*
D25*
%TO.N,Net-(C10-Pad1)*%
X171612500Y-98736738D02*
X171612500Y-99225000D01*
X171113262Y-98237500D02*
X171612500Y-98736738D01*
X170625000Y-98237500D02*
X171113262Y-98237500D01*
X171612500Y-99225000D02*
X171612500Y-99875000D01*
X170625000Y-98237500D02*
X170625000Y-97575000D01*
X171200000Y-97000000D02*
X171200000Y-95850000D01*
X170625000Y-97575000D02*
X171200000Y-97000000D01*
X167000000Y-95850000D02*
X169150000Y-93700000D01*
X166200000Y-95850000D02*
X167000000Y-95850000D01*
X171200000Y-95750000D02*
X169150000Y-93700000D01*
X171200000Y-95850000D02*
X171200000Y-95750000D01*
X165000000Y-97050000D02*
X165000000Y-102831181D01*
X166200000Y-95850000D02*
X165000000Y-97050000D01*
D24*
%TO.N,/Gestion_batterie_lipo/EN*%
X173217000Y-100341000D02*
X173206000Y-100330000D01*
X169540000Y-110600000D02*
X169895603Y-110955603D01*
X169895603Y-110955603D02*
X176944397Y-110955603D01*
X176944397Y-110955603D02*
X177400000Y-110500000D01*
X172398390Y-101137610D02*
X173206000Y-100330000D01*
X172398390Y-101951610D02*
X172398390Y-101137610D01*
X166500000Y-104100000D02*
X166400000Y-104200000D01*
X166400000Y-104200000D02*
X170150000Y-104200000D01*
X170725000Y-103625000D02*
X172398390Y-101951610D01*
X170650000Y-103700000D02*
X170725000Y-103625000D01*
X169975000Y-103175000D02*
X170575000Y-103775000D01*
X169975000Y-102162500D02*
X169975000Y-103175000D01*
X170575000Y-103775000D02*
X170725000Y-103625000D01*
X170150000Y-104200000D02*
X170575000Y-103775000D01*
X169480000Y-108580000D02*
X166400000Y-105500000D01*
X169440000Y-110800000D02*
X169480000Y-110760000D01*
X166400000Y-105500000D02*
X166400000Y-104200000D01*
X169480000Y-110760000D02*
X169480000Y-108580000D01*
%TO.N,/SDA*%
X166600000Y-75400000D02*
X166600000Y-74800000D01*
X167750000Y-76550000D02*
X166600000Y-75400000D01*
X169600000Y-76550000D02*
X167750000Y-76550000D01*
X177128000Y-66300000D02*
X177600000Y-66300000D01*
X175400000Y-68028000D02*
X177128000Y-66300000D01*
X175400000Y-68028000D02*
X175400000Y-71000000D01*
X175400000Y-71000000D02*
X174800000Y-71600000D01*
X173837600Y-77012800D02*
X174025000Y-76825400D01*
X174025000Y-76825400D02*
X174025000Y-74806290D01*
X170653862Y-76550000D02*
X171116662Y-77012800D01*
X169600000Y-76550000D02*
X170653862Y-76550000D01*
X171116662Y-77012800D02*
X173837600Y-77012800D01*
%TO.N,/SCL*%
X169550000Y-77300000D02*
X169600000Y-77350000D01*
X165400000Y-74097815D02*
X165400000Y-76140000D01*
X166560000Y-77300000D02*
X169550000Y-77300000D01*
X165400000Y-76140000D02*
X166560000Y-77300000D01*
X167948908Y-71548908D02*
X165400000Y-74097815D01*
X167948908Y-71548908D02*
X170651092Y-71548908D01*
X171600000Y-70600000D02*
X171600000Y-68028000D01*
X170651092Y-71548908D02*
X171600000Y-70600000D01*
X171600000Y-68028000D02*
X171600000Y-65800000D01*
%TO.N,Net-(J3-Pad2)*%
X180196289Y-90093711D02*
X180247968Y-90093711D01*
X178790000Y-91500000D02*
X180196289Y-90093711D01*
%TO.N,/SCK*%
X179340000Y-73500000D02*
X176650000Y-73500000D01*
X181000000Y-71840000D02*
X179340000Y-73500000D01*
%TO.N,/Miso*%
X178150000Y-75000000D02*
X178100000Y-74950000D01*
X180280000Y-75000000D02*
X178150000Y-75000000D01*
X180900000Y-74380000D02*
X180280000Y-75000000D01*
%TO.N,/Mosi*%
X179830000Y-75750000D02*
X178100000Y-75750000D01*
X181000000Y-76920000D02*
X179830000Y-75750000D01*
%TO.N,/Reset*%
X177100000Y-94800000D02*
X177100000Y-102760000D01*
X176000000Y-94800000D02*
X175098399Y-93898399D01*
X175098399Y-93898399D02*
X175098399Y-85943470D01*
X175098399Y-85943470D02*
X178245070Y-82796799D01*
X178245070Y-82796799D02*
X178435569Y-82606300D01*
X177100000Y-94800000D02*
X176000000Y-94800000D01*
X174244000Y-78638400D02*
X174244000Y-78740000D01*
X173755600Y-78150000D02*
X174244000Y-78638400D01*
X169600000Y-78150000D02*
X173755600Y-78150000D01*
%TO.N,/D4*%
X172800000Y-91200000D02*
X172800000Y-91400000D01*
X171850000Y-82000000D02*
X171850000Y-83047918D01*
X171850000Y-83047918D02*
X172481224Y-83679142D01*
X174200000Y-89800000D02*
X174200000Y-86509358D01*
X172800000Y-91200000D02*
X174200000Y-89800000D01*
X174200000Y-86509358D02*
X174203078Y-86506280D01*
D25*
%TO.N,Net-(L1-Pad2)*%
X169325000Y-98237500D02*
X168675000Y-98237500D01*
X169325000Y-98237500D02*
X169325000Y-97475000D01*
D24*
%TO.N,Net-(Q1-Pad1)*%
X170625000Y-102162500D02*
X170625000Y-102984480D01*
X170625000Y-102984480D02*
X170600000Y-103009480D01*
%TO.N,Net-(R1-Pad2)*%
X181600000Y-102760000D02*
X181600000Y-94800000D01*
X181600000Y-92300000D02*
X181750000Y-92150000D01*
X181600000Y-94800000D02*
X181600000Y-92300000D01*
%TO.N,Net-(R2-Pad2)*%
X168337500Y-102162500D02*
X168100000Y-102400000D01*
X168675000Y-102162500D02*
X168337500Y-102162500D01*
%TO.N,Net-(R4-Pad2)*%
X169440000Y-106000000D02*
X168900000Y-106000000D01*
X177400000Y-106000000D02*
X169440000Y-106000000D01*
X169440000Y-106300000D02*
X169440000Y-105480226D01*
X169440000Y-105480226D02*
X172370226Y-102550000D01*
X172370226Y-102550000D02*
X173200000Y-102550000D01*
%TO.N,Net-(R6-Pad2)*%
X172025000Y-100525000D02*
X172404390Y-100145610D01*
X171612500Y-100525000D02*
X172025000Y-100525000D01*
X172404390Y-96795610D02*
X173400000Y-95800000D01*
X172404390Y-97395610D02*
X172404390Y-96795610D01*
X172404390Y-100145610D02*
X172404390Y-97395610D01*
X171550000Y-93950000D02*
X171200000Y-93950000D01*
X173400000Y-95800000D02*
X171550000Y-93950000D01*
%TO.N,Net-(R9-Pad2)*%
X165842854Y-84542856D02*
X168643798Y-84542856D01*
X165799998Y-84500000D02*
X165842854Y-84542856D01*
%TO.N,/A0*%
X170027600Y-72694800D02*
X170027600Y-74066400D01*
X170535600Y-72186800D02*
X170027600Y-72694800D01*
X171500800Y-72186800D02*
X170535600Y-72186800D01*
X171850000Y-72536000D02*
X171500800Y-72186800D01*
X171850000Y-73500000D02*
X171850000Y-72536000D01*
%TO.N,/A1*%
X175106000Y-98107500D02*
X175106000Y-100330000D01*
X174695188Y-85682109D02*
X178000000Y-82377297D01*
X178000000Y-82377297D02*
X178000000Y-82107890D01*
X174695188Y-96971688D02*
X174695188Y-85682109D01*
X175106000Y-97382500D02*
X174695188Y-96971688D01*
X175106000Y-98107500D02*
X175106000Y-97382500D01*
X170701601Y-76027513D02*
X171194778Y-76520690D01*
X171194778Y-76520690D02*
X173505526Y-76520690D01*
X170701601Y-73848399D02*
X170701601Y-76027513D01*
X171050000Y-73500000D02*
X170701601Y-73848399D01*
%TO.N,/D2_digital_io*%
X171807585Y-80550000D02*
X173612213Y-78745372D01*
X169600000Y-80550000D02*
X171807585Y-80550000D01*
%TD*%
M02*
