M48
; DRILL file {KiCad (5.1.10)-1} date 06/07/21 16:12:53
; FORMAT={-:-/ absolute / inch / decimal}
; #@! TF.CreationDate,2021-06-07T16:12:53-04:00
; #@! TF.GenerationSoftware,Kicad,Pcbnew,(5.1.10)-1
; #@! TF.FileFunction,Plated,1,2,PTH
FMAT,2
INCH
T1C0.0079
T2C0.0100
T3C0.0150
T4C0.0300
T5C0.0315
T6C0.0394
%
G90
G05
T1
X6.6358Y-3.9016
X6.6358Y-3.9449
X6.6358Y-3.9882
X6.6791Y-3.9016
X6.6791Y-3.9449
X6.6791Y-3.9882
X6.7224Y-3.9016
X6.7224Y-3.9449
X6.7224Y-3.9882
T2
X6.5276Y-3.3268
X6.622Y-4.0315
X6.6395Y-3.3285
X6.6663Y-3.8376
X6.694Y-2.916
X6.7165Y-4.0555
X6.7559Y-2.5906
X6.7906Y-3.2945
X6.8309Y-3.0126
X6.8351Y-3.1002
X6.8514Y-2.9451
X6.8584Y-3.4058
X6.86Y-3.1
X6.874Y-4.335
X6.8819Y-2.8189
X7.0079Y-3.2326
X7.025Y-3.2522
X7.0696Y-3.7244
X7.0964Y-3.547
T3
X6.4961Y-4.0485
X6.5197Y-3.4961
X6.5219Y-3.9899
X6.5429Y-3.7346
X6.5472Y-3.8179
X6.548Y-3.9559
X6.5512Y-4.187
X6.6501Y-3.2837
X6.6535Y-3.3622
X6.674Y-4.2409
X6.7165Y-2.7795
X6.7193Y-4.3465
X6.7287Y-4.1273
X6.8061Y-2.9908
X6.811Y-3.6535
X6.8268Y-2.7953
X6.8504Y-3.8189
X6.8888Y-3.0422
X6.8918Y-3.2735
X6.9606Y-4.0941
X7.0522Y-3.4931
X7.063Y-2.7008
X7.063Y-2.7736
X7.1245Y-3.5221
T4
X6.6568Y-3.5942
X6.8143Y-3.5942
T5
X6.6594Y-3.689
X6.6594Y-3.7874
T6
X6.5591Y-2.6953
X6.5591Y-2.7953
X6.5591Y-2.937
X6.5591Y-3.037
X6.5591Y-3.137
X6.5591Y-3.237
X6.939Y-3.6024
X7.039Y-3.6024
X7.1181Y-4.2362
X7.1181Y-4.3362
X7.122Y-2.7283
X7.122Y-2.9283
X7.122Y-3.1299
X7.126Y-2.8283
X7.126Y-3.0283
X7.126Y-3.2283
T0
M30
