%FSLAX45Y45*%
G04 Gerber Fmt 4.5, Leading zero omitted, Abs format (unit mm)*
G04 Created by KiCad (PCBNEW (5.1.10)-1) date 2021-06-07 16:13:07*
%MOMM*%
%LPD*%
G01*
G04 APERTURE LIST*
%TA.AperFunction,Profile*%
%ADD10C,0.050000*%
%TD*%
%ADD11C,0.200000*%
%ADD12C,0.300000*%
G04 APERTURE END LIST*
D10*
X18313000Y-10441000D02*
X18313000Y-11248000D01*
X18313400Y-6248400D02*
X16413400Y-6248400D01*
X18313000Y-11248000D02*
X16413000Y-11248000D01*
X18313400Y-6248400D02*
X18313000Y-10441000D01*
X16413000Y-6248400D02*
X16413000Y-11248000D01*
D11*
X16845000Y-9900000D02*
X16865000Y-9920000D01*
X16865000Y-9900000D02*
X16845000Y-9920000D01*
X16845000Y-10010000D02*
X16865000Y-10030000D01*
X16865000Y-10010000D02*
X16845000Y-10030000D01*
X16845000Y-10120000D02*
X16865000Y-10140000D01*
X16865000Y-10120000D02*
X16845000Y-10140000D01*
X16955000Y-9900000D02*
X16975000Y-9920000D01*
X16975000Y-9900000D02*
X16955000Y-9920000D01*
X16955000Y-10010000D02*
X16975000Y-10030000D01*
X16975000Y-10010000D02*
X16955000Y-10030000D01*
X16955000Y-10120000D02*
X16975000Y-10140000D01*
X16975000Y-10120000D02*
X16955000Y-10140000D01*
X17065000Y-9900000D02*
X17085000Y-9920000D01*
X17085000Y-9900000D02*
X17065000Y-9920000D01*
X17065000Y-10010000D02*
X17085000Y-10030000D01*
X17085000Y-10010000D02*
X17065000Y-10030000D01*
X17065000Y-10120000D02*
X17085000Y-10140000D01*
X17085000Y-10120000D02*
X17065000Y-10140000D01*
X16592700Y-8450000D02*
G75*
G03*
X16592700Y-8450000I-12700J0D01*
G01*
X16832700Y-10240000D02*
G75*
G03*
X16832700Y-10240000I-12700J0D01*
G01*
X16877080Y-8454286D02*
G75*
G03*
X16877080Y-8454286I-12700J0D01*
G01*
X16945200Y-9747500D02*
G75*
G03*
X16945200Y-9747500I-12700J0D01*
G01*
X17015460Y-7406640D02*
G75*
G03*
X17015460Y-7406640I-12700J0D01*
G01*
X17072700Y-10300948D02*
G75*
G03*
X17072700Y-10300948I-12700J0D01*
G01*
X17172700Y-6580000D02*
G75*
G03*
X17172700Y-6580000I-12700J0D01*
G01*
X17260822Y-8367914D02*
G75*
G03*
X17260822Y-8367914I-12700J0D01*
G01*
X17363253Y-7652069D02*
G75*
G03*
X17363253Y-7652069I-12700J0D01*
G01*
X17373921Y-7874537D02*
G75*
G03*
X17373921Y-7874537I-12700J0D01*
G01*
X17415200Y-7480629D02*
G75*
G03*
X17415200Y-7480629I-12700J0D01*
G01*
X17433008Y-8650628D02*
G75*
G03*
X17433008Y-8650628I-12700J0D01*
G01*
X17437100Y-7874000D02*
G75*
G03*
X17437100Y-7874000I-12700J0D01*
G01*
X17472700Y-11010789D02*
G75*
G03*
X17472700Y-11010789I-12700J0D01*
G01*
X17492700Y-7160000D02*
G75*
G03*
X17492700Y-7160000I-12700J0D01*
G01*
X17812700Y-8210789D02*
G75*
G03*
X17812700Y-8210789I-12700J0D01*
G01*
X17856257Y-8260630D02*
G75*
G03*
X17856257Y-8260630I-12700J0D01*
G01*
X17969571Y-9460000D02*
G75*
G03*
X17969571Y-9460000I-12700J0D01*
G01*
X18037497Y-9009371D02*
G75*
G03*
X18037497Y-9009371I-12700J0D01*
G01*
X16500000Y-10264068D02*
X16500000Y-10302168D01*
X16480950Y-10283118D02*
X16519050Y-10283118D01*
X16560000Y-8860950D02*
X16560000Y-8899050D01*
X16540950Y-8880000D02*
X16579050Y-8880000D01*
X16565721Y-10115309D02*
X16565721Y-10153409D01*
X16546671Y-10134359D02*
X16584771Y-10134359D01*
X16619000Y-9466950D02*
X16619000Y-9505050D01*
X16599950Y-9486000D02*
X16638050Y-9486000D01*
X16630000Y-9678450D02*
X16630000Y-9716550D01*
X16610950Y-9697500D02*
X16649050Y-9697500D01*
X16632039Y-10028911D02*
X16632039Y-10067011D01*
X16612989Y-10047961D02*
X16651089Y-10047961D01*
X16640000Y-10615950D02*
X16640000Y-10654050D01*
X16620950Y-10635000D02*
X16659050Y-10635000D01*
X16891362Y-8321667D02*
X16891362Y-8359767D01*
X16872312Y-8340717D02*
X16910412Y-8340717D01*
X16900000Y-8520950D02*
X16900000Y-8559050D01*
X16880950Y-8540000D02*
X16919050Y-8540000D01*
X16952000Y-10752950D02*
X16952000Y-10791050D01*
X16932950Y-10772000D02*
X16971050Y-10772000D01*
X17060000Y-7040950D02*
X17060000Y-7079050D01*
X17040950Y-7060000D02*
X17079050Y-7060000D01*
X17066902Y-11020950D02*
X17066902Y-11059050D01*
X17047852Y-11040000D02*
X17085952Y-11040000D01*
X17090901Y-10464295D02*
X17090901Y-10502395D01*
X17071851Y-10483345D02*
X17109951Y-10483345D01*
X17287500Y-7577458D02*
X17287500Y-7615558D01*
X17268450Y-7596508D02*
X17306550Y-7596508D01*
X17300000Y-9260950D02*
X17300000Y-9299050D01*
X17280950Y-9280000D02*
X17319050Y-9280000D01*
X17340000Y-7080950D02*
X17340000Y-7119050D01*
X17320950Y-7100000D02*
X17359050Y-7100000D01*
X17400000Y-9680950D02*
X17400000Y-9719050D01*
X17380950Y-9700000D02*
X17419050Y-9700000D01*
X17497531Y-7708032D02*
X17497531Y-7746132D01*
X17478481Y-7727082D02*
X17516581Y-7727082D01*
X17505299Y-8295651D02*
X17505299Y-8333751D01*
X17486249Y-8314701D02*
X17524349Y-8314701D01*
X17680000Y-10379850D02*
X17680000Y-10417950D01*
X17660950Y-10398900D02*
X17699050Y-10398900D01*
X17912500Y-8853450D02*
X17912500Y-8891550D01*
X17893450Y-8872500D02*
X17931550Y-8872500D01*
X17940000Y-6840950D02*
X17940000Y-6879050D01*
X17920950Y-6860000D02*
X17959050Y-6860000D01*
X17940000Y-7025950D02*
X17940000Y-7064050D01*
X17920950Y-7045000D02*
X17959050Y-7045000D01*
X18096250Y-8927200D02*
X18096250Y-8965300D01*
X18077200Y-8946250D02*
X18115300Y-8946250D01*
X16935213Y-9156209D02*
X16935213Y-9102327D01*
X16881331Y-9102327D01*
X16881331Y-9156209D01*
X16935213Y-9156209D01*
X17335213Y-9156209D02*
X17335213Y-9102327D01*
X17281331Y-9102327D01*
X17281331Y-9156209D01*
X17335213Y-9156209D01*
X16915000Y-9410000D02*
X16955000Y-9370000D01*
X16915000Y-9330000D01*
X16875000Y-9370000D01*
X16915000Y-9410000D01*
X16915000Y-9660000D02*
X16955000Y-9620000D01*
X16915000Y-9580000D01*
X16875000Y-9620000D01*
X16915000Y-9660000D01*
X16610000Y-6796000D02*
X16710000Y-6896000D01*
X16710000Y-6796000D02*
X16610000Y-6896000D01*
X16710000Y-6846000D02*
G75*
G03*
X16710000Y-6846000I-50000J0D01*
G01*
X16610000Y-7050000D02*
X16710000Y-7150000D01*
X16710000Y-7050000D02*
X16610000Y-7150000D01*
X16710000Y-7100000D02*
G75*
G03*
X16710000Y-7100000I-50000J0D01*
G01*
X16610000Y-7410000D02*
X16710000Y-7510000D01*
X16710000Y-7410000D02*
X16610000Y-7510000D01*
X16710000Y-7460000D02*
G75*
G03*
X16710000Y-7460000I-50000J0D01*
G01*
X16610000Y-7664000D02*
X16710000Y-7764000D01*
X16710000Y-7664000D02*
X16610000Y-7764000D01*
X16710000Y-7714000D02*
G75*
G03*
X16710000Y-7714000I-50000J0D01*
G01*
X16610000Y-7918000D02*
X16710000Y-8018000D01*
X16710000Y-7918000D02*
X16610000Y-8018000D01*
X16710000Y-7968000D02*
G75*
G03*
X16710000Y-7968000I-50000J0D01*
G01*
X16610000Y-8172000D02*
X16710000Y-8272000D01*
X16710000Y-8172000D02*
X16610000Y-8272000D01*
X16710000Y-8222000D02*
G75*
G03*
X16710000Y-8222000I-50000J0D01*
G01*
X17575000Y-9100000D02*
X17675000Y-9200000D01*
X17675000Y-9100000D02*
X17575000Y-9200000D01*
X17675000Y-9150000D02*
G75*
G03*
X17675000Y-9150000I-50000J0D01*
G01*
X17829000Y-9100000D02*
X17929000Y-9200000D01*
X17929000Y-9100000D02*
X17829000Y-9200000D01*
X17929000Y-9150000D02*
G75*
G03*
X17929000Y-9150000I-50000J0D01*
G01*
X18030000Y-10710000D02*
X18130000Y-10810000D01*
X18130000Y-10710000D02*
X18030000Y-10810000D01*
X18130000Y-10760000D02*
G75*
G03*
X18130000Y-10760000I-50000J0D01*
G01*
X18030000Y-10964000D02*
X18130000Y-11064000D01*
X18130000Y-10964000D02*
X18030000Y-11064000D01*
X18130000Y-11014000D02*
G75*
G03*
X18130000Y-11014000I-50000J0D01*
G01*
X18040000Y-6880000D02*
X18140000Y-6980000D01*
X18140000Y-6880000D02*
X18040000Y-6980000D01*
X18140000Y-6930000D02*
G75*
G03*
X18140000Y-6930000I-50000J0D01*
G01*
X18040000Y-7388000D02*
X18140000Y-7488000D01*
X18140000Y-7388000D02*
X18040000Y-7488000D01*
X18140000Y-7438000D02*
G75*
G03*
X18140000Y-7438000I-50000J0D01*
G01*
X18040000Y-7900000D02*
X18140000Y-8000000D01*
X18140000Y-7900000D02*
X18040000Y-8000000D01*
X18140000Y-7950000D02*
G75*
G03*
X18140000Y-7950000I-50000J0D01*
G01*
X18050000Y-7134000D02*
X18150000Y-7234000D01*
X18150000Y-7134000D02*
X18050000Y-7234000D01*
X18150000Y-7184000D02*
G75*
G03*
X18150000Y-7184000I-50000J0D01*
G01*
X18050000Y-7642000D02*
X18150000Y-7742000D01*
X18150000Y-7642000D02*
X18050000Y-7742000D01*
X18150000Y-7692000D02*
G75*
G03*
X18150000Y-7692000I-50000J0D01*
G01*
X18050000Y-8150000D02*
X18150000Y-8250000D01*
X18150000Y-8150000D02*
X18050000Y-8250000D01*
X18150000Y-8200000D02*
G75*
G03*
X18150000Y-8200000I-50000J0D01*
G01*
D12*
X16696928Y-11716214D02*
X16696928Y-11416214D01*
X16768357Y-11416214D01*
X16811214Y-11430500D01*
X16839786Y-11459071D01*
X16854071Y-11487643D01*
X16868357Y-11544786D01*
X16868357Y-11587643D01*
X16854071Y-11644786D01*
X16839786Y-11673357D01*
X16811214Y-11701929D01*
X16768357Y-11716214D01*
X16696928Y-11716214D01*
X16996928Y-11716214D02*
X16996928Y-11516214D01*
X16996928Y-11573357D02*
X17011214Y-11544786D01*
X17025500Y-11530500D01*
X17054071Y-11516214D01*
X17082643Y-11516214D01*
X17182643Y-11716214D02*
X17182643Y-11516214D01*
X17182643Y-11416214D02*
X17168357Y-11430500D01*
X17182643Y-11444786D01*
X17196928Y-11430500D01*
X17182643Y-11416214D01*
X17182643Y-11444786D01*
X17368357Y-11716214D02*
X17339786Y-11701929D01*
X17325500Y-11673357D01*
X17325500Y-11416214D01*
X17525500Y-11716214D02*
X17496928Y-11701929D01*
X17482643Y-11673357D01*
X17482643Y-11416214D01*
X17868357Y-11716214D02*
X17868357Y-11416214D01*
X17968357Y-11630500D01*
X18068357Y-11416214D01*
X18068357Y-11716214D01*
X18339786Y-11716214D02*
X18339786Y-11559071D01*
X18325500Y-11530500D01*
X18296928Y-11516214D01*
X18239786Y-11516214D01*
X18211214Y-11530500D01*
X18339786Y-11701929D02*
X18311214Y-11716214D01*
X18239786Y-11716214D01*
X18211214Y-11701929D01*
X18196928Y-11673357D01*
X18196928Y-11644786D01*
X18211214Y-11616214D01*
X18239786Y-11601929D01*
X18311214Y-11601929D01*
X18339786Y-11587643D01*
X18482643Y-11516214D02*
X18482643Y-11816214D01*
X18482643Y-11530500D02*
X18511214Y-11516214D01*
X18568357Y-11516214D01*
X18596928Y-11530500D01*
X18611214Y-11544786D01*
X18625500Y-11573357D01*
X18625500Y-11659071D01*
X18611214Y-11687643D01*
X18596928Y-11701929D01*
X18568357Y-11716214D01*
X18511214Y-11716214D01*
X18482643Y-11701929D01*
X18754071Y-11687643D02*
X18768357Y-11701929D01*
X18754071Y-11716214D01*
X18739786Y-11701929D01*
X18754071Y-11687643D01*
X18754071Y-11716214D01*
X18754071Y-11530500D02*
X18768357Y-11544786D01*
X18754071Y-11559071D01*
X18739786Y-11544786D01*
X18754071Y-11530500D01*
X18754071Y-11559071D01*
X16390500Y-12200500D02*
X16410500Y-12220500D01*
X16410500Y-12200500D02*
X16390500Y-12220500D01*
X16754071Y-12046214D02*
X16782643Y-12046214D01*
X16811214Y-12060500D01*
X16825500Y-12074786D01*
X16839786Y-12103357D01*
X16854071Y-12160500D01*
X16854071Y-12231929D01*
X16839786Y-12289071D01*
X16825500Y-12317643D01*
X16811214Y-12331929D01*
X16782643Y-12346214D01*
X16754071Y-12346214D01*
X16725500Y-12331929D01*
X16711214Y-12317643D01*
X16696928Y-12289071D01*
X16682643Y-12231929D01*
X16682643Y-12160500D01*
X16696928Y-12103357D01*
X16711214Y-12074786D01*
X16725500Y-12060500D01*
X16754071Y-12046214D01*
X16982643Y-12317643D02*
X16996928Y-12331929D01*
X16982643Y-12346214D01*
X16968357Y-12331929D01*
X16982643Y-12317643D01*
X16982643Y-12346214D01*
X17111214Y-12074786D02*
X17125500Y-12060500D01*
X17154071Y-12046214D01*
X17225500Y-12046214D01*
X17254071Y-12060500D01*
X17268357Y-12074786D01*
X17282643Y-12103357D01*
X17282643Y-12131929D01*
X17268357Y-12174786D01*
X17096928Y-12346214D01*
X17282643Y-12346214D01*
X17468357Y-12046214D02*
X17496928Y-12046214D01*
X17525500Y-12060500D01*
X17539786Y-12074786D01*
X17554071Y-12103357D01*
X17568357Y-12160500D01*
X17568357Y-12231929D01*
X17554071Y-12289071D01*
X17539786Y-12317643D01*
X17525500Y-12331929D01*
X17496928Y-12346214D01*
X17468357Y-12346214D01*
X17439786Y-12331929D01*
X17425500Y-12317643D01*
X17411214Y-12289071D01*
X17396928Y-12231929D01*
X17396928Y-12160500D01*
X17411214Y-12103357D01*
X17425500Y-12074786D01*
X17439786Y-12060500D01*
X17468357Y-12046214D01*
X17754071Y-12046214D02*
X17782643Y-12046214D01*
X17811214Y-12060500D01*
X17825500Y-12074786D01*
X17839786Y-12103357D01*
X17854071Y-12160500D01*
X17854071Y-12231929D01*
X17839786Y-12289071D01*
X17825500Y-12317643D01*
X17811214Y-12331929D01*
X17782643Y-12346214D01*
X17754071Y-12346214D01*
X17725500Y-12331929D01*
X17711214Y-12317643D01*
X17696928Y-12289071D01*
X17682643Y-12231929D01*
X17682643Y-12160500D01*
X17696928Y-12103357D01*
X17711214Y-12074786D01*
X17725500Y-12060500D01*
X17754071Y-12046214D01*
X17982643Y-12346214D02*
X17982643Y-12146214D01*
X17982643Y-12174786D02*
X17996928Y-12160500D01*
X18025500Y-12146214D01*
X18068357Y-12146214D01*
X18096928Y-12160500D01*
X18111214Y-12189071D01*
X18111214Y-12346214D01*
X18111214Y-12189071D02*
X18125500Y-12160500D01*
X18154071Y-12146214D01*
X18196928Y-12146214D01*
X18225500Y-12160500D01*
X18239786Y-12189071D01*
X18239786Y-12346214D01*
X18382643Y-12346214D02*
X18382643Y-12146214D01*
X18382643Y-12174786D02*
X18396928Y-12160500D01*
X18425500Y-12146214D01*
X18468357Y-12146214D01*
X18496928Y-12160500D01*
X18511214Y-12189071D01*
X18511214Y-12346214D01*
X18511214Y-12189071D02*
X18525500Y-12160500D01*
X18554071Y-12146214D01*
X18596928Y-12146214D01*
X18625500Y-12160500D01*
X18639786Y-12189071D01*
X18639786Y-12346214D01*
X19225500Y-12031929D02*
X18968357Y-12417643D01*
X19611214Y-12046214D02*
X19639786Y-12046214D01*
X19668357Y-12060500D01*
X19682643Y-12074786D01*
X19696928Y-12103357D01*
X19711214Y-12160500D01*
X19711214Y-12231929D01*
X19696928Y-12289071D01*
X19682643Y-12317643D01*
X19668357Y-12331929D01*
X19639786Y-12346214D01*
X19611214Y-12346214D01*
X19582643Y-12331929D01*
X19568357Y-12317643D01*
X19554071Y-12289071D01*
X19539786Y-12231929D01*
X19539786Y-12160500D01*
X19554071Y-12103357D01*
X19568357Y-12074786D01*
X19582643Y-12060500D01*
X19611214Y-12046214D01*
X19839786Y-12317643D02*
X19854071Y-12331929D01*
X19839786Y-12346214D01*
X19825500Y-12331929D01*
X19839786Y-12317643D01*
X19839786Y-12346214D01*
X20039786Y-12046214D02*
X20068357Y-12046214D01*
X20096928Y-12060500D01*
X20111214Y-12074786D01*
X20125500Y-12103357D01*
X20139786Y-12160500D01*
X20139786Y-12231929D01*
X20125500Y-12289071D01*
X20111214Y-12317643D01*
X20096928Y-12331929D01*
X20068357Y-12346214D01*
X20039786Y-12346214D01*
X20011214Y-12331929D01*
X19996928Y-12317643D01*
X19982643Y-12289071D01*
X19968357Y-12231929D01*
X19968357Y-12160500D01*
X19982643Y-12103357D01*
X19996928Y-12074786D01*
X20011214Y-12060500D01*
X20039786Y-12046214D01*
X20325500Y-12046214D02*
X20354071Y-12046214D01*
X20382643Y-12060500D01*
X20396928Y-12074786D01*
X20411214Y-12103357D01*
X20425500Y-12160500D01*
X20425500Y-12231929D01*
X20411214Y-12289071D01*
X20396928Y-12317643D01*
X20382643Y-12331929D01*
X20354071Y-12346214D01*
X20325500Y-12346214D01*
X20296928Y-12331929D01*
X20282643Y-12317643D01*
X20268357Y-12289071D01*
X20254071Y-12231929D01*
X20254071Y-12160500D01*
X20268357Y-12103357D01*
X20282643Y-12074786D01*
X20296928Y-12060500D01*
X20325500Y-12046214D01*
X20525500Y-12046214D02*
X20725500Y-12046214D01*
X20596928Y-12346214D01*
X20854071Y-12346214D02*
X20911214Y-12346214D01*
X20939786Y-12331929D01*
X20954071Y-12317643D01*
X20982643Y-12274786D01*
X20996928Y-12217643D01*
X20996928Y-12103357D01*
X20982643Y-12074786D01*
X20968357Y-12060500D01*
X20939786Y-12046214D01*
X20882643Y-12046214D01*
X20854071Y-12060500D01*
X20839786Y-12074786D01*
X20825500Y-12103357D01*
X20825500Y-12174786D01*
X20839786Y-12203357D01*
X20854071Y-12217643D01*
X20882643Y-12231929D01*
X20939786Y-12231929D01*
X20968357Y-12217643D01*
X20982643Y-12203357D01*
X20996928Y-12174786D01*
X21111214Y-12046214D02*
X21111214Y-12103357D01*
X21225500Y-12046214D02*
X21225500Y-12103357D01*
X21668357Y-12460500D02*
X21654071Y-12446214D01*
X21625500Y-12403357D01*
X21611214Y-12374786D01*
X21596928Y-12331929D01*
X21582643Y-12260500D01*
X21582643Y-12203357D01*
X21596928Y-12131929D01*
X21611214Y-12089071D01*
X21625500Y-12060500D01*
X21654071Y-12017643D01*
X21668357Y-12003357D01*
X21796928Y-12346214D02*
X21854071Y-12346214D01*
X21882643Y-12331929D01*
X21896928Y-12317643D01*
X21925500Y-12274786D01*
X21939786Y-12217643D01*
X21939786Y-12103357D01*
X21925500Y-12074786D01*
X21911214Y-12060500D01*
X21882643Y-12046214D01*
X21825500Y-12046214D01*
X21796928Y-12060500D01*
X21782643Y-12074786D01*
X21768357Y-12103357D01*
X21768357Y-12174786D01*
X21782643Y-12203357D01*
X21796928Y-12217643D01*
X21825500Y-12231929D01*
X21882643Y-12231929D01*
X21911214Y-12217643D01*
X21925500Y-12203357D01*
X21939786Y-12174786D01*
X22296928Y-12346214D02*
X22296928Y-12046214D01*
X22425500Y-12346214D02*
X22425500Y-12189071D01*
X22411214Y-12160500D01*
X22382643Y-12146214D01*
X22339786Y-12146214D01*
X22311214Y-12160500D01*
X22296928Y-12174786D01*
X22611214Y-12346214D02*
X22582643Y-12331929D01*
X22568357Y-12317643D01*
X22554071Y-12289071D01*
X22554071Y-12203357D01*
X22568357Y-12174786D01*
X22582643Y-12160500D01*
X22611214Y-12146214D01*
X22654071Y-12146214D01*
X22682643Y-12160500D01*
X22696928Y-12174786D01*
X22711214Y-12203357D01*
X22711214Y-12289071D01*
X22696928Y-12317643D01*
X22682643Y-12331929D01*
X22654071Y-12346214D01*
X22611214Y-12346214D01*
X22882643Y-12346214D02*
X22854071Y-12331929D01*
X22839786Y-12303357D01*
X22839786Y-12046214D01*
X23111214Y-12331929D02*
X23082643Y-12346214D01*
X23025500Y-12346214D01*
X22996928Y-12331929D01*
X22982643Y-12303357D01*
X22982643Y-12189071D01*
X22996928Y-12160500D01*
X23025500Y-12146214D01*
X23082643Y-12146214D01*
X23111214Y-12160500D01*
X23125500Y-12189071D01*
X23125500Y-12217643D01*
X22982643Y-12246214D01*
X23239786Y-12331929D02*
X23268357Y-12346214D01*
X23325500Y-12346214D01*
X23354071Y-12331929D01*
X23368357Y-12303357D01*
X23368357Y-12289071D01*
X23354071Y-12260500D01*
X23325500Y-12246214D01*
X23282643Y-12246214D01*
X23254071Y-12231929D01*
X23239786Y-12203357D01*
X23239786Y-12189071D01*
X23254071Y-12160500D01*
X23282643Y-12146214D01*
X23325500Y-12146214D01*
X23354071Y-12160500D01*
X23468357Y-12460500D02*
X23482643Y-12446214D01*
X23511214Y-12403357D01*
X23525500Y-12374786D01*
X23539786Y-12331929D01*
X23554071Y-12260500D01*
X23554071Y-12203357D01*
X23539786Y-12131929D01*
X23525500Y-12089071D01*
X23511214Y-12060500D01*
X23482643Y-12017643D01*
X23468357Y-12003357D01*
X16410500Y-12606500D02*
G75*
G03*
X16410500Y-12606500I-12700J0D01*
G01*
X16754071Y-12442214D02*
X16782643Y-12442214D01*
X16811214Y-12456500D01*
X16825500Y-12470786D01*
X16839786Y-12499357D01*
X16854071Y-12556500D01*
X16854071Y-12627929D01*
X16839786Y-12685071D01*
X16825500Y-12713643D01*
X16811214Y-12727929D01*
X16782643Y-12742214D01*
X16754071Y-12742214D01*
X16725500Y-12727929D01*
X16711214Y-12713643D01*
X16696928Y-12685071D01*
X16682643Y-12627929D01*
X16682643Y-12556500D01*
X16696928Y-12499357D01*
X16711214Y-12470786D01*
X16725500Y-12456500D01*
X16754071Y-12442214D01*
X16982643Y-12713643D02*
X16996928Y-12727929D01*
X16982643Y-12742214D01*
X16968357Y-12727929D01*
X16982643Y-12713643D01*
X16982643Y-12742214D01*
X17111214Y-12470786D02*
X17125500Y-12456500D01*
X17154071Y-12442214D01*
X17225500Y-12442214D01*
X17254071Y-12456500D01*
X17268357Y-12470786D01*
X17282643Y-12499357D01*
X17282643Y-12527929D01*
X17268357Y-12570786D01*
X17096928Y-12742214D01*
X17282643Y-12742214D01*
X17554071Y-12442214D02*
X17411214Y-12442214D01*
X17396928Y-12585071D01*
X17411214Y-12570786D01*
X17439786Y-12556500D01*
X17511214Y-12556500D01*
X17539786Y-12570786D01*
X17554071Y-12585071D01*
X17568357Y-12613643D01*
X17568357Y-12685071D01*
X17554071Y-12713643D01*
X17539786Y-12727929D01*
X17511214Y-12742214D01*
X17439786Y-12742214D01*
X17411214Y-12727929D01*
X17396928Y-12713643D01*
X17825500Y-12542214D02*
X17825500Y-12742214D01*
X17754071Y-12427929D02*
X17682643Y-12642214D01*
X17868357Y-12642214D01*
X17982643Y-12742214D02*
X17982643Y-12542214D01*
X17982643Y-12570786D02*
X17996928Y-12556500D01*
X18025500Y-12542214D01*
X18068357Y-12542214D01*
X18096928Y-12556500D01*
X18111214Y-12585071D01*
X18111214Y-12742214D01*
X18111214Y-12585071D02*
X18125500Y-12556500D01*
X18154071Y-12542214D01*
X18196928Y-12542214D01*
X18225500Y-12556500D01*
X18239786Y-12585071D01*
X18239786Y-12742214D01*
X18382643Y-12742214D02*
X18382643Y-12542214D01*
X18382643Y-12570786D02*
X18396928Y-12556500D01*
X18425500Y-12542214D01*
X18468357Y-12542214D01*
X18496928Y-12556500D01*
X18511214Y-12585071D01*
X18511214Y-12742214D01*
X18511214Y-12585071D02*
X18525500Y-12556500D01*
X18554071Y-12542214D01*
X18596928Y-12542214D01*
X18625500Y-12556500D01*
X18639786Y-12585071D01*
X18639786Y-12742214D01*
X19225500Y-12427929D02*
X18968357Y-12813643D01*
X19611214Y-12442214D02*
X19639786Y-12442214D01*
X19668357Y-12456500D01*
X19682643Y-12470786D01*
X19696928Y-12499357D01*
X19711214Y-12556500D01*
X19711214Y-12627929D01*
X19696928Y-12685071D01*
X19682643Y-12713643D01*
X19668357Y-12727929D01*
X19639786Y-12742214D01*
X19611214Y-12742214D01*
X19582643Y-12727929D01*
X19568357Y-12713643D01*
X19554071Y-12685071D01*
X19539786Y-12627929D01*
X19539786Y-12556500D01*
X19554071Y-12499357D01*
X19568357Y-12470786D01*
X19582643Y-12456500D01*
X19611214Y-12442214D01*
X19839786Y-12713643D02*
X19854071Y-12727929D01*
X19839786Y-12742214D01*
X19825500Y-12727929D01*
X19839786Y-12713643D01*
X19839786Y-12742214D01*
X20039786Y-12442214D02*
X20068357Y-12442214D01*
X20096928Y-12456500D01*
X20111214Y-12470786D01*
X20125500Y-12499357D01*
X20139786Y-12556500D01*
X20139786Y-12627929D01*
X20125500Y-12685071D01*
X20111214Y-12713643D01*
X20096928Y-12727929D01*
X20068357Y-12742214D01*
X20039786Y-12742214D01*
X20011214Y-12727929D01*
X19996928Y-12713643D01*
X19982643Y-12685071D01*
X19968357Y-12627929D01*
X19968357Y-12556500D01*
X19982643Y-12499357D01*
X19996928Y-12470786D01*
X20011214Y-12456500D01*
X20039786Y-12442214D01*
X20425500Y-12742214D02*
X20254071Y-12742214D01*
X20339786Y-12742214D02*
X20339786Y-12442214D01*
X20311214Y-12485071D01*
X20282643Y-12513643D01*
X20254071Y-12527929D01*
X20611214Y-12442214D02*
X20639786Y-12442214D01*
X20668357Y-12456500D01*
X20682643Y-12470786D01*
X20696928Y-12499357D01*
X20711214Y-12556500D01*
X20711214Y-12627929D01*
X20696928Y-12685071D01*
X20682643Y-12713643D01*
X20668357Y-12727929D01*
X20639786Y-12742214D01*
X20611214Y-12742214D01*
X20582643Y-12727929D01*
X20568357Y-12713643D01*
X20554071Y-12685071D01*
X20539786Y-12627929D01*
X20539786Y-12556500D01*
X20554071Y-12499357D01*
X20568357Y-12470786D01*
X20582643Y-12456500D01*
X20611214Y-12442214D01*
X20896928Y-12442214D02*
X20925500Y-12442214D01*
X20954071Y-12456500D01*
X20968357Y-12470786D01*
X20982643Y-12499357D01*
X20996928Y-12556500D01*
X20996928Y-12627929D01*
X20982643Y-12685071D01*
X20968357Y-12713643D01*
X20954071Y-12727929D01*
X20925500Y-12742214D01*
X20896928Y-12742214D01*
X20868357Y-12727929D01*
X20854071Y-12713643D01*
X20839786Y-12685071D01*
X20825500Y-12627929D01*
X20825500Y-12556500D01*
X20839786Y-12499357D01*
X20854071Y-12470786D01*
X20868357Y-12456500D01*
X20896928Y-12442214D01*
X21111214Y-12442214D02*
X21111214Y-12499357D01*
X21225500Y-12442214D02*
X21225500Y-12499357D01*
X21668357Y-12856500D02*
X21654071Y-12842214D01*
X21625500Y-12799357D01*
X21611214Y-12770786D01*
X21596928Y-12727929D01*
X21582643Y-12656500D01*
X21582643Y-12599357D01*
X21596928Y-12527929D01*
X21611214Y-12485071D01*
X21625500Y-12456500D01*
X21654071Y-12413643D01*
X21668357Y-12399357D01*
X21939786Y-12742214D02*
X21768357Y-12742214D01*
X21854071Y-12742214D02*
X21854071Y-12442214D01*
X21825500Y-12485071D01*
X21796928Y-12513643D01*
X21768357Y-12527929D01*
X22082643Y-12742214D02*
X22139786Y-12742214D01*
X22168357Y-12727929D01*
X22182643Y-12713643D01*
X22211214Y-12670786D01*
X22225500Y-12613643D01*
X22225500Y-12499357D01*
X22211214Y-12470786D01*
X22196928Y-12456500D01*
X22168357Y-12442214D01*
X22111214Y-12442214D01*
X22082643Y-12456500D01*
X22068357Y-12470786D01*
X22054071Y-12499357D01*
X22054071Y-12570786D01*
X22068357Y-12599357D01*
X22082643Y-12613643D01*
X22111214Y-12627929D01*
X22168357Y-12627929D01*
X22196928Y-12613643D01*
X22211214Y-12599357D01*
X22225500Y-12570786D01*
X22582643Y-12742214D02*
X22582643Y-12442214D01*
X22711214Y-12742214D02*
X22711214Y-12585071D01*
X22696928Y-12556500D01*
X22668357Y-12542214D01*
X22625500Y-12542214D01*
X22596928Y-12556500D01*
X22582643Y-12570786D01*
X22896928Y-12742214D02*
X22868357Y-12727929D01*
X22854071Y-12713643D01*
X22839786Y-12685071D01*
X22839786Y-12599357D01*
X22854071Y-12570786D01*
X22868357Y-12556500D01*
X22896928Y-12542214D01*
X22939786Y-12542214D01*
X22968357Y-12556500D01*
X22982643Y-12570786D01*
X22996928Y-12599357D01*
X22996928Y-12685071D01*
X22982643Y-12713643D01*
X22968357Y-12727929D01*
X22939786Y-12742214D01*
X22896928Y-12742214D01*
X23168357Y-12742214D02*
X23139786Y-12727929D01*
X23125500Y-12699357D01*
X23125500Y-12442214D01*
X23396928Y-12727929D02*
X23368357Y-12742214D01*
X23311214Y-12742214D01*
X23282643Y-12727929D01*
X23268357Y-12699357D01*
X23268357Y-12585071D01*
X23282643Y-12556500D01*
X23311214Y-12542214D01*
X23368357Y-12542214D01*
X23396928Y-12556500D01*
X23411214Y-12585071D01*
X23411214Y-12613643D01*
X23268357Y-12642214D01*
X23525500Y-12727929D02*
X23554071Y-12742214D01*
X23611214Y-12742214D01*
X23639786Y-12727929D01*
X23654071Y-12699357D01*
X23654071Y-12685071D01*
X23639786Y-12656500D01*
X23611214Y-12642214D01*
X23568357Y-12642214D01*
X23539786Y-12627929D01*
X23525500Y-12599357D01*
X23525500Y-12585071D01*
X23539786Y-12556500D01*
X23568357Y-12542214D01*
X23611214Y-12542214D01*
X23639786Y-12556500D01*
X23754071Y-12856500D02*
X23768357Y-12842214D01*
X23796928Y-12799357D01*
X23811214Y-12770786D01*
X23825500Y-12727929D01*
X23839786Y-12656500D01*
X23839786Y-12599357D01*
X23825500Y-12527929D01*
X23811214Y-12485071D01*
X23796928Y-12456500D01*
X23768357Y-12413643D01*
X23754071Y-12399357D01*
X16391450Y-12983450D02*
X16391450Y-13021550D01*
X16372400Y-13002500D02*
X16410500Y-13002500D01*
X16754071Y-12838214D02*
X16782643Y-12838214D01*
X16811214Y-12852500D01*
X16825500Y-12866786D01*
X16839786Y-12895357D01*
X16854071Y-12952500D01*
X16854071Y-13023929D01*
X16839786Y-13081071D01*
X16825500Y-13109643D01*
X16811214Y-13123929D01*
X16782643Y-13138214D01*
X16754071Y-13138214D01*
X16725500Y-13123929D01*
X16711214Y-13109643D01*
X16696928Y-13081071D01*
X16682643Y-13023929D01*
X16682643Y-12952500D01*
X16696928Y-12895357D01*
X16711214Y-12866786D01*
X16725500Y-12852500D01*
X16754071Y-12838214D01*
X16982643Y-13109643D02*
X16996928Y-13123929D01*
X16982643Y-13138214D01*
X16968357Y-13123929D01*
X16982643Y-13109643D01*
X16982643Y-13138214D01*
X17096928Y-12838214D02*
X17282643Y-12838214D01*
X17182643Y-12952500D01*
X17225500Y-12952500D01*
X17254071Y-12966786D01*
X17268357Y-12981071D01*
X17282643Y-13009643D01*
X17282643Y-13081071D01*
X17268357Y-13109643D01*
X17254071Y-13123929D01*
X17225500Y-13138214D01*
X17139786Y-13138214D01*
X17111214Y-13123929D01*
X17096928Y-13109643D01*
X17454071Y-12966786D02*
X17425500Y-12952500D01*
X17411214Y-12938214D01*
X17396928Y-12909643D01*
X17396928Y-12895357D01*
X17411214Y-12866786D01*
X17425500Y-12852500D01*
X17454071Y-12838214D01*
X17511214Y-12838214D01*
X17539786Y-12852500D01*
X17554071Y-12866786D01*
X17568357Y-12895357D01*
X17568357Y-12909643D01*
X17554071Y-12938214D01*
X17539786Y-12952500D01*
X17511214Y-12966786D01*
X17454071Y-12966786D01*
X17425500Y-12981071D01*
X17411214Y-12995357D01*
X17396928Y-13023929D01*
X17396928Y-13081071D01*
X17411214Y-13109643D01*
X17425500Y-13123929D01*
X17454071Y-13138214D01*
X17511214Y-13138214D01*
X17539786Y-13123929D01*
X17554071Y-13109643D01*
X17568357Y-13081071D01*
X17568357Y-13023929D01*
X17554071Y-12995357D01*
X17539786Y-12981071D01*
X17511214Y-12966786D01*
X17854071Y-13138214D02*
X17682643Y-13138214D01*
X17768357Y-13138214D02*
X17768357Y-12838214D01*
X17739786Y-12881071D01*
X17711214Y-12909643D01*
X17682643Y-12923929D01*
X17982643Y-13138214D02*
X17982643Y-12938214D01*
X17982643Y-12966786D02*
X17996928Y-12952500D01*
X18025500Y-12938214D01*
X18068357Y-12938214D01*
X18096928Y-12952500D01*
X18111214Y-12981071D01*
X18111214Y-13138214D01*
X18111214Y-12981071D02*
X18125500Y-12952500D01*
X18154071Y-12938214D01*
X18196928Y-12938214D01*
X18225500Y-12952500D01*
X18239786Y-12981071D01*
X18239786Y-13138214D01*
X18382643Y-13138214D02*
X18382643Y-12938214D01*
X18382643Y-12966786D02*
X18396928Y-12952500D01*
X18425500Y-12938214D01*
X18468357Y-12938214D01*
X18496928Y-12952500D01*
X18511214Y-12981071D01*
X18511214Y-13138214D01*
X18511214Y-12981071D02*
X18525500Y-12952500D01*
X18554071Y-12938214D01*
X18596928Y-12938214D01*
X18625500Y-12952500D01*
X18639786Y-12981071D01*
X18639786Y-13138214D01*
X19225500Y-12823929D02*
X18968357Y-13209643D01*
X19611214Y-12838214D02*
X19639786Y-12838214D01*
X19668357Y-12852500D01*
X19682643Y-12866786D01*
X19696928Y-12895357D01*
X19711214Y-12952500D01*
X19711214Y-13023929D01*
X19696928Y-13081071D01*
X19682643Y-13109643D01*
X19668357Y-13123929D01*
X19639786Y-13138214D01*
X19611214Y-13138214D01*
X19582643Y-13123929D01*
X19568357Y-13109643D01*
X19554071Y-13081071D01*
X19539786Y-13023929D01*
X19539786Y-12952500D01*
X19554071Y-12895357D01*
X19568357Y-12866786D01*
X19582643Y-12852500D01*
X19611214Y-12838214D01*
X19839786Y-13109643D02*
X19854071Y-13123929D01*
X19839786Y-13138214D01*
X19825500Y-13123929D01*
X19839786Y-13109643D01*
X19839786Y-13138214D01*
X20039786Y-12838214D02*
X20068357Y-12838214D01*
X20096928Y-12852500D01*
X20111214Y-12866786D01*
X20125500Y-12895357D01*
X20139786Y-12952500D01*
X20139786Y-13023929D01*
X20125500Y-13081071D01*
X20111214Y-13109643D01*
X20096928Y-13123929D01*
X20068357Y-13138214D01*
X20039786Y-13138214D01*
X20011214Y-13123929D01*
X19996928Y-13109643D01*
X19982643Y-13081071D01*
X19968357Y-13023929D01*
X19968357Y-12952500D01*
X19982643Y-12895357D01*
X19996928Y-12866786D01*
X20011214Y-12852500D01*
X20039786Y-12838214D01*
X20425500Y-13138214D02*
X20254071Y-13138214D01*
X20339786Y-13138214D02*
X20339786Y-12838214D01*
X20311214Y-12881071D01*
X20282643Y-12909643D01*
X20254071Y-12923929D01*
X20696928Y-12838214D02*
X20554071Y-12838214D01*
X20539786Y-12981071D01*
X20554071Y-12966786D01*
X20582643Y-12952500D01*
X20654071Y-12952500D01*
X20682643Y-12966786D01*
X20696928Y-12981071D01*
X20711214Y-13009643D01*
X20711214Y-13081071D01*
X20696928Y-13109643D01*
X20682643Y-13123929D01*
X20654071Y-13138214D01*
X20582643Y-13138214D01*
X20554071Y-13123929D01*
X20539786Y-13109643D01*
X20896928Y-12838214D02*
X20925500Y-12838214D01*
X20954071Y-12852500D01*
X20968357Y-12866786D01*
X20982643Y-12895357D01*
X20996928Y-12952500D01*
X20996928Y-13023929D01*
X20982643Y-13081071D01*
X20968357Y-13109643D01*
X20954071Y-13123929D01*
X20925500Y-13138214D01*
X20896928Y-13138214D01*
X20868357Y-13123929D01*
X20854071Y-13109643D01*
X20839786Y-13081071D01*
X20825500Y-13023929D01*
X20825500Y-12952500D01*
X20839786Y-12895357D01*
X20854071Y-12866786D01*
X20868357Y-12852500D01*
X20896928Y-12838214D01*
X21111214Y-12838214D02*
X21111214Y-12895357D01*
X21225500Y-12838214D02*
X21225500Y-12895357D01*
X21668357Y-13252500D02*
X21654071Y-13238214D01*
X21625500Y-13195357D01*
X21611214Y-13166786D01*
X21596928Y-13123929D01*
X21582643Y-13052500D01*
X21582643Y-12995357D01*
X21596928Y-12923929D01*
X21611214Y-12881071D01*
X21625500Y-12852500D01*
X21654071Y-12809643D01*
X21668357Y-12795357D01*
X21768357Y-12866786D02*
X21782643Y-12852500D01*
X21811214Y-12838214D01*
X21882643Y-12838214D01*
X21911214Y-12852500D01*
X21925500Y-12866786D01*
X21939786Y-12895357D01*
X21939786Y-12923929D01*
X21925500Y-12966786D01*
X21754071Y-13138214D01*
X21939786Y-13138214D01*
X22196928Y-12938214D02*
X22196928Y-13138214D01*
X22125500Y-12823929D02*
X22054071Y-13038214D01*
X22239786Y-13038214D01*
X22582643Y-13138214D02*
X22582643Y-12838214D01*
X22711214Y-13138214D02*
X22711214Y-12981071D01*
X22696928Y-12952500D01*
X22668357Y-12938214D01*
X22625500Y-12938214D01*
X22596928Y-12952500D01*
X22582643Y-12966786D01*
X22896928Y-13138214D02*
X22868357Y-13123929D01*
X22854071Y-13109643D01*
X22839786Y-13081071D01*
X22839786Y-12995357D01*
X22854071Y-12966786D01*
X22868357Y-12952500D01*
X22896928Y-12938214D01*
X22939786Y-12938214D01*
X22968357Y-12952500D01*
X22982643Y-12966786D01*
X22996928Y-12995357D01*
X22996928Y-13081071D01*
X22982643Y-13109643D01*
X22968357Y-13123929D01*
X22939786Y-13138214D01*
X22896928Y-13138214D01*
X23168357Y-13138214D02*
X23139786Y-13123929D01*
X23125500Y-13095357D01*
X23125500Y-12838214D01*
X23396928Y-13123929D02*
X23368357Y-13138214D01*
X23311214Y-13138214D01*
X23282643Y-13123929D01*
X23268357Y-13095357D01*
X23268357Y-12981071D01*
X23282643Y-12952500D01*
X23311214Y-12938214D01*
X23368357Y-12938214D01*
X23396928Y-12952500D01*
X23411214Y-12981071D01*
X23411214Y-13009643D01*
X23268357Y-13038214D01*
X23525500Y-13123929D02*
X23554071Y-13138214D01*
X23611214Y-13138214D01*
X23639786Y-13123929D01*
X23654071Y-13095357D01*
X23654071Y-13081071D01*
X23639786Y-13052500D01*
X23611214Y-13038214D01*
X23568357Y-13038214D01*
X23539786Y-13023929D01*
X23525500Y-12995357D01*
X23525500Y-12981071D01*
X23539786Y-12952500D01*
X23568357Y-12938214D01*
X23611214Y-12938214D01*
X23639786Y-12952500D01*
X23754071Y-13252500D02*
X23768357Y-13238214D01*
X23796928Y-13195357D01*
X23811214Y-13166786D01*
X23825500Y-13123929D01*
X23839786Y-13052500D01*
X23839786Y-12995357D01*
X23825500Y-12923929D01*
X23811214Y-12881071D01*
X23796928Y-12852500D01*
X23768357Y-12809643D01*
X23754071Y-12795357D01*
X16399341Y-13425441D02*
X16399341Y-13371559D01*
X16345459Y-13371559D01*
X16345459Y-13425441D01*
X16399341Y-13425441D01*
X16754071Y-13234214D02*
X16782643Y-13234214D01*
X16811214Y-13248500D01*
X16825500Y-13262786D01*
X16839786Y-13291357D01*
X16854071Y-13348500D01*
X16854071Y-13419929D01*
X16839786Y-13477071D01*
X16825500Y-13505643D01*
X16811214Y-13519929D01*
X16782643Y-13534214D01*
X16754071Y-13534214D01*
X16725500Y-13519929D01*
X16711214Y-13505643D01*
X16696928Y-13477071D01*
X16682643Y-13419929D01*
X16682643Y-13348500D01*
X16696928Y-13291357D01*
X16711214Y-13262786D01*
X16725500Y-13248500D01*
X16754071Y-13234214D01*
X16982643Y-13505643D02*
X16996928Y-13519929D01*
X16982643Y-13534214D01*
X16968357Y-13519929D01*
X16982643Y-13505643D01*
X16982643Y-13534214D01*
X17096928Y-13234214D02*
X17296928Y-13234214D01*
X17168357Y-13534214D01*
X17539786Y-13234214D02*
X17482643Y-13234214D01*
X17454071Y-13248500D01*
X17439786Y-13262786D01*
X17411214Y-13305643D01*
X17396928Y-13362786D01*
X17396928Y-13477071D01*
X17411214Y-13505643D01*
X17425500Y-13519929D01*
X17454071Y-13534214D01*
X17511214Y-13534214D01*
X17539786Y-13519929D01*
X17554071Y-13505643D01*
X17568357Y-13477071D01*
X17568357Y-13405643D01*
X17554071Y-13377071D01*
X17539786Y-13362786D01*
X17511214Y-13348500D01*
X17454071Y-13348500D01*
X17425500Y-13362786D01*
X17411214Y-13377071D01*
X17396928Y-13405643D01*
X17682643Y-13262786D02*
X17696928Y-13248500D01*
X17725500Y-13234214D01*
X17796928Y-13234214D01*
X17825500Y-13248500D01*
X17839786Y-13262786D01*
X17854071Y-13291357D01*
X17854071Y-13319929D01*
X17839786Y-13362786D01*
X17668357Y-13534214D01*
X17854071Y-13534214D01*
X17982643Y-13534214D02*
X17982643Y-13334214D01*
X17982643Y-13362786D02*
X17996928Y-13348500D01*
X18025500Y-13334214D01*
X18068357Y-13334214D01*
X18096928Y-13348500D01*
X18111214Y-13377071D01*
X18111214Y-13534214D01*
X18111214Y-13377071D02*
X18125500Y-13348500D01*
X18154071Y-13334214D01*
X18196928Y-13334214D01*
X18225500Y-13348500D01*
X18239786Y-13377071D01*
X18239786Y-13534214D01*
X18382643Y-13534214D02*
X18382643Y-13334214D01*
X18382643Y-13362786D02*
X18396928Y-13348500D01*
X18425500Y-13334214D01*
X18468357Y-13334214D01*
X18496928Y-13348500D01*
X18511214Y-13377071D01*
X18511214Y-13534214D01*
X18511214Y-13377071D02*
X18525500Y-13348500D01*
X18554071Y-13334214D01*
X18596928Y-13334214D01*
X18625500Y-13348500D01*
X18639786Y-13377071D01*
X18639786Y-13534214D01*
X19225500Y-13219929D02*
X18968357Y-13605643D01*
X19611214Y-13234214D02*
X19639786Y-13234214D01*
X19668357Y-13248500D01*
X19682643Y-13262786D01*
X19696928Y-13291357D01*
X19711214Y-13348500D01*
X19711214Y-13419929D01*
X19696928Y-13477071D01*
X19682643Y-13505643D01*
X19668357Y-13519929D01*
X19639786Y-13534214D01*
X19611214Y-13534214D01*
X19582643Y-13519929D01*
X19568357Y-13505643D01*
X19554071Y-13477071D01*
X19539786Y-13419929D01*
X19539786Y-13348500D01*
X19554071Y-13291357D01*
X19568357Y-13262786D01*
X19582643Y-13248500D01*
X19611214Y-13234214D01*
X19839786Y-13505643D02*
X19854071Y-13519929D01*
X19839786Y-13534214D01*
X19825500Y-13519929D01*
X19839786Y-13505643D01*
X19839786Y-13534214D01*
X20039786Y-13234214D02*
X20068357Y-13234214D01*
X20096928Y-13248500D01*
X20111214Y-13262786D01*
X20125500Y-13291357D01*
X20139786Y-13348500D01*
X20139786Y-13419929D01*
X20125500Y-13477071D01*
X20111214Y-13505643D01*
X20096928Y-13519929D01*
X20068357Y-13534214D01*
X20039786Y-13534214D01*
X20011214Y-13519929D01*
X19996928Y-13505643D01*
X19982643Y-13477071D01*
X19968357Y-13419929D01*
X19968357Y-13348500D01*
X19982643Y-13291357D01*
X19996928Y-13262786D01*
X20011214Y-13248500D01*
X20039786Y-13234214D01*
X20239786Y-13234214D02*
X20425500Y-13234214D01*
X20325500Y-13348500D01*
X20368357Y-13348500D01*
X20396928Y-13362786D01*
X20411214Y-13377071D01*
X20425500Y-13405643D01*
X20425500Y-13477071D01*
X20411214Y-13505643D01*
X20396928Y-13519929D01*
X20368357Y-13534214D01*
X20282643Y-13534214D01*
X20254071Y-13519929D01*
X20239786Y-13505643D01*
X20611214Y-13234214D02*
X20639786Y-13234214D01*
X20668357Y-13248500D01*
X20682643Y-13262786D01*
X20696928Y-13291357D01*
X20711214Y-13348500D01*
X20711214Y-13419929D01*
X20696928Y-13477071D01*
X20682643Y-13505643D01*
X20668357Y-13519929D01*
X20639786Y-13534214D01*
X20611214Y-13534214D01*
X20582643Y-13519929D01*
X20568357Y-13505643D01*
X20554071Y-13477071D01*
X20539786Y-13419929D01*
X20539786Y-13348500D01*
X20554071Y-13291357D01*
X20568357Y-13262786D01*
X20582643Y-13248500D01*
X20611214Y-13234214D01*
X20896928Y-13234214D02*
X20925500Y-13234214D01*
X20954071Y-13248500D01*
X20968357Y-13262786D01*
X20982643Y-13291357D01*
X20996928Y-13348500D01*
X20996928Y-13419929D01*
X20982643Y-13477071D01*
X20968357Y-13505643D01*
X20954071Y-13519929D01*
X20925500Y-13534214D01*
X20896928Y-13534214D01*
X20868357Y-13519929D01*
X20854071Y-13505643D01*
X20839786Y-13477071D01*
X20825500Y-13419929D01*
X20825500Y-13348500D01*
X20839786Y-13291357D01*
X20854071Y-13262786D01*
X20868357Y-13248500D01*
X20896928Y-13234214D01*
X21111214Y-13234214D02*
X21111214Y-13291357D01*
X21225500Y-13234214D02*
X21225500Y-13291357D01*
X21668357Y-13648500D02*
X21654071Y-13634214D01*
X21625500Y-13591357D01*
X21611214Y-13562786D01*
X21596928Y-13519929D01*
X21582643Y-13448500D01*
X21582643Y-13391357D01*
X21596928Y-13319929D01*
X21611214Y-13277071D01*
X21625500Y-13248500D01*
X21654071Y-13205643D01*
X21668357Y-13191357D01*
X21768357Y-13262786D02*
X21782643Y-13248500D01*
X21811214Y-13234214D01*
X21882643Y-13234214D01*
X21911214Y-13248500D01*
X21925500Y-13262786D01*
X21939786Y-13291357D01*
X21939786Y-13319929D01*
X21925500Y-13362786D01*
X21754071Y-13534214D01*
X21939786Y-13534214D01*
X22296928Y-13534214D02*
X22296928Y-13234214D01*
X22425500Y-13534214D02*
X22425500Y-13377071D01*
X22411214Y-13348500D01*
X22382643Y-13334214D01*
X22339786Y-13334214D01*
X22311214Y-13348500D01*
X22296928Y-13362786D01*
X22611214Y-13534214D02*
X22582643Y-13519929D01*
X22568357Y-13505643D01*
X22554071Y-13477071D01*
X22554071Y-13391357D01*
X22568357Y-13362786D01*
X22582643Y-13348500D01*
X22611214Y-13334214D01*
X22654071Y-13334214D01*
X22682643Y-13348500D01*
X22696928Y-13362786D01*
X22711214Y-13391357D01*
X22711214Y-13477071D01*
X22696928Y-13505643D01*
X22682643Y-13519929D01*
X22654071Y-13534214D01*
X22611214Y-13534214D01*
X22882643Y-13534214D02*
X22854071Y-13519929D01*
X22839786Y-13491357D01*
X22839786Y-13234214D01*
X23111214Y-13519929D02*
X23082643Y-13534214D01*
X23025500Y-13534214D01*
X22996928Y-13519929D01*
X22982643Y-13491357D01*
X22982643Y-13377071D01*
X22996928Y-13348500D01*
X23025500Y-13334214D01*
X23082643Y-13334214D01*
X23111214Y-13348500D01*
X23125500Y-13377071D01*
X23125500Y-13405643D01*
X22982643Y-13434214D01*
X23239786Y-13519929D02*
X23268357Y-13534214D01*
X23325500Y-13534214D01*
X23354071Y-13519929D01*
X23368357Y-13491357D01*
X23368357Y-13477071D01*
X23354071Y-13448500D01*
X23325500Y-13434214D01*
X23282643Y-13434214D01*
X23254071Y-13419929D01*
X23239786Y-13391357D01*
X23239786Y-13377071D01*
X23254071Y-13348500D01*
X23282643Y-13334214D01*
X23325500Y-13334214D01*
X23354071Y-13348500D01*
X23468357Y-13648500D02*
X23482643Y-13634214D01*
X23511214Y-13591357D01*
X23525500Y-13562786D01*
X23539786Y-13519929D01*
X23554071Y-13448500D01*
X23554071Y-13391357D01*
X23539786Y-13319929D01*
X23525500Y-13277071D01*
X23511214Y-13248500D01*
X23482643Y-13205643D01*
X23468357Y-13191357D01*
X16370500Y-13834500D02*
X16410500Y-13794500D01*
X16370500Y-13754500D01*
X16330500Y-13794500D01*
X16370500Y-13834500D01*
X16754071Y-13630214D02*
X16782643Y-13630214D01*
X16811214Y-13644500D01*
X16825500Y-13658786D01*
X16839786Y-13687357D01*
X16854071Y-13744500D01*
X16854071Y-13815929D01*
X16839786Y-13873071D01*
X16825500Y-13901643D01*
X16811214Y-13915929D01*
X16782643Y-13930214D01*
X16754071Y-13930214D01*
X16725500Y-13915929D01*
X16711214Y-13901643D01*
X16696928Y-13873071D01*
X16682643Y-13815929D01*
X16682643Y-13744500D01*
X16696928Y-13687357D01*
X16711214Y-13658786D01*
X16725500Y-13644500D01*
X16754071Y-13630214D01*
X16982643Y-13901643D02*
X16996928Y-13915929D01*
X16982643Y-13930214D01*
X16968357Y-13915929D01*
X16982643Y-13901643D01*
X16982643Y-13930214D01*
X17168357Y-13758786D02*
X17139786Y-13744500D01*
X17125500Y-13730214D01*
X17111214Y-13701643D01*
X17111214Y-13687357D01*
X17125500Y-13658786D01*
X17139786Y-13644500D01*
X17168357Y-13630214D01*
X17225500Y-13630214D01*
X17254071Y-13644500D01*
X17268357Y-13658786D01*
X17282643Y-13687357D01*
X17282643Y-13701643D01*
X17268357Y-13730214D01*
X17254071Y-13744500D01*
X17225500Y-13758786D01*
X17168357Y-13758786D01*
X17139786Y-13773071D01*
X17125500Y-13787357D01*
X17111214Y-13815929D01*
X17111214Y-13873071D01*
X17125500Y-13901643D01*
X17139786Y-13915929D01*
X17168357Y-13930214D01*
X17225500Y-13930214D01*
X17254071Y-13915929D01*
X17268357Y-13901643D01*
X17282643Y-13873071D01*
X17282643Y-13815929D01*
X17268357Y-13787357D01*
X17254071Y-13773071D01*
X17225500Y-13758786D01*
X17468357Y-13630214D02*
X17496928Y-13630214D01*
X17525500Y-13644500D01*
X17539786Y-13658786D01*
X17554071Y-13687357D01*
X17568357Y-13744500D01*
X17568357Y-13815929D01*
X17554071Y-13873071D01*
X17539786Y-13901643D01*
X17525500Y-13915929D01*
X17496928Y-13930214D01*
X17468357Y-13930214D01*
X17439786Y-13915929D01*
X17425500Y-13901643D01*
X17411214Y-13873071D01*
X17396928Y-13815929D01*
X17396928Y-13744500D01*
X17411214Y-13687357D01*
X17425500Y-13658786D01*
X17439786Y-13644500D01*
X17468357Y-13630214D01*
X17754071Y-13630214D02*
X17782643Y-13630214D01*
X17811214Y-13644500D01*
X17825500Y-13658786D01*
X17839786Y-13687357D01*
X17854071Y-13744500D01*
X17854071Y-13815929D01*
X17839786Y-13873071D01*
X17825500Y-13901643D01*
X17811214Y-13915929D01*
X17782643Y-13930214D01*
X17754071Y-13930214D01*
X17725500Y-13915929D01*
X17711214Y-13901643D01*
X17696928Y-13873071D01*
X17682643Y-13815929D01*
X17682643Y-13744500D01*
X17696928Y-13687357D01*
X17711214Y-13658786D01*
X17725500Y-13644500D01*
X17754071Y-13630214D01*
X17982643Y-13930214D02*
X17982643Y-13730214D01*
X17982643Y-13758786D02*
X17996928Y-13744500D01*
X18025500Y-13730214D01*
X18068357Y-13730214D01*
X18096928Y-13744500D01*
X18111214Y-13773071D01*
X18111214Y-13930214D01*
X18111214Y-13773071D02*
X18125500Y-13744500D01*
X18154071Y-13730214D01*
X18196928Y-13730214D01*
X18225500Y-13744500D01*
X18239786Y-13773071D01*
X18239786Y-13930214D01*
X18382643Y-13930214D02*
X18382643Y-13730214D01*
X18382643Y-13758786D02*
X18396928Y-13744500D01*
X18425500Y-13730214D01*
X18468357Y-13730214D01*
X18496928Y-13744500D01*
X18511214Y-13773071D01*
X18511214Y-13930214D01*
X18511214Y-13773071D02*
X18525500Y-13744500D01*
X18554071Y-13730214D01*
X18596928Y-13730214D01*
X18625500Y-13744500D01*
X18639786Y-13773071D01*
X18639786Y-13930214D01*
X19225500Y-13615929D02*
X18968357Y-14001643D01*
X19611214Y-13630214D02*
X19639786Y-13630214D01*
X19668357Y-13644500D01*
X19682643Y-13658786D01*
X19696928Y-13687357D01*
X19711214Y-13744500D01*
X19711214Y-13815929D01*
X19696928Y-13873071D01*
X19682643Y-13901643D01*
X19668357Y-13915929D01*
X19639786Y-13930214D01*
X19611214Y-13930214D01*
X19582643Y-13915929D01*
X19568357Y-13901643D01*
X19554071Y-13873071D01*
X19539786Y-13815929D01*
X19539786Y-13744500D01*
X19554071Y-13687357D01*
X19568357Y-13658786D01*
X19582643Y-13644500D01*
X19611214Y-13630214D01*
X19839786Y-13901643D02*
X19854071Y-13915929D01*
X19839786Y-13930214D01*
X19825500Y-13915929D01*
X19839786Y-13901643D01*
X19839786Y-13930214D01*
X20039786Y-13630214D02*
X20068357Y-13630214D01*
X20096928Y-13644500D01*
X20111214Y-13658786D01*
X20125500Y-13687357D01*
X20139786Y-13744500D01*
X20139786Y-13815929D01*
X20125500Y-13873071D01*
X20111214Y-13901643D01*
X20096928Y-13915929D01*
X20068357Y-13930214D01*
X20039786Y-13930214D01*
X20011214Y-13915929D01*
X19996928Y-13901643D01*
X19982643Y-13873071D01*
X19968357Y-13815929D01*
X19968357Y-13744500D01*
X19982643Y-13687357D01*
X19996928Y-13658786D01*
X20011214Y-13644500D01*
X20039786Y-13630214D01*
X20239786Y-13630214D02*
X20425500Y-13630214D01*
X20325500Y-13744500D01*
X20368357Y-13744500D01*
X20396928Y-13758786D01*
X20411214Y-13773071D01*
X20425500Y-13801643D01*
X20425500Y-13873071D01*
X20411214Y-13901643D01*
X20396928Y-13915929D01*
X20368357Y-13930214D01*
X20282643Y-13930214D01*
X20254071Y-13915929D01*
X20239786Y-13901643D01*
X20711214Y-13930214D02*
X20539786Y-13930214D01*
X20625500Y-13930214D02*
X20625500Y-13630214D01*
X20596928Y-13673071D01*
X20568357Y-13701643D01*
X20539786Y-13715929D01*
X20982643Y-13630214D02*
X20839786Y-13630214D01*
X20825500Y-13773071D01*
X20839786Y-13758786D01*
X20868357Y-13744500D01*
X20939786Y-13744500D01*
X20968357Y-13758786D01*
X20982643Y-13773071D01*
X20996928Y-13801643D01*
X20996928Y-13873071D01*
X20982643Y-13901643D01*
X20968357Y-13915929D01*
X20939786Y-13930214D01*
X20868357Y-13930214D01*
X20839786Y-13915929D01*
X20825500Y-13901643D01*
X21111214Y-13630214D02*
X21111214Y-13687357D01*
X21225500Y-13630214D02*
X21225500Y-13687357D01*
X21668357Y-14044500D02*
X21654071Y-14030214D01*
X21625500Y-13987357D01*
X21611214Y-13958786D01*
X21596928Y-13915929D01*
X21582643Y-13844500D01*
X21582643Y-13787357D01*
X21596928Y-13715929D01*
X21611214Y-13673071D01*
X21625500Y-13644500D01*
X21654071Y-13601643D01*
X21668357Y-13587357D01*
X21768357Y-13658786D02*
X21782643Y-13644500D01*
X21811214Y-13630214D01*
X21882643Y-13630214D01*
X21911214Y-13644500D01*
X21925500Y-13658786D01*
X21939786Y-13687357D01*
X21939786Y-13715929D01*
X21925500Y-13758786D01*
X21754071Y-13930214D01*
X21939786Y-13930214D01*
X22296928Y-13930214D02*
X22296928Y-13630214D01*
X22425500Y-13930214D02*
X22425500Y-13773071D01*
X22411214Y-13744500D01*
X22382643Y-13730214D01*
X22339786Y-13730214D01*
X22311214Y-13744500D01*
X22296928Y-13758786D01*
X22611214Y-13930214D02*
X22582643Y-13915929D01*
X22568357Y-13901643D01*
X22554071Y-13873071D01*
X22554071Y-13787357D01*
X22568357Y-13758786D01*
X22582643Y-13744500D01*
X22611214Y-13730214D01*
X22654071Y-13730214D01*
X22682643Y-13744500D01*
X22696928Y-13758786D01*
X22711214Y-13787357D01*
X22711214Y-13873071D01*
X22696928Y-13901643D01*
X22682643Y-13915929D01*
X22654071Y-13930214D01*
X22611214Y-13930214D01*
X22882643Y-13930214D02*
X22854071Y-13915929D01*
X22839786Y-13887357D01*
X22839786Y-13630214D01*
X23111214Y-13915929D02*
X23082643Y-13930214D01*
X23025500Y-13930214D01*
X22996928Y-13915929D01*
X22982643Y-13887357D01*
X22982643Y-13773071D01*
X22996928Y-13744500D01*
X23025500Y-13730214D01*
X23082643Y-13730214D01*
X23111214Y-13744500D01*
X23125500Y-13773071D01*
X23125500Y-13801643D01*
X22982643Y-13830214D01*
X23239786Y-13915929D02*
X23268357Y-13930214D01*
X23325500Y-13930214D01*
X23354071Y-13915929D01*
X23368357Y-13887357D01*
X23368357Y-13873071D01*
X23354071Y-13844500D01*
X23325500Y-13830214D01*
X23282643Y-13830214D01*
X23254071Y-13815929D01*
X23239786Y-13787357D01*
X23239786Y-13773071D01*
X23254071Y-13744500D01*
X23282643Y-13730214D01*
X23325500Y-13730214D01*
X23354071Y-13744500D01*
X23468357Y-14044500D02*
X23482643Y-14030214D01*
X23511214Y-13987357D01*
X23525500Y-13958786D01*
X23539786Y-13915929D01*
X23554071Y-13844500D01*
X23554071Y-13787357D01*
X23539786Y-13715929D01*
X23525500Y-13673071D01*
X23511214Y-13644500D01*
X23482643Y-13601643D01*
X23468357Y-13587357D01*
X16310500Y-14140500D02*
X16410500Y-14240500D01*
X16410500Y-14140500D02*
X16310500Y-14240500D01*
X16410500Y-14190500D02*
G75*
G03*
X16410500Y-14190500I-50000J0D01*
G01*
X16854071Y-14326214D02*
X16682643Y-14326214D01*
X16768357Y-14326214D02*
X16768357Y-14026214D01*
X16739786Y-14069071D01*
X16711214Y-14097643D01*
X16682643Y-14111929D01*
X16982643Y-14297643D02*
X16996928Y-14311929D01*
X16982643Y-14326214D01*
X16968357Y-14311929D01*
X16982643Y-14297643D01*
X16982643Y-14326214D01*
X17182643Y-14026214D02*
X17211214Y-14026214D01*
X17239786Y-14040500D01*
X17254071Y-14054786D01*
X17268357Y-14083357D01*
X17282643Y-14140500D01*
X17282643Y-14211929D01*
X17268357Y-14269071D01*
X17254071Y-14297643D01*
X17239786Y-14311929D01*
X17211214Y-14326214D01*
X17182643Y-14326214D01*
X17154071Y-14311929D01*
X17139786Y-14297643D01*
X17125500Y-14269071D01*
X17111214Y-14211929D01*
X17111214Y-14140500D01*
X17125500Y-14083357D01*
X17139786Y-14054786D01*
X17154071Y-14040500D01*
X17182643Y-14026214D01*
X17468357Y-14026214D02*
X17496928Y-14026214D01*
X17525500Y-14040500D01*
X17539786Y-14054786D01*
X17554071Y-14083357D01*
X17568357Y-14140500D01*
X17568357Y-14211929D01*
X17554071Y-14269071D01*
X17539786Y-14297643D01*
X17525500Y-14311929D01*
X17496928Y-14326214D01*
X17468357Y-14326214D01*
X17439786Y-14311929D01*
X17425500Y-14297643D01*
X17411214Y-14269071D01*
X17396928Y-14211929D01*
X17396928Y-14140500D01*
X17411214Y-14083357D01*
X17425500Y-14054786D01*
X17439786Y-14040500D01*
X17468357Y-14026214D01*
X17754071Y-14026214D02*
X17782643Y-14026214D01*
X17811214Y-14040500D01*
X17825500Y-14054786D01*
X17839786Y-14083357D01*
X17854071Y-14140500D01*
X17854071Y-14211929D01*
X17839786Y-14269071D01*
X17825500Y-14297643D01*
X17811214Y-14311929D01*
X17782643Y-14326214D01*
X17754071Y-14326214D01*
X17725500Y-14311929D01*
X17711214Y-14297643D01*
X17696928Y-14269071D01*
X17682643Y-14211929D01*
X17682643Y-14140500D01*
X17696928Y-14083357D01*
X17711214Y-14054786D01*
X17725500Y-14040500D01*
X17754071Y-14026214D01*
X17982643Y-14326214D02*
X17982643Y-14126214D01*
X17982643Y-14154786D02*
X17996928Y-14140500D01*
X18025500Y-14126214D01*
X18068357Y-14126214D01*
X18096928Y-14140500D01*
X18111214Y-14169071D01*
X18111214Y-14326214D01*
X18111214Y-14169071D02*
X18125500Y-14140500D01*
X18154071Y-14126214D01*
X18196928Y-14126214D01*
X18225500Y-14140500D01*
X18239786Y-14169071D01*
X18239786Y-14326214D01*
X18382643Y-14326214D02*
X18382643Y-14126214D01*
X18382643Y-14154786D02*
X18396928Y-14140500D01*
X18425500Y-14126214D01*
X18468357Y-14126214D01*
X18496928Y-14140500D01*
X18511214Y-14169071D01*
X18511214Y-14326214D01*
X18511214Y-14169071D02*
X18525500Y-14140500D01*
X18554071Y-14126214D01*
X18596928Y-14126214D01*
X18625500Y-14140500D01*
X18639786Y-14169071D01*
X18639786Y-14326214D01*
X19225500Y-14011929D02*
X18968357Y-14397643D01*
X19611214Y-14026214D02*
X19639786Y-14026214D01*
X19668357Y-14040500D01*
X19682643Y-14054786D01*
X19696928Y-14083357D01*
X19711214Y-14140500D01*
X19711214Y-14211929D01*
X19696928Y-14269071D01*
X19682643Y-14297643D01*
X19668357Y-14311929D01*
X19639786Y-14326214D01*
X19611214Y-14326214D01*
X19582643Y-14311929D01*
X19568357Y-14297643D01*
X19554071Y-14269071D01*
X19539786Y-14211929D01*
X19539786Y-14140500D01*
X19554071Y-14083357D01*
X19568357Y-14054786D01*
X19582643Y-14040500D01*
X19611214Y-14026214D01*
X19839786Y-14297643D02*
X19854071Y-14311929D01*
X19839786Y-14326214D01*
X19825500Y-14311929D01*
X19839786Y-14297643D01*
X19839786Y-14326214D01*
X20039786Y-14026214D02*
X20068357Y-14026214D01*
X20096928Y-14040500D01*
X20111214Y-14054786D01*
X20125500Y-14083357D01*
X20139786Y-14140500D01*
X20139786Y-14211929D01*
X20125500Y-14269071D01*
X20111214Y-14297643D01*
X20096928Y-14311929D01*
X20068357Y-14326214D01*
X20039786Y-14326214D01*
X20011214Y-14311929D01*
X19996928Y-14297643D01*
X19982643Y-14269071D01*
X19968357Y-14211929D01*
X19968357Y-14140500D01*
X19982643Y-14083357D01*
X19996928Y-14054786D01*
X20011214Y-14040500D01*
X20039786Y-14026214D01*
X20239786Y-14026214D02*
X20425500Y-14026214D01*
X20325500Y-14140500D01*
X20368357Y-14140500D01*
X20396928Y-14154786D01*
X20411214Y-14169071D01*
X20425500Y-14197643D01*
X20425500Y-14269071D01*
X20411214Y-14297643D01*
X20396928Y-14311929D01*
X20368357Y-14326214D01*
X20282643Y-14326214D01*
X20254071Y-14311929D01*
X20239786Y-14297643D01*
X20568357Y-14326214D02*
X20625500Y-14326214D01*
X20654071Y-14311929D01*
X20668357Y-14297643D01*
X20696928Y-14254786D01*
X20711214Y-14197643D01*
X20711214Y-14083357D01*
X20696928Y-14054786D01*
X20682643Y-14040500D01*
X20654071Y-14026214D01*
X20596928Y-14026214D01*
X20568357Y-14040500D01*
X20554071Y-14054786D01*
X20539786Y-14083357D01*
X20539786Y-14154786D01*
X20554071Y-14183357D01*
X20568357Y-14197643D01*
X20596928Y-14211929D01*
X20654071Y-14211929D01*
X20682643Y-14197643D01*
X20696928Y-14183357D01*
X20711214Y-14154786D01*
X20968357Y-14126214D02*
X20968357Y-14326214D01*
X20896928Y-14011929D02*
X20825500Y-14226214D01*
X21011214Y-14226214D01*
X21111214Y-14026214D02*
X21111214Y-14083357D01*
X21225500Y-14026214D02*
X21225500Y-14083357D01*
X21668357Y-14440500D02*
X21654071Y-14426214D01*
X21625500Y-14383357D01*
X21611214Y-14354786D01*
X21596928Y-14311929D01*
X21582643Y-14240500D01*
X21582643Y-14183357D01*
X21596928Y-14111929D01*
X21611214Y-14069071D01*
X21625500Y-14040500D01*
X21654071Y-13997643D01*
X21668357Y-13983357D01*
X21939786Y-14326214D02*
X21768357Y-14326214D01*
X21854071Y-14326214D02*
X21854071Y-14026214D01*
X21825500Y-14069071D01*
X21796928Y-14097643D01*
X21768357Y-14111929D01*
X22196928Y-14026214D02*
X22139786Y-14026214D01*
X22111214Y-14040500D01*
X22096928Y-14054786D01*
X22068357Y-14097643D01*
X22054071Y-14154786D01*
X22054071Y-14269071D01*
X22068357Y-14297643D01*
X22082643Y-14311929D01*
X22111214Y-14326214D01*
X22168357Y-14326214D01*
X22196928Y-14311929D01*
X22211214Y-14297643D01*
X22225500Y-14269071D01*
X22225500Y-14197643D01*
X22211214Y-14169071D01*
X22196928Y-14154786D01*
X22168357Y-14140500D01*
X22111214Y-14140500D01*
X22082643Y-14154786D01*
X22068357Y-14169071D01*
X22054071Y-14197643D01*
X22582643Y-14326214D02*
X22582643Y-14026214D01*
X22711214Y-14326214D02*
X22711214Y-14169071D01*
X22696928Y-14140500D01*
X22668357Y-14126214D01*
X22625500Y-14126214D01*
X22596928Y-14140500D01*
X22582643Y-14154786D01*
X22896928Y-14326214D02*
X22868357Y-14311929D01*
X22854071Y-14297643D01*
X22839786Y-14269071D01*
X22839786Y-14183357D01*
X22854071Y-14154786D01*
X22868357Y-14140500D01*
X22896928Y-14126214D01*
X22939786Y-14126214D01*
X22968357Y-14140500D01*
X22982643Y-14154786D01*
X22996928Y-14183357D01*
X22996928Y-14269071D01*
X22982643Y-14297643D01*
X22968357Y-14311929D01*
X22939786Y-14326214D01*
X22896928Y-14326214D01*
X23168357Y-14326214D02*
X23139786Y-14311929D01*
X23125500Y-14283357D01*
X23125500Y-14026214D01*
X23396928Y-14311929D02*
X23368357Y-14326214D01*
X23311214Y-14326214D01*
X23282643Y-14311929D01*
X23268357Y-14283357D01*
X23268357Y-14169071D01*
X23282643Y-14140500D01*
X23311214Y-14126214D01*
X23368357Y-14126214D01*
X23396928Y-14140500D01*
X23411214Y-14169071D01*
X23411214Y-14197643D01*
X23268357Y-14226214D01*
X23525500Y-14311929D02*
X23554071Y-14326214D01*
X23611214Y-14326214D01*
X23639786Y-14311929D01*
X23654071Y-14283357D01*
X23654071Y-14269071D01*
X23639786Y-14240500D01*
X23611214Y-14226214D01*
X23568357Y-14226214D01*
X23539786Y-14211929D01*
X23525500Y-14183357D01*
X23525500Y-14169071D01*
X23539786Y-14140500D01*
X23568357Y-14126214D01*
X23611214Y-14126214D01*
X23639786Y-14140500D01*
X23754071Y-14440500D02*
X23768357Y-14426214D01*
X23796928Y-14383357D01*
X23811214Y-14354786D01*
X23825500Y-14311929D01*
X23839786Y-14240500D01*
X23839786Y-14183357D01*
X23825500Y-14111929D01*
X23811214Y-14069071D01*
X23796928Y-14040500D01*
X23768357Y-13997643D01*
X23754071Y-13983357D01*
M02*
